<svg fill="none" height="22" viewBox="0 0 100 22" width="100" xmlns="http://www.w3.org/2000/svg"><path clip-rule="evenodd" d="m71.2886 3.08227c0-1.30141 1.1038-2.23456 2.3904-2.23456s2.2898.93315 2.2898 2.23456-1.0032 2.21306-2.2898 2.21306-2.3904-.9113-2.3904-2.21306zm.5586 3.75305h3.6416v11.43288h-3.6416zm-19.4422-4.42543h3.6419v15.85791h-3.6419zm-21.7224 16.14061c3.3366 0 5.7135-2.5602 5.7135-5.9876 0-3.42783-2.3114-5.98765-5.6274-5.9873-1.2419 0-2.2887.36861-3.1173 1.06283v-5.22818h-3.6419v15.85795h3.3585v-.9762c.8286.8028 1.9409 1.2585 3.3146 1.2585zm-.5232-8.80684c1.5264 0 2.6384 1.19214 2.6384 2.81924 0 1.627-1.112 2.7984-2.6384 2.7984-1.5919 0-2.6826-1.1499-2.6826-2.7984 0-1.6697 1.0687-2.81924 2.6826-2.81924zm19.8442 8.52454v-11.43288h-3.3585v1.19322c-.8069-.80241-1.8976-1.23657-3.3146-1.23657-3.3365 0-5.7354 2.34346-5.7354 5.77093 0 3.4274 2.3989 5.9876 5.7354 5.9876 1.4173 0 2.5077-.4779 3.3146-1.3236v1.0413zm-6.1495-8.52453c1.5919 0 2.6606 1.14843 2.6606 2.81923 0 1.6488-1.069 2.7984-2.6606 2.7984-1.548 0-2.6387-1.1725-2.6387-2.7984 0-1.626 1.1123-2.81923 2.6387-2.81923zm20.0675-3.16843c-3.6635 0-6.2806 2.55983-6.2806 5.98756 0 3.406 2.6181 5.9877 6.2806 5.9877 3.6855 0 6.3022-2.5817 6.3022-5.9877 0-3.42773-2.6181-5.98756-6.3022-5.98756zm.0216 3.21071c1.5919 0 2.6171 1.12805 2.6171 2.75505 0 1.6489-1.0468 2.7984-2.6171 2.7988-1.5919 0-2.6387-1.1718-2.6387-2.777 0-1.6492 1.0468-2.77685 2.6387-2.77685zm16.0377 4.55585-3.0092 1.1498c.6758 1.9974 2.5296 3.0589 5.1233 3.0568 3.0312 0 4.95-1.4318 4.95-3.7968 0-2.5949-2.28-3.194-4.0282-3.6533-1.0871-.2857-1.9686-.5173-1.9686-1.14108 0-.47715.3705-.75907 1.1119-.75907.7634 0 1.3086.36861 1.5704 1.08465l3.011-1.17169c-.4581-1.60447-2.1591-2.53727-4.5144-2.53727-2.9001 0-4.7322 1.34651-4.7322 3.55926 0 2.341 2.1319 2.9778 3.8535 3.4921 1.1659.3483 2.1437.6403 2.1437 1.3674 0 .5205-.4361.8458-1.265.8458-1.1775 0-1.9409-.542-2.2462-1.4966zm20.019-2.0175c0-2.81922-2.2243-5.7709-5.9753-5.7709-3.3145 0-5.9752 2.71346-5.9752 6.0094 0 3.406 2.3989 5.9877 6.1935 5.9877 2.504 0 3.983-.96 4.8696-2.0545l-2.0942-2.0876c-.6539.8048-1.3798 1.1914-2.6667 1.1914-1.3737 0-2.3985-.6942-2.7694-1.9734h8.3306c.06-.4314.0892-.8666.0871-1.3021zm-8.4616-.9547c.3053-1.38842 1.243-2.1045 2.5731-2.1045 1.3302 0 2.2027.8028 2.508 2.1045zm-80.9274-9.87242 9.145 9.09752c.0798.0795.1431.1739.1863.2778s.0654.2153.0653.3277-.0225.2237-.0659.3275c-.0433.1038-.1068.1981-.1868.2775l-2.4797 2.4668-7.2721-7.23441-4.18351 4.16181 4.18351 4.1619 2.5937-2.5807 3.089 3.0726-5.073 5.0485c-.0799.0794-.1747.1425-.279.1855s-.2162.0651-.3291.0651c-.11291 0-.22474-.0221-.32907-.0651s-.19912-.1061-.27896-.1855l-9.144959-9.0976c-.1611124-.1604-.251611-.3779-.251611-.6047s.0904986-.4443.251611-.6047l9.143189-9.09752c.07984-.07946.17463-.14249.27896-.18549.10433-.04301.21616-.06514.32904-.06514.113 0 .2248.02213.3291.06514.1044.043.1992.10603.279.18549z" fill="#000d6e" fill-rule="evenodd"/></svg>