<svg xmlns="http://www.w3.org/2000/svg" xmlns:xlink="http://www.w3.org/1999/xlink" viewBox="0 0 294.8 76.5" class="svg-logo" width="120px" style="fill: var(--bs-blue)">
  <g>
    <rect x="65.9" y="4.9" width="11.4" height="65.8"></rect>
    <path d="M97.2,12.9c0,3.4-2.5,6.2-6.5,6.2c-3.8,0-6.3-2.7-6.3-6.2c0-3.5,2.6-6.2,6.4-6.2C94.7,6.8,97.1,9.4,97.2,12.9 M85.1,25.6
      h11.4v45.1H85.1V25.6z"></path>
    <path d="M104.2,39c0-5.2-0.2-9.5-0.4-13.4h10l0.6,6.8h0.3c2-3.5,6.9-7.8,14.4-7.8c7.9,0,16,5.1,16,19.3v26.8h-11.4V45.2
      c0-6.5-2.4-11.4-8.6-11.4c-4.5,0-7.7,3.2-8.9,6.7c-0.4,0.9-0.5,2.3-0.5,3.6v26.6h-11.4V39z"></path>
    <path d="M164.7,12.9c0,3.4-2.5,6.2-6.5,6.2c-3.8,0-6.3-2.7-6.3-6.2c0-3.5,2.6-6.2,6.4-6.2C162.2,6.8,164.6,9.4,164.7,12.9
        M152.6,25.6H164v45.1h-11.4V25.6z"></path>
    <path d="M204.8,69.3c-2.4,1.1-7.1,2.3-12.7,2.3c-14.1,0-23.3-9.1-23.3-23.1c0-13.5,9.2-24,25.1-24c4.2,0,8.4,0.9,11,2.1l-2,8.6
      c-1.8-0.9-4.6-1.8-8.6-1.8c-8.7,0-13.9,6.4-13.8,14.6c0,9.3,6.1,14.6,13.9,14.6c3.9,0,6.7-0.8,9-1.8L204.8,69.3z"></path>
    <path d="M220,45.3h0.2c1.1-1.8,2.4-3.7,3.6-5.3l11-14.5h13.7L231.8,44l19.1,26.7h-14l-13-19.9l-3.8,4.6v15.4h-11.4V4.9H220V45.3z"></path>
    <path d="M258.6,51.3c0.3,8.2,6.6,11.7,13.9,11.7c5.2,0,9-0.8,12.5-2.1l1.7,7.9c-3.9,1.6-9.2,2.9-15.8,2.9
      c-14.6,0-23.2-9.1-23.2-22.9c0-12.5,7.6-24.2,22.1-24.2c14.7,0,19.4,12.1,19.4,21.9c0,2.1-0.2,3.8-0.4,4.8H258.6z M278.4,43.3
      c0-4.2-1.8-11-9.4-11c-7,0-9.9,6.4-10.5,11H278.4z"></path>
    <path d="M38.6,36.2l2.4,9H48v15.6c-1.5,0.7-4.5,1.2-8.6,1.2c-12.9,0-21.7-8.4-21.7-22.6c0-14.5,9.4-22.4,22.7-22.4
      c6.6,0,10.8,1.2,14.2,2.7l2.5-9.2c-2.9-1.4-8.9-2.9-16.6-2.9C19.8,7.6,5.7,20.2,5.7,40c0,9.4,3.2,17.6,8.8,22.9
      c5.9,5.7,13.9,8.3,24.5,8.3c8.3,0,16.1-2,20.1-3.5V36.2H38.6z"></path>
  </g>
</svg>