<?xml version="1.0" encoding="UTF-8" standalone="no"?>
<!-- Generator: Adobe Illustrator 26.4.0, SVG Export Plug-In . SVG Version: 6.00 Build 0)  -->

<svg
   version="1.1"
   id="Ebene_1"
   x="0px"
   y="0px"
   viewBox="0 0 178.3 91.199999"
   xml:space="preserve"
   sodipodi:docname="goebel_logo.svg"
   width="178.3"
   height="91.199997"
   inkscape:version="1.3 (0e150ed, 2023-07-21)"
   xmlns:inkscape="http://www.inkscape.org/namespaces/inkscape"
   xmlns:sodipodi="http://sodipodi.sourceforge.net/DTD/sodipodi-0.dtd"
   xmlns="http://www.w3.org/2000/svg"
   xmlns:svg="http://www.w3.org/2000/svg"><defs
   id="defs30">&#10;	&#10;&#10;		&#10;		&#10;		&#10;		&#10;	</defs><sodipodi:namedview
   id="namedview30"
   pagecolor="#ffffff"
   bordercolor="#666666"
   borderopacity="1.0"
   inkscape:showpageshadow="2"
   inkscape:pageopacity="0.0"
   inkscape:pagecheckerboard="0"
   inkscape:deskcolor="#d1d1d1"
   inkscape:zoom="4.3505038"
   inkscape:cx="89.300003"
   inkscape:cy="62.636424"
   inkscape:window-width="1392"
   inkscape:window-height="916"
   inkscape:window-x="0"
   inkscape:window-y="38"
   inkscape:window-maximized="0"
   inkscape:current-layer="Ebene_1" />&#10;<style
   type="text/css"
   id="style1">&#10;	.st0{fill:#3C3C3B;}&#10;	.st1{fill:#BE9B53;}&#10;	.st2{display:none;}&#10;	.st3{display:inline;fill:#FFED00;}&#10;</style>&#10;<g
   id="g30"><g
     id="g11">&#10;			<path
   class="st0"
   d="M 12.4,88.7 V 83.5 L 9.5,83.1 V 82.1 H 17 V 83.1 L 15.1,83.5 V 89.8 C 13.9,90.3 11.6,91.2 8.3,91.2 C 3.7,91.2 0,88 0,82.1 C 0,76.5 4.2,73 9.2,73 C 11.1,73 13.5,73.8 15.2,74.8 V 78.3 H 14.4 C 13.4,75.3 11.3,74.3 9.3,74.3 C 6,74.3 3,76.5 3,82.2 C 3,87.8 5.9,89.9 9.2,89.9 C 10.1,89.8 11.5,89.5 12.4,88.7 Z"
   id="path1" />&#10;			<path
   class="st0"
   d="M 26.8,77.7 C 30.7,77.7 33.5,80.2 33.5,84.5 C 33.5,88.9 30.5,91.2 26.8,91.2 C 23.1,91.2 20,88.8 20,84.5 C 20,80.3 23.1,77.7 26.8,77.7 Z M 26.8,89.9 C 28.9,89.9 30.8,88.4 30.8,84.5 C 30.8,80.9 29,79 26.8,79 C 24.6,79 22.8,80.9 22.8,84.5 C 22.8,88 24.6,89.9 26.8,89.9 Z M 24.7,75.9 C 24,75.9 23.4,75.3 23.4,74.6 C 23.4,73.9 24,73.3 24.7,73.3 C 25.4,73.3 26,73.9 26,74.6 C 26,75.3 25.4,75.9 24.7,75.9 Z M 28.9,75.9 C 28.2,75.9 27.6,75.3 27.6,74.6 C 27.6,73.9 28.2,73.3 28.9,73.3 C 29.5,73.3 30.2,73.9 30.2,74.6 C 30.2,75.3 29.6,75.9 28.9,75.9 Z"
   id="path2" />&#10;			<path
   class="st0"
   d="M 37,90.9 V 89.9 L 38.8,89.5 V 79.2 L 37,78.8 V 77.8 H 43.8 C 45.2,77.8 47.7,78.4 47.7,80.8 C 47.7,81.9 47.1,83.3 45.3,83.8 V 84.1 C 47,84.4 48.3,85.6 48.3,87.3 C 48.3,89.4 46.4,90.8 43.5,90.8 H 37 Z M 41.3,83.6 H 42.8 C 44.5,83.6 45,82.5 45,81.3 C 45,79.7 43.9,79.2 42.8,79.2 H 41.3 Z M 42.7,84.8 H 41.2 V 89.5 H 43.1 C 44.8,89.5 45.6,88.5 45.6,87.2 C 45.6,86 44.7,84.8 42.7,84.8 Z"
   id="path3" />&#10;			<path
   class="st0"
   d="M 60.6,89.7 L 62,87.5 H 63.1 L 62.6,90.9 H 51.7 V 89.9 L 53.5,89.5 V 79.2 L 51.7,78.8 V 77.8 H 61.9 L 62.2,80.9 H 61.2 L 59.9,79 H 56 V 83.5 H 58.4 L 59.1,82.1 H 59.9 V 86.3 H 59.1 L 58.4,84.7 H 56 V 89.5 H 60.6 Z"
   id="path4" />&#10;			<path
   class="st0"
   d="M 66.2,90.9 V 89.9 L 68,89.5 V 79.2 L 66.2,78.8 V 77.8 H 72.3 V 78.8 L 70.4,79.2 V 89.6 H 74.3 L 76,87.2 H 77.1 L 76.6,90.8 H 66.2 Z"
   id="path5" />&#10;			<path
   class="st0"
   d="M 105.3,73.2 V 74.2 L 103.1,74.6 V 89.5 L 105.3,89.9 V 90.9 H 98.3 V 89.9 L 100.5,89.5 V 82.3 H 91.8 V 89.5 L 94,89.9 V 90.9 H 87 V 89.9 L 89.2,89.5 V 74.6 L 87,74.2 V 73.2 H 94 V 74.2 L 91.8,74.6 V 80.9 H 100.5 V 74.6 L 98.3,74.2 V 73.2 Z"
   id="path6" />&#10;			<path
   class="st0"
   d="M 115.5,77.7 C 119.4,77.7 122.2,80.2 122.2,84.5 C 122.2,88.9 119.2,91.2 115.5,91.2 C 111.8,91.2 108.7,88.8 108.7,84.5 C 108.8,80.3 111.8,77.7 115.5,77.7 Z M 115.5,89.9 C 117.6,89.9 119.5,88.4 119.5,84.5 C 119.5,80.9 117.7,79 115.5,79 C 113.3,79 111.5,80.9 111.5,84.5 C 111.5,88 113.4,89.9 115.5,89.9 Z"
   id="path7" />&#10;			<path
   class="st0"
   d="M 137.4,77.9 L 138,81.5 H 136.9 L 135.3,79 H 132.8 V 89.4 L 134.7,89.8 V 90.8 H 128.5 V 89.8 L 130.4,89.4 V 79 H 127.9 L 126.2,81.5 H 125.2 L 125.8,77.9 Z"
   id="path8" />&#10;			<path
   class="st0"
   d="M 149.5,89.7 L 150.9,87.5 H 152 L 151.5,90.9 H 140.7 V 89.9 L 142.5,89.5 V 79.2 L 140.7,78.8 V 77.8 H 150.9 L 151.2,80.9 H 150.2 L 148.9,79 H 145 V 83.5 H 147.4 L 148.1,82.1 H 148.9 V 86.3 H 148.1 L 147.4,84.7 H 145 V 89.5 H 149.5 Z"
   id="path9" />&#10;			<path
   class="st0"
   d="M 155.1,90.9 V 89.9 L 156.9,89.5 V 79.2 L 155.1,78.8 V 77.8 H 161.2 V 78.8 L 159.3,79.2 V 89.6 H 163.2 L 164.9,87.2 H 166 L 165.5,90.8 H 155.1 Z"
   id="path10" />&#10;			<path
   class="st0"
   d="M 169.4,86.5 H 170.6 C 171.1,88.7 172.2,89.9 173.9,89.9 C 175.2,89.9 176.1,89 176.1,87.9 C 176.1,86.8 175.6,86.2 173.4,85.2 C 170.9,84.2 169.7,83 169.7,81.3 C 169.7,79.6 171.2,77.7 173.8,77.7 C 174.9,77.7 175.6,78.1 176.2,78.3 L 177.1,77.9 H 177.7 L 178.2,81.8 H 177 C 176.4,79.8 175.2,78.9 173.9,78.9 C 172.7,78.9 171.9,79.5 171.9,80.7 C 171.9,81.8 172.8,82.4 174.9,83.2 C 177.1,84 178.3,85.2 178.3,87.2 C 178.3,89.8 176.4,91.1 173.9,91.1 C 173,91.1 172,90.8 171.4,90.3 L 170.3,90.7 H 169.4 Z"
   id="path11" />&#10;		</g><g
     id="g12">&#10;			<path
   class="st1"
   d="M 113.4,0 H 65.2 C 62.1,0 59.5,2.5 59.5,5.5 V 27.9 C 60.7,27.6 62.1,27.4 63.6,27.4 C 68.5,27.1 72.5,28.6 76.6,32.5 C 76.6,32.5 76.6,32.5 76.7,32.6 C 82.8,38 84.6,46.4 85,48.4 C 85,48.7 84.9,48.9 84.7,49.1 L 82,50.8 C 81.6,51.1 81,50.8 81,50.3 C 80.3,42.1 75.8,36.5 75.4,36 C 75.3,36 75.3,35.9 75.2,35.9 C 71.2,31.6 66.4,29 61.9,29.3 C 61.2,29.3 60.4,29.5 59.7,29.6 V 54.1 C 59.7,57.2 62.2,59.6 65.4,59.6 H 89.9 C 92.6,57.7 95.1,55.4 97.2,52.6 C 100.9,47.7 104.5,40.6 106.8,32.8 C 108,28.5 108.6,25.2 108.7,22.5 C 108.7,21.8 108.3,21.8 107.5,21.8 C 106.6,21.8 106.3,21.8 106.5,22.8 C 106.6,23.3 106.6,24 106.7,24.8 C 106.9,27.9 105.3,31.5 101.8,34.8 C 98.2,38.2 95.1,39.1 91.5,39.3 C 85.8,39.6 81.7,35.9 81.4,30.2 C 81,23.6 84.1,17.2 89.8,12.7 C 94.4,9.1 99.8,7.1 105.1,6.8 C 105.7,6.8 106.3,6.8 107,6.8 C 107.6,6.8 108,7.3 107.9,7.9 L 107.5,9.7 C 107.4,10.1 107.1,10.3 106.7,10.2 C 105.5,10 104.7,9.9 103.8,9.8 C 103.1,9.7 102,9.7 100.9,9.7 C 98.2,9.9 95.7,10.8 93.6,12.1 C 90.2,14 87.9,16.8 86.4,20.3 C 85.3,23 84.7,25.6 84.8,28.2 C 85.1,33.7 88.7,37.1 93.8,36.8 C 99.5,36.5 104.1,31.5 103.8,26.1 C 103.8,25.8 103.7,25.5 103.7,25.3 C 103.7,25 103.4,23.9 102.6,22.6 C 101.8,21.2 101,20.5 104,20.4 V 20.4 L 111.4,20 C 112.2,20 112.8,20.6 112.7,21.4 C 110.4,35.1 105,46.8 97.7,55.7 C 96.5,57.2 95.2,58.5 93.9,59.7 H 113.6 C 116.7,59.7 119.3,57.2 119.3,54.2 V 5.5 C 119.1,2.5 116.5,0 113.4,0 Z"
   id="path12" />&#10;		</g></g>&#10;<g
   id="Abstände"
   class="st2">&#10;	<rect
   x="92.800003"
   y="-11.8"
   class="st3"
   width="11.8"
   height="11.8"
   id="rect23" />&#10;	<rect
   x="92.800003"
   y="-23.6"
   class="st3"
   width="11.8"
   height="11.8"
   id="rect24" />&#10;	<rect
   x="93.199997"
   y="136.8"
   class="st3"
   width="11.8"
   height="11.8"
   id="rect25" />&#10;	<rect
   x="93.199997"
   y="125"
   class="st3"
   width="11.8"
   height="11.8"
   id="rect26" />&#10;	<rect
   x="190.39999"
   y="97.199997"
   class="st3"
   width="11.8"
   height="11.8"
   id="rect27" />&#10;	<rect
   x="178.60001"
   y="97.199997"
   class="st3"
   width="11.8"
   height="11.8"
   id="rect28" />&#10;	<rect
   x="-11.7"
   y="95.300003"
   class="st3"
   width="11.8"
   height="11.8"
   id="rect29" />&#10;	<rect
   x="-23.5"
   y="95.300003"
   class="st3"
   width="11.8"
   height="11.8"
   id="rect30" />&#10;</g>&#10;</svg>
