<?xml version="1.0" encoding="utf-8"?>
<!-- Generator: Adobe Illustrator 23.0.3, SVG Export Plug-In . SVG Version: 6.00 Build 0)  -->
<svg version="1.1" id="Ebene_1" xmlns="http://www.w3.org/2000/svg" xmlns:xlink="http://www.w3.org/1999/xlink" x="0px" y="0px"
	 viewBox="0 0 182 40" style="enable-background:new 0 0 182 40;" xml:space="preserve">
<style type="text/css">
	.st0{fill:#ED7242;}
	.st1{fill:#CF043F;}
	.st2{fill:#FFBF0B;}
	.st3{fill:#019AD2;}
	.st4{fill:#64428A;}
	.st5{fill:#87BF4D;}
	.st6{fill:#AAAAA7;}
</style>
<path d="M54.8,21.8h-5.9v6.9h-3.4V12.3h3.4v6.5h5.9v-6.5h3.4v16.3h-3.4V21.8z M60.5,21.8v-2.6h7v2.6H60.5z M79.2,21.8h-5.8v6.9h-3.4
	V12.3h3.4v6.5h5.8v-6.5h3.4v16.3h-3.4V21.8z M90.7,29c-3.6,0-5.6-2.5-5.6-6.3c0-3.8,2-6.3,5.6-6.3c3.6,0,5.6,2.5,5.6,6.3
	C96.3,26.5,94.3,29,90.7,29z M90.7,19.1c-1.6,0-2.2,1.4-2.2,3.6c0,2.2,0.6,3.6,2.2,3.6c1.6,0,2.2-1.4,2.2-3.6
	C93,20.5,92.4,19.1,90.7,19.1z M99,19.2h-1.5v-2.5H99V14c0.3-0.2,1.5-0.7,3.3-0.8v3.5h2.8v2.5h-2.8v5.3c0,1.5,0.4,1.8,1.4,1.8
	c0.6,0,1.2-0.1,1.8-0.3v2.6c-0.3,0.1-1.3,0.3-2.5,0.3c-2.9,0-4-1.5-4-4.1V19.2z M111.1,24.1c-0.6,0.1-0.9,0.4-0.9,0.9
	s0.5,1.3,1.8,1.3c1.4,0,3.5-0.5,5-1.1v2.6c-1.1,0.6-2.9,1.1-5,1.1c-3.7,0-5.6-2.5-5.6-6.3c0-3.8,2.4-6.3,5.9-6.3
	c3.3,0,4.7,1.6,4.7,3.6c0,2.2-1.3,3-3.9,3.6L111.1,24.1z M109.8,22.3v0.2c0.2-0.2,0.4-0.3,1-0.4l1.4-0.4c1.1-0.3,1.6-0.7,1.6-1.4
	c0-0.8-0.5-1.2-1.5-1.2C110.7,19,109.8,20.3,109.8,22.3z M119.4,11.7h3.3v12.9c0,1.2,0.3,1.4,1,1.4h0.6v2.6c-0.3,0.1-1,0.2-1.7,0.2
	c-2.2,0-3.2-1.1-3.2-4V11.7z M133.9,17.2v2.6c-1.1-0.5-2.5-0.8-3.6-0.8c-0.9,0-1.5,0.4-1.5,1c0,0.6,0.4,0.9,1.5,1.2l1.1,0.4
	c2,0.7,3,1.8,3,3.5c0,2.5-1.8,3.9-5.1,3.9c-1.5,0-2.6-0.3-3.9-0.9v-2.8c1.2,0.7,2.7,1.1,3.9,1.1c1.1,0,1.7-0.4,1.7-1.1
	c0-0.6-0.4-0.9-1.4-1.2l-1.1-0.4c-1.9-0.6-3-1.6-3-3.6c0-2,1.4-3.6,4.6-3.6C131.7,16.4,133,16.8,133.9,17.2z M138.3,25.6
	c0.9,0,1.7,0.7,1.7,1.7c0,0.9-0.8,1.7-1.7,1.7c-0.9,0-1.7-0.7-1.7-1.7C136.6,26.3,137.3,25.6,138.3,25.6z M149.9,28.5
	c-0.9,0.4-1.7,0.5-2.8,0.5c-3.4,0-5.3-2.5-5.3-6.2c0-3.7,2-6.2,5.3-6.2c1.1,0,1.9,0.1,2.8,0.5v2c-1-0.4-1.7-0.5-2.8-0.5
	c-2.2,0-3,1.8-3,4.3c0,2.6,0.8,4.3,3,4.3c1.1,0,1.8-0.1,2.8-0.5V28.5z M157,28.9c-3.4,0-5.3-2.5-5.3-6.2c0-3.7,2-6.2,5.3-6.2
	s5.3,2.5,5.3,6.2C162.3,26.4,160.3,28.9,157,28.9z M157,18.4c-2.2,0-3,1.8-3,4.3c0,2.6,0.8,4.3,3,4.3c2.2,0,3-1.8,3-4.3
	C159.9,20.1,159.1,18.4,157,18.4z M174.3,18.8c0.7-1.3,1.9-2.4,3.9-2.4c1.2,0,2.7,0.6,3.4,2.1c0.3,0.7,0.4,1.7,0.4,3.2v7h-2.3v-6.2
	c0-1.8,0-2.1-0.2-2.6c-0.3-0.8-0.9-1.3-1.9-1.3c-2,0-3,1.4-3,4.1v6h-2.3v-6.2c0-1.8,0-2.1-0.2-2.6c-0.3-0.8-0.9-1.3-1.9-1.3
	c-1.9,0-3,1.3-3,4.1v6H165V16.7h1.9c0.2,0.5,0.2,1.3,0.2,1.8c0.7-1.3,1.7-2.2,3.7-2.2C172.1,16.4,173.7,17,174.3,18.8z"/>
<g>
	<path class="st0" d="M9.3,20.5c0,2.6-2.1,4.7-4.7,4.7c-2.6,0-4.7-2.1-4.7-4.7c0-2.6,2.1-4.7,4.7-4.7C7.2,15.8,9.3,17.9,9.3,20.5z"
		/>
	<path class="st1" d="M4.7,3C2.1,3,0,5.1,0,7.7c0,2.6,2.1,4.7,4.7,4.7c2.6,0,4.7-2.1,4.7-4.7C9.3,5.1,7.2,3,4.7,3z"/>
	<path class="st2" d="M4.7,28.7c-2.6,0-4.7,2.1-4.7,4.7C0,35.9,2.1,38,4.7,38c2.6,0,4.7-2.1,4.7-4.7C9.3,30.8,7.2,28.7,4.7,28.7z"/>
	<path class="st3" d="M26.8,15.8c-2.6,0-4.7,2.1-4.7,4.7c0,2.6,2.1,4.7,4.7,4.7c2.6,0,4.7-2.1,4.7-4.7
		C31.5,17.9,29.4,15.8,26.8,15.8z"/>
	<path class="st4" d="M26.8,3c-2.6,0-4.7,2.1-4.7,4.7c0,2.6,2.1,4.7,4.7,4.7c2.6,0,4.7-2.1,4.7-4.7C31.5,5.1,29.4,3,26.8,3z"/>
	<path class="st5" d="M26.8,28.7c-2.6,0-4.7,2.1-4.7,4.7c0,2.6,2.1,4.7,4.7,4.7c2.6,0,4.7-2.1,4.7-4.7
		C31.5,30.8,29.4,28.7,26.8,28.7z"/>
	<path class="st6" d="M15.8,16.1c-2.4,0-4.4,2-4.4,4.4c0,2.4,2,4.4,4.4,4.4c2.4,0,4.4-2,4.4-4.4C20.2,18.1,18.2,16.1,15.8,16.1z"/>
</g>
</svg>
