<?xml version="1.0" encoding="UTF-8" standalone="no"?>
<!-- Generator: Adobe Illustrator 23.0.3, SVG Export Plug-In . SVG Version: 6.00 Build 0)  -->

<svg
   version="1.1"
   id="Ebene_1"
   x="0px"
   y="0px"
   viewBox="0 0 135 40"
   xml:space="preserve"
   sodipodi:docname="h-hotels.svg"
   width="135"
   height="40"
   inkscape:version="1.3 (0e150ed, 2023-07-21)"
   xmlns:inkscape="http://www.inkscape.org/namespaces/inkscape"
   xmlns:sodipodi="http://sodipodi.sourceforge.net/DTD/sodipodi-0.dtd"
   xmlns="http://www.w3.org/2000/svg"
   xmlns:svg="http://www.w3.org/2000/svg"><defs
   id="defs8" /><sodipodi:namedview
   id="namedview8"
   pagecolor="#ffffff"
   bordercolor="#666666"
   borderopacity="1.0"
   inkscape:showpageshadow="2"
   inkscape:pageopacity="0.0"
   inkscape:pagecheckerboard="0"
   inkscape:deskcolor="#d1d1d1"
   inkscape:zoom="4.2692308"
   inkscape:cx="75.540541"
   inkscape:cy="20.027027"
   inkscape:window-width="1392"
   inkscape:window-height="916"
   inkscape:window-x="0"
   inkscape:window-y="38"
   inkscape:window-maximized="0"
   inkscape:current-layer="Ebene_1" />&#10;<style
   type="text/css"
   id="style1">&#10;	.st0{fill:#ED7242;}&#10;	.st1{fill:#CF043F;}&#10;	.st2{fill:#FFBF0B;}&#10;	.st3{fill:#019AD2;}&#10;	.st4{fill:#64428A;}&#10;	.st5{fill:#87BF4D;}&#10;	.st6{fill:#AAAAA7;}&#10;</style>&#10;<path
   id="path1"
   d="M 119.40039,11.699219 V 24.800781 C 119.40039,27.700778 120.39961,28.800781 122.59961,28.800781 C 123.29961,28.800781 124.00078,28.699609 124.30078,28.599609 V 26 H 123.69922 C 122.99922,26 122.69922,25.799608 122.69922,24.599609 V 11.699219 Z M 45.5,12.300781 V 28.699219 H 48.900391 V 21.800781 H 54.800781 V 28.599609 H 58.199219 V 12.300781 H 54.800781 V 18.800781 H 48.900391 V 12.300781 Z M 70,12.300781 V 28.699219 H 73.400391 V 21.800781 H 79.199219 V 28.599609 H 82.599609 V 12.300781 H 79.199219 V 18.800781 H 73.400391 V 12.300781 Z M 102.30078,13.199219 C 100.50078,13.299219 99.3,13.8 99,14 V 16.699219 H 97.5 V 19.199219 H 99 V 24.800781 C 99,27.400779 100.1,28.900391 103,28.900391 C 104.2,28.900391 105.2,28.699609 105.5,28.599609 V 26 C 104.9,26.2 104.29922,26.300781 103.69922,26.300781 C 102.69922,26.300781 102.30078,25.999999 102.30078,24.5 V 19.199219 H 105.09961 V 16.699219 H 102.30078 Z M 112.30078,16.300781 C 108.80078,16.300781 106.40039,18.799613 106.40039,22.599609 C 106.40039,26.399606 108.3,28.900391 112,28.900391 C 114.1,28.900391 115.9,28.400781 117,27.800781 V 25.199219 C 115.5,25.799218 113.4,26.300781 112,26.300781 C 110.7,26.300781 110.19922,25.5 110.19922,25 C 110.19922,24.500001 110.49961,24.199609 111.09961,24.099609 L 113.09961,23.5 C 115.69961,22.900001 117,22.100388 117,19.900391 C 117,17.900393 115.60078,16.300781 112.30078,16.300781 Z M 90.699219,16.400391 C 87.099222,16.400391 85.099609,18.899223 85.099609,22.699219 C 85.099609,26.499215 87.099222,29 90.699219,29 C 94.299215,29 96.300781,26.499215 96.300781,22.699219 C 96.300781,18.899223 94.299215,16.400391 90.699219,16.400391 Z M 130.09961,16.5 C 126.89961,16.5 125.5,18.099611 125.5,20.099609 C 125.5,22.099607 126.6,23.099219 128.5,23.699219 L 129.59961,24.099609 C 130.59961,24.399609 131,24.700782 131,25.300781 C 131,26.000781 130.40078,26.400391 129.30078,26.400391 C 128.10078,26.400391 126.60039,26.000781 125.40039,25.300781 V 28.099609 C 126.70039,28.699609 127.80078,29 129.30078,29 C 132.60078,29 134.40039,27.599607 134.40039,25.099609 C 134.40039,23.399611 133.40039,22.299609 131.40039,21.599609 L 130.30078,21.199219 C 129.20078,20.899219 128.80078,20.599999 128.80078,20 C 128.80078,19.400001 129.40078,19 130.30078,19 C 131.40078,19 132.80039,19.300782 133.90039,19.800781 V 17.199219 C 133.00039,16.799219 131.69961,16.4 130.09961,16.5 Z M 90.699219,19.099609 C 92.399217,19.099609 93.000391,20.499221 92.900391,22.699219 C 92.900391,24.899217 92.299217,26.300781 90.699219,26.300781 C 89.09922,26.300781 88.5,24.899217 88.5,22.699219 C 88.5,20.499221 89.09922,19.099609 90.699219,19.099609 Z M 112.30078,19.099609 C 113.30078,19.099609 113.80078,19.500782 113.80078,20.300781 C 113.80078,21.000781 113.29922,21.399219 112.19922,21.699219 L 110.80078,22.099609 C 110.20078,22.199609 110.00078,22.3 109.80078,22.5 V 22.300781 C 109.80078,20.300783 110.70078,18.999609 112.30078,19.099609 Z M 60.5,19.199219 V 21.800781 H 67.5 V 19.199219 Z" />&#10;<g
   id="g8">&#10;	<path
   class="st0"
   d="M 9.3,20.5 C 9.3,23.1 7.2,25.2 4.6,25.2 C 2,25.2 -0.1,23.1 -0.1,20.5 C -0.1,17.9 2,15.8 4.6,15.8 C 7.2,15.8 9.3,17.9 9.3,20.5 Z"
   id="path2" />&#10;	<path
   class="st1"
   d="M 4.7,3 C 2.1,3 0,5.1 0,7.7 C 0,10.3 2.1,12.4 4.7,12.4 C 7.3,12.4 9.4,10.3 9.4,7.7 C 9.3,5.1 7.2,3 4.7,3 Z"
   id="path3" />&#10;	<path
   class="st2"
   d="M 4.7,28.7 C 2.1,28.7 0,30.8 0,33.4 C 0,35.9 2.1,38 4.7,38 C 7.3,38 9.4,35.9 9.4,33.3 C 9.3,30.8 7.2,28.7 4.7,28.7 Z"
   id="path4" />&#10;	<path
   class="st3"
   d="M 26.8,15.8 C 24.2,15.8 22.1,17.9 22.1,20.5 C 22.1,23.1 24.2,25.2 26.8,25.2 C 29.4,25.2 31.5,23.1 31.5,20.5 C 31.5,17.9 29.4,15.8 26.8,15.8 Z"
   id="path5" />&#10;	<path
   class="st4"
   d="M 26.8,3 C 24.2,3 22.1,5.1 22.1,7.7 C 22.1,10.3 24.2,12.4 26.8,12.4 C 29.4,12.4 31.5,10.3 31.5,7.7 C 31.5,5.1 29.4,3 26.8,3 Z"
   id="path6" />&#10;	<path
   class="st5"
   d="M 26.8,28.7 C 24.2,28.7 22.1,30.8 22.1,33.4 C 22.1,36 24.2,38.1 26.8,38.1 C 29.4,38.1 31.5,36 31.5,33.4 C 31.5,30.8 29.4,28.7 26.8,28.7 Z"
   id="path7" />&#10;	<path
   class="st6"
   d="M 15.8,16.1 C 13.4,16.1 11.4,18.1 11.4,20.5 C 11.4,22.9 13.4,24.9 15.8,24.9 C 18.2,24.9 20.2,22.9 20.2,20.5 C 20.2,18.1 18.2,16.1 15.8,16.1 Z"
   id="path8" />&#10;</g>&#10;</svg>
