<svg height="471.41895" viewBox="0 0 995.88381 471.41895" width="995.88379" xmlns="http://www.w3.org/2000/svg"><g transform="translate(-731.71946 -4357.8022)"><path d="m731.71947 4712.9821h130.0116v-355.18h-130.0116z" fill="#000004"/><path d="m1015.1965 4582.6084v-223.3716c0-.4936-.4002-.8939-.8941-.8939h-129.3212c-.49813 0-.90707.4079-.90707.9068v275.2075c0 43.7004 35.95014 79.1277 80.29454 79.1277h120.69773c.4997 0 .9071-.4093.9071-.9074v-130.0691z" fill="#000004"/><path d="m1325.3247 4361.3829c-31.604 2.4114-51.1414 26.5099-51.1414 26.5099s-14.556-20.3341-51.1413-26.5387c-28.772-4.8801-114.7251-2.4544-114.7251-2.4544v354.731h129.6971v-194.2091l37.4547 37.7695 37.4533-37.7695v194.2091h127.1267c0-118.2436 0-236.4874 0-354.731 0 0-85.5107.2555-114.724 2.4832" fill="#e11227"/><g fill="#000004"><path d="m1610.4633 4644.8716h-21.56v-219.024h21.56zm37.2067-286.7139h-105.0813c-44.1467 0-79.9347 34.7728-79.9347 77.6679v200.2768c0 42.8949 35.788 77.6673 79.9347 77.6673h105.0813c44.1466 0 79.9333-34.7724 79.9333-77.6673v-200.2768c0-42.8951-35.7867-77.6679-79.9333-77.6679"/><path d="m770.12374 4773.1257h-15.45907v-7.8092c0-4.9281-.1376-8.0085-.4252-9.2406-.2872-1.2503-.97507-1.8663-2.0512-1.8663-.9252 0-1.5632.5253-1.90107 1.5945-.33706 1.0511-.5 3.7868-.5 8.1714v41.2384c0 3.8412.16294 6.3957.5 7.6097.33787 1.2144 1.0008 1.8301 2.00134 1.8301 1.10093 0 1.83866-.6882 2.23853-2.0656.38813-1.3768.58813-4.0765.58813-8.0809v-10.1828h-3.00173v-13.0455h18.01027v46.0944h-9.718l-1.426-6.1606c-1.05027 2.6634-2.37614 4.6568-3.96427 5.9973-1.60147 1.3407-3.48973 2.0111-5.65347 2.0111-2.58893 0-5.00293-.9059-7.26653-2.736-2.25147-1.8296-3.96467-4.0766-5.128-6.7763-1.17547-2.6816-1.9008-5.5083-2.2012-8.4612-.28773-2.9533-.43773-7.3924-.43773-13.2995v-25.5473c0-8.208.30053-14.1687.9128-17.8832.61306-3.7327 2.364-7.1388 5.25306-10.2372 2.88947-3.0981 6.62894-4.6383 11.2188-4.6383 4.51507 0 8.25454 1.3407 11.23134 4.0403 2.97666 2.6997 4.92773 5.8889 5.8284 9.5849.90026 3.7142 1.3508 9.0778 1.3508 16.1439z"/><path d="m791.61067 4741.3815v68.815h9.3052v17.1764h-24.76387v-85.9914z"/><path d="m804.6932 4741.3815h25.73934v17.1764h-10.28107v16.4157h9.6052v16.3071h-9.6052v18.9158h11.33133v17.1764h-26.7896z"/><path d="m851.33174 4741.3815v85.9914h-15.45867v-85.9914z"/><path d="m890.14067 4767.4727h-14.33267v-6.3598c0-2.9714-.18787-4.8737-.55067-5.6893-.36293-.8153-.96306-1.2136-1.81346-1.2136-.9252 0-1.6256.5431-2.10147 1.6485-.47507 1.0871-.7124 2.7358-.7124 4.9644 0 2.8627.2752 5.019.81267 6.4684.52533 1.4312 1.97626 3.1891 4.36533 5.2547 6.84093 5.9248 11.156 10.7984 12.932 14.5852 1.78853 3.7871 2.67667 9.8929 2.67667 18.3 0 6.124-.5004 10.6356-1.4884 13.5527-.98827 2.8993-2.88907 5.3272-5.72827 7.2842-2.82667 1.9748-6.116 2.953-9.8804 2.953-4.1272 0-7.64227-1.1414-10.56867-3.4062-2.914-2.265-4.8152-5.1457-5.72826-8.6425-.90027-3.5153-1.3504-8.498-1.3504-14.93v-5.6348h14.33266v10.4541c0 3.2255.20027 5.291.60027 6.2147.40053.9245 1.11333 1.3773 2.1392 1.3773 1.02533 0 1.7884-.5798 2.2884-1.7576.5004-1.1594.75067-2.8988.75067-5.182 0-5.0552-.47547-8.3709-1.426-9.911-.988-1.558-3.38947-4.1674-7.21667-7.8271-3.82707-3.6783-6.35333-6.3599-7.6044-8.0265-1.23773-1.6668-2.276-3.9682-3.08893-6.9034-.81307-2.9352-1.22574-6.6856-1.22574-11.2517 0-6.5771.5752-11.3967 1.73854-14.4408 1.16293-3.0436 3.02666-5.4175 5.616-7.1384 2.58866-1.7215 5.70253-2.5731 9.3676-2.5731 4.00173 0 7.40413.9419 10.2304 2.8086 2.81426 1.8841 4.6776 4.2396 5.59066 7.1025.9132 2.8445 1.37574 7.6823 1.37574 14.5131z"/><path d="m913.94147 4784.758v14.7848h-19.36054v-14.7848z"/><path d="m918.40667 4741.3815h15.35853c4.8528 0 8.5296.5438 11.0312 1.6486 2.50133 1.0874 4.51507 3.3158 6.05333 6.6498 1.53827 3.352 2.30094 8.7333 2.30094 16.162 0 5.0188-.53747 8.516-1.62587 10.4908-1.08773 1.9929-3.23907 3.4968-6.44067 4.566 3.57694 1.1773 6.00334 3.1162 7.27894 5.816 1.276 2.7174 1.9136 6.867 1.9136 12.4837v7.9721c0 5.816-.46267 10.1103-1.37574 12.9188-.9132 2.7902-2.36413 4.7108-4.36506 5.7435-2.0012 1.0329-6.1032 1.5401-12.3068 1.5401h-17.8224zm15.45866 14.6762v19.1332c.6504-.036 1.1504-.0541 1.51334-.0541 1.47586 0 2.426-.5439 2.82626-1.6127.41307-1.087.61307-4.1854.61307-9.2765 0-2.7001-.16253-4.5841-.5004-5.6715-.33747-1.0689-.7752-1.7576-1.31307-2.0474-.53773-.2718-1.58853-.4347-3.1392-.471zm0 32.5051v24.1343c2.126-.109 3.4896-.598 4.07694-1.4858.58813-.8878.87573-3.0804.87573-6.5594v-8.0443c0-3.6964-.26267-5.9248-.7876-6.7223-.52573-.7789-1.914-1.2136-4.16507-1.3225"/><path d="m986.46947 4741.3815 8.83013 85.9914h-15.7712l-.83787-15.437h-5.56573l-.838 15.437h-15.97147l7.82934-85.9914zm-8.19214 55.3345c-.73773-9.7477-1.5132-21.8151-2.33866-36.2192-1.52587 16.5245-2.4888 28.5913-2.9016 36.2192z"/><path d="m1032.9955 4741.3815v57.4908c0 6.5226-.1496 11.1069-.4372 13.734-.3006 2.6453-1.1634 5.3632-2.6019 8.1354-1.4381 2.7904-3.3392 4.8923-5.6905 6.3235-2.364 1.4313-5.1406 2.1559-8.3422 2.1559-3.5394 0-6.6662-.8515-9.3678-2.5546-2.7142-1.703-4.7404-3.9137-6.0783-6.6316-1.3508-2.736-2.1388-5.6166-2.38867-8.6426-.23773-3.0259-.3628-9.4035-.3628-19.0972v-50.9136h15.45827v64.5025c0 3.7508.1379 6.1607.4131 7.1936.2752 1.0507.8378 1.5761 1.6758 1.5761.9506 0 1.576-.5798 1.8508-1.7212.2752-1.1596.4131-3.8774.4131-8.1536v-63.3974z"/><path d="m1071.6299 4767.4727h-14.3332v-6.3598c0-2.9714-.1875-4.8737-.5499-5.6893-.3628-.8153-.9633-1.2136-1.8137-1.2136-.9256 0-1.626.5431-2.1011 1.6485-.4755 1.0871-.7132 2.7358-.7132 4.9644 0 2.8627.2751 5.019.8133 6.4684.525 1.4312 1.9756 3.1891 4.3646 5.2547 6.8417 5.9248 11.1565 10.7984 12.9325 14.5852 1.7884 3.7871 2.6763 9.8929 2.6763 18.3 0 6.124-.5004 10.6356-1.488 13.5527-.9884 2.8993-2.8895 5.3272-5.7283 7.2842-2.8268 1.9748-6.116 2.953-9.8805 2.953-4.1272 0-7.6418-1.1414-10.5687-3.4062-2.914-2.265-4.8151-5.1457-5.7283-8.6425-.9002-3.5153-1.3508-8.498-1.3508-14.93v-5.6348h14.3332v10.4541c0 3.2255.1999 5.291.6006 6.2147.4002.9245 1.1126 1.3773 2.1384 1.3773s1.7885-.5798 2.2889-1.7576c.5004-1.1594.7507-2.8988.7507-5.182 0-5.0552-.4755-8.3709-1.4262-9.911-.9878-1.558-3.3894-4.1674-7.2165-7.8271-3.8272-3.6783-6.3535-6.3599-7.6041-8.0265-1.2386-1.6668-2.2764-3.9682-3.0894-6.9034-.8125-2.9352-1.2257-6.6856-1.2257-11.2517 0-6.5771.5756-11.3967 1.7387-14.4408 1.1629-3.0436 3.0266-5.4175 5.6156-7.1384 2.5885-1.7215 5.7029-2.5731 9.3676-2.5731 4.0021 0 7.404.9419 10.2308 2.8086 2.8141 1.8841 4.6774 4.2396 5.5902 7.1025.9135 2.8445 1.3762 7.6823 1.3762 14.5131z"/><path d="m1108.8631 4741.3815v17.1764h-9.0803v68.815h-15.4583v-68.815h-9.1552v-17.1764z"/><path d="m1112.3901 4741.3815h25.7394v17.1764h-10.2807v16.4157h9.6056v16.3071h-9.6056v18.9158h11.3313v17.1764h-26.79z"/><path d="m1159.0288 4741.3815v68.815h9.3052v17.1764h-24.7639v-85.9914z"/><path d="m1187.57 4741.3815v68.815h9.3053v17.1764h-24.764v-85.9914z"/><path d="m1200.6527 4741.3815h25.7386v17.1764h-10.2813v16.4157h9.6067v16.3071h-9.6067v18.9158h11.332v17.1764h-26.7893z"/><path d="m1266.2767 4741.3815v85.9914h-13.508l-8.0294-39.1004v39.1004h-12.908v-85.9914h12.908l8.6294 38.7197v-38.7197z"/><path d="m1287.926 4741.3815v68.815h9.3053v17.1764h-24.764v-85.9914z"/><path d="m1335.0647 4791.7879c0 8.6426-.1374 14.7485-.4254 18.336-.2746 3.6057-1.1506 6.8852-2.6266 9.8566-1.4747 2.9715-3.476 5.2547-5.9907 6.849-2.5133 1.5945-5.44 2.3916-8.78 2.3916-3.176 0-6.016-.7608-8.5413-2.2647-2.5267-1.5039-4.5654-3.7504-6.092-6.7581-1.5374-3.0078-2.4507-6.2876-2.7507-9.8208-.288-3.5512-.4373-9.7478-.4373-18.5896v-14.7122c0-8.6426.136-14.7492.424-18.3364.276-3.6056 1.1506-6.8852 2.6266-9.8566 1.476-2.9715 3.4774-5.2543 5.9907-6.8488 2.5147-1.5947 5.4413-2.3918 8.78-2.3918 3.1773 0 6.016.7612 8.5427 2.2647 2.5266 1.5043 4.5653 3.7508 6.0906 6.7585 1.5387 3.0079 2.452 6.287 2.752 9.82.288 3.5516.4374 9.7482.4374 18.5904zm-15.4587-28.2471c0-3.9863-.1493-6.5408-.4493-7.6644-.3014-1.1052-.9134-1.6668-1.84-1.6668-.788 0-1.388.4528-1.8134 1.3587-.412.8882-.6253 3.5517-.6253 7.9725v40.1329c0 4.9826.1373 8.063.4133 9.2224.2747 1.1778.9134 1.7576 1.9134 1.7576 1.0253 0 1.688-.6705 1.976-2.0112.288-1.3409.4253-4.5478.4253-9.6029z"/><path d="m1376.2127 4773.1257h-15.4587v-7.8092c0-4.9281-.1373-8.0085-.4253-9.2406-.2867-1.2503-.976-1.8663-2.0507-1.8663-.9253 0-1.564.5253-1.9013 1.5945-.3374 1.0511-.5 3.7868-.5 8.1714v41.2384c0 3.8412.1626 6.3957.5 7.6097.3373 1.2144 1 1.8301 2.0013 1.8301 1.1013 0 1.8387-.6882 2.2387-2.0656.388-1.3768.588-4.0765.588-8.0809v-10.1828h-3.0014v-13.0455h18.0094v46.0944h-9.7174l-1.4266-6.1606c-1.0494 2.6634-2.376 4.6568-3.964 5.9973-1.6014 1.3407-3.4894 2.0111-5.6534 2.0111-2.5893 0-5.0026-.9059-7.2666-2.736-2.252-1.8296-3.964-4.0766-5.128-6.7763-1.176-2.6816-1.9014-5.5083-2.2014-8.4612-.288-2.9533-.4373-7.3924-.4373-13.2995v-25.5473c0-8.208.3-14.1687.9133-17.8832.612-3.7327 2.3627-7.1388 5.252-10.2372 2.8894-3.0981 6.6294-4.6383 11.2187-4.6383 4.516 0 8.2547 1.3407 11.232 4.0403 2.9773 2.6997 4.928 5.8889 5.828 9.5849.9013 3.7142 1.3507 9.0778 1.3507 16.1439z"/><path d="m1397.6993 4741.3815v85.9914h-15.4586v-85.9914z"/><path d="m1436.5087 4767.4727h-14.332v-6.3598c0-2.9714-.188-4.8737-.5507-5.6893-.3627-.8153-.9627-1.2136-1.8133-1.2136-.9254 0-1.6267.5431-2.1014 1.6485-.476 1.0871-.7133 2.7358-.7133 4.9644 0 2.8627.2747 5.019.8133 6.4684.5254 1.4312 1.976 3.1891 4.3654 5.2547 6.8413 5.9248 11.156 10.7984 12.932 14.5852 1.788 3.7871 2.676 9.8929 2.676 18.3 0 6.124-.5 10.6356-1.488 13.5527-.988 2.8993-2.8894 5.3272-5.728 7.2842-2.8267 1.9748-6.116 2.953-9.8814 2.953-4.1266 0-7.6413-1.1414-10.568-3.4062-2.9133-2.265-4.816-5.1457-5.728-8.6425-.9013-3.5153-1.3506-8.498-1.3506-14.93v-5.6348h14.3333v10.4541c0 3.2255.2 5.291.6 6.2147.4.9245 1.1133 1.3773 2.1387 1.3773 1.0253 0 1.788-.5798 2.2893-1.7576.4987-1.1594.7493-2.8988.7493-5.182 0-5.0552-.4746-8.3709-1.4253-9.911-.988-1.558-3.3893-4.1674-7.2173-7.8271-3.8267-3.6783-6.3534-6.3599-7.604-8.0265-1.2374-1.6668-2.276-3.9682-3.0894-6.9034-.812-2.9352-1.2253-6.6856-1.2253-11.2517 0-6.5771.576-11.3967 1.7387-14.4408 1.1626-3.0436 3.0266-5.4175 5.616-7.1384 2.588-1.7215 5.7026-2.5731 9.368-2.5731 4.0013 0 7.404.9419 10.2306 2.8086 2.8134 1.8841 4.6774 4.2396 5.5894 7.1025.9133 2.8445 1.376 7.6823 1.376 14.5131z"/><path d="m1473.742 4741.3815v17.1764h-9.08v68.815h-15.4587v-68.815h-9.1546v-17.1764z"/><path d="m1492.7287 4741.3815v85.9914h-15.4587v-85.9914z"/><path d="m1535.702 4741.3815-8.8173 38.8286 9.6426 47.1628h-15.908l-6.2666-36.8534v36.8534h-15.4587v-85.9914h15.4587v33.411l6.9413-33.411z"/><path d="m1587.7433 4773.1257h-15.4586v-7.8092c0-4.9281-.1374-8.0085-.424-9.2406-.288-1.2503-.976-1.8663-2.052-1.8663-.9254 0-1.564.5253-1.9014 1.5945-.3373 1.0511-.5 3.7868-.5 8.1714v41.2384c0 3.8412.1627 6.3957.5 7.6097.3374 1.2144 1.0014 1.8301 2.0014 1.8301 1.1 0 1.8386-.6882 2.2386-2.0656.388-1.3768.588-4.0765.588-8.0809v-10.1828h-3.0013v-13.0455h18.0093v46.0944h-9.7173l-1.4253-6.1606c-1.0507 2.6634-2.3774 4.6568-3.9654 5.9973-1.6013 1.3407-3.4893 2.0111-5.6533 2.0111-2.588 0-5.0027-.9059-7.2667-2.736-2.2506-1.8296-3.964-4.0766-5.128-6.7763-1.176-2.6816-1.9013-5.5083-2.2013-8.4612-.2867-2.9533-.4373-7.3924-.4373-13.2995v-25.5473c0-8.208.3-14.1687.9133-17.8832.6133-3.7327 2.364-7.1388 5.2533-10.2372 2.888-3.0981 6.628-4.6383 11.2187-4.6383 4.5147 0 8.2547 1.3407 11.2307 4.0403 2.9773 2.6997 4.928 5.8889 5.828 9.5849.9013 3.7142 1.3506 9.0778 1.3506 16.1439z"/><path d="m1641.3486 4741.3815v85.9914h-13.5066l-.0387-58.052-5.3653 58.052h-9.4547l-5.6667-56.7477-.0373 56.7477h-13.5067v-85.9914h19.948c.5627 5.2002 1.176 11.3242 1.8387 18.3182l2.1893 21.8332 3.5134-40.1514z"/><path d="m1647.5646 4741.3815h15.3587c4.8533 0 8.5307.5438 11.032 1.6486 2.5 1.0874 4.5133 3.3158 6.052 6.6498 1.5387 3.352 2.3013 8.7333 2.3013 16.162 0 5.0188-.5373 8.516-1.6253 10.4908-1.088 1.9929-3.24 3.4968-6.4413 4.566 3.5773 1.1773 6.004 3.1162 7.2786 5.816 1.276 2.7174 1.9147 6.867 1.9147 12.4837v7.9721c0 5.816-.4627 10.1103-1.376 12.9188-.9133 2.7902-2.364 4.7108-4.3653 5.7435-2.0014 1.0329-6.1027 1.5401-12.3067 1.5401h-17.8227zm15.4587 14.6762v19.1332c.6507-.036 1.1507-.0541 1.5133-.0541 1.476 0 2.4267-.5439 2.8267-1.6127.4133-1.087.6133-4.1854.6133-9.2765 0-2.7001-.1626-4.5841-.5013-5.6715-.3373-1.0689-.7747-1.7576-1.312-2.0474-.5387-.2718-1.5893-.4347-3.14-.471zm0 32.5051v24.1343c2.1267-.109 3.4893-.598 4.0773-1.4858s.876-3.0804.876-6.5594v-8.0443c0-3.6964-.2626-5.9248-.788-6.7223-.5253-.7789-1.9146-1.2136-4.1653-1.3225"/><path d="m1724.4206 4741.3815v85.9914h-15.4586v-36.0922h-4.5027v36.0922h-15.4587v-85.9914h15.4587v30.7653h4.5027v-30.7653z"/></g></g></svg>