<?xml version="1.0" encoding="UTF-8" standalone="no"?>
<!-- Created with Inkscape (http://www.inkscape.org/) -->

<svg
   version="1.1"
   id="svg1"
   width="377.95334"
   height="302.36267"
   viewBox="0 0 377.95334 302.36267"
   sodipodi:docname="lbh-firmierung-4c_vectorisiert.pdf"
   xmlns:inkscape="http://www.inkscape.org/namespaces/inkscape"
   xmlns:sodipodi="http://sodipodi.sourceforge.net/DTD/sodipodi-0.dtd"
   xmlns="http://www.w3.org/2000/svg"
   xmlns:svg="http://www.w3.org/2000/svg">
  <defs
     id="defs1">
    <clipPath
       clipPathUnits="userSpaceOnUse"
       id="clipPath2">
      <path
         d="M 0,226.772 H 283.465 V 0 H 0 Z"
         transform="translate(-180.80511,-155.0958)"
         id="path2" />
    </clipPath>
    <clipPath
       clipPathUnits="userSpaceOnUse"
       id="clipPath4">
      <path
         d="M 0,226.772 H 283.465 V 0 H 0 Z"
         transform="translate(-88.705202,-161.4234)"
         id="path4" />
    </clipPath>
    <clipPath
       clipPathUnits="userSpaceOnUse"
       id="clipPath6">
      <path
         d="M 0,226.772 H 283.465 V 0 H 0 Z"
         transform="translate(-170.04381,-158.5263)"
         id="path6" />
    </clipPath>
    <clipPath
       clipPathUnits="userSpaceOnUse"
       id="clipPath8">
      <path
         d="M 0,226.772 H 283.465 V 0 H 0 Z"
         transform="translate(-154.9618,-184.2513)"
         id="path8" />
    </clipPath>
    <clipPath
       clipPathUnits="userSpaceOnUse"
       id="clipPath10">
      <path
         d="M 0,226.772 H 283.465 V 0 H 0 Z"
         transform="translate(-109.90281,-161.2424)"
         id="path10" />
    </clipPath>
    <clipPath
       clipPathUnits="userSpaceOnUse"
       id="clipPath12">
      <path
         d="M 0,226.772 H 283.465 V 0 H 0 Z"
         transform="translate(-102.77841,-95.0175)"
         id="path12" />
    </clipPath>
    <clipPath
       clipPathUnits="userSpaceOnUse"
       id="clipPath14">
      <path
         d="M 0,226.772 H 283.465 V 0 H 0 Z"
         transform="translate(-109.1158,-92.659102)"
         id="path14" />
    </clipPath>
    <clipPath
       clipPathUnits="userSpaceOnUse"
       id="clipPath16">
      <path
         d="M 0,226.772 H 283.465 V 0 H 0 Z"
         transform="translate(-123.6529,-83.5653)"
         id="path16" />
    </clipPath>
    <clipPath
       clipPathUnits="userSpaceOnUse"
       id="clipPath18">
      <path
         d="M 0,226.772 H 283.465 V 0 H 0 Z"
         transform="translate(-131.6407,-93.706905)"
         id="path18" />
    </clipPath>
    <clipPath
       clipPathUnits="userSpaceOnUse"
       id="clipPath20">
      <path
         d="M 0,226.772 H 283.465 V 0 H 0 Z"
         transform="translate(-148.5636,-83.5653)"
         id="path20" />
    </clipPath>
    <clipPath
       clipPathUnits="userSpaceOnUse"
       id="clipPath22">
      <path
         d="M 0,226.772 H 283.465 V 0 H 0 Z"
         transform="translate(-160.6944,-88.873905)"
         id="path22" />
    </clipPath>
    <clipPath
       clipPathUnits="userSpaceOnUse"
       id="clipPath24">
      <path
         d="M 0,226.772 H 283.465 V 0 H 0 Z"
         transform="translate(-172.8448,-83.468602)"
         id="path24" />
    </clipPath>
    <clipPath
       clipPathUnits="userSpaceOnUse"
       id="clipPath26">
      <path
         d="M 0,226.772 H 283.465 V 0 H 0 Z"
         transform="translate(-183.8673,-83.5653)"
         id="path26" />
    </clipPath>
    <clipPath
       clipPathUnits="userSpaceOnUse"
       id="clipPath28">
      <path
         d="M 0,226.772 H 283.465 V 0 H 0 Z"
         transform="translate(-195.9991,-88.873905)"
         id="path28" />
    </clipPath>
    <clipPath
       clipPathUnits="userSpaceOnUse"
       id="clipPath30">
      <path
         d="M 0,226.772 H 283.465 V 0 H 0 Z"
         transform="translate(-210.50691,-86.670802)"
         id="path30" />
    </clipPath>
    <clipPath
       clipPathUnits="userSpaceOnUse"
       id="clipPath32">
      <path
         d="M 0,226.772 H 283.465 V 0 H 0 Z"
         transform="translate(-216.4561,-92.659102)"
         id="path32" />
    </clipPath>
    <clipPath
       clipPathUnits="userSpaceOnUse"
       id="clipPath34">
      <path
         d="M 0,226.772 H 283.465 V 0 H 0 Z"
         transform="translate(-228.16801,-93.706905)"
         id="path34" />
    </clipPath>
    <clipPath
       clipPathUnits="userSpaceOnUse"
       id="clipPath36">
      <path
         d="M 0,226.772 H 283.465 V 0 H 0 Z"
         transform="translate(-242.3848,-93.056505)"
         id="path36" />
    </clipPath>
    <clipPath
       clipPathUnits="userSpaceOnUse"
       id="clipPath38">
      <path
         d="M 0,226.772 H 283.465 V 0 H 0 Z"
         transform="translate(-263.61631,-86.739105)"
         id="path38" />
    </clipPath>
    <clipPath
       clipPathUnits="userSpaceOnUse"
       id="clipPath40">
      <path
         d="M 0,226.772 H 283.465 V 0 H 0 Z"
         transform="translate(-104.75841,-65.239102)"
         id="path40" />
    </clipPath>
    <clipPath
       clipPathUnits="userSpaceOnUse"
       id="clipPath42">
      <path
         d="M 0,226.772 H 283.465 V 0 H 0 Z"
         transform="translate(-112.1134,-68.830004)"
         id="path42" />
    </clipPath>
    <clipPath
       clipPathUnits="userSpaceOnUse"
       id="clipPath44">
      <path
         d="M 0,226.772 H 283.465 V 0 H 0 Z"
         transform="translate(-133.1002,-62.123902)"
         id="path44" />
    </clipPath>
    <clipPath
       clipPathUnits="userSpaceOnUse"
       id="clipPath46">
      <path
         d="M 0,226.772 H 283.465 V 0 H 0 Z"
         transform="translate(-145.2979,-61.085804)"
         id="path46" />
    </clipPath>
  </defs>
  <sodipodi:namedview
     id="namedview1"
     pagecolor="#ffffff"
     bordercolor="#666666"
     borderopacity="1.0"
     inkscape:showpageshadow="2"
     inkscape:pageopacity="0.0"
     inkscape:pagecheckerboard="0"
     inkscape:deskcolor="#d1d1d1" />
  <g
     id="layer-MC0"
     inkscape:groupmode="layer"
     inkscape:label="Ebene 1">
    <path
       id="path1"
       d="M 0,0 V -3.064 C 3.832,-8.38 5.682,-12.768 3.196,-18.869 C -3.453,-35.186 -48.328,-39.152 -93.776,-27.933 C -139.223,-16.714 -165.522,3.986 -159.934,20.438 C -157.114,28.738 -144.663,32.56 -131.226,34.766 V 37.644 C -143.789,36.446 -161.724,32.566 -166.446,20.69 C -172.268,6.044 -156.368,-22.143 -95.601,-36.389 C -37.342,-50.047 -0.879,-40.587 7.485,-22.346 C 10.598,-15.557 7.513,-5.445 0,0"
       style="fill:#a8d81b;fill-opacity:1;fill-rule:nonzero;stroke:none"
       transform="matrix(1.3333333,0,0,-1.3333333,241.07347,95.568267)"
       clip-path="url(#clipPath2)" />
    <path
       id="path3"
       d="M 0,0 C 1.593,0 2.571,-0.978 2.571,-2.861 C 2.571,-4.708 1.593,-5.686 0,-5.686 H -22.09 C -24.191,-5.686 -25.35,-4.491 -25.35,-2.426 V 41.428 C -25.35,43.348 -24.227,44.434 -21.946,44.434 C -19.664,44.434 -18.541,43.348 -18.541,41.428 V 0 Z"
       style="fill:#1d438c;fill-opacity:1;fill-rule:nonzero;stroke:none"
       transform="matrix(1.3333333,0,0,-1.3333333,118.2736,87.131467)"
       clip-path="url(#clipPath4)" />
    <path
       id="path5"
       d="M 0,0 C 0,-1.919 -1.123,-3.006 -3.404,-3.006 C -5.686,-3.006 -6.808,-1.919 -6.808,0 V 44.326 C -6.808,46.245 -5.686,47.331 -3.404,47.331 C -1.123,47.331 0,46.245 0,44.326 Z"
       style="fill:#1d438c;fill-opacity:1;fill-rule:nonzero;stroke:none"
       transform="matrix(1.3333333,0,0,-1.3333333,226.72507,90.994267)"
       clip-path="url(#clipPath6)" />
    <path
       id="path7"
       d="M 0,0 H -12.034 V 18.601 C -12.034,20.52 -13.157,21.606 -15.438,21.606 C -17.72,21.606 -18.842,20.52 -18.842,18.601 V -25.725 C -18.842,-27.644 -17.72,-28.731 -15.438,-28.731 C -13.157,-28.731 -12.034,-27.644 -12.034,-25.725 V -5.588 H 0 C 1.919,-5.588 2.697,-4.667 2.697,-2.794 C 2.697,-0.921 1.919,0 0,0"
       style="fill:#1d438c;fill-opacity:1;fill-rule:nonzero;stroke:none"
       transform="matrix(1.3333333,0,0,-1.3333333,206.61573,56.694267)"
       clip-path="url(#clipPath8)" />
    <path
       id="path9"
       d="M 0,0 H -6.337 V 38.894 H -0.072 C 7.931,38.894 10.973,35.852 10.973,31.144 C 10.973,27.37 7.858,23.506 1.992,23.182 C 1.981,23.182 1.973,23.165 1.962,23.16 C 0.06,23.152 -0.713,22.232 -0.713,20.367 C -0.713,18.494 0.065,17.573 1.984,17.573 H 2.287 C 2.291,17.572 2.295,17.563 2.298,17.563 C 9.991,17.176 12.783,13.371 12.783,8.945 C 12.783,3.73 9.053,0 0,0 M 9.778,20.787 V 20.859 C 14.558,22.489 17.89,26.436 17.89,31.941 C 17.89,39.328 12.82,44.398 0.362,44.398 H -9.814 C -11.914,44.398 -13.073,43.203 -13.073,41.139 V -2.245 C -13.073,-4.309 -11.914,-5.504 -9.814,-5.504 H -0.507 C 13.29,-5.504 19.736,0.978 19.736,9.524 C 19.736,15.644 16.043,19.7 9.778,20.787"
       style="fill:#1d438c;fill-opacity:1;fill-rule:nonzero;stroke:none"
       transform="matrix(1.3333333,0,0,-1.3333333,146.53707,87.3728)"
       clip-path="url(#clipPath10)" />
    <path
       id="path11"
       d="M 0,0 C 1.602,0 2.659,-0.437 3.077,-0.854 C 3.358,-1.136 3.436,-1.378 3.436,-1.728 C 3.436,-2.319 3.047,-2.659 2.504,-2.659 C 1.863,-2.659 1.437,-2.097 -0.126,-2.097 C -1.553,-2.097 -2.193,-2.737 -2.193,-3.62 C -2.193,-6.221 3.959,-4.862 3.959,-9.579 C 3.959,-11.995 2.223,-13.732 -1.165,-13.732 C -2.969,-13.732 -4.095,-13.257 -4.493,-12.859 C -4.765,-12.587 -4.872,-12.335 -4.872,-11.966 C -4.872,-11.364 -4.483,-11.015 -3.94,-11.015 C -3.299,-11.015 -2.901,-11.626 -1.038,-11.626 C 0.534,-11.626 1.262,-10.898 1.262,-9.89 C 1.262,-7.104 -4.881,-8.463 -4.881,-3.94 C -4.881,-1.68 -3.212,0 0,0"
       style="fill:#1d438c;fill-opacity:1;fill-rule:nonzero;stroke:none"
       transform="matrix(1.3333333,0,0,-1.3333333,137.03787,175.67267)"
       clip-path="url(#clipPath12)" />
    <path
       id="path13"
       d="M 0,0 C -0.582,0 -0.941,0.359 -0.941,1.087 C -0.941,1.814 -0.582,2.174 0,2.174 H 8.812 C 9.394,2.174 9.753,1.814 9.753,1.087 C 9.753,0.359 9.394,0 8.812,0 H 5.755 V -10.073 C 5.755,-10.83 5.318,-11.268 4.406,-11.268 C 3.494,-11.268 3.057,-10.83 3.057,-10.073 V 0 Z"
       style="fill:#1d438c;fill-opacity:1;fill-rule:nonzero;stroke:none"
       transform="matrix(1.3333333,0,0,-1.3333333,145.48773,178.8172)"
       clip-path="url(#clipPath14)" />
    <path
       id="path15"
       d="M 0,0 H 4.562 C 5.115,0 5.474,-0.358 5.474,-1.058 C 5.474,-1.746 5.115,-2.105 4.562,-2.105 H -1.475 C -2.261,-2.105 -2.708,-1.649 -2.708,-0.873 V 10.035 C -2.708,10.812 -2.261,11.268 -1.475,11.268 H 4.513 C 5.076,11.268 5.435,10.908 5.435,10.22 C 5.435,9.521 5.076,9.161 4.513,9.161 H 0 V 5.755 H 3.853 C 4.396,5.755 4.755,5.396 4.755,4.717 C 4.755,4.047 4.396,3.688 3.853,3.688 H 0 Z"
       style="fill:#1d438c;fill-opacity:1;fill-rule:nonzero;stroke:none"
       transform="matrix(1.3333333,0,0,-1.3333333,164.87053,190.94227)"
       clip-path="url(#clipPath16)" />
    <path
       id="path17"
       d="M 0,0 C 0,0.757 0.446,1.193 1.358,1.193 C 2.271,1.193 2.708,0.757 2.708,0 V -6.706 C 2.708,-9.219 3.862,-10.277 5.502,-10.277 C 7.036,-10.277 8.152,-9.258 8.152,-7.017 V 0 C 8.152,0.757 8.588,1.193 9.5,1.193 C 10.413,1.193 10.859,0.757 10.859,0 V -6.744 C 10.859,-10.529 8.831,-12.441 5.357,-12.441 C 1.873,-12.441 0,-10.598 0,-7.055 Z"
       style="fill:#1d438c;fill-opacity:1;fill-rule:nonzero;stroke:none"
       transform="matrix(1.3333333,0,0,-1.3333333,175.52093,177.42013)"
       clip-path="url(#clipPath18)" />
    <path
       id="path19"
       d="M 0,0 H 4.561 C 5.114,0 5.474,-0.358 5.474,-1.058 C 5.474,-1.746 5.114,-2.105 4.561,-2.105 H -1.476 C -2.261,-2.105 -2.708,-1.649 -2.708,-0.873 V 10.035 C -2.708,10.812 -2.261,11.268 -1.476,11.268 H 4.513 C 5.075,11.268 5.435,10.908 5.435,10.22 C 5.435,9.521 5.075,9.161 4.513,9.161 H 0 V 5.755 H 3.853 C 4.396,5.755 4.755,5.396 4.755,4.717 C 4.755,4.047 4.396,3.688 3.853,3.688 H 0 Z"
       style="fill:#1d438c;fill-opacity:1;fill-rule:nonzero;stroke:none"
       transform="matrix(1.3333333,0,0,-1.3333333,198.0848,190.94227)"
       clip-path="url(#clipPath20)" />
    <path
       id="path21"
       d="M 0,0 C 1.747,0 2.571,0.815 2.571,1.989 C 2.571,3.164 1.844,3.901 -0.078,3.901 H -1.368 V 0 Z M -1.368,-6.288 C -1.368,-7.045 -1.796,-7.482 -2.698,-7.482 C -3.61,-7.482 -4.027,-7.045 -4.027,-6.288 V 4.727 C -4.027,5.503 -3.581,5.959 -2.795,5.959 H 0.058 C 3.717,5.959 5.317,4.367 5.317,2.154 C 5.317,0.32 4.25,-0.97 2.64,-1.514 L 5.144,-5.366 C 5.366,-5.706 5.454,-5.92 5.454,-6.191 C 5.454,-6.929 4.687,-7.511 3.93,-7.511 C 3.562,-7.511 3.28,-7.375 3.076,-7.172 C 2.911,-7.007 2.824,-6.87 2.669,-6.608 L -0.029,-2.058 H -1.368 Z"
       style="fill:#1d438c;fill-opacity:1;fill-rule:nonzero;stroke:none"
       transform="matrix(1.3333333,0,0,-1.3333333,214.2592,183.86413)"
       clip-path="url(#clipPath22)" />
    <path
       id="path23"
       d="M 0,0 C 1.96,0 2.795,0.835 2.795,1.96 C 2.795,3.105 2.047,3.853 0,3.853 H -1.407 V 0 Z M -0.098,5.861 C 1.601,5.861 2.348,6.618 2.348,7.657 C 2.348,8.686 1.679,9.355 -0.068,9.355 H -1.407 V 5.861 Z M -4.057,10.132 C -4.057,10.908 -3.61,11.364 -2.824,11.364 H 0.058 C 3.639,11.364 5.065,9.938 5.065,8.025 C 5.065,6.57 4.24,5.521 2.931,5.085 V 5.057 C 4.521,4.784 5.541,3.707 5.541,2.087 C 5.541,-0.262 3.804,-2.009 -0.137,-2.009 H -2.824 C -3.61,-2.009 -4.057,-1.553 -4.057,-0.776 Z"
       style="fill:#1d438c;fill-opacity:1;fill-rule:nonzero;stroke:none"
       transform="matrix(1.3333333,0,0,-1.3333333,230.45973,191.0712)"
       clip-path="url(#clipPath24)" />
    <path
       id="path25"
       d="M 0,0 H 4.562 C 5.114,0 5.474,-0.358 5.474,-1.058 C 5.474,-1.746 5.114,-2.105 4.562,-2.105 H -1.475 C -2.261,-2.105 -2.707,-1.649 -2.707,-0.873 V 10.035 C -2.707,10.812 -2.261,11.268 -1.475,11.268 H 4.513 C 5.076,11.268 5.435,10.908 5.435,10.22 C 5.435,9.521 5.076,9.161 4.513,9.161 H 0 V 5.755 H 3.853 C 4.396,5.755 4.756,5.396 4.756,4.717 C 4.756,4.047 4.396,3.688 3.853,3.688 H 0 Z"
       style="fill:#1d438c;fill-opacity:1;fill-rule:nonzero;stroke:none"
       transform="matrix(1.3333333,0,0,-1.3333333,245.1564,190.94227)"
       clip-path="url(#clipPath26)" />
    <path
       id="path27"
       d="M 0,0 C 1.747,0 2.571,0.815 2.571,1.989 C 2.571,3.164 1.844,3.901 -0.078,3.901 H -1.368 V 0 Z M -1.368,-6.288 C -1.368,-7.045 -1.796,-7.482 -2.698,-7.482 C -3.61,-7.482 -4.027,-7.045 -4.027,-6.288 V 4.727 C -4.027,5.503 -3.581,5.959 -2.795,5.959 H 0.058 C 3.717,5.959 5.317,4.367 5.317,2.154 C 5.317,0.32 4.25,-0.97 2.64,-1.514 L 5.144,-5.366 C 5.366,-5.706 5.454,-5.92 5.454,-6.191 C 5.454,-6.929 4.687,-7.511 3.93,-7.511 C 3.562,-7.511 3.28,-7.375 3.076,-7.172 C 2.911,-7.007 2.824,-6.87 2.669,-6.608 L -0.029,-2.058 H -1.368 Z"
       style="fill:#1d438c;fill-opacity:1;fill-rule:nonzero;stroke:none"
       transform="matrix(1.3333333,0,0,-1.3333333,261.33213,183.86413)"
       clip-path="url(#clipPath28)" />
    <path
       id="path29"
       d="M 0,0 L -1.271,3.824 C -1.62,4.872 -1.863,5.765 -1.863,5.765 H -1.901 C -1.901,5.765 -2.125,4.872 -2.455,3.824 L -3.668,0 Z M -4.92,-4.065 C -5.065,-4.513 -5.172,-4.813 -5.366,-5.007 C -5.551,-5.191 -5.842,-5.308 -6.211,-5.308 C -6.87,-5.308 -7.618,-4.881 -7.618,-4.163 C -7.618,-3.959 -7.569,-3.804 -7.424,-3.377 L -4.018,6.415 C -3.794,7.046 -3.6,7.405 -3.299,7.706 C -2.97,8.036 -2.484,8.22 -1.746,8.22 C -1.009,8.22 -0.523,8.036 -0.193,7.706 C 0.107,7.405 0.301,7.046 0.524,6.415 L 3.94,-3.328 C 4.096,-3.765 4.125,-3.93 4.125,-4.104 C 4.125,-4.9 3.319,-5.308 2.649,-5.308 C 2.271,-5.308 1.971,-5.182 1.767,-4.978 C 1.572,-4.784 1.476,-4.513 1.33,-4.075 L 0.641,-2.066 H -4.27 Z"
       style="fill:#1d438c;fill-opacity:1;fill-rule:nonzero;stroke:none"
       transform="matrix(1.3333333,0,0,-1.3333333,280.67587,186.8016)"
       clip-path="url(#clipPath30)" />
    <path
       id="path31"
       d="M 0,0 C -0.583,0 -0.941,0.359 -0.941,1.087 C -0.941,1.814 -0.583,2.174 0,2.174 H 8.812 C 9.394,2.174 9.753,1.814 9.753,1.087 C 9.753,0.359 9.394,0 8.812,0 H 5.755 V -10.073 C 5.755,-10.83 5.317,-11.268 4.405,-11.268 C 3.493,-11.268 3.057,-10.83 3.057,-10.073 V 0 Z"
       style="fill:#1d438c;fill-opacity:1;fill-rule:nonzero;stroke:none"
       transform="matrix(1.3333333,0,0,-1.3333333,288.60813,178.8172)"
       clip-path="url(#clipPath32)" />
    <path
       id="path33"
       d="M 0,0 C 0,0.757 0.447,1.193 1.359,1.193 C 2.271,1.193 2.708,0.757 2.708,0 V -6.706 C 2.708,-9.219 3.863,-10.277 5.503,-10.277 C 7.036,-10.277 8.152,-9.258 8.152,-7.017 V 0 C 8.152,0.757 8.589,1.193 9.501,1.193 C 10.413,1.193 10.859,0.757 10.859,0 V -6.744 C 10.859,-10.529 8.832,-12.441 5.357,-12.441 C 1.873,-12.441 0,-10.598 0,-7.055 Z"
       style="fill:#1d438c;fill-opacity:1;fill-rule:nonzero;stroke:none"
       transform="matrix(1.3333333,0,0,-1.3333333,304.224,177.42013)"
       clip-path="url(#clipPath34)" />
    <path
       id="path35"
       d="M 0,0 C 0,1.232 0.611,1.844 1.873,1.844 C 3.027,1.844 3.454,1.311 4.008,0.408 L 8.2,-6.414 C 8.782,-7.395 9.229,-8.395 9.229,-8.395 L 9.277,-8.375 C 9.277,-8.375 9.142,-7.22 9.112,-6.007 L 8.996,0.767 C 8.967,1.427 9.403,1.844 10.219,1.844 C 11.024,1.844 11.432,1.437 11.432,0.767 V -9.811 C 11.432,-11.053 10.82,-11.665 9.559,-11.665 C 8.404,-11.665 7.967,-11.141 7.414,-10.229 L 3.231,-3.406 C 2.649,-2.426 2.193,-1.426 2.193,-1.426 L 2.154,-1.445 C 2.154,-1.445 2.29,-2.601 2.319,-3.813 L 2.436,-10.588 C 2.465,-11.247 2.028,-11.665 1.213,-11.665 C 0.407,-11.665 0,-11.257 0,-10.588 Z"
       style="fill:#1d438c;fill-opacity:1;fill-rule:nonzero;stroke:none"
       transform="matrix(1.3333333,0,0,-1.3333333,323.17973,178.28733)"
       clip-path="url(#clipPath36)" />
    <path
       id="path37"
       d="M 0,0 C -0.562,0 -0.893,0.388 -0.893,1.019 C -0.893,1.64 -0.562,2.028 0,2.028 H 3.251 C 3.979,2.028 4.387,1.621 4.387,0.893 V -3.066 C 4.387,-3.697 4.222,-4.057 3.843,-4.387 C 3.338,-4.823 1.979,-5.474 -0.311,-5.474 C -4.532,-5.474 -7.046,-3.028 -7.046,1.067 C -7.046,5.425 -4.367,8.269 0.242,8.269 C 2.164,8.269 3.436,7.628 3.853,7.211 C 4.124,6.938 4.231,6.687 4.231,6.288 C 4.231,5.706 3.833,5.328 3.29,5.328 C 2.649,5.328 2.115,6.114 -0.01,6.114 C -2.553,6.114 -4.271,4.464 -4.271,1.368 C -4.271,-1.767 -2.591,-3.406 0.067,-3.406 C 1.281,-3.406 1.834,-3.096 1.834,-3.096 V 0 Z"
       style="fill:#1d438c;fill-opacity:1;fill-rule:nonzero;stroke:none"
       transform="matrix(1.3333333,0,0,-1.3333333,351.4884,186.71053)"
       clip-path="url(#clipPath38)" />
    <path
       id="path39"
       d="M 0,0 C -0.563,0 -0.893,0.388 -0.893,1.019 C -0.893,1.64 -0.563,2.028 0,2.028 H 3.251 C 3.979,2.028 4.386,1.621 4.386,0.893 V -3.066 C 4.386,-3.697 4.222,-4.057 3.843,-4.387 C 3.338,-4.823 1.979,-5.474 -0.311,-5.474 C -4.532,-5.474 -7.045,-3.028 -7.045,1.067 C -7.045,5.425 -4.367,8.269 0.243,8.269 C 2.164,8.269 3.436,7.628 3.853,7.211 C 4.125,6.938 4.231,6.687 4.231,6.288 C 4.231,5.706 3.833,5.328 3.29,5.328 C 2.649,5.328 2.116,6.114 -0.01,6.114 C -2.552,6.114 -4.27,4.464 -4.27,1.368 C -4.27,-1.767 -2.591,-3.406 0.068,-3.406 C 1.281,-3.406 1.834,-3.096 1.834,-3.096 V 0 Z"
       style="fill:#1d438c;fill-opacity:1;fill-rule:nonzero;stroke:none"
       transform="matrix(1.3333333,0,0,-1.3333333,139.67787,215.3772)"
       clip-path="url(#clipPath40)" />
    <path
       id="path41"
       d="M 0,0 C 0,0.708 0.388,1.097 1.096,1.097 C 1.795,1.097 2.164,0.737 2.251,0.165 L 2.329,-0.33 H 2.368 C 2.368,-0.33 3.241,1.184 5.328,1.184 C 6.803,1.184 7.851,0.553 8.433,-0.505 C 8.433,-0.505 9.462,1.184 11.665,1.184 C 13.877,1.184 15.304,-0.243 15.304,-2.854 V -7.773 C 15.304,-8.511 14.877,-8.938 13.984,-8.938 C 13.091,-8.938 12.665,-8.511 12.665,-7.773 V -3.164 C 12.665,-1.582 12.014,-0.922 10.966,-0.922 C 9.636,-0.922 8.938,-2.388 8.938,-2.388 C 8.938,-2.533 8.967,-2.901 8.967,-3.3 V -7.773 C 8.967,-8.511 8.54,-8.938 7.657,-8.938 C 6.764,-8.938 6.337,-8.511 6.337,-7.773 V -3.164 C 6.337,-1.582 5.677,-0.922 4.629,-0.922 C 3.329,-0.922 2.64,-2.339 2.64,-2.339 V -7.773 C 2.64,-8.511 2.212,-8.938 1.32,-8.938 C 0.427,-8.938 0,-8.511 0,-7.773 Z"
       style="fill:#1d438c;fill-opacity:1;fill-rule:nonzero;stroke:none"
       transform="matrix(1.3333333,0,0,-1.3333333,149.48453,210.58933)"
       clip-path="url(#clipPath42)" />
    <path
       id="path43"
       d="M 0,0 C 0,0 0.504,-0.35 1.504,-0.35 C 3.057,-0.35 4.105,0.708 4.105,2.854 C 4.105,4.979 3.299,5.784 2.086,5.784 C 0.689,5.784 0,4.367 0,4.367 Z M -2.64,11.054 C -2.64,11.791 -2.213,12.218 -1.32,12.218 C -0.427,12.218 0,11.791 0,11.054 V 8.133 C 0,7.628 -0.029,7.172 -0.087,6.638 H -0.059 C -0.059,6.638 0.825,7.89 2.746,7.89 C 5.172,7.89 6.793,6.27 6.793,3.038 C 6.793,-0.359 4.794,-2.358 1.271,-2.358 C -0.767,-2.358 -1.902,-1.824 -2.251,-1.475 C -2.504,-1.223 -2.64,-0.961 -2.64,-0.388 Z"
       style="fill:#1d438c;fill-opacity:1;fill-rule:nonzero;stroke:none"
       transform="matrix(1.3333333,0,0,-1.3333333,177.46693,219.5308)"
       clip-path="url(#clipPath44)" />
    <path
       id="path45"
       d="M 0,0 C 0,-0.757 -0.437,-1.194 -1.358,-1.194 C -2.27,-1.194 -2.707,-0.757 -2.707,0 V 11.121 C -2.707,11.878 -2.27,12.314 -1.358,12.314 C -0.437,12.314 0,11.878 0,11.121 V 6.783 H 5.377 V 11.121 C 5.377,11.878 5.813,12.314 6.735,12.314 C 7.638,12.314 8.084,11.878 8.084,11.121 V 0 C 8.084,-0.757 7.647,-1.194 6.735,-1.194 C 5.813,-1.194 5.377,-0.757 5.377,0 V 4.6 H 0 Z"
       style="fill:#1d438c;fill-opacity:1;fill-rule:nonzero;stroke:none"
       transform="matrix(1.3333333,0,0,-1.3333333,193.73053,220.91493)"
       clip-path="url(#clipPath46)" />
  </g>
</svg>
