<svg height="202.80469" viewBox="0 0 982.2095 202.80469" width="982.20947" xmlns="http://www.w3.org/2000/svg"><g fill="#ed1c24" transform="matrix(1.3333333 0 0 -1.3333333 -3594.471967 811.3701)"><path d="m2926.518 608.5128c32.8183-.8606 71.2612-21.1456 57.8709-73.3847-10.8793-44.754-51.3459-78.9647-104.5082-78.7025-1.7173.0073-3.4456.0516-5.1849.1329-60.5149 3.3089-60.0313 53.9456-60.0313 54.8317 1.2705 58.2106 56.1133 96.7606 109.3201 97.1337.8456.0073 1.6912.0037 2.5334-.0111zm-9.6903-33.1325c-49.9348 2.9211-77.6721-81.4351-27.5414-83.012 44.1519-1.3924 72.6684 80.3679 27.5414 83.012"/><path d="m3258.4513 534.9691s25.9906-5.9638 14.8748-37.5452c-6.1597-17.4563-32.8295-34.9532-59.8465-34.9532l-93.5662-.011 48.7496 141.9724 93.8764.0516c10.8386 0 35.3849-9.4315 27.881-38.2876-5.8382-22.4195-31.9691-31.227-31.9691-31.227zm-65.5963 15.3884 37.8998.0258c6.3814.0111 10.355 3.9586 12.6335 10.4213 1.8649 5.1959-2.2269 10.4102-6.6955 10.4102h-36.7883zm-9.8747-31.371-7.4781-21.1048 39.8276-.0814c6.3811-.011 11.1634 3.7004 12.6479 10.3992 1.4734 6.6952-1.4845 10.787-7.4373 10.787z"/><path d="m3107.029 534.9691s25.9903-5.9638 14.8527-37.5452c-6.1486-17.4563-32.8186-34.9532-59.8504-34.9532l-93.5626-.011 48.7607 141.9724 93.8912.0516c10.8127 0 35.3814-9.4315 27.8665-38.2876-5.8238-22.4195-31.9581-31.227-31.9581-31.227zm-65.5928 15.3884 37.8853.0258c6.3958.0111 10.3694 3.9586 12.6479 10.4213 1.8649 5.1959-2.2269 10.4102-6.6951 10.4102h-36.8031zm-9.8748-31.371-7.5039-21.1048 39.8387-.0814c6.3814-.011 11.1527 3.7004 12.6482 10.3992 1.4735 6.6952-1.4955 10.787-7.4375 10.787z"/><path d="m3414.8075 494.7392c8.4161 0 15.0851-6.7323 15.0851-15.1741 0-8.4824-6.658-15.2184-15.0851-15.2184-8.4161 0-15.0854 6.736-15.0854 15.2184 0 8.4418 6.6693 15.1741 15.0335 15.1741zm-.0519 2.1382c-9.7194 0-17.445-7.674-17.445-17.3123 0-9.6679 7.7256-17.3418 17.445-17.3418 9.7197 0 17.4305 7.6739 17.4305 17.3418 0 9.6383-7.7108 17.3123-17.3786 17.3123zm-3.6485-8.8852h2.5002c3.3752 0 6.0341-.7682 6.0341-3.9328 0-2.334-1.7577-3.8849-4.9005-3.8849h-3.6338zm-3.0614-18.6673h3.0614v8.9107h3.608l6.2816-8.9107h3.3457l-6.6027 9.2469c1.9902.4836 5.1071 1.876 5.1071 5.6685 0 1.6543-.6131 3.113-1.9573 4.1286-1.3405 1.0562-3.3863 1.7209-7.2417 1.7209h-5.6021z" fill-rule="evenodd"/><path d="m3400.5566 519.0381-67.5094-.0516-6.6988-20.8205 72.2509.0666-11.6436-35.7471-117.5108-.0148 49.1006 141.6513 113.9655.2066v-.0442l-11.3077-34.0075-70.3233.011-7.7882-20.4548 68.4731-.0629z"/><path d="m2752.7168 498.166h58.5615l-11.3483-35.6805h-104.076l48.6942 141.9982 44.4767.0408z"/></g></svg>