<svg height="84.871" viewBox="0 0 248.579 84.871" width="248.579" xmlns="http://www.w3.org/2000/svg"><g fill="#e30017"><path d="m76.459 6.116h12.786v31.072h14.188l-2.354 11.993h-24.62z"/><path d="m148.391 6.116h28.746l-2.353 11.822h-7.018v31.243h-12.646v-31.243h-9.082z"/><path d="m178.999 6.116h28.746l-2.36 11.822h-7.013v31.243h-12.647v-31.243h-9.082z"/><path d="m204.428 27.911c0-12.193 9.883-22.076 22.074-22.076 12.195 0 22.076 9.883 22.076 22.076s-9.881 22.075-22.076 22.075c-12.191-0-22.074-9.882-22.074-22.075m12.506 0c0 5.284 4.285 9.566 9.568 9.566s9.566-4.282 9.566-9.566c0-5.283-4.283-9.564-9.566-9.564s-9.568 4.281-9.568 9.564m-114.357 0c0-12.193 9.886-22.076 22.078-22.076 12.193 0 22.076 9.883 22.076 22.076s-9.883 22.075-22.076 22.075-22.078-9.882-22.078-22.075m12.511 0c0 5.284 4.283 9.566 9.566 9.566 5.287 0 9.566-4.282 9.566-9.566 0-5.283-4.279-9.564-9.566-9.564-5.282 0-9.566 4.281-9.566 9.564m-75.005 1.006c3.495-6.87 8.546-13.325 14.536-16.757 3.869-2.217 8.141-1.16 9.218 4.237.819 4.104.697 7.245-2.063 9.059-4.677 3.07-13.073 4.057-21.691 3.461m-2.637-.23c-9.839-1.041-19.5-4.07-23.811-8.346-2.014-1.998-1.282-4.645-.079-6.54 4.35-6.843 15.772-12.716 25.134-13.732 2.998-.326 4.897.43 5.044 3.789.302 6.822-1.696 16.17-6.288 24.829m-1.17 2.09c-5.618 9.556-14.518 17.915-27.108 20.554-6.999 1.468-9.189-3.438-9.168-8.827.023-6.091 1.354-11.072 10.739-12.454 5.904-.869 16.188-.578 25.537.727m2.714.413c7.491 1.234 13.997 3.145 16.561 5.645 1.833 1.785 1.667 3.49.275 5.456-3.451 4.871-12.304 8.719-17.484 9.281-2.689.293-3.313-1.258-3.435-3.061-.307-4.556 1.209-10.991 4.083-17.321m-5.175 8.491c-4.185 10.091-10.463 22.309-15.265 23.964l-2.858-2.998c6.778-.45 13.852-14.896 15.966-19.562zm56.81 44.756v-21.48h-3.023v8.823h-8.199v-8.823h-2.959v21.48h2.959v-10.195h8.199v10.194h3.023m16.926-7.2v-.498c-.031-3.588-.531-5.333-1.902-6.737-1.09-1.12-2.49-1.681-4.238-1.681-1.932 0-3.461.686-4.708 2.15-1.341 1.59-1.869 3.334-1.869 6.047 0 5.113 2.651 8.26 6.983 8.26 2.022 0 3.865-.654 5.393-1.996l-1.092-1.714c-1.121.999-2.369 1.498-3.835 1.498-1.495 0-2.772-.594-3.583-1.839-.47-.749-.654-1.779-.654-3.119v-.371zm-2.992-2.123h-6.482c0-2.836 1.09-4.613 3.271-4.613.998 0 1.746.469 2.244 1.092.625.779.967 2.027.967 3.521m17.643 4.522c0-2.059-1.185-3.708-4.051-4.365l-2.027-.465c-1.65-.377-2.214-1-2.214-2.121 0-1.402 1.062-2.338 2.712-2.338 1.248 0 2.402.406 3.835 1.122l.967-2.026c-1.278-.746-3.023-1.279-4.925-1.279-3.369 0-5.643 1.998-5.643 4.865 0 2.308 1.34 3.865 3.803 4.33l1.9.377c1.81.341 2.619 1.122 2.619 2.461 0 1.529-1.184 2.525-2.898 2.525-1.746 0-3.523-.717-5.018-1.559l-1.029 2.057c1.809 1.061 3.928 1.652 5.826 1.652 3.649-0 6.143-2.119 6.143-5.236m14.279 0c0-2.059-1.188-3.708-4.055-4.365l-2.025-.465c-1.652-.377-2.213-1-2.213-2.121 0-1.402 1.059-2.338 2.711-2.338 1.248 0 2.402.406 3.834 1.122l.967-2.026c-1.277-.746-3.021-1.279-4.922-1.279-3.369 0-5.645 1.998-5.645 4.865 0 2.308 1.342 3.865 3.803 4.33l1.904.377c1.805.341 2.617 1.122 2.617 2.461 0 1.529-1.186 2.525-2.9 2.525-1.744 0-3.521-.717-5.02-1.559l-1.029 2.057c1.809 1.061 3.93 1.652 5.83 1.652 3.647-0 6.143-2.119 6.143-5.236m15.459-2.399v-.498c-.029-3.588-.527-5.333-1.9-6.737-1.088-1.12-2.494-1.681-4.238-1.681-1.934 0-3.461.686-4.711 2.15-1.336 1.59-1.867 3.334-1.867 6.047 0 5.113 2.648 8.26 6.98 8.26 2.025 0 3.867-.654 5.395-1.996l-1.09-1.714c-1.121.999-2.371 1.498-3.836 1.498-1.498 0-2.775-.594-3.584-1.839-.467-.749-.656-1.779-.656-3.119v-.371zm-2.988-2.123h-6.486c0-2.836 1.092-4.613 3.273-4.613.996 0 1.744.469 2.244 1.092.623.779.969 2.027.969 3.521m18.855 9.324v-11.816c0-.718-.123-1.402-.375-1.963-.561-1.341-2.025-2.216-3.678-2.216-.967 0-1.994.253-2.9.78-.652.373-1.121.778-2.025 1.529 0-.967-.154-1.652-.531-2.401l-2.709.749c.436 1.123.594 1.837.594 3.709v11.628h2.834v-11.565c1.063-1.123 2.744-1.996 3.867-1.996.715 0 1.277.219 1.59.625.373.498.498.996.498 2.399v10.537h2.835z"/></g></svg>