<svg xmlns="http://www.w3.org/2000/svg" width="248.579" height="84.871" viewBox="0 0 248.579 84.871"><polygon fill="#E30017" points="76.459,6.116 89.245,6.116 89.245,37.188 103.433,37.188 101.079,49.181 76.459,49.181"/><polygon fill="#E30017" points="148.391,6.116 177.137,6.116 174.784,17.938 167.766,17.938 167.766,49.181 155.12,49.181 155.12,17.938 146.038,17.938"/><polygon fill="#E30017" points="178.999,6.116 207.745,6.116 205.385,17.938 198.372,17.938 198.372,49.181 185.725,49.181 185.725,17.938 176.643,17.938"/><path fill="#E30017" d="M204.428 27.911c0-12.193 9.883-22.076 22.074-22.076 12.195 0 22.076 9.883 22.076 22.076s-9.881 22.075-22.076 22.075C214.311 49.986 204.428 40.104 204.428 27.911M216.934 27.911c0 5.284 4.285 9.566 9.568 9.566s9.566-4.282 9.566-9.566c0-5.283-4.283-9.564-9.566-9.564S216.934 22.628 216.934 27.911M102.577 27.911c0-12.193 9.886-22.076 22.078-22.076 12.193 0 22.076 9.883 22.076 22.076s-9.883 22.075-22.076 22.075C112.462 49.986 102.577 40.104 102.577 27.911M115.088 27.911c0 5.284 4.283 9.566 9.566 9.566 5.287 0 9.566-4.282 9.566-9.566 0-5.283-4.279-9.564-9.566-9.564C119.372 18.347 115.088 22.628 115.088 27.911M40.083 28.917c3.495-6.87 8.546-13.325 14.536-16.757 3.869-2.217 8.141-1.16 9.218 4.237.819 4.104.697 7.245-2.063 9.059C57.097 28.526 48.701 29.513 40.083 28.917M37.446 28.687c-9.839-1.041-19.5-4.07-23.811-8.346-2.014-1.998-1.282-4.645-.079-6.54C17.906 6.958 29.328 1.085 38.69.069c2.998-.326 4.897.43 5.044 3.789C44.036 10.68 42.038 20.028 37.446 28.687M36.276 30.777c-5.618 9.556-14.518 17.915-27.108 20.554C2.169 52.799-.021 47.893 0 42.504c.023-6.091 1.354-11.072 10.739-12.454C16.643 29.181 26.927 29.472 36.276 30.777M38.99 31.19c7.491 1.234 13.997 3.145 16.561 5.645 1.833 1.785 1.667 3.49.275 5.456-3.451 4.871-12.304 8.719-17.484 9.281-2.689.293-3.313-1.258-3.435-3.061C34.6 43.955 36.116 37.52 38.99 31.19M33.815 39.681C29.63 49.772 23.352 61.99 18.55 63.645l-2.858-2.998c6.778-.45 13.852-14.896 15.966-19.562L33.815 39.681M90.625 84.437v-21.48h-3.023v8.823h-8.199v-8.823h-2.959v21.48h2.959V74.242h8.199v10.194H90.625M107.551 77.236v-.498c-.031-3.588-.531-5.333-1.902-6.737-1.09-1.12-2.49-1.681-4.238-1.681-1.932 0-3.461.686-4.708 2.15-1.341 1.59-1.869 3.334-1.869 6.047 0 5.113 2.651 8.26 6.983 8.26 2.022 0 3.865-.654 5.393-1.996l-1.092-1.714c-1.121.999-2.369 1.498-3.835 1.498-1.495 0-2.772-.594-3.583-1.839-.47-.749-.654-1.779-.654-3.119v-.371H107.551zM104.559 75.113h-6.482c0-2.836 1.09-4.613 3.271-4.613.998 0 1.746.469 2.244 1.092C104.217 72.371 104.559 73.619 104.559 75.113M122.202 79.635c0-2.059-1.185-3.708-4.051-4.365l-2.027-.465c-1.65-.377-2.214-1-2.214-2.121 0-1.402 1.062-2.338 2.712-2.338 1.248 0 2.402.406 3.835 1.122l.967-2.026c-1.278-.746-3.023-1.279-4.925-1.279-3.369 0-5.643 1.998-5.643 4.865 0 2.308 1.34 3.865 3.803 4.33l1.9.377c1.81.341 2.619 1.122 2.619 2.461 0 1.529-1.184 2.525-2.898 2.525-1.746 0-3.523-.717-5.018-1.559l-1.029 2.057c1.809 1.061 3.928 1.652 5.826 1.652C119.708 84.871 122.202 82.752 122.202 79.635M136.481 79.635c0-2.059-1.188-3.708-4.055-4.365l-2.025-.465c-1.652-.377-2.213-1-2.213-2.121 0-1.402 1.059-2.338 2.711-2.338 1.248 0 2.402.406 3.834 1.122l.967-2.026c-1.277-.746-3.021-1.279-4.922-1.279-3.369 0-5.645 1.998-5.645 4.865 0 2.308 1.342 3.865 3.803 4.33l1.904.377c1.805.341 2.617 1.122 2.617 2.461 0 1.529-1.186 2.525-2.9 2.525-1.744 0-3.521-.717-5.02-1.559l-1.029 2.057c1.809 1.061 3.93 1.652 5.83 1.652C133.985 84.871 136.481 82.752 136.481 79.635M151.94 77.236v-.498c-.029-3.588-.527-5.333-1.9-6.737-1.088-1.12-2.494-1.681-4.238-1.681-1.934 0-3.461.686-4.711 2.15-1.336 1.59-1.867 3.334-1.867 6.047 0 5.113 2.648 8.26 6.98 8.26 2.025 0 3.867-.654 5.395-1.996l-1.09-1.714c-1.121.999-2.371 1.498-3.836 1.498-1.498 0-2.775-.594-3.584-1.839-.467-.749-.656-1.779-.656-3.119v-.371H151.94zM148.952 75.113h-6.486c0-2.836 1.092-4.613 3.273-4.613.996 0 1.744.469 2.244 1.092C148.606 72.371 148.952 73.619 148.952 75.113M167.807 84.437V72.621c0-.718-.123-1.402-.375-1.963-.561-1.341-2.025-2.216-3.678-2.216-.967 0-1.994.253-2.9.78-.652.373-1.121.778-2.025 1.529 0-.967-.154-1.652-.531-2.401l-2.709.749c.436 1.123.594 1.837.594 3.709v11.628h2.834V72.871c1.063-1.123 2.744-1.996 3.867-1.996.715 0 1.277.219 1.59.625.373.498.498.996.498 2.399v10.537H167.807z"/></svg>