<svg enable-background="new 0 0 117.049 50" viewBox="0 0 117.049 50" xmlns="http://www.w3.org/2000/svg"><path d="m77.785 33.979h-9.061v-15.1l-6.04 15.1h-9.058l-.003-15.1-6.038 15.1h-9.057l13.597-33.979h9.049v18.878l7.564-18.878h9.047zm-55.874 0-3.02-7.548h-9.818v-26.428h-9.06v33.975h21.898zm24.929-33.976-9.828-.001-6.796 18.876-6.796-18.872-9.814-.003 13.59 33.975h6.045zm-37.513 39.261h-1.777l-2.742 8.147h-.03l-2.695-8.147h-2.083l3.6 10.567h2.067zm8.515 10.568v-1.272h-4.303v-3.629h3.951v-1.21h-3.951v-3.247h4.166v-1.21h-6.172v10.567h6.309zm10.278 0-.598-2.803c-.259-1.225-.474-2.236-2.036-2.527v-.03c.949-.246 2.206-.812 2.206-2.451 0-2.405-2.099-2.757-4.442-2.757h-2.404v10.567h2.007v-4.626h.628c1.577 0 1.884.705 2.251 2.635l.382 1.991h2.006zm-2.435-7.659c0 1.547-1.012 1.915-2.436 1.915h-.397v-3.705h.397c1.241-.001 2.436.106 2.436 1.79zm11.732 4.687c0-3.277-5.161-3.399-5.161-5.467 0-.658.597-1.087 1.439-1.087 1.225 0 2.542.536 2.91.72v-1.638c-.398-.077-1.516-.291-2.634-.291-2.282 0-3.568 1.025-3.568 2.725 0 3.339 5.008 3.293 5.008 5.682 0 .995-.98 1.286-1.654 1.286-1.194 0-2.374-.628-3.186-1.134v1.869c.383.107 1.594.475 2.863.475 2.267 0 3.983-.842 3.983-3.14zm4.871 2.972v-10.568h-2.007v10.567h2.007zm11.195-7.689c0-1.853-1.21-3.047-3.706-3.047-3.201 0-4.319 2.45-4.319 5.253 0 2.987 1.271 5.651 4.609 5.651 1.272 0 2.313-.398 2.987-.658v-1.654c-.382.291-1.286 1.042-2.619 1.042-2.818 0-2.864-3.492-2.864-4.718 0-1.409.306-3.906 2.082-3.906 1.287 0 1.547 1.21 1.547 2.037zm10.263 7.689v-10.568h-2.007v4.426h-3.675v-4.426h-2.008v10.567h2.008v-4.931h3.675v4.932zm9.893 0v-1.272h-4.303v-3.629h3.951v-1.21h-3.951v-3.247h4.166v-1.21h-6.172v10.567h6.309zm10.277 0-.597-2.803c-.259-1.225-.475-2.236-2.036-2.527v-.03c.949-.246 2.205-.812 2.205-2.451 0-2.405-2.098-2.757-4.441-2.757h-2.404v10.567h2.006v-4.626h.628c1.578 0 1.884.705 2.251 2.635l.383 1.991h2.005zm-2.434-7.659c0 1.547-1.011 1.915-2.436 1.915h-.398v-3.705h.398c1.241-.001 2.436.106 2.436 1.79zm12.834 4.059v-6.968h-2.006v6.968c0 1.654-.215 2.756-1.838 2.756-1.532 0-1.792-1.103-1.792-2.756v-6.968h-2.006v6.968c0 1.884.398 3.768 3.798 3.768 3.446 0 3.844-1.884 3.844-3.768zm11.426 3.6v-10.568h-1.639v7.841h-.03l-4.09-7.841h-2.189v10.567h1.638v-8.225h.031l4.288 8.225h1.991zm11.303-.812v-5.407h-3.905v1.271h1.899v3.676c-.169.214-.643.429-1.241.429-2.281 0-2.757-2.159-2.757-4.702 0-1.408 0-4.181 2.145-4.181 1.47 0 1.547 1.302 1.592 1.93h2.175c0-2.022-1.47-2.94-3.768-2.94-3.262 0-4.257 2.251-4.257 5.36 0 3.094 1.378 5.544 4.702 5.544 1.455-0 2.619-.505 3.415-.98zm.004-46.529v-2.491h-25.869c-.014 0-.03 0-.044 0-1.862 0-5.227 0-8.069 1.085 0 0 .62 1.633.627 3.177.006 1.367-.624 2.912-.624 2.912s0 11.744 0 13.069c0 .578.216.894.605 1.071.716.326 1.562.568 2.401.89.56.215 1.179-.245 1.591-.97 1.196-2.1 2.461-4.677 2.461-4.677s1.314-.708 1.933-2.045c.569-1.227.49-1.971.49-1.971 4.38 6.375 4.442 15.121 4.442 15.121s-4.851-1.11-7.337-1.688c-1.618-.376-3.524-.829-4.408-.829-1.154 0-2.127.739-2.162 1.797-.019.54.3 1.485.869 3.034.603 1.638.683 1.814 1.438 4.003h3.855l-.847-3.379c2.986.968 4.11 2.431 7.353 3.379h21.295v-10.796s-.652-1.21-1.642-2.946h1.642v-2.491h-3.091c-.376-.634-.769-1.288-1.174-1.945h4.264v-2.491h-5.846c-.315-.478-.627-.941-.936-1.383-.132-.19-.265-.376-.398-.563h7.18v-2.491h-9.072c-.551-.684-1.108-1.334-1.662-1.946h10.734v-2.491h-13.248c-.904-.792-1.788-1.45-2.637-1.945z" fill="#009b31"/></svg>