<?xml version="1.0" encoding="iso-8859-1"?>
<!-- Generator: Adobe Illustrator 19.0.0, SVG Export Plug-In . SVG Version: 6.00 Build 0)  -->
<!DOCTYPE svg PUBLIC "-//W3C//DTD SVG 1.1//EN" "http://www.w3.org/Graphics/SVG/1.1/DTD/svg11.dtd">
<svg version="1.1" xmlns="http://www.w3.org/2000/svg" xmlns:xlink="http://www.w3.org/1999/xlink" x="0px" y="0px"
	 viewBox="0 0 117.049 50" style="enable-background:new 0 0 117.049 50;" xml:space="preserve">
<g id="Ebene_1_1_">
	<g id="XMLID_8_">
		<path id="XMLID_9_" style="fill:#009B31;" d="M77.785,33.979h-9.061v-15.1l-6.04,15.1h-9.058l-0.003-15.1l-6.038,15.1h-9.057
			L52.125,0h9.049v18.878L68.738,0h9.047V33.979z M21.911,33.979l-3.02-7.548H9.073V0.003h-9.06v33.975H21.911z M46.84,0.003
			l-9.828-0.001l-6.796,18.876L23.42,0.006l-9.814-0.003l13.59,33.975h6.045L46.84,0.003z M9.327,39.264H7.55l-2.742,8.147H4.778
			l-2.695-8.147H0l3.6,10.567h2.067L9.327,39.264z M17.842,49.832V48.56h-4.303v-3.629h3.951v-1.21h-3.951v-3.247h4.166v-1.21
			h-6.172v10.567H17.842z M28.12,49.832l-0.598-2.803c-0.259-1.225-0.474-2.236-2.036-2.527v-0.03
			c0.949-0.246,2.206-0.812,2.206-2.451c0-2.405-2.099-2.757-4.442-2.757h-2.404v10.567h2.007v-4.626h0.628
			c1.577,0,1.884,0.705,2.251,2.635l0.382,1.991H28.12z M25.685,42.173c0,1.547-1.012,1.915-2.436,1.915h-0.397v-3.705h0.397
			C24.49,40.382,25.685,40.489,25.685,42.173z M37.417,46.86c0-3.277-5.161-3.399-5.161-5.467c0-0.658,0.597-1.087,1.439-1.087
			c1.225,0,2.542,0.536,2.91,0.72v-1.638c-0.398-0.077-1.516-0.291-2.634-0.291c-2.282,0-3.568,1.025-3.568,2.725
			c0,3.339,5.008,3.293,5.008,5.682c0,0.995-0.98,1.286-1.654,1.286c-1.194,0-2.374-0.628-3.186-1.134v1.869
			C30.954,49.632,32.165,50,33.434,50C35.701,50,37.417,49.158,37.417,46.86z M42.288,49.832V39.264h-2.007v10.567H42.288z
			 M53.483,42.143c0-1.853-1.21-3.047-3.706-3.047c-3.201,0-4.319,2.45-4.319,5.253c0,2.987,1.271,5.651,4.609,5.651
			c1.272,0,2.313-0.398,2.987-0.658v-1.654c-0.382,0.291-1.286,1.042-2.619,1.042c-2.818,0-2.864-3.492-2.864-4.718
			c0-1.409,0.306-3.906,2.082-3.906c1.287,0,1.547,1.21,1.547,2.037H53.483z M63.746,49.832V39.264h-2.007v4.426h-3.675v-4.426
			h-2.008v10.567h2.008V44.9h3.675v4.932H63.746z M73.639,49.832V48.56h-4.303v-3.629h3.951v-1.21h-3.951v-3.247h4.166v-1.21H67.33
			v10.567H73.639z M83.916,49.832l-0.597-2.803c-0.259-1.225-0.475-2.236-2.036-2.527v-0.03c0.949-0.246,2.205-0.812,2.205-2.451
			c0-2.405-2.098-2.757-4.441-2.757h-2.404v10.567h2.006v-4.626h0.628c1.578,0,1.884,0.705,2.251,2.635l0.383,1.991H83.916z
			 M81.482,42.173c0,1.547-1.011,1.915-2.436,1.915h-0.398v-3.705h0.398C80.287,40.382,81.482,40.489,81.482,42.173z M94.316,46.232
			v-6.968h-2.006v6.968c0,1.654-0.215,2.756-1.838,2.756c-1.532,0-1.792-1.103-1.792-2.756v-6.968h-2.006v6.968
			c0,1.884,0.398,3.768,3.798,3.768C93.918,50,94.316,48.116,94.316,46.232z M105.742,49.832V39.264h-1.639v7.841h-0.03l-4.09-7.841
			h-2.189v10.567h1.638v-8.225h0.031l4.288,8.225H105.742z M117.045,49.02v-5.407h-3.905v1.271h1.899v3.676
			c-0.169,0.214-0.643,0.429-1.241,0.429c-2.281,0-2.757-2.159-2.757-4.702c0-1.408,0-4.181,2.145-4.181
			c1.47,0,1.547,1.302,1.592,1.93h2.175c0-2.022-1.47-2.94-3.768-2.94c-3.262,0-4.257,2.251-4.257,5.36
			c0,3.094,1.378,5.544,4.702,5.544C115.085,50,116.249,49.495,117.045,49.02z M117.049,2.491V0H91.18v0c-0.014,0-0.03,0-0.044,0
			c-1.862,0-5.227,0-8.069,1.085c0,0,0.62,1.633,0.627,3.177C83.7,5.629,83.07,7.174,83.07,7.174s0,11.744,0,13.069
			c0,0.578,0.216,0.894,0.605,1.071c0.716,0.326,1.562,0.568,2.401,0.89c0.56,0.215,1.179-0.245,1.591-0.97
			c1.196-2.1,2.461-4.677,2.461-4.677s1.314-0.708,1.933-2.045c0.569-1.227,0.49-1.971,0.49-1.971
			c4.38,6.375,4.442,15.121,4.442,15.121s-4.851-1.11-7.337-1.688c-1.618-0.376-3.524-0.829-4.408-0.829
			c-1.154,0-2.127,0.739-2.162,1.797c-0.019,0.54,0.3,1.485,0.869,3.034c0.603,1.638,0.683,1.814,1.438,4.003h3.855l-0.847-3.379
			c2.986,0.968,4.11,2.431,7.353,3.379h21.295V23.183c0,0-0.652-1.21-1.642-2.946h1.642v-2.491h-3.091
			c-0.376-0.634-0.769-1.288-1.174-1.945h4.264V13.31h-5.846c-0.315-0.478-0.627-0.941-0.936-1.383
			c-0.132-0.19-0.265-0.376-0.398-0.563h7.18V8.873h-9.072c-0.551-0.684-1.108-1.334-1.662-1.946h10.734V4.436H103.8
			c-0.904-0.792-1.788-1.45-2.637-1.945H117.049z"/>
	</g>
</g>
<g id="Ebene_1">
</g>
</svg>
