<?xml version="1.0" encoding="UTF-8" standalone="no"?>
<!-- Created with Inkscape (http://www.inkscape.org/) -->

<svg
   version="1.1"
   id="svg1"
   width="1134.6143"
   height="567.68506"
   viewBox="0 0 1134.6143 567.68506"
   sodipodi:docname="eder.svg"
   inkscape:version="1.3 (0e150ed, 2023-07-21)"
   xmlns:inkscape="http://www.inkscape.org/namespaces/inkscape"
   xmlns:sodipodi="http://sodipodi.sourceforge.net/DTD/sodipodi-0.dtd"
   xmlns="http://www.w3.org/2000/svg"
   xmlns:svg="http://www.w3.org/2000/svg">
  <sodipodi:namedview
     id="namedview1"
     pagecolor="#ffffff"
     bordercolor="#666666"
     borderopacity="1.0"
     inkscape:showpageshadow="2"
     inkscape:pageopacity="0.0"
     inkscape:pagecheckerboard="0"
     inkscape:deskcolor="#d1d1d1"
     showgrid="false"
     inkscape:zoom="0.93018608"
     inkscape:cx="1086.3418"
     inkscape:cy="357.99289"
     inkscape:window-width="1920"
     inkscape:window-height="1027"
     inkscape:window-x="1920"
     inkscape:window-y="25"
     inkscape:window-maximized="0"
     inkscape:current-layer="layer-Pr16" />
  <defs
     id="defs1">
    <linearGradient
       x1="4016.22"
       y1="1418.66"
       x2="4031.3799"
       y2="1606.9"
       gradientUnits="userSpaceOnUse"
       spreadMethod="pad"
       id="linearGradient381">
      <stop
         style="stop-opacity:1;stop-color:#e3000f;"
         offset="0"
         id="stop380" />
      <stop
         style="stop-opacity:1;stop-color:#ffffff;"
         offset="1"
         id="stop381" />
    </linearGradient>
  </defs>
  <g
     id="layer-Pr16"
     inkscape:groupmode="layer"
     inkscape:label="Ebene 1"
     transform="translate(-4941.2465,-4299.6172)">
    <path
       id="path378"
       d="M 3873.3072,1375.9384 C 3871.5284,1375.9384 3868.7658,1373.2951 3865.8042,1371.2462 C 3864.1365,1370.1231 3860.4574,1368.0091 3858.6926,1366.8191 C 3856.9275,1365.63 3855.0078,1364.4411 3852.9899,1363.1851 C 3851.932,1362.5243 3845.219,1358.6264 3845.0117,1357.9656 C 3844.8876,1357.5688 3845.31,1357.4361 3845.5421,1357.4361 C 3846.0061,1357.4361 3846.8937,1358.2956 3847.4354,1358.2956 C 3847.6672,1358.2956 3847.6826,1358.0969 3847.5788,1357.7672 C 3847.434,1357.3046 3847.5264,1357.1065 3847.6811,1357.1065 C 3848.377,1357.1065 3850.6436,1359.1548 3851.2621,1359.1548 C 3851.7262,1359.1548 3851.6638,1358.9563 3851.5394,1358.5598 C 3851.4152,1358.1629 3850.4344,1357.5022 3850.3726,1357.3046 C 3850.331,1357.1725 3850.3877,1357.1065 3850.5424,1357.1065 C 3851.2383,1357.1065 3852.364,1358.2295 3852.7506,1358.2295 C 3853.0599,1358.2295 3853.0959,1358.0969 3853.0128,1357.8333 C 3852.868,1357.3709 3851.8512,1356.8414 3851.5986,1356.7754 C 3851.4234,1356.7102 3851.0311,1356.4457 3850.9897,1356.3133 C 3850.969,1356.2473 3851.1181,1355.9831 3851.35,1355.9831 C 3851.9691,1355.9831 3853.368,1357.238 3855.1065,1358.0969 C 3855.7517,1358.428 3860.0606,1361.071 3860.447,1361.071 C 3860.9887,1361.071 3861.04,1360.7405 3860.9569,1360.4763 C 3860.8118,1360.0134 3852.3334,1344.8154 3851.1496,1342.7674 C 3847.2993,1336.1598 3838.962,1322.1516 3837.7602,1318.3191 C 3837.5116,1317.526 3837.9696,1317.2621 3838.5774,1316.7334 C 3839.2628,1316.2045 3839.4207,1315.478 3839.4873,1314.9496 C 3839.5179,1314.5528 3840.1044,1313.9578 3840.4134,1313.9578 C 3841.0325,1313.9578 3841.4815,1314.1565 3841.8378,1314.5528 C 3843.4796,1316.3372 3853.7028,1326.2479 3859.1405,1331.9966 C 3861.5519,1334.5081 3868.4412,1342.1724 3869.2145,1342.1724 C 3869.7557,1342.1724 3870.2707,1341.8427 3870.1253,1341.3798 C 3870.0221,1341.0493 3863.6529,1329.6186 3862.6597,1327.4379 C 3862.2155,1326.513 3861.5689,1325.1915 3861.4445,1324.7946 C 3861.341,1324.4641 3861.392,1324.1339 3861.7784,1324.1339 C 3862.1653,1324.1339 3863.0225,1325.3893 3863.4866,1325.3893 C 3863.9511,1325.3893 3863.7439,1324.7286 3863.5985,1324.2662 C 3863.433,1323.737 3863.1127,1323.2092 3863.0296,1322.9444 C 3862.9261,1322.6139 3863.0546,1322.2837 3863.2805,1322.0192 C 3863.6206,1321.6229 3864.6646,1319.7725 3865.4379,1319.7725 C 3866.0564,1319.7725 3866.9236,1320.5659 3867.5117,1320.9622 C 3869.5708,1322.35 3874.081,1328.0987 3875.2421,1329.0894 C 3876.6206,1330.2794 3882.6312,1336.6222 3883.8399,1338.0103 C 3884.4334,1338.6711 3887.5691,1342.5035 3888.1103,1342.5035 C 3888.3424,1342.5035 3888.455,1342.3708 3888.3725,1342.1066 C 3888.248,1341.7101 3887.1944,1340.3228 3886.6969,1338.7371 C 3886.4276,1337.8779 3886.0393,1336.8872 3885.6716,1335.9614 C 3885.2008,1334.7065 3883.7642,1332.5913 3883.5363,1331.8648 C 3883.2049,1330.8075 3881.9588,1328.561 3881.6065,1327.4379 C 3881.1926,1326.1161 3880.082,1324.7946 3879.6673,1323.4731 C 3879.5224,1323.0108 3879.6508,1322.68 3880.0375,1322.68 C 3880.656,1322.68 3881.3992,1323.0763 3881.7309,1324.1339 C 3881.897,1324.6625 3882.8591,1327.2395 3883.6327,1327.2395 C 3884.406,1327.2395 3883.4033,1325.5211 3883.9445,1325.5211 C 3885.0273,1325.5211 3885.5772,1327.7679 3886.3508,1327.7679 C 3887.0467,1327.7679 3885.9197,1325.6538 3886.7703,1325.6538 C 3888.3172,1325.6538 3888.9207,1329.552 3890.1583,1329.552 C 3890.622,1329.552 3890.6113,1329.0233 3890.4866,1328.6268 C 3890.321,1328.0987 3889.7419,1327.2395 3889.6537,1326.7108 C 3889.5293,1326.3146 3889.601,1326.0501 3889.9106,1326.0501 C 3890.452,1326.0501 3891.1436,1326.7769 3891.4807,1328.0987 C 3891.6933,1329.0233 3894.8122,1335.763 3895.3043,1337.0845 C 3896.0186,1338.8686 3900.2,1349.2426 3900.6558,1350.697 C 3901.0085,1351.8201 3901.3506,1353.4061 3901.8427,1354.7276 C 3902.3345,1356.0494 3902.8201,1357.1065 3902.9031,1357.3709 C 3903.0897,1357.9656 3903.0389,1358.2956 3902.8068,1358.2956 C 3902.1883,1358.2956 3901.7064,1356.5117 3900.8554,1356.5117 C 3900.4688,1356.5117 3900.5569,1357.0398 3900.6397,1357.3046 C 3901.0955,1358.7579 3902.4533,1359.8813 3902.868,1361.2028 C 3903.2201,1362.3259 3902.0406,1363.2508 3901.1899,1363.2508 C 3900.8803,1363.2508 3900.3086,1363.6477 3899.5353,1363.6477 C 3898.3757,1363.6477 3897.5445,1362.7227 3896.7693,1361.7317 C 3895.8554,1360.542 3892.648,1356.9741 3891.6054,1356.1149 C 3889.1636,1354.0008 3880.5049,1342.1724 3879.1905,1342.1724 C 3878.9583,1342.1724 3878.7678,1342.3051 3878.8923,1342.7014 C 3879.4099,1344.3531 3880.5049,1345.873 3881.3119,1347.4587 C 3882.7083,1350.432 3885.5299,1354.9912 3886.4421,1357.899 C 3886.7321,1358.8237 3887.7863,1360.2118 3888.3458,1361.9959 C 3888.5323,1362.5901 3889.3516,1365.696 3888.5009,1365.696 C 3888.1911,1365.696 3887.7783,1365.3658 3887.3914,1365.3658 C 3886.7729,1365.3658 3886.6856,1365.8284 3886.7686,1366.0923 C 3886.8928,1366.4891 3887.4251,1366.9515 3887.5289,1367.2817 C 3887.6117,1367.5465 3887.6374,1367.8764 3887.4827,1367.8764 C 3887.3279,1367.8764 3887.153,1367.8106 3886.9982,1367.8106 C 3886.6887,1367.8106 3886.4061,1368.1409 3885.9418,1368.1409 C 3885.5554,1368.1409 3885.2252,1368.0746 3884.8898,1367.7446 C 3867.0956,1348.9787 3865.1944,1346.864 3863.971,1345.6746 C 3862.4119,1344.1547 3861.6214,1343.3621 3861.3124,1343.3621 C 3861.235,1343.3621 3861.1012,1343.4284 3861.2407,1343.6266 C 3861.4065,1344.1547 3862.3,1345.278 3862.9256,1346.5338 C 3864.4353,1349.3752 3868.5073,1355.4541 3869.2003,1357.1725 C 3870.65,1360.806 3875.0924,1367.0838 3876.5849,1371.8409 C 3877.2479,1373.9562 3874.6216,1375.9384 3873.3072,1375.9384 Z M 3898.4581,1332.5913 C 3896.676,1326.9087 3899.1461,1323.9354 3901.7906,1323.737 C 3905.0388,1323.737 3914.3985,1332.129 3914.8628,1332.129 C 3915.2492,1332.129 3915.2228,1331.7982 3915.0986,1331.4025 C 3914.9121,1330.8075 3914.2976,1330.0809 3914.028,1329.2218 C 3913.3029,1326.9087 3914.979,1323.87 3916.5613,1323.737 C 3918.8041,1323.737 3928.8475,1330.609 3929.0964,1331.4025 C 3929.1378,1331.5343 3929.0811,1331.6009 3928.9263,1331.6009 C 3928.5394,1331.6009 3928.2454,1331.4025 3928.0133,1331.4025 C 3927.8585,1331.4025 3927.8021,1331.4682 3927.8228,1331.5343 C 3927.9053,1331.7982 3929.2373,1332.5913 3929.4595,1333.0536 C 3929.5006,1333.1866 3929.3671,1333.2521 3929.2123,1333.2521 C 3928.826,1333.2521 3927.0753,1331.8648 3926.6116,1331.8648 C 3926.4568,1331.8648 3926.3437,1331.9966 3926.3848,1332.129 C 3926.4885,1332.4589 3928.718,1333.6492 3928.8628,1334.1118 C 3928.9255,1334.3102 3928.8118,1334.4415 3928.5802,1334.4415 C 3928.4254,1334.4415 3927.0166,1333.6492 3926.8619,1333.6492 C 3926.785,1333.6492 3926.651,1333.7144 3926.6147,1333.8473 C 3928.9887,1335.4988 3930.3102,1336.7548 3930.4344,1337.1511 C 3930.4967,1337.3495 3930.3626,1337.4156 3930.1311,1337.4156 C 3930.0537,1337.4156 3929.9349,1337.2829 3929.7178,1337.0845 C 3927.9574,1335.1689 3924.51,1333.0536 3924.2784,1333.0536 C 3923.7367,1333.0536 3923.6443,1333.2521 3923.8104,1333.7807 C 3924.4527,1335.8296 3926.8806,1339.1334 3927.5019,1341.1159 C 3927.668,1341.6443 3926.3187,1342.7674 3926.1036,1343.5605 C 3925.9389,1344.0229 3925.8278,1345.1465 3924.7449,1345.1465 C 3924.1264,1345.1465 3923.6148,1344.75 3922.9435,1344.0892 C 3912.5718,1334.4415 3907.9426,1331.2698 3906.396,1331.2698 C 3905.6227,1331.2698 3905.066,1331.4682 3905.2108,1331.9306 C 3905.6049,1333.1866 3906.4776,1334.2439 3907.5463,1335.4333 C 3915.5043,1344.2873 3929.0094,1349.3752 3929.2583,1350.1678 C 3929.3827,1350.5641 3929.2333,1350.8286 3928.9243,1350.8286 C 3928.3058,1350.8286 3927.7168,1350.432 3927.0983,1350.432 C 3927.0209,1350.432 3926.9642,1350.4986 3927.0266,1350.697 C 3927.1507,1351.0928 3928.1207,1351.2249 3928.3067,1351.8201 C 3928.4935,1352.4143 3927.8237,1352.7454 3927.4373,1352.7454 C 3927.1277,1352.7454 3926.8332,1352.5466 3926.6016,1352.5466 C 3926.5243,1352.5466 3926.4676,1352.6127 3926.5092,1352.7454 C 3926.5503,1352.8777 3928.1136,1353.6697 3928.3832,1354.5295 C 3928.5904,1355.1902 3927.6686,1355.4541 3926.895,1355.4541 C 3926.0441,1355.4541 3923.1397,1354.3305 3919.7245,1352.8111 C 3913.7709,1350.1018 3901.2968,1341.6443 3898.4581,1332.5913 Z M 3958.7102,1362.4588 C 3959.7874,1365.8939 3959.5022,1371.6425 3958.1104,1371.6425 C 3957.8009,1371.6425 3957.5786,1371.1802 3957.0375,1371.1802 C 3956.1092,1371.1802 3957.7516,1372.964 3956.4366,1372.964 C 3955.4317,1372.964 3955.0683,1371.3129 3954.604,1371.3129 C 3954.2947,1371.3129 3954.2797,1371.5113 3954.3625,1371.7752 C 3954.6264,1372.3696 3955.0235,1372.8986 3955.1896,1373.4269 C 3955.3557,1373.9562 3955.2483,1374.3519 3954.5524,1374.3519 C 3952.3096,1374.3519 3949.9739,1370.8505 3948.8411,1368.4714 C 3945.4994,1361.2686 3934.2345,1344.0892 3931.2921,1334.7065 C 3930.2351,1331.3358 3929.7325,1329.4857 3929.906,1328.561 C 3930.0951,1327.4379 3931.4344,1323.0763 3933.29,1323.0763 C 3936.2295,1323.0763 3947.3555,1329.9483 3947.9562,1331.8648 C 3948.0599,1332.195 3947.8127,1332.3934 3947.4252,1332.3934 C 3947.1942,1332.3934 3946.8997,1332.195 3946.5904,1332.195 C 3946.4359,1332.195 3946.379,1332.2616 3946.3997,1332.3277 C 3946.4827,1332.5913 3947.0859,1332.7903 3947.2311,1333.2521 C 3947.3141,1333.5165 3946.9329,1333.7807 3947.0783,1334.2439 C 3947.2645,1334.838 3948.6521,1335.5654 3948.7765,1335.9614 C 3948.8182,1336.0941 3948.8596,1336.2265 3948.6274,1336.2265 C 3948.2408,1336.2265 3942.9255,1332.5913 3940.4503,1332.5913 C 3939.677,1332.5913 3939.6728,1333.3181 3939.8389,1333.8473 C 3942.1803,1341.3138 3948.0766,1350.4986 3951.737,1357.238 C 3952.6418,1358.8903 3953.795,1361.3352 3955.1094,1361.3352 C 3955.7285,1361.3352 3955.7271,1360.3436 3955.5198,1359.6829 C 3955.0844,1358.2956 3954.2837,1356.9741 3953.6368,1355.652 C 3950.8492,1349.9697 3948.1081,1347.393 3948.0463,1347.1946 C 3947.9839,1346.9961 3948.0199,1346.864 3948.2515,1346.864 C 3948.8706,1346.864 3949.1966,1347.6572 3949.5056,1347.6572 C 3949.8151,1347.6572 3949.789,1347.3264 3949.727,1347.1291 C 3949.5815,1346.6656 3945.5847,1342.3051 3945.4603,1341.9085 C 3945.3979,1341.7101 3945.3361,1341.5117 3945.6456,1341.5117 C 3946.1094,1341.5117 3946.502,1341.7767 3947.2143,1342.5693 C 3953.272,1349.3086 3956.6171,1355.7847 3958.7102,1362.4588 Z M 3955.4606,1323.737 C 3957.0075,1323.737 3962.9761,1326.2479 3963.6207,1326.5787 C 3972.083,1330.8735 3972.424,1331.4682 3972.5691,1331.9306 C 3972.6729,1332.2616 3972.4821,1332.3934 3972.3273,1332.3934 C 3972.0183,1332.3934 3971.5427,1331.8648 3971.3105,1331.8648 C 3971.1557,1331.8648 3971.0789,1331.8648 3971.1206,1331.9966 C 3971.2654,1332.4589 3973.108,1333.6492 3973.2531,1334.1118 C 3973.3155,1334.3102 3973.2792,1334.4415 3973.1244,1334.4415 C 3972.892,1334.4415 3972.1439,1333.7807 3971.9117,1333.7807 C 3971.757,1333.7807 3971.5461,1333.8473 3971.5872,1333.9789 C 3971.6702,1334.2439 3973.7449,1335.4333 3973.9311,1336.028 C 3973.9935,1336.2265 3973.7254,1336.3577 3973.4932,1336.3577 C 3973.1839,1336.3577 3972.89,1336.1598 3972.5748,1335.8957 C 3971.3715,1334.7726 3963.6694,1331.6669 3961.2728,1331.6669 C 3957.715,1331.6669 3957.3317,1333.6492 3958.0832,1336.2919 C 3969.0839,1339.0668 3975.1551,1340.9175 3977.227,1347.5248 C 3978.4085,1351.2912 3975.3306,1354.7934 3973.4745,1354.7934 C 3964.117,1354.7934 3951.5958,1342.239 3949.2748,1334.838 C 3948.5288,1332.4589 3948.0829,1330.5433 3948.3343,1329.6186 C 3949.016,1327.1071 3951.3614,1323.737 3955.4606,1323.737 Z M 3968.0048,1344.75 C 3967.5076,1343.1643 3961.7056,1342.1724 3961.4156,1341.2475 C 3961.3326,1340.9836 3961.5236,1340.8509 3962.0648,1340.8509 C 3962.5291,1340.8509 3963.1476,1340.8509 3963.0852,1340.653 C 3962.9404,1340.1901 3960.089,1339.7275 3959.9022,1339.1334 C 3959.7574,1338.6711 3961.3303,1339.0013 3961.1438,1338.406 C 3961.0193,1338.0103 3958.863,1337.5468 3958.456,1337.4814 C 3958.9948,1339.1997 3964.6329,1348.0537 3966.7207,1348.0537 C 3967.9583,1348.0537 3968.3775,1345.9388 3968.0048,1344.75 Z M 3989.2453,1330.609 C 3990.4829,1330.609 3996.0051,1331.204 3997.0871,1333.9128 C 3996.6588,1333.7807 3995.8444,1333.6492 3995.2253,1333.6492 L 3995.2664,1333.7807 C 3995.6953,1333.9128 3996.2415,1334.1773 3996.3869,1334.6399 C 3996.428,1334.7726 3996.3713,1334.838 3996.2171,1334.838 C 3995.985,1334.838 3995.6343,1334.7065 3995.4798,1334.7065 C 3995.3251,1334.7065 3995.2117,1334.838 3995.274,1335.0362 C 3995.3982,1335.4333 3997.3825,1335.1022 3997.942,1336.8872 C 3997.065,1336.5564 3995.4713,1336.1598 3994.6207,1336.1598 C 3994.0795,1336.1598 3993.6158,1336.1598 3993.0948,1336.2265 C 3995.1802,1337.9437 3997.0809,1340.0586 3997.7442,1342.1724 C 3997.806,1342.3708 3997.4304,1342.8998 3996.9666,1342.8998 C 3996.7345,1342.8998 3996.2443,1342.5693 3995.7537,1342.239 C 3995.7177,1342.3708 3995.7032,1342.5693 3995.7443,1342.7014 C 3995.765,1342.7674 3995.9612,1342.8998 3995.9816,1342.9658 C 3995.9816,1342.9658 3996.0023,1343.0316 3995.9249,1343.0316 C 3995.8481,1343.0316 3995.337,1342.6353 3995.1822,1342.6353 C 3995.1048,1342.6353 3995.1459,1342.7674 3995.1459,1342.7674 C 3995.1666,1342.8332 3996.1471,1343.4939 3996.4377,1344.4191 C 3996.7067,1345.278 3995.0739,1345.7409 3994.3777,1345.7409 C 3991.6704,1345.7409 3987.7875,1341.2475 3986.1658,1339.5294 H 3986.011 C 3987.1712,1343.23 3991.7151,1347.8553 3992.3782,1349.9697 C 3992.5023,1350.366 3991.9309,1350.7625 3991.5442,1350.7625 C 3991.0025,1350.7625 3990.3094,1349.0447 3989.6909,1349.0447 C 3989.4593,1349.0447 3989.289,1349.2426 3989.3304,1349.3752 C 3989.5169,1349.9697 3990.2142,1350.9615 3990.3797,1351.4896 C 3990.5666,1352.0846 3989.4948,1352.6127 3989.2626,1352.6127 C 3988.4119,1352.6127 3987.9975,1351.2912 3987.3016,1351.2912 C 3987.0703,1351.2912 3987.0394,1351.6875 3987.0811,1351.8201 C 3987.2679,1352.4143 3987.9802,1353.2074 3988.1251,1353.6697 C 3988.2081,1353.9342 3987.9884,1355.4541 3987.2925,1355.4541 C 3986.8288,1355.4541 3986.2403,1355.0573 3986.0592,1354.7276 C 3981.0886,1347.2603 3976.4696,1337.2172 3973.8586,1328.8912 C 3973.2369,1326.9087 3973.6996,1325.918 3975.1688,1325.918 C 3975.8647,1325.918 3976.3205,1327.3713 3976.939,1327.3713 C 3977.1711,1327.3713 3977.2848,1327.2395 3977.2225,1327.0411 C 3976.9946,1326.3146 3976.5762,1325.7196 3976.3483,1324.993 C 3976.1198,1324.2662 3978.3518,1323.737 3979.0477,1323.737 C 3979.434,1323.737 3979.6719,1324.0018 3979.7337,1324.1996 C 3980.7632,1326.2479 3984.0463,1332.5255 3985.1626,1334.1118 C 3985.7216,1332.195 3986.3843,1330.609 3989.2453,1330.609 Z M 4021.7652,1346.2699 C 4018.7494,1346.2699 4010.7342,1343.8908 4008.4291,1343.6923 C 4007.0724,1343.5605 4005.4014,1343.1643 4003.6893,1342.6353 C 4002.5806,1342.3051 4001.4527,1340.1901 4001.2248,1339.4636 C 4001.0179,1338.8029 4002.2969,1338.935 4002.1727,1338.5387 C 4002.0483,1338.1421 4000.3469,1338.1421 3999.9322,1336.8206 C 3999.7874,1336.3577 3999.9254,1335.5654 4001.0856,1335.5654 C 4003.7145,1335.5654 4010.872,1336.6888 4014.4465,1337.4814 C 4017.1079,1338.0763 4019.4125,1338.2742 4019.6614,1339.0668 C 4019.8683,1339.7275 4018.4235,1339.0668 4018.6307,1339.7275 C 4018.7137,1339.9926 4020.2243,1340.1244 4020.2416,1340.9175 C 4020.5526,1341.9085 4019.1902,1341.5117 4019.3357,1341.9746 C 4019.5012,1342.5035 4021.5745,1342.7014 4021.761,1343.2961 C 4021.8642,1343.6266 4020.1841,1343.6923 4020.3082,1344.0892 C 4020.4531,1344.5515 4022.1283,1344.2213 4022.4393,1345.2123 C 4022.7296,1346.1372 4022.4611,1346.2699 4021.7652,1346.2699 Z M 4041.7373,1325.1249 C 4044.9849,1325.1249 4052.6855,1333.6492 4054.1547,1333.6492 C 4054.3095,1333.6492 4054.3036,1333.3847 4054.2619,1333.2521 C 4053.5986,1331.1374 4052.5923,1330.1467 4052.0945,1328.561 C 4051.7841,1327.5694 4051.9168,1326.513 4052.4582,1326.513 C 4052.922,1326.513 4053.8322,1328.4286 4054.2959,1328.4286 C 4054.4507,1328.4286 4054.487,1328.2968 4054.4246,1328.0987 C 4054.3418,1327.8345 4053.6179,1326.513 4053.0603,1325.7196 C 4053.7188,1324.8604 4054.2942,1323.737 4055.8408,1323.737 C 4057.0784,1323.737 4067.9459,1330.2794 4068.3192,1331.4682 C 4068.4017,1331.7327 4068.4073,1331.9966 4068.2526,1331.9966 C 4068.021,1331.9966 4067.6851,1331.6669 4067.4529,1331.6669 C 4067.2981,1331.6669 4067.2621,1331.7982 4067.2828,1331.8648 C 4067.3245,1331.9966 4068.1451,1332.3934 4068.2696,1332.7903 C 4068.3112,1332.9224 4068.1772,1332.9884 4067.945,1332.9884 C 4067.5584,1332.9884 4066.4645,1332.4589 4066.2323,1332.4589 C 4066.0775,1332.4589 4065.9437,1332.5255 4066.0061,1332.724 C 4066.1099,1333.0536 4067.8841,1333.7807 4068.0496,1334.3102 C 4068.4433,1335.5654 4069.4077,1335.4333 4069.6356,1336.1598 C 4069.7181,1336.4237 4069.5483,1336.6222 4069.3941,1336.6222 C 4069.0071,1336.6222 4064.512,1333.3847 4063.1975,1333.3847 C 4062.6553,1333.3847 4062.759,1333.7144 4062.9044,1334.1773 C 4064.0647,1337.8779 4067.6505,1342.8998 4070.399,1346.7322 C 4070.7757,1347.1946 4071.117,1347.7898 4071.2207,1348.1195 C 4071.4693,1348.9129 4070.1506,1349.6394 4069.2997,1349.6394 C 4068.9907,1349.6394 4068.5627,1349.5071 4068.3305,1349.5071 C 4068.0213,1349.5071 4068.0476,1349.8379 4068.1718,1350.2344 C 4068.2812,1350.8286 4068.4524,1351.6223 4066.5966,1351.6223 C 4065.359,1351.6223 4051.0942,1335.2349 4048.4653,1335.2349 C 4048.0784,1335.2349 4047.7748,1335.4988 4047.9817,1336.1598 C 4049.0178,1339.4636 4056.8267,1348.5818 4057.158,1349.6394 C 4057.3242,1350.1678 4056.9846,1350.5641 4056.4434,1350.5641 C 4055.6701,1350.5641 4055.4519,1349.3752 4054.7551,1349.3752 C 4054.369,1349.3752 4054.333,1349.5071 4054.3954,1349.7055 C 4054.4779,1349.9697 4055.3093,1350.8952 4055.5375,1351.6223 C 4055.62,1351.8859 4054.7809,1352.4143 4054.085,1352.4143 C 4053.2343,1352.4143 4052.9126,1350.8952 4052.2161,1350.8952 C 4051.9071,1350.8952 4052.0313,1351.2912 4052.1144,1351.5559 C 4052.2592,1352.0186 4052.8942,1352.8111 4053.1221,1353.5385 C 4053.2882,1354.0669 4052.5886,1354.7934 4051.9695,1354.7934 C 4050.4232,1354.7934 4043.1067,1344.2873 4039.1697,1331.7327 C 4037.9678,1327.9003 4040.7318,1325.1249 4041.7373,1325.1249 Z M 4069.3147,1331.9306 C 4068.9003,1330.609 4069.2745,1329.0894 4069.8598,1327.5034 C 4070.1523,1326.7108 4071.4846,1324.7946 4072.8767,1324.7946 C 4074.6555,1324.7946 4084.5574,1336.8872 4085.5623,1336.8872 C 4085.8719,1336.8872 4085.9022,1336.4904 4085.7364,1335.9614 C 4085.4821,1334.9047 4083.982,1331.6009 4083.3187,1329.4857 C 4082.8836,1328.0987 4083.9908,1323.737 4085.7695,1323.737 C 4086.2333,1323.737 4086.8938,1323.87 4087.6778,1324.398 C 4088.287,1324.8604 4097.4891,1331.2698 4097.7377,1332.0632 C 4097.8208,1332.3277 4097.7074,1332.4589 4097.5526,1332.4589 C 4097.166,1332.4589 4096.4536,1331.6669 4096.0667,1331.6669 C 4095.8348,1331.6669 4095.8198,1331.8648 4095.8614,1331.9966 C 4095.9445,1332.2616 4096.8626,1332.724 4097.0282,1333.2521 C 4097.1112,1333.5165 4096.8791,1333.5165 4096.9621,1333.7807 C 4097.1277,1334.3102 4098.4642,1335.3673 4098.5266,1335.5654 C 4098.568,1335.6969 4098.5532,1335.8957 4098.3211,1335.8957 C 4098.1663,1335.8957 4097.795,1335.6969 4097.5988,1335.5654 C 4097.4287,1335.763 4097.5118,1336.028 4097.5948,1336.2919 C 4097.7814,1336.8872 4098.7352,1337.2172 4098.8597,1337.6134 C 4098.922,1337.8119 4098.8089,1337.9437 4098.5762,1337.9437 C 4098.0351,1337.9437 4095.324,1334.9704 4094.3188,1334.9704 C 4093.8548,1334.9704 4093.4322,1335.1022 4093.5776,1335.5654 C 4094.7585,1339.3318 4097.1917,1342.8998 4098.435,1346.864 C 4098.8497,1348.1855 4098.3718,1349.3752 4097.0475,1349.8379 C 4096.7084,1350.2344 4097.317,1350.697 4096.5704,1351.0267 C 4095.7668,1351.4233 4095.8192,1352.0846 4094.8138,1352.0846 C 4094.1952,1352.0846 4088.1694,1345.9388 4082.1693,1340.1244 C 4081.1837,1339.1997 4080.45,1338.3405 4080.0631,1338.3405 C 4079.7541,1338.3405 4079.7391,1338.5387 4079.8429,1338.8686 C 4080.278,1340.2568 4086.555,1349.1771 4086.9904,1350.5641 C 4087.1976,1351.2249 4086.9201,1351.8201 4086.3784,1351.8201 C 4085.528,1351.8201 4084.6853,1350.366 4084.4531,1350.366 C 4084.2989,1350.366 4084.2065,1350.5641 4084.2683,1350.7625 C 4084.3514,1351.0267 4084.6099,1351.3578 4084.7547,1351.8201 C 4085.1694,1353.1416 4084.886,1353.4719 4083.7263,1353.4719 C 4082.7209,1353.4719 4082.1664,1351.9519 4081.7027,1351.9519 C 4081.4705,1351.9519 4081.3628,1352.3482 4081.6735,1353.3401 L 4081.881,1354.0008 C 4082.1296,1354.7934 4082.1052,1355.4541 4081.4861,1355.4541 C 4078.7796,1355.4541 4070.2677,1334.9704 4069.3147,1331.9306 Z M 4099.5221,1332.3277 C 4098.8951,1330.0809 4098.8254,1328.6268 4099.5408,1327.7018 C 4102.0472,1324.5962 4103.581,1323.0763 4105.6696,1323.0763 C 4107.6799,1323.0763 4110.9608,1324.6625 4112.7616,1325.7196 C 4123.3243,1331.5343 4129.3338,1336.8872 4132.3796,1346.5996 C 4135.9853,1358.0969 4127.7098,1374.6169 4126.2401,1374.6169 C 4125.6986,1374.6169 4125.2139,1374.5503 4125.1102,1374.2201 C 4125.0691,1374.0877 4125.0271,1373.9562 4124.3261,1373.6911 C 4123.5265,1373.3614 4123.8811,1372.7662 4123.3399,1372.7662 C 4123.0304,1372.7662 4122.9122,1372.6344 4122.8498,1372.4362 C 4122.7254,1372.0399 4123.3881,1370.4537 4123.2844,1370.1231 C 4123.222,1369.9247 4123.1035,1369.7929 4122.9488,1369.7929 C 4122.7946,1369.7929 4122.0374,1370.5855 4121.1094,1370.5855 C 4120.723,1370.5855 4120.4285,1370.3871 4120.3043,1369.9913 C 4120.1181,1369.3963 4121.0385,1368.1409 4120.8936,1367.6783 C 4120.8729,1367.6122 4120.7956,1367.6122 4120.7182,1367.6122 C 4120.4092,1367.6122 4119.6838,1368.9995 4118.756,1368.9995 C 4118.4465,1368.9995 4118.2713,1368.9337 4118.1676,1368.6032 C 4117.8779,1367.6783 4121.3565,1360.2779 4121.7063,1359.419 C 4123.2166,1355.851 4124.1557,1349.9697 4122.83,1345.7409 C 4120.0946,1337.0187 4114.0332,1331.0062 4110.5534,1331.0062 C 4108.5425,1331.0062 4107.9365,1332.5255 4108.3716,1333.9128 C 4109.9465,1338.935 4114.8933,1344.3531 4119.9772,1347.9871 C 4121.2162,1348.9787 4121.5878,1349.1771 4121.6913,1349.5071 C 4121.7744,1349.7712 4121.6817,1349.9697 4121.4495,1349.9697 C 4121.0629,1349.9697 4119.9432,1349.1105 4119.711,1349.1105 C 4119.4789,1349.1105 4119.4222,1349.1771 4119.4845,1349.3752 C 4119.7535,1350.2344 4121.132,1351.4233 4121.3602,1352.1504 C 4121.443,1352.4143 4121.4073,1352.5466 4121.0983,1352.5466 C 4120.556,1352.5466 4119.9418,1351.8201 4119.4774,1351.8201 C 4119.3232,1351.8201 4119.1121,1351.8859 4119.1946,1352.1504 C 4119.3607,1352.6793 4120.6357,1353.5385 4120.7808,1354.0008 C 4120.8426,1354.1992 4120.8276,1354.3965 4120.6728,1354.3965 C 4120.2091,1354.3965 4119.7958,1354.0669 4119.5636,1354.0669 C 4119.4089,1354.0669 4119.3371,1354.3305 4119.3995,1354.5295 C 4119.5032,1354.8591 4120.4684,1355.718 4120.4945,1356.0494 C 4120.5983,1356.3791 4120.232,1356.4457 4119.9231,1356.4457 C 4117.9893,1356.4457 4103.176,1345.2123 4099.5221,1332.3277 Z M 4190.8051,1341.0493 C 4195.9854,1357.5688 4189.5788,1365.4976 4176.5457,1372.7662 C 4174.8253,1373.6911 4173.207,1373.9562 4171.362,1374.4845 C 4169.8054,1374.9466 4167.7191,1375.9384 4166.4044,1375.9384 C 4165.7859,1375.9384 4165.1614,1375.6734 4164.9746,1375.0792 C 4164.726,1374.2858 4166.5354,1373.8895 4166.3699,1373.3614 C 4166.2868,1373.097 4163.5032,1373.097 4163.3515,1372.3696 C 4163.0355,1371.1144 4168.7391,1372.0399 4168.5418,1370.9163 C 4168.2002,1370.321 4167.8705,1370.2552 4167.561,1370.2552 C 4166.8651,1370.2552 4166.2517,1370.5194 4165.4784,1370.5194 C 4164.5503,1370.5194 4164.1019,1370.321 4163.9564,1369.8587 C 4163.6667,1368.9337 4165.6827,1369.1979 4165.4962,1368.6032 C 4165.3514,1368.1409 4162.5575,1368.6032 4162.288,1367.7446 C 4161.8531,1366.3568 4168.9355,1365.762 4172.1809,1363.7803 C 4176.2656,1361.2686 4178.3309,1360.2118 4180.3982,1356.4457 C 4183.4733,1350.9615 4183.7584,1345.2123 4182.6393,1341.6443 C 4181.8521,1339.1334 4181.2727,1338.2742 4179.4946,1338.2742 C 4177.4063,1338.2742 4176.0343,1344.75 4174.6425,1344.75 C 4174.2556,1344.75 4174.0189,1344.4858 4173.9151,1344.1547 C 4173.8117,1343.825 4174.9835,1341.6443 4174.8593,1341.2475 C 4174.8174,1341.1159 4174.6003,1340.9175 4174.2139,1340.9175 C 4173.9817,1340.9175 4173.4723,1341.5117 4173.0086,1341.5117 C 4172.6991,1341.5117 4172.5806,1341.3798 4172.5956,1341.182 C 4172.4094,1340.5867 4173.3604,1338.935 4173.1325,1338.2076 C 4173.0911,1338.0763 4172.8946,1337.9437 4172.5857,1337.9437 C 4172.1987,1337.9437 4172.2475,1339.3318 4171.5153,1339.4636 C 4171.108,1339.3979 4170.9475,1339.1334 4170.8857,1338.935 C 4170.782,1338.6044 4170.9146,1337.5468 4173.2328,1332.8558 C 4173.8443,1331.6009 4175.8449,1328.3626 4177.3915,1328.3626 C 4180.2534,1328.3626 4181.0125,1329.552 4182.8289,1330.4112 C 4187.1832,1332.4589 4189.5825,1337.1511 4190.8051,1341.0493 Z M 4172.4459,1361.6651 C 4171.2086,1361.6651 4168.1784,1355.4541 4166.6326,1352.7454 C 4164.0423,1348.1855 4162.3977,1344.4191 4159.9531,1340.3228 C 4156.4069,1334.4415 4152.3214,1325.8522 4149.9592,1322.0192 C 4149.4791,1321.2266 4146.6509,1316.4024 4146.0503,1314.4861 C 4145.8847,1313.9578 4145.3172,1313.6281 4144.9232,1312.3726 C 4144.7373,1311.7774 4144.7259,1311.249 4145.4218,1311.249 C 4147.2777,1311.249 4147.7213,1314.883 4149.2679,1314.883 C 4149.809,1314.883 4149.3274,1313.0989 4149.9465,1313.0989 C 4151.8023,1313.0989 4155.0877,1317.6584 4155.7065,1317.6584 C 4156.9435,1317.6584 4155.1778,1315.478 4156.1056,1315.478 C 4157.0337,1315.478 4157.655,1317.4605 4159.9094,1321.6893 C 4162.4836,1326.4464 4177.1154,1353.8682 4177.633,1355.5199 C 4177.7575,1355.9165 4178.0064,1356.7102 4177.4652,1356.7102 C 4176.6919,1356.7102 4176.7716,1354.9912 4175.8441,1354.9912 C 4174.6065,1354.9912 4177.7527,1359.3526 4175.4328,1359.3526 C 4174.1955,1359.3526 4174.0843,1357.7672 4173.0015,1357.7672 C 4171.8419,1357.7672 4174.3015,1361.6651 4172.4459,1361.6651 Z M 4192.8489,1325.1249 C 4196.0965,1325.1249 4203.7965,1333.6492 4205.266,1333.6492 C 4205.4211,1333.6492 4205.4146,1333.3847 4205.3732,1333.2521 C 4204.7101,1331.1374 4203.7033,1330.1467 4203.2061,1328.561 C 4202.8951,1327.5694 4203.0281,1326.513 4203.5692,1326.513 C 4204.0329,1326.513 4204.9437,1328.4286 4205.4075,1328.4286 C 4205.5622,1328.4286 4205.598,1328.2968 4205.5362,1328.0987 C 4205.4531,1327.8345 4204.7289,1326.513 4204.1713,1325.7196 C 4204.8303,1324.8604 4205.4058,1323.737 4206.9523,1323.737 C 4208.19,1323.737 4219.0574,1330.2794 4219.4302,1331.4682 C 4219.5132,1331.7327 4219.5189,1331.9966 4219.3636,1331.9966 C 4219.1325,1331.9966 4218.7966,1331.6669 4218.5645,1331.6669 C 4218.4097,1331.6669 4218.3737,1331.7982 4218.3944,1331.8648 C 4218.4355,1331.9966 4219.2567,1332.3934 4219.3811,1332.7903 C 4219.4222,1332.9224 4219.2882,1332.9884 4219.056,1332.9884 C 4218.6696,1332.9884 4217.576,1332.4589 4217.3439,1332.4589 C 4217.1891,1332.4589 4217.0553,1332.5255 4217.1177,1332.724 C 4217.2209,1333.0536 4218.9951,1333.7807 4219.1612,1334.3102 C 4219.5549,1335.5654 4220.5187,1335.4333 4220.7466,1336.1598 C 4220.8296,1336.4237 4220.6596,1336.6222 4220.5056,1336.6222 C 4220.1181,1336.6222 4215.6232,1333.3847 4214.3085,1333.3847 C 4213.7668,1333.3847 4213.8706,1333.7144 4214.0154,1334.1773 C 4215.1762,1337.8779 4218.762,1342.8998 4221.5105,1346.7322 C 4221.8872,1347.1946 4222.2285,1347.7898 4222.3323,1348.1195 C 4222.5809,1348.9129 4221.2619,1349.6394 4220.4112,1349.6394 C 4220.1023,1349.6394 4219.6737,1349.5071 4219.4415,1349.5071 C 4219.1325,1349.5071 4219.1586,1349.8379 4219.2831,1350.2344 C 4219.3922,1350.8286 4219.5634,1351.6223 4217.7078,1351.6223 C 4216.4702,1351.6223 4202.2054,1335.2349 4199.5763,1335.2349 C 4199.1894,1335.2349 4198.8861,1335.4988 4199.0933,1336.1598 C 4200.1294,1339.4636 4207.9382,1348.5818 4208.2696,1349.6394 C 4208.4351,1350.1678 4208.0956,1350.5641 4207.555,1350.5641 C 4206.7811,1350.5641 4206.5631,1349.3752 4205.8667,1349.3752 C 4205.4803,1349.3752 4205.444,1349.5071 4205.5064,1349.7055 C 4205.5894,1349.9697 4206.4206,1350.8952 4206.6485,1351.6223 C 4206.7315,1351.8859 4205.8925,1352.4143 4205.196,1352.4143 C 4204.3453,1352.4143 4204.0236,1350.8952 4203.3271,1350.8952 C 4203.0181,1350.8952 4203.1423,1351.2912 4203.2254,1351.5559 C 4203.3702,1352.0186 4204.0057,1352.8111 4204.2336,1353.5385 C 4204.3992,1354.0669 4203.6996,1354.7934 4203.0805,1354.7934 C 4201.5342,1354.7934 4194.218,1344.2873 4190.2809,1331.7327 C 4189.0788,1327.9003 4191.8434,1325.1249 4192.8489,1325.1249 Z M 4223.3477,1323.737 C 4225.1258,1323.737 4237.8814,1330.8735 4238.1714,1331.7982 C 4238.2125,1331.9306 4238.1564,1331.9966 4238.0016,1331.9966 C 4237.4602,1331.9966 4236.6402,1331.6009 4236.408,1331.6009 C 4236.1764,1331.6009 4236.1401,1331.7327 4236.1815,1331.8648 C 4236.3269,1332.3277 4238.6839,1333.1866 4238.8495,1333.7144 C 4238.9118,1333.9128 4238.7982,1334.0455 4238.4898,1334.0455 C 4238.257,1334.0455 4237.8857,1333.8473 4237.422,1333.8473 C 4237.2105,1333.9128 4237.1535,1333.9789 4237.1955,1334.1118 C 4237.3403,1334.5741 4239.3883,1335.4333 4239.5338,1335.8957 C 4239.5956,1336.0941 4239.4825,1336.2265 4239.0961,1336.2265 C 4238.6318,1336.2265 4233.7086,1332.8558 4230.7696,1332.8558 C 4230.2282,1332.8558 4229.9039,1333.0536 4230.1318,1333.7807 C 4230.733,1335.6969 4235.0751,1343.6266 4236.6302,1345.873 C 4237.7494,1345.7409 4240.3618,1344.9484 4241.1353,1344.9484 C 4241.986,1344.9484 4242.9192,1345.2123 4243.1678,1346.0054 C 4243.5612,1347.2603 4240.4627,1346.9961 4240.6489,1347.5914 C 4240.7524,1347.9211 4241.0265,1348.0537 4241.336,1348.0537 C 4241.7224,1348.0537 4242.5521,1347.9871 4242.8619,1347.9871 C 4243.0932,1347.9871 4243.4804,1347.9871 4243.5425,1348.1855 C 4243.646,1348.5161 4243.3061,1348.9129 4243.4303,1349.3086 C 4243.6789,1350.1018 4244.5712,1350.2344 4244.722,1350.9615 C 4244.8462,1351.3578 4244.811,1351.4896 4244.718,1351.6875 C 4244.6256,1351.8859 4242.6771,1352.0846 4240.6155,1352.4143 C 4242.001,1354.8591 4244.1029,1357.3709 4244.7243,1359.3526 C 4244.9108,1359.9473 4244.9165,1360.2118 4244.4527,1360.2118 C 4244.0658,1360.2118 4243.5794,1359.1548 4243.2704,1359.1548 C 4242.9609,1359.1548 4243.913,1361.2028 4243.1397,1361.2028 C 4241.7473,1361.2028 4241.3383,1360.1452 4240.7198,1360.1452 C 4240.4102,1360.1452 4240.4159,1360.4102 4240.5194,1360.7405 C 4240.6438,1361.137 4241.1756,1361.5997 4241.507,1362.6567 C 4241.7768,1363.5159 4241.1234,1364.639 4239.809,1364.639 C 4239.1131,1364.639 4238.6581,1364.1761 4237.8576,1362.8551 C 4236.6373,1360.9389 4234.7923,1357.7672 4232.8908,1354.6616 L 4230.5871,1355.4541 C 4230.3756,1355.5199 4230.0099,1355.5865 4229.7004,1355.5865 C 4229.3137,1355.5865 4228.88,1355.1902 4228.5484,1354.1326 L 4227.7816,1351.6875 C 4229.07,1351.3578 4229.2397,1351.1594 4229.1984,1351.0267 C 4229.1366,1350.8286 4228.9818,1350.8286 4228.8276,1350.8286 C 4228.4407,1350.8286 4228.2496,1350.9615 4227.8632,1350.9615 C 4227.3995,1350.9615 4227.0276,1350.7625 4226.8827,1350.3008 C 4226.7583,1349.9033 4227.4074,1349.5071 4229.3035,1348.6479 C 4225.7563,1341.7767 4222.8782,1337.2829 4220.4742,1329.6186 C 4219.5419,1326.6442 4220.718,1323.737 4223.3477,1323.737"
       style="fill:#6f6f6f;fill-opacity:1;fill-rule:nonzero;stroke:none"
       transform="matrix(1.3333333,0,0,-1.3333333,1.3333333,6578.4668)" />
    <path
       id="path379"
       d="M 4251.4971,1323.737 C 4256.2913,1323.737 4264.4526,1330.2794 4264.5351,1330.5433 C 4264.5767,1330.6751 4264.3658,1330.7417 4264.2111,1330.7417 C 4263.5923,1330.7417 4262.7455,1330.0143 4262.4363,1330.0143 C 4262.2041,1330.0143 4262.1888,1330.2128 4262.2305,1330.3454 C 4262.313,1330.609 4264.1762,1331.8648 4264.2383,1332.0632 C 4264.3624,1332.4589 4263.8012,1332.3934 4264.0234,1332.8558 C 4264.2249,1333.2521 4265.411,1333.5831 4265.5354,1333.9789 C 4265.6389,1334.3102 4265.3299,1334.3102 4265.1751,1334.3102 C 4264.7882,1334.3102 4264.4324,1333.9128 4264.2777,1333.9128 C 4264.0455,1333.9128 4263.9111,1333.9789 4263.9525,1334.1118 C 4264.0974,1334.5741 4266.0479,1335.3673 4266.2341,1335.9614 C 4266.3172,1336.2265 4266.3583,1336.3577 4266.0499,1336.3577 C 4265.585,1336.3577 4260.6037,1332.0632 4255.9637,1332.0632 C 4254.7263,1332.0632 4250.4494,1333.7144 4250.6566,1334.3751 C 4251.0501,1335.6312 4267.688,1342.5693 4268.579,1345.4107 C 4268.7445,1345.9388 4268.5747,1346.1372 4268.3488,1346.4017 C 4269.1272,1346.6656 4269.6437,1347.3264 4269.8509,1347.9871 C 4269.9957,1348.45 4270.0436,1348.8463 4269.7959,1349.0447 C 4268.23,1349.9697 4253.7098,1355.4541 4252.8591,1355.4541 C 4251.854,1355.4541 4250.9906,1353.9342 4250.7626,1353.2074 C 4250.5345,1352.4809 4253.4984,1351.8201 4253.4153,1351.5559 C 4253.3739,1351.4233 4253.0437,1351.3578 4252.7347,1351.3578 C 4252.1927,1351.3578 4251.5796,1351.6223 4250.9611,1351.6223 C 4249.8788,1351.6223 4248.0496,1349.2426 4247.8217,1348.5161 C 4247.4489,1347.3264 4257.2523,1345.5425 4256.9413,1344.5515 C 4256.8586,1344.2873 4256.0382,1343.8908 4254.4539,1343.0316 C 4253.4377,1342.5035 4242.1439,1336.8206 4241.895,1336.028 C 4241.4809,1334.7065 4240.2067,1331.1374 4239.8133,1329.8825 C 4239.5854,1329.156 4239.8056,1328.6268 4241.1977,1328.6268 C 4242.9764,1328.6268 4248.2486,1323.737 4251.4971,1323.737 Z M 4266.3325,1332.3277 C 4265.7052,1330.0809 4265.6357,1328.6268 4266.3512,1327.7018 C 4268.857,1324.5962 4270.3914,1323.0763 4272.4794,1323.0763 C 4274.4898,1323.0763 4277.7711,1324.6625 4279.572,1325.7196 C 4290.1347,1331.5343 4296.1436,1336.8872 4299.1897,1346.5996 C 4302.7951,1358.0969 4294.5197,1374.6169 4293.0505,1374.6169 C 4292.509,1374.6169 4292.0243,1374.5503 4291.9206,1374.2201 C 4291.8789,1374.0877 4291.8375,1373.9562 4291.1359,1373.6911 C 4290.3363,1373.3614 4290.6915,1372.7662 4290.1503,1372.7662 C 4289.8408,1372.7662 4289.722,1372.6344 4289.6602,1372.4362 C 4289.5358,1372.0399 4290.198,1370.4537 4290.0945,1370.1231 C 4290.0324,1369.9247 4289.9134,1369.7929 4289.7586,1369.7929 C 4289.6044,1369.7929 4288.8475,1370.5855 4287.9195,1370.5855 C 4287.5328,1370.5855 4287.2389,1370.3871 4287.1147,1369.9913 C 4286.9279,1369.3963 4287.8489,1368.1409 4287.7037,1367.6783 C 4287.6831,1367.6122 4287.6057,1367.6122 4287.5283,1367.6122 C 4287.219,1367.6122 4286.4942,1368.9995 4285.5664,1368.9995 C 4285.2569,1368.9995 4285.0817,1368.9337 4284.978,1368.6032 C 4284.6877,1367.6783 4288.1669,1360.2779 4288.5164,1359.419 C 4290.0265,1355.851 4290.9661,1349.9697 4289.6401,1345.7409 C 4286.9049,1337.0187 4280.8436,1331.0062 4277.3638,1331.0062 C 4275.3523,1331.0062 4274.7463,1332.5255 4275.1817,1333.9128 C 4276.7563,1338.935 4281.7037,1344.3531 4286.7873,1347.9871 C 4288.0263,1348.9787 4288.3982,1349.1771 4288.5017,1349.5071 C 4288.5845,1349.7712 4288.4921,1349.9697 4288.2599,1349.9697 C 4287.8733,1349.9697 4286.753,1349.1105 4286.5209,1349.1105 C 4286.2887,1349.1105 4286.232,1349.1771 4286.2944,1349.3752 C 4286.5639,1350.2344 4287.9424,1351.4233 4288.1703,1352.1504 C 4288.2531,1352.4143 4288.2171,1352.5466 4287.9081,1352.5466 C 4287.3664,1352.5466 4286.7522,1351.8201 4286.2878,1351.8201 C 4286.1334,1351.8201 4285.9219,1351.8859 4286.0049,1352.1504 C 4286.1705,1352.6793 4287.4458,1353.5385 4287.5906,1354.0008 C 4287.653,1354.1992 4287.6374,1354.3965 4287.4826,1354.3965 C 4287.0189,1354.3965 4286.6056,1354.0669 4286.3737,1354.0669 C 4286.219,1354.0669 4286.1475,1354.3305 4286.2099,1354.5295 C 4286.3131,1354.8591 4287.2788,1355.718 4287.3049,1356.0494 C 4287.4087,1356.3791 4287.0424,1356.4457 4286.7332,1356.4457 C 4284.7997,1356.4457 4269.9864,1345.2123 4266.3325,1332.3277 Z M 4303.3884,1323.737 C 4304.935,1323.737 4310.9036,1326.2479 4311.5485,1326.5787 C 4320.0105,1330.8735 4320.3521,1331.4682 4320.4969,1331.9306 C 4320.6007,1332.2616 4320.4096,1332.3934 4320.2548,1332.3934 C 4319.9459,1332.3934 4319.4702,1331.8648 4319.2383,1331.8648 C 4319.0836,1331.8648 4319.0065,1331.8648 4319.0481,1331.9966 C 4319.1933,1332.4589 4321.0358,1333.6492 4321.1806,1334.1118 C 4321.243,1334.3102 4321.207,1334.4415 4321.0522,1334.4415 C 4320.8201,1334.4415 4320.0714,1333.7807 4319.8393,1333.7807 C 4319.6848,1333.7807 4319.4736,1333.8473 4319.515,1333.9789 C 4319.5978,1334.2439 4321.6727,1335.4333 4321.8587,1336.028 C 4321.9213,1336.2265 4321.6529,1336.3577 4321.4207,1336.3577 C 4321.1117,1336.3577 4320.8178,1336.1598 4320.5026,1335.8957 C 4319.2996,1334.7726 4311.5978,1331.6669 4309.2003,1331.6669 C 4305.6428,1331.6669 4305.2596,1333.6492 4306.0107,1336.2919 C 4317.0114,1339.0668 4323.083,1340.9175 4325.1551,1347.5248 C 4326.336,1351.2912 4323.2581,1354.7934 4321.4026,1354.7934 C 4312.0446,1354.7934 4299.5237,1342.239 4297.2026,1334.838 C 4296.4569,1332.4589 4296.0104,1330.5433 4296.2618,1329.6186 C 4296.9438,1327.1071 4299.2895,1323.737 4303.3884,1323.737 Z M 4315.9323,1344.75 C 4315.4354,1343.1643 4309.6331,1342.1724 4309.3434,1341.2475 C 4309.2604,1340.9836 4309.4511,1340.8509 4309.9923,1340.8509 C 4310.4566,1340.8509 4311.0754,1340.8509 4311.0133,1340.653 C 4310.8679,1340.1901 4308.0165,1339.7275 4307.83,1339.1334 C 4307.6852,1338.6711 4309.2581,1339.0013 4309.0713,1338.406 C 4308.9471,1338.0103 4306.7908,1337.5468 4306.3838,1337.4814 C 4306.9226,1339.1997 4312.5605,1348.0537 4314.6485,1348.0537 C 4315.8861,1348.0537 4316.3053,1345.9388 4315.9323,1344.75 Z M 4324.7908,1338.4726 C 4323.8999,1335.6312 4323.3503,1333.3847 4323.4313,1332.6574 C 4323.564,1331.6009 4331.9327,1332.3934 4331.6841,1331.6009 C 4331.0625,1329.6186 4321.336,1327.7018 4321.0667,1326.8426 C 4320.9425,1326.4464 4320.9726,1326.0501 4320.8898,1325.7856 C 4320.7449,1325.3233 4320.337,1325.2569 4319.9019,1323.87 C 4319.7568,1323.4073 4320.1743,1323.0108 4321.0244,1323.0108 C 4321.4114,1323.0108 4321.8184,1323.0763 4321.9732,1323.0763 C 4322.0506,1323.0763 4322.1073,1323.0108 4322.0662,1322.8781 C 4321.9831,1322.6139 4319.3631,1322.1516 4319.0787,1321.4908 C 4318.8092,1320.6317 4318.772,1319.7725 4319.4679,1319.7725 C 4324.4949,1319.7725 4340.6572,1326.1819 4343.1231,1334.0455 C 4343.7447,1336.028 4343.2736,1338.4726 4339.9485,1338.4726 C 4338.4017,1338.4726 4334.8329,1337.9437 4334.1369,1337.9437 C 4333.5184,1337.9437 4333.0397,1338.1421 4333.1227,1338.406 C 4333.682,1340.1901 4347.7597,1345.873 4348.1948,1347.2603 C 4348.6299,1348.6479 4347.6854,1347.8553 4347.9133,1348.5818 C 4348.0996,1349.1771 4348.3941,1349.3752 4348.5185,1349.7712 C 4348.6016,1350.036 4348.1582,1350.1018 4347.6165,1350.1018 C 4347.2302,1350.1018 4346.7871,1350.1678 4346.8699,1350.432 C 4347.0774,1351.0928 4349.8307,1351.4896 4350.0379,1352.1504 C 4350.162,1352.5466 4349.8174,1352.6793 4349.5075,1352.6793 C 4349.2754,1352.6793 4348.9043,1352.4809 4348.5948,1352.4809 C 4348.3626,1352.4809 4348.3266,1352.6127 4348.4097,1352.8777 C 4348.4715,1353.075 4350.4994,1353.8682 4350.7273,1354.595 C 4350.8721,1355.0573 4350.6873,1355.4541 4350.2233,1355.4541 C 4349.1407,1355.4541 4347.7469,1354.4631 4339.1361,1350.432 C 4336.871,1349.3752 4326.1999,1342.9658 4324.7908,1338.4726 Z M 4348.5644,1339.0668 C 4347.3246,1337.0845 4346.0039,1333.12 4344.8848,1329.552 C 4343.6415,1325.5872 4345.7927,1323.0763 4347.8033,1323.0763 C 4350.4328,1323.0763 4360.517,1330.0809 4360.8073,1331.0062 C 4360.911,1331.3358 4360.8543,1331.4025 4360.6638,1331.5343 C 4360.494,1331.7327 4360.737,1332.2616 4360.6035,1332.3277 C 4360.4691,1332.3934 4359.8506,1332.3934 4359.9331,1332.6574 C 4360.0785,1333.12 4361.5236,1333.7807 4361.5854,1333.9789 C 4361.6477,1334.1773 4361.5137,1334.2439 4361.3589,1334.2439 C 4361.1267,1334.2439 4360.6933,1333.8473 4360.3838,1333.8473 C 4360.229,1333.8473 4360.0748,1333.8473 4360.1366,1334.0455 C 4360.261,1334.4415 4362.2011,1335.6969 4362.2841,1335.9614 C 4362.3462,1336.1598 4362.1917,1336.1598 4362.0369,1336.1598 C 4361.8822,1336.1598 4356.3555,1332.5913 4354.7315,1332.5913 C 4354.3449,1332.5913 4354.3352,1333.0536 4354.5217,1333.6492 C 4354.7496,1334.3751 4355.9745,1336.5564 4357.4885,1338.6711 C 4358.325,1339.8605 4365.7353,1351.1594 4365.9632,1351.8859 C 4366.0879,1352.283 4366.0363,1352.6127 4365.5726,1352.6127 C 4364.7993,1352.6127 4364.0283,1350.8952 4363.255,1350.8952 C 4362.4817,1350.8952 4363.4699,1352.8111 4361.8456,1352.8111 C 4360.0669,1352.8111 4359.1663,1350.432 4358.6249,1350.432 C 4358.393,1350.432 4358.4194,1350.7625 4358.4812,1350.9615 C 4358.6056,1351.3578 4359.1482,1352.3482 4359.2519,1352.6793 C 4359.4384,1353.2734 4359.2743,1353.7358 4358.7332,1353.7358 C 4358.4236,1353.7358 4357.7169,1353.2074 4357.2773,1352.5466 C 4356.4198,1351.2912 4354.3684,1348.45 4353.4074,1346.864 Z M 4364.282,1358.3614 C 4368.6125,1358.3614 4370.584,1362.9212 4371.4956,1365.8284 C 4371.8066,1366.8191 4371.7414,1368.3387 4370.2722,1368.3387 C 4369.8084,1368.3387 4368.6663,1366.4228 4368.202,1366.4228 C 4367.9704,1366.4228 4367.9344,1366.5546 4368.0172,1366.8191 C 4368.1209,1367.1499 4368.4413,1367.6783 4368.5861,1368.1409 C 4368.7723,1368.7353 4368.1802,1369.0655 4367.3298,1369.0655 C 4365.0099,1369.0655 4362.855,1365.8939 4362.2082,1364.5723 C 4361.6038,1363.3835 4361.076,1362.1941 4360.765,1361.2028 C 4360.4748,1360.2779 4360.4827,1358.8237 4361.2563,1358.8237 C 4361.6432,1358.8237 4362.133,1359.1548 4362.3142,1359.4844 C 4362.4803,1360.0134 4362.7856,1360.7405 4363.5589,1360.7405 C 4363.9458,1360.7405 4363.759,1360.1452 4363.6972,1359.9473 C 4363.5934,1359.6171 4363.3763,1359.419 4363.2933,1359.1548 C 4363.1898,1358.8237 4363.2765,1358.3614 4364.282,1358.3614 Z M 4369.9076,1331.6669 C 4369.2117,1331.6669 4368.8154,1332.129 4368.9815,1332.6574 C 4370.6392,1337.9437 4384.9715,1344.6836 4388.9434,1346.0054 C 4392.1154,1346.9961 4396.5462,1348.0537 4396.7531,1348.7145 C 4396.9759,1349.1771 4396.9037,1349.441 4396.2077,1349.441 C 4395.5118,1349.441 4394.8519,1349.3086 4394.6972,1349.3086 C 4394.465,1349.3086 4394.1555,1349.3086 4394.1969,1349.441 C 4394.2796,1349.7055 4396.6165,1350.4986 4396.6996,1350.7625 C 4396.8444,1351.2249 4396.1219,1350.8952 4396.288,1351.4233 C 4396.3705,1351.6875 4396.4688,1351.7535 4396.5309,1351.9519 C 4396.5933,1352.1504 4396.4235,1352.3482 4396.0365,1352.3482 C 4395.7276,1352.3482 4395.3973,1352.283 4395.0878,1352.283 C 4394.8562,1352.283 4394.7221,1352.3482 4394.8256,1352.6793 C 4395.0328,1353.3401 4398.4352,1353.3401 4398.8706,1354.7276 C 4399.0157,1355.1902 4398.6345,1355.4541 4397.9386,1355.4541 C 4392.6026,1355.4541 4375.209,1349.3086 4366.1667,1339.4636 C 4364.6168,1337.4814 4363.2108,1334.9704 4362.0296,1331.204 C 4361.2007,1328.561 4361.5137,1324.1339 4365.2256,1324.1339 C 4368.6283,1324.1339 4379.2974,1332.2616 4381.0055,1333.5165 L 4381.1189,1333.3847 C 4377.7749,1327.9003 4371.105,1315.0157 4368.7077,1315.0157 C 4368.1666,1315.0157 4367.8414,1315.2135 4368.111,1316.0727 C 4368.8154,1318.3191 4374.3359,1324.3323 4374.4601,1324.7286 C 4374.5014,1324.8604 4374.5431,1324.993 4374.3889,1324.993 C 4374.0794,1324.993 4373.2123,1324.1996 4372.9801,1324.1996 C 4372.9021,1324.1996 4372.8248,1324.1996 4372.8664,1324.3323 C 4373.032,1324.8604 4376.2436,1327.7018 4376.3261,1327.9657 C 4376.4092,1328.2305 4376.1002,1328.2305 4375.868,1328.2305 C 4375.5585,1328.2305 4374.8461,1327.4379 4374.4122,1327.0411 C 4370.9431,1323.87 4366.254,1318.782 4365.0782,1315.2798 C 4364.2134,1312.7689 4364.2627,1311.4474 4366.7379,1311.4474 C 4370.682,1311.4474 4373.5827,1316.9979 4373.8923,1316.9979 C 4374.0468,1316.9979 4374.0414,1316.7334 4373.9376,1316.4024 C 4373.7511,1315.8077 4373.1986,1315.2798 4373.0118,1314.6846 C 4372.8877,1314.2889 4372.9237,1314.1565 4373.1558,1314.1565 C 4373.7744,1314.1565 4374.2205,1316.0727 4375.9219,1316.0727 C 4376.85,1316.0727 4383.3302,1322.68 4384.6174,1325.0588 C 4385.7028,1327.0411 4393.7249,1340.7851 4394.3468,1342.7674 C 4394.471,1343.1643 4394.1521,1343.6266 4393.8428,1343.6266 C 4393.6109,1343.6266 4393.0491,1343.5605 4392.7396,1343.5605 C 4392.121,1343.5605 4392.0351,1345.0139 4390.9529,1345.0139 C 4390.6433,1345.0139 4390.3911,1344.9484 4390.1172,1344.8154 C 4389.4723,1344.4858 4373.3886,1331.6669 4369.9076,1331.6669 Z M 4393.5778,1331.9306 C 4393.1636,1330.609 4393.5378,1329.0894 4394.1226,1327.5034 C 4394.4157,1326.7108 4395.748,1324.7946 4397.1401,1324.7946 C 4398.9188,1324.7946 4408.8202,1336.8872 4409.8251,1336.8872 C 4410.1346,1336.8872 4410.1653,1336.4904 4409.9997,1335.9614 C 4409.7454,1334.9047 4408.2448,1331.6009 4407.5818,1329.4857 C 4407.1469,1328.0987 4408.2541,1323.737 4410.0329,1323.737 C 4410.4969,1323.737 4411.1565,1323.87 4411.9412,1324.398 C 4412.5503,1324.8604 4421.7522,1331.2698 4422.001,1332.0632 C 4422.0835,1332.3277 4421.9707,1332.4589 4421.8154,1332.4589 C 4421.4296,1332.4589 4420.7169,1331.6669 4420.3297,1331.6669 C 4420.0976,1331.6669 4420.0831,1331.8648 4420.1242,1331.9966 C 4420.2073,1332.2616 4421.1254,1332.724 4421.2915,1333.2521 C 4421.3746,1333.5165 4421.1424,1333.5165 4421.2249,1333.7807 C 4421.391,1334.3102 4422.7276,1335.3673 4422.7894,1335.5654 C 4422.8313,1335.6969 4422.8163,1335.8957 4422.5841,1335.8957 C 4422.4294,1335.8957 4422.0583,1335.6969 4421.8624,1335.5654 C 4421.6921,1335.763 4421.7751,1336.028 4421.8576,1336.2919 C 4422.0444,1336.8872 4422.9986,1337.2172 4423.123,1337.6134 C 4423.1854,1337.8119 4423.0717,1337.9437 4422.8395,1337.9437 C 4422.2984,1337.9437 4419.5868,1334.9704 4418.5819,1334.9704 C 4418.1176,1334.9704 4417.6955,1335.1022 4417.8403,1335.5654 C 4419.0218,1339.3318 4421.4554,1342.8998 4422.6984,1346.864 C 4423.1131,1348.1855 4422.6351,1349.3752 4421.3108,1349.8379 C 4420.9712,1350.2344 4421.5801,1350.697 4420.8334,1351.0267 C 4420.0295,1351.4233 4420.082,1352.0846 4419.0765,1352.0846 C 4418.458,1352.0846 4412.4327,1345.9388 4406.4326,1340.1244 C 4405.4464,1339.1997 4404.7134,1338.3405 4404.3265,1338.3405 C 4404.0175,1338.3405 4404.0025,1338.5387 4404.1056,1338.8686 C 4404.5408,1340.2568 4410.8181,1349.1771 4411.2532,1350.5641 C 4411.4604,1351.2249 4411.1835,1351.8201 4410.6418,1351.8201 C 4409.7914,1351.8201 4408.9486,1350.366 4408.7165,1350.366 C 4408.5623,1350.366 4408.4693,1350.5641 4408.5317,1350.7625 C 4408.6144,1351.0267 4408.8732,1351.3578 4409.0181,1351.8201 C 4409.4328,1353.1416 4409.1493,1353.4719 4407.9897,1353.4719 C 4406.9837,1353.4719 4406.4298,1351.9519 4405.966,1351.9519 C 4405.7339,1351.9519 4405.6261,1352.3482 4405.9371,1353.3401 L 4406.1443,1354.0008 C 4406.3929,1354.7934 4406.3685,1355.4541 4405.7494,1355.4541 C 4403.0429,1355.4541 4394.5311,1334.9704 4393.5778,1331.9306"
       style="fill:#6f6f6f;fill-opacity:1;fill-rule:nonzero;stroke:none"
       transform="matrix(1.3333333,0,0,-1.3333333,1.3333333,6578.4668)" />
    <path
       id="path380"
       d="M 3959.7953,1550.8899 C 3955.9881,1550.0778 3952.2523,1549.0128 3948.4913,1547.9986 C 3950.0722,1544.2985 3951.6259,1540.7059 3952.8709,1536.8754 C 3947.0803,1526.4437 3940.4546,1516.8643 3937.7421,1505.0835 C 3936.5674,1499.9851 3936.3024,1494.9726 3936.0597,1489.7806 C 3937.0904,1489.2443 3939.4151,1488.5742 3939.5339,1487.2924 L 3939.7122,1481.4414 L 4009.9791,1492.196 C 4009.9096,1492.5691 4009.8353,1492.943 4009.7611,1493.3149 L 4014.735,1494.0765 C 4016.1124,1492.9688 4017.5773,1491.946 4018.6287,1490.5222 C 4020.1438,1488.4662 4021.024,1485.9309 4022.0337,1483.6082 C 4025.5254,1483.7057 4029.0259,1483.7108 4032.5097,1483.9013 C 4041.7464,1484.4095 4051.0483,1486.2297 4059.8853,1488.9467 C 4077.8966,1492.5631 4094.276,1499.6151 4108.1074,1511.8373 C 4109.0859,1512.8031 4110.133,1513.7529 4111.0537,1514.7717 C 4109.7586,1511.6292 4108.661,1508.4694 4107.886,1505.0854 C 4106.7187,1499.9811 4106.4463,1494.978 4106.2065,1489.7818 C 4107.2377,1489.2443 4109.559,1488.5748 4109.6792,1487.2884 L 4109.864,1481.4434 L 4180.1332,1492.198 L 4179.9129,1493.3169 L 4183.2703,1493.8305 C 4184.4583,1492.6414 4185.5142,1491.3323 4186.9698,1490.4913 C 4190.4283,1488.4934 4194.489,1485.9692 4198.2551,1484.6536 L 4202.5751,1483.6195 L 4205.3947,1489.858 C 4208.5777,1488.1825 4211.0011,1487.4182 4214.4605,1486.5911 L 4223.3153,1506.1813 L 4252.1706,1479.0305 C 4253.8808,1482.2175 4255.5526,1485.3249 4257.0068,1488.6351 L 4264.056,1482.0015 C 4266.8997,1487.3003 4269.8044,1492.6825 4271.6052,1498.4444 C 4272.8871,1502.5462 4270.4161,1506.7976 4268.3346,1510.1901 C 4263.0902,1517.4488 4255.9345,1522.8371 4249.6863,1529.1369 C 4258.6466,1531.2705 4267.7977,1534.6848 4275.1123,1540.4383 C 4277.8332,1542.5779 4279.8404,1544.9496 4281.9761,1547.6261 C 4284.9828,1552.2866 4286.0398,1555.9917 4286.8658,1561.3435 L 4286.8817,1565.6885 C 4286.0307,1571.7991 4284.7104,1575.9626 4280.4714,1580.6741 C 4275.4192,1585.5154 4269.5439,1588.017 4262.6945,1589.3606 C 4249.9695,1591.8593 4236.3561,1591.2031 4224.0815,1586.9174 C 4220.9872,1586.4242 4217.9244,1585.7342 4214.9262,1584.8325 C 4213.9806,1586.0648 4213.0956,1587.1428 4211.8699,1588.0938 C 4209.9021,1595.2697 4204.7677,1594.2231 4198.5111,1593.9621 C 4181.4547,1593.2509 4164.4902,1590.8499 4148.0555,1586.2127 C 4142.9954,1585.1455 4138.06,1583.7834 4133.0846,1582.365 C 4133.5838,1576.9721 4133.4778,1569.8829 4138.7182,1566.6814 C 4136.1086,1561.4464 4133.5937,1556.1516 4130.725,1551.0543 C 4129.4106,1550.7831 4128.1027,1550.4888 4126.801,1550.1679 C 4126.866,1554.6129 4126.9635,1558.7093 4126.1009,1563.0987 C 4124.4996,1571.2492 4120.4894,1578.6981 4114.3938,1584.3654 C 4101.3405,1596.5039 4079.8559,1598.6954 4063.7489,1592.2298 C 4056.5511,1591.4273 4050.5644,1589.0159 4044.3009,1585.4525 C 4043.556,1586.4415 4042.7912,1587.3435 4041.726,1588.0932 C 4039.5359,1595.3275 4034.7522,1594.2291 4028.3663,1593.9621 C 4011.3062,1593.2494 3994.3454,1590.8465 3977.9062,1586.2122 C 3972.8449,1585.1435 3967.9101,1583.782 3962.9341,1582.3641 C 3963.4418,1576.9602 3963.3318,1569.9008 3968.5742,1566.6814 C 3965.9624,1561.4476 3963.4549,1556.1476 3960.5808,1551.0543 Z M 3985.1062,1530.8203 C 3994.5217,1531.5681 4003.8857,1533.0793 4013.0116,1535.508 C 4018.5065,1536.971 4024.0366,1538.2414 4029.5265,1539.7642 L 4029.7717,1543.9918 C 4029.5854,1546.6346 4028.6163,1548.4958 4027.1652,1550.6067 C 4027.1581,1554.4877 4025.1158,1556.7335 4022.6791,1559.3306 L 3997.7093,1557.4725 L 4001.8601,1566.2341 C 4012.1541,1568.41 4022.371,1570.9561 4032.6344,1573.2814 C 4032.4813,1568.298 4034.7403,1563.8445 4036.7134,1559.4233 C 4038.6039,1559.7839 4040.5374,1560.0609 4042.3955,1560.5807 L 4020.0562,1508.0902 C 4019.6996,1509.8409 4019.0454,1511.3574 4018.39,1513.0106 C 4017.0974,1513.4295 4015.8102,1513.8853 4014.5043,1514.234 C 4002.0755,1517.5502 3988.3241,1514.6152 3975.8715,1512.3093 C 3978.2117,1518.7799 3981.5512,1524.9158 3985.1062,1530.8203 Z M 4059.0068,1514.5988 L 4081.8266,1566.9692 C 4087.4839,1565.7216 4092.2178,1563.1875 4093.6887,1557.3234 C 4096.47,1536.6455 4075.6978,1521.6911 4059.0068,1514.5988 Z M 4189.9419,1509.1946 C 4189.5873,1510.5104 4189.0385,1511.7466 4188.5393,1513.0106 C 4187.2448,1513.4295 4185.9561,1513.8853 4184.6485,1514.234 C 4172.2155,1517.5491 4158.4714,1514.6138 4146.016,1512.3093 C 4148.3599,1518.7785 4151.6946,1524.9163 4155.2495,1530.8203 C 4164.6657,1531.5681 4174.0285,1533.0801 4183.1558,1535.508 C 4188.6533,1536.971 4194.186,1538.2423 4199.6789,1539.7648 L 4199.9162,1543.9969 C 4199.728,1546.6431 4198.7571,1548.491 4197.31,1550.6056 C 4197.31,1554.4777 4195.2566,1556.7375 4192.8279,1559.3306 L 4167.8546,1557.4725 L 4172.0014,1566.2268 C 4180.6414,1568.0494 4189.2239,1570.1746 4197.8251,1572.1537 C 4197.6641,1569.8214 4197.263,1567.4953 4197.0124,1565.1768 C 4196.6473,1561.7991 4196.6286,1558.3932 4196.5027,1554.9968 C 4201.5807,1556.3889 4206.4997,1557.4374 4211.2933,1558.7731 L 4211.8792,1558.885 Z M 4245.9347,1554.5659 L 4249.7201,1562.4054 C 4250.6348,1562.3266 4251.5365,1562.2092 4252.4161,1561.9221 C 4251.49,1558.6285 4248.6763,1556.3769 4245.9347,1554.5659"
       style="fill:#6f6f6f;fill-opacity:1;fill-rule:evenodd;stroke:none"
       transform="matrix(1.3333333,0,0,-1.3333333,1.3333333,6578.4668)" />
    <path
       id="path381"
       d="M 4029.842,1577.668 C 4028.0448,1579.7228 4028.1729,1580.6211 4025.4769,1581.9049 C 4025.092,1583.1896 4024.9633,1586.1419 4023.0371,1586.1419 C 4006.732,1586.1419 3984.0063,1583.318 3968.2142,1578.6961 C 3968.7279,1573.0461 3969.3696,1570.2222 3975.5327,1569.4515 C 3971.5523,1561.8764 3968.0855,1554.0437 3963.7202,1546.5974 C 3960.8957,1546.0835 3958.0713,1545.442 3955.2463,1544.6718 C 3956.4023,1541.9752 3957.3006,1539.1511 3958.1994,1536.3261 C 3949.8542,1520.7908 3941.7656,1511.8041 3941.1232,1492.6725 C 3943.3059,1491.6458 3944.4619,1489.4637 3944.4619,1487.1518 L 4004.1641,1496.2677 C 4003.5217,1499.478 4004.0354,1502.9447 4002.7516,1506.0254 C 3998.8998,1507.3101 3994.7916,1507.6953 3990.8112,1507.6953 C 3979.3844,1507.6953 3968.2142,1504.87 3957.044,1503.0731 C 3959.3554,1514.2428 3965.9029,1525.5414 3971.9373,1535.1712 C 3985.033,1535.1712 4000.1837,1536.9681 4012.8942,1540.5627 C 4013.1516,1542.6176 4011.0968,1544.6718 4010.1979,1546.3414 C 4010.5837,1548.1383 4010.07,1549.9355 4008.786,1551.2199 L 3977.7154,1548.9088 L 3986.9595,1568.4239 C 4001.4677,1570.7353 4015.5908,1574.4591 4029.842,1577.668 Z M 4110.0868,1551.2199 C 4110.0868,1573.3026 4093.5243,1587.6836 4071.9549,1587.6836 C 4055.3918,1587.6836 4050.8983,1583.4467 4037.6741,1575.7424 L 4037.5454,1573.3026 C 4037.4176,1570.4787 4038.4443,1567.5253 4039.5997,1564.958 C 4043.965,1565.7282 4047.6881,1568.552 4051.7972,1570.0938 L 4020.2127,1495.8828 C 4022.6519,1493.9572 4024.0644,1491.2606 4025.2198,1488.5643 C 4061.5549,1488.5643 4110.0868,1508.0803 4110.0868,1551.2199 Z M 4098.9166,1553.9156 C 4098.9166,1525.6701 4062.5821,1506.4106 4038.4443,1504.1007 L 4068.4881,1573.0461 C 4081.8404,1573.0461 4098.9166,1570.864 4098.9166,1553.9156 Z M 4199.9607,1577.668 C 4198.1638,1579.7228 4198.2917,1580.6211 4195.5959,1581.9049 C 4195.2107,1583.1896 4195.0823,1586.1419 4193.1558,1586.1419 C 4176.8507,1586.1419 4154.1253,1583.318 4138.3329,1578.6961 C 4138.8469,1573.0461 4139.4883,1570.2222 4145.6514,1569.4515 C 4141.671,1561.8764 4138.2045,1554.0437 4133.8389,1546.5974 C 4131.0147,1546.0835 4128.1903,1545.442 4125.3653,1544.6718 C 4126.5213,1541.9752 4127.4193,1539.1511 4128.3181,1536.3261 C 4119.9729,1520.7908 4111.8843,1511.8041 4111.242,1492.6725 C 4113.4249,1491.6458 4114.5809,1489.4637 4114.5809,1487.1518 L 4174.2828,1496.2677 C 4173.6407,1499.478 4174.1544,1502.9447 4172.8703,1506.0254 C 4169.0186,1507.3101 4164.9103,1507.6953 4160.9299,1507.6953 C 4149.5031,1507.6953 4138.3329,1504.87 4127.1627,1503.0731 C 4129.4741,1514.2428 4136.0219,1525.5414 4142.0563,1535.1712 C 4155.152,1535.1712 4170.3026,1536.9681 4183.0132,1540.5627 C 4183.2703,1542.6176 4181.2155,1544.6718 4180.3169,1546.3414 C 4180.7024,1548.1383 4180.1888,1549.9355 4178.9049,1551.2199 L 4147.8341,1548.9088 L 4157.0782,1568.4239 C 4171.5865,1570.7353 4185.7095,1574.4591 4199.9607,1577.668 Z M 4270.0629,1560.5926 C 4270.0629,1579.7228 4250.1623,1582.8043 4234.7551,1582.8043 C 4223.5849,1582.8043 4212.4147,1579.8515 4202.7857,1574.0742 C 4202.7857,1569.8364 4201.7584,1565.5997 4201.6297,1561.4915 C 4207.6641,1563.1597 4213.5701,1564.4438 4219.8619,1564.8296 L 4189.0476,1494.9845 C 4189.1763,1494.7279 4198.8053,1489.4637 4199.7042,1489.335 L 4214.2124,1521.4331 L 4250.804,1487.0239 C 4251.3177,1487.9225 4255.0407,1496.6529 4255.0407,1497.2953 C 4255.0407,1507.6953 4233.2142,1520.4059 4228.9773,1529.3934 C 4245.5395,1532.0891 4270.0629,1540.0497 4270.0629,1560.5926 Z M 4257.6086,1563.802 C 4257.2237,1549.165 4234.2415,1544.1588 4223.3284,1540.8193 L 4236.0392,1567.1401 C 4239.3773,1567.1401 4242.7154,1567.3966 4246.1819,1567.3966 C 4249.7773,1567.3966 4255.5546,1567.3966 4257.6086,1563.802"
       transform="matrix(1.3333333,0,0,-1.3333333,1.3333333,6578.4668)"
       style="fill:url(#linearGradient381);fill-rule:evenodd;stroke:none" />
    <path
       id="path382"
       d="M 4210.9843,1681.8157 C 4203.1755,1684.4683 4181.0221,1658.0262 4176.2993,1652.7951 C 4157.1292,1631.5591 4138.7777,1609.5175 4120.7902,1587.136 C 4121.3942,1586.5084 4121.9847,1585.8567 4122.5681,1585.1786 C 4124.1297,1583.2857 4125.5838,1581.3062 4126.8263,1579.1845 C 4126.6168,1581.8391 4126.3792,1584.4907 4126.146,1587.1428 C 4132.8972,1589.0621 4139.6369,1591.0569 4146.5086,1592.5224 C 4150.1548,1593.5332 4153.8144,1594.4465 4157.5076,1595.2796 C 4164.2912,1596.7551 4171.0952,1597.9011 4177.9392,1598.7543 C 4198.1479,1619.1578 4218.9378,1639.0154 4238.3769,1659.458 C 4235.6667,1662.9857 4234.6227,1664.6638 4237.2867,1669.2593 C 4240.3847,1674.6012 4234.3608,1672.8917 4237.0002,1674.9193 C 4238.1292,1678.2463 4230.8683,1678.8917 4228.5677,1678.2423 C 4225.0731,1677.2593 4229.4444,1680.2864 4224.0736,1678.9907 C 4221.1916,1678.2914 4220.1819,1675.4922 4217.8397,1678.5425 C 4216.3634,1678.7302 4216.9116,1675.3762 4214.5087,1678.502 C 4215.0356,1682.5235 4207.5952,1679.0729 4210.2598,1681.1203 C 4210.5614,1681.3502 4210.7253,1681.5212 4210.9843,1681.8157 Z M 4034.1648,1477.506 C 4033.9984,1477.2994 4033.8329,1477.0945 4033.6665,1476.8889 C 4031.0901,1473.7059 4011.6634,1446.389 4017.348,1443.6374 C 4023.4003,1444.8087 4021.2522,1443.617 4028.1741,1436.8334 C 4029.1849,1438.1977 4035.6431,1447.7009 4033.0236,1439.9972 C 4029.7238,1430.3032 4022.365,1424.6161 4034.721,1419.7433 C 4035.7551,1420.1008 4039.2788,1424.9157 4036.9065,1418.9023 C 4038.2725,1411.8503 4041.4689,1406.1929 4044.8526,1417.3061 C 4048.2244,1428.385 4050.5723,1436.7521 4057.1529,1446.4916 C 4067.7205,1462.1349 4079.1818,1477.1707 4090.4546,1492.3324 C 4083.3556,1488.8585 4075.918,1486.2138 4068.1706,1484.1763 C 4065.9528,1483.6241 4063.733,1483.1118 4061.4919,1482.6478 C 4052.5852,1479.9382 4043.442,1478.147 4034.1648,1477.506 Z M 4079.8346,1451.1078 C 4076.6837,1456.8372 4091.4011,1477.6268 4099.6502,1488.6876 C 4099.6091,1487.7403 4099.5689,1486.7938 4099.5249,1485.8493 L 4103.2874,1483.9815 L 4103.6063,1473.9154 L 4136.6441,1478.9928 C 4125.6442,1465.0262 4115.5186,1450.4165 4107.1346,1434.7003 C 4104.1828,1429.1651 4104.049,1428.8715 4102.5376,1432.8485 C 4100.1389,1439.1488 4093.1419,1422.7104 4090.9737,1430.4067 C 4089.585,1429.34 4088.1674,1425.4685 4086.3484,1427.1341 C 4083.3709,1429.861 4085.4424,1435.0921 4086.5533,1438.3508 C 4082.8467,1435.5017 4086.8668,1445.074 4085.8951,1445.4054 C 4079.2354,1445.3246 4089.8548,1449.0629 4084.8021,1449.7444 C 4083.2855,1448.5805 4081.981,1452.0478 4082.4482,1453.5357 C 4082.9944,1455.2745 4080.3888,1451.7442 4079.8346,1451.1078 Z M 4190.0803,1599.9653 C 4204.2254,1616.3527 4218.4831,1632.6241 4232.6972,1648.8711 C 4238.572,1655.5864 4244.2002,1662.5262 4250.5892,1668.7735 C 4260.1181,1678.0878 4259.4911,1675.0148 4269.3846,1665.9916 C 4268.7357,1665.1145 4264.2179,1660.142 4264.8642,1659.299 C 4270.6687,1663.7564 4275.4226,1669.5065 4281.2841,1674.0094 C 4284.7705,1676.6872 4288.8895,1673.0872 4290.5684,1669.9408 C 4290.2504,1667.514 4282.5878,1658.0667 4288.1947,1663.9169 C 4289.7385,1665.5323 4291.043,1666.8077 4292.7883,1668.1459 C 4303.4474,1665.1624 4301.0008,1662.0026 4294.0443,1655.3928 C 4290.2283,1651.771 4286.3136,1647.9445 4282.67,1644.137 C 4266.9833,1627.763 4251.8234,1610.9175 4236.8445,1593.9071 L 4222.5046,1593.2395 L 4217.3138,1592.193 L 4207.6755,1600.2788 L 4196.6002,1600.3757 C 4194.4212,1600.2643 4192.2485,1600.1291 4190.0803,1599.9653 Z M 4111.7837,1422.762 C 4109.8448,1427.8606 4125.5501,1447.6431 4128.5727,1451.7561 C 4135.8645,1461.6848 4143.331,1471.4855 4150.9276,1481.1874 L 4182.0851,1485.9746 C 4182.5877,1485.5834 4183.1118,1485.2361 4183.6589,1484.9042 C 4185.2914,1483.9574 4186.906,1483.0064 4188.5405,1482.0996 C 4168.5035,1456.7122 4148.4705,1431.3112 4127.7813,1406.4905 C 4122.2055,1408.3917 4122.3943,1406.5534 4117.9156,1403.1153 C 4116.5215,1402.7224 4116.57,1403.4569 4116.4546,1404.652 C 4112.6275,1401.7136 4112.5073,1406.1229 4113.4459,1409.4814 C 4113.9471,1411.2816 4114.1526,1411.1439 4112.9059,1410.1852 C 4111.8432,1413.9422 4116.3931,1414.9397 4113.8796,1418.2129 C 4114.8425,1420.1895 4115.8363,1418.9454 4114.3136,1420.9265 C 4111.9041,1419.0752 4112.9802,1425.8435 4112.7262,1423.9069 C 4112.3741,1423.6356 4112.0906,1423.1146 4111.7837,1422.762 Z M 4245.4786,1594.3099 C 4253.5687,1603.7819 4261.6287,1613.27 4269.6167,1622.8035 C 4275.8507,1630.2447 4282.4242,1638.3597 4289.7518,1644.7071 C 4294.0868,1648.4627 4296.3973,1643.6599 4299.6175,1640.2456 C 4298.4748,1638.703 4291.6788,1630.0338 4297.3798,1635.8675 C 4302.2344,1640.8301 4306.6278,1646.3092 4311.8643,1650.9121 C 4315.2826,1653.9174 4319.1428,1649.003 4317.139,1645.8659 C 4316.5749,1644.9789 4311.1721,1637.6426 4313.3516,1639.315 C 4315.252,1640.7746 4320.7608,1645.5212 4322.4942,1645.6371 C 4324.5085,1645.075 4321.618,1639.9247 4324.7526,1642.3328 C 4324.9952,1642.0167 4322.7952,1639.2427 4322.4829,1638.9094 C 4307.5857,1622.9594 4292.7976,1606.8212 4278.2443,1590.4548 C 4275.3416,1592.1828 4272.2495,1593.5051 4268.8956,1594.5262 L 4266.0856,1595.2717 Z"
       style="fill:#6f6f6f;fill-opacity:1;fill-rule:evenodd;stroke:none"
       transform="matrix(1.3333333,0,0,-1.3333333,1.3333333,6578.4668)" />
  </g>
</svg>
