<?xml version="1.0" encoding="UTF-8" standalone="no"?>
<svg
   xmlns:dc="http://purl.org/dc/elements/1.1/"
   xmlns:cc="http://creativecommons.org/ns#"
   xmlns:rdf="http://www.w3.org/1999/02/22-rdf-syntax-ns#"
   xmlns:svg="http://www.w3.org/2000/svg"
   xmlns="http://www.w3.org/2000/svg"
   xmlns:sodipodi="http://sodipodi.sourceforge.net/DTD/sodipodi-0.dtd"
   xmlns:inkscape="http://www.inkscape.org/namespaces/inkscape"
   id="Ebene_1"
   data-name="Ebene 1"
   viewBox="0 0 272.99 102.41"
   version="1.1"
   sodipodi:docname="logo.svg"
   inkscape:version="0.92.4 (5da689c313, 2019-01-14)">
  <metadata
     id="metadata57">
    <rdf:RDF>
      <cc:Work
         rdf:about="">
        <dc:format>image/svg+xml</dc:format>
        <dc:type
           rdf:resource="http://purl.org/dc/dcmitype/StillImage" />
      </cc:Work>
    </rdf:RDF>
  </metadata>
  <sodipodi:namedview
     pagecolor="#ffffff"
     bordercolor="#666666"
     borderopacity="1"
     objecttolerance="10"
     gridtolerance="10"
     guidetolerance="10"
     inkscape:pageopacity="0"
     inkscape:pageshadow="2"
     inkscape:window-width="1539"
     inkscape:window-height="941"
     id="namedview55"
     showgrid="false"
     inkscape:zoom="2.5641966"
     inkscape:cx="152.56272"
     inkscape:cy="47.887158"
     inkscape:window-x="0"
     inkscape:window-y="40"
     inkscape:window-maximized="0"
     inkscape:current-layer="Ebene_1" />
  <defs
     id="defs4">
    <style
       id="style2">.cls-1{fill:#2072b9;}.cls-2{fill:#4d4d4d;}.cls-3{fill:#e20d18;}</style>
    <filter
       inkscape:collect="always"
       style="color-interpolation-filters:sRGB"
       id="filter7040"
       x="-0.062622191"
       width="1.1252444"
       y="-0.064212933"
       height="1.1284259">
      <feGaussianBlur
         inkscape:collect="always"
         stdDeviation="0.63196228"
         id="feGaussianBlur7042" />
    </filter>
    <filter
       inkscape:collect="always"
       style="color-interpolation-filters:sRGB"
       id="filter7044"
       x="-0.096728902"
       width="1.1934578"
       y="-0.082648605"
       height="1.1652972">
      <feGaussianBlur
         inkscape:collect="always"
         stdDeviation="0.63196228"
         id="feGaussianBlur7046" />
    </filter>
    <filter
       inkscape:collect="always"
       style="color-interpolation-filters:sRGB"
       id="filter7048"
       x="-0.50389019"
       width="2.0077804"
       y="-0.06421293"
       height="1.1284259">
      <feGaussianBlur
         inkscape:collect="always"
         stdDeviation="0.63196228"
         id="feGaussianBlur7050" />
    </filter>
    <filter
       inkscape:collect="always"
       style="color-interpolation-filters:sRGB"
       id="filter7052"
       x="-0.093739769"
       width="1.1874795"
       y="-0.082880262"
       height="1.1657605">
      <feGaussianBlur
         inkscape:collect="always"
         stdDeviation="0.63196228"
         id="feGaussianBlur7054" />
    </filter>
    <filter
       inkscape:collect="always"
       style="color-interpolation-filters:sRGB"
       id="filter7056"
       x="-0.15684689"
       width="1.3136938"
       y="-0.084605477"
       height="1.169211">
      <feGaussianBlur
         inkscape:collect="always"
         stdDeviation="0.63196228"
         id="feGaussianBlur7058" />
    </filter>
    <filter
       inkscape:collect="always"
       style="color-interpolation-filters:sRGB"
       id="filter7060"
       x="-0.12493491"
       width="1.2498698"
       y="-0.061978848"
       height="1.1239577">
      <feGaussianBlur
         inkscape:collect="always"
         stdDeviation="0.63196228"
         id="feGaussianBlur7062" />
    </filter>
    <filter
       inkscape:collect="always"
       style="color-interpolation-filters:sRGB"
       id="filter7064"
       x="-0.089218204"
       width="1.1784364"
       y="-0.082385088"
       height="1.1647702">
      <feGaussianBlur
         inkscape:collect="always"
         stdDeviation="0.63196228"
         id="feGaussianBlur7066" />
    </filter>
    <filter
       inkscape:collect="always"
       style="color-interpolation-filters:sRGB"
       id="filter7068"
       x="-0.1037421"
       width="1.2074842"
       y="-0.082205522"
       height="1.164411">
      <feGaussianBlur
         inkscape:collect="always"
         stdDeviation="0.63196228"
         id="feGaussianBlur7070" />
    </filter>
    <filter
       inkscape:collect="always"
       style="color-interpolation-filters:sRGB"
       id="filter7072"
       x="-0.081499703"
       width="1.1629994"
       y="-0.06424013"
       height="1.1284803">
      <feGaussianBlur
         inkscape:collect="always"
         stdDeviation="0.63196228"
         id="feGaussianBlur7074" />
    </filter>
    <filter
       inkscape:collect="always"
       style="color-interpolation-filters:sRGB"
       id="filter7076"
       x="-0.088541125"
       width="1.1770822"
       y="-0.063193532"
       height="1.1263871">
      <feGaussianBlur
         inkscape:collect="always"
         stdDeviation="0.63196228"
         id="feGaussianBlur7078" />
    </filter>
    <filter
       inkscape:collect="always"
       style="color-interpolation-filters:sRGB"
       id="filter7080"
       x="-0.093797604"
       width="1.1875952"
       y="-0.082880252"
       height="1.1657605">
      <feGaussianBlur
         inkscape:collect="always"
         stdDeviation="0.63196228"
         id="feGaussianBlur7082" />
    </filter>
    <filter
       inkscape:collect="always"
       style="color-interpolation-filters:sRGB"
       id="filter7084"
       x="-0.14826094"
       width="1.2965219"
       y="-0.069765845"
       height="1.1395317">
      <feGaussianBlur
         inkscape:collect="always"
         stdDeviation="0.63196228"
         id="feGaussianBlur7086" />
    </filter>
    <filter
       inkscape:collect="always"
       style="color-interpolation-filters:sRGB"
       id="filter7088"
       x="-0.15684689"
       width="1.3136938"
       y="-0.084605477"
       height="1.169211">
      <feGaussianBlur
         inkscape:collect="always"
         stdDeviation="0.63196228"
         id="feGaussianBlur7090" />
    </filter>
    <filter
       inkscape:collect="always"
       style="color-interpolation-filters:sRGB"
       id="filter7092"
       x="-0.50389019"
       width="2.0077804"
       y="-0.086520788"
       height="1.1730416">
      <feGaussianBlur
         inkscape:collect="always"
         stdDeviation="0.63196228"
         id="feGaussianBlur7094" />
    </filter>
    <filter
       inkscape:collect="always"
       style="color-interpolation-filters:sRGB"
       id="filter7096"
       x="-0.4652483"
       width="1.9304966"
       y="-0.63996183"
       height="2.2799237">
      <feGaussianBlur
         inkscape:collect="always"
         stdDeviation="0.63196228"
         id="feGaussianBlur7098" />
    </filter>
    <filter
       inkscape:collect="always"
       style="color-interpolation-filters:sRGB"
       id="filter7100"
       x="-0.093797604"
       width="1.1875952"
       y="-0.082880252"
       height="1.1657605">
      <feGaussianBlur
         inkscape:collect="always"
         stdDeviation="0.63196228"
         id="feGaussianBlur7102" />
    </filter>
    <filter
       inkscape:collect="always"
       style="color-interpolation-filters:sRGB"
       id="filter7104"
       x="-0.088541125"
       width="1.1770822"
       y="-0.063193532"
       height="1.1263871">
      <feGaussianBlur
         inkscape:collect="always"
         stdDeviation="0.63196228"
         id="feGaussianBlur7106" />
    </filter>
    <filter
       inkscape:collect="always"
       style="color-interpolation-filters:sRGB"
       id="filter7108"
       x="-0.043797559"
       width="1.0875951"
       y="-0.031770202"
       height="1.0635404">
      <feGaussianBlur
         inkscape:collect="always"
         stdDeviation="0.63196228"
         id="feGaussianBlur7110" />
    </filter>
    <filter
       inkscape:collect="always"
       style="color-interpolation-filters:sRGB"
       id="filter7112"
       x="-0.054913449"
       width="1.1098269"
       y="-0.032242973"
       height="1.0644859">
      <feGaussianBlur
         inkscape:collect="always"
         stdDeviation="0.63196228"
         id="feGaussianBlur7114" />
    </filter>
    <filter
       inkscape:collect="always"
       style="color-interpolation-filters:sRGB"
       id="filter7116"
       x="-0.10510807"
       width="1.2102161"
       y="-0.031770202"
       height="1.0635404">
      <feGaussianBlur
         inkscape:collect="always"
         stdDeviation="0.63196228"
         id="feGaussianBlur7118" />
    </filter>
    <filter
       inkscape:collect="always"
       style="color-interpolation-filters:sRGB"
       id="filter7120"
       x="-0.017256907"
       width="1.0345138"
       y="-0.031770202"
       height="1.0635404">
      <feGaussianBlur
         inkscape:collect="always"
         stdDeviation="0.63196228"
         id="feGaussianBlur7122" />
    </filter>
    <filter
       inkscape:collect="always"
       style="color-interpolation-filters:sRGB"
       id="filter7124"
       x="-0.034770964"
       width="1.0695419"
       y="-0.031770202"
       height="1.0635404">
      <feGaussianBlur
         inkscape:collect="always"
         stdDeviation="0.63196228"
         id="feGaussianBlur7126" />
    </filter>
    <filter
       inkscape:collect="always"
       style="color-interpolation-filters:sRGB"
       id="filter7128"
       x="-0.034612265"
       width="1.0692245"
       y="-0.023821415"
       height="1.0476428">
      <feGaussianBlur
         inkscape:collect="always"
         stdDeviation="0.63196228"
         id="feGaussianBlur7130" />
    </filter>
  </defs>
  <title
     id="title6">Zeichenfläche 1</title>
  <polygon
     class="cls-1"
     points="249.39,37.17 249.68,28.8 269.87,28.8 270.23,18.56 237.26,18.56 235.6,66.3 268.57,66.3 268.93,56.07 248.73,56.07 249.03,47.41 266,47.41 266.36,37.17 "
     id="polygon8-9"
     style="fill:#ffffff;filter:url(#filter7108);stroke:#ffffff;stroke-opacity:1" />
  <polygon
     class="cls-1"
     points="231.9,19.26 217.63,19.26 204.28,41.48 216.9,66.3 231.88,66.3 217.34,41.34 "
     id="polygon10-7"
     style="fill:#ffffff;filter:url(#filter7112);stroke:#ffffff;stroke-opacity:1" />
  <polygon
     class="cls-1"
     points="190.66,18.56 189.01,66.3 201.78,66.3 203.44,18.56 "
     id="polygon12-5"
     style="fill:#ffffff;filter:url(#filter7116);stroke:#ffffff;stroke-opacity:1" />
  <polygon
     class="cls-1"
     points="149.65,66.3 150.71,35.81 150.83,35.81 165.52,66.3 180.43,66.3 182.08,18.56 170.89,18.56 169.81,49.63 169.69,49.63 155.2,18.56 140.12,18.56 138.46,66.3 "
     id="polygon14-9"
     style="fill:#ffffff;filter:url(#filter7124);stroke:#ffffff;stroke-opacity:1" />
  <path
     inkscape:connector-curvature="0"
     class="cls-1"
     d="M 136.38,66.3 121.13,18.56 H 105.81 C 99.000003,34.48 92.250003,50.54 84.840003,66 c -2.71,-6.37 -5.32,-13.75 -8,-20.79 5.68,-2.36 9.1,-6.44 9.3,-12.1 0.33,-9.45 -3.63,-14.53 -14.34,-14.53 h -21.65 l -1.66,47.72 h 12.23 l 1.28,-37.72 h 6.26 c 1.82,0 5.78,0 5.6,5.08 -0.16,4.65 -4,6.23 -7.58,6.23 a 17.29,17.29 0 0 1 -3.15,-0.36 c 3.1,8.66 5.59,17.75 8.07,26.77 h 27.47 L 104,52.56 h 15 l 3.9,13.74 z m -29,-23.77 5.46,-13.67 h 0.12 l 3.9,13.67 z"
     id="path16-1"
     style="fill:#ffffff;filter:url(#filter7120);stroke:#ffffff;stroke-opacity:1" />
  <polygon
     class="cls-1"
     points="21.78,27.45 22.17,16.28 46.75,16.28 47.22,2.63 5.61,2.63 3.4,66.3 20.44,66.3 21.31,41.1 41.91,41.1 42.39,27.45 "
     id="polygon18-4"
     style="fill:#ffffff;filter:url(#filter7128);stroke:#ffffff;stroke-opacity:1" />
  <path
     inkscape:connector-curvature="0"
     class="cls-1"
     d="m 261.23,78.57 a 22.68,22.68 0 0 0 -5.13,0.67 v -6.37 h -3 v 23.61 h 3 V 93.4 h 0.07 a 6.94,6.94 0 0 0 6.13,3.47 c 5.7,0 7.93,-4.67 7.93,-9.31 -0.01,-6.94 -4.11,-8.99 -9,-8.99 z m 0.46,16.11 c -4.21,0 -5.59,-3.33 -5.59,-6.73 v -6.3 a 14.1,14.1 0 0 1 4.74,-0.89 c 4,0 6.37,2.34 6.37,6.83 0,3.09 -1.34,7.09 -5.52,7.09 z"
     id="path20-2"
     style="fill:#ffffff;filter:url(#filter7104);stroke:#ffffff;stroke-opacity:1" />
  <rect
     class="cls-1"
     x="226.32001"
     y="78.959999"
     width="3.01"
     height="17.530001"
     id="rect22-8"
     style="fill:#ffffff;filter:url(#filter7092);stroke:#ffffff;stroke-opacity:1" />
  <rect
     class="cls-2"
     x="226.17999"
     y="72.870003"
     width="3.26"
     height="2.3699999"
     id="rect24-6"
     style="fill:#ffffff;filter:url(#filter7096);stroke:#ffffff;stroke-opacity:1" />
  <path
     inkscape:connector-curvature="0"
     class="cls-1"
     d="m 222.07,78.57 a 5,5 0 0 0 -5,3 L 217,81.64 V 79 h -3 v 17.48 h 3 V 86.6 c 0,-3 1.81,-5.67 4.67,-5.67 a 6.86,6.86 0 0 1 2,0.42 l -0.28,-2.62 a 5.16,5.16 0 0 0 -1.32,-0.16 z"
     id="path26-4"
     style="fill:#ffffff;filter:url(#filter7088);stroke:#ffffff;stroke-opacity:1" />
  <path
     inkscape:connector-curvature="0"
     class="cls-1"
     d="m 241.62,78.57 c -5.7,0 -8.36,4.14 -8.36,9.13 0,3.61 1.81,9.17 9,9.17 a 23.06,23.06 0 0 0 5.7,-0.71 l 0.5,-2.62 a 13.81,13.81 0 0 1 -6.2,1.13 c -4.57,0 -6,-3.5 -6,-7 v -0.32 h 13.17 v -1.6 c 0.01,-4.81 -3.17,-7.18 -7.81,-7.18 z m -5.24,7 c 0.39,-3.12 2.37,-5.13 5.59,-5.13 3.22,0 4.46,2.2 4.46,5.13 z"
     id="path28-2"
     style="fill:#ffffff;filter:url(#filter7100);stroke:#ffffff;stroke-opacity:1" />
  <path
     inkscape:connector-curvature="0"
     class="cls-1"
     d="m 171.41,78.57 a 22.68,22.68 0 0 0 -5.13,0.67 v -6.37 h -3 v 23.61 h 3 V 93.4 h 0.07 a 6.94,6.94 0 0 0 6.13,3.47 c 5.7,0 7.93,-4.67 7.93,-9.31 -0.01,-6.94 -4.11,-8.99 -9,-8.99 z m 0.46,16.11 c -4.21,0 -5.59,-3.33 -5.59,-6.73 v -6.3 a 14.1,14.1 0 0 1 4.74,-0.89 c 4,0 6.37,2.34 6.37,6.83 0.01,3.09 -1.39,7.09 -5.52,7.09 z"
     id="path30-8"
     style="fill:#ffffff;filter:url(#filter7076);stroke:#ffffff;stroke-opacity:1" />
  <path
     inkscape:connector-curvature="0"
     class="cls-1"
     d="m 191.31,78.57 c -5.7,0 -8.36,4.14 -8.36,9.13 0,3.61 1.81,9.17 9,9.17 a 23.06,23.06 0 0 0 5.7,-0.71 l 0.5,-2.62 a 13.8,13.8 0 0 1 -6.2,1.13 c -4.57,0 -6,-3.5 -6,-7 v -0.32 h 13.17 v -1.6 c 0.01,-4.81 -3.17,-7.18 -7.81,-7.18 z m -5.24,7 c 0.39,-3.12 2.37,-5.13 5.59,-5.13 3.22,0 4.46,2.2 4.46,5.13 z"
     id="path32-9"
     style="fill:#ffffff;filter:url(#filter7080);stroke:#ffffff;stroke-opacity:1" />
  <path
     inkscape:connector-curvature="0"
     class="cls-1"
     d="M 206.32,91.49 V 81.15 h 4.78 V 79 h -4.78 v -3.87 l -3,0.64 V 79 h -2.2 v 2.19 h 2.2 v 11.47 c 0,3.08 1.45,4.21 4.46,4.21 A 14.64,14.64 0 0 0 211,96.45 l 0.35,-2.37 a 11.23,11.23 0 0 1 -2.66,0.42 c -1.95,0 -2.37,-1.35 -2.37,-3.01 z"
     id="path34-7"
     style="fill:#ffffff;filter:url(#filter7084);stroke:#ffffff;stroke-opacity:1" />
  <path
     inkscape:connector-curvature="0"
     class="cls-3"
     d="m 111.79,78.46 a 32.32,32.32 0 0 0 -7.61,1 l -0.39,3.29 a 18.77,18.77 0 0 1 6.83,-1.49 c 1.31,0 3.26,0.25 3.26,2.16 0,3.47 -12,1.42 -12,8.21 0,3.54 2.58,5.24 6.55,5.24 0.64,0 2.16,-0.21 3.26,-0.32 l 0.78,-3 a 8.51,8.51 0 0 1 -2.8,0.53 c -1.42,0 -3.08,-0.42 -3.08,-2.12 0,-3.12 5.88,-3 7.58,-4.57 v 9.1 h 4.71 V 83.24 c -0.04,-4.04 -3.97,-4.78 -7.09,-4.78 z"
     id="path36-5"
     style="fill:#ffffff;filter:url(#filter7064);stroke:#ffffff;stroke-opacity:1" />
  <path
     inkscape:connector-curvature="0"
     class="cls-3"
     d="M 98.230003,75.27 A 9.44,9.44 0 0 1 101.31,75.94 L 101,72.58 a 17.08,17.08 0 0 0 -4.599997,-0.57 c -1.88,0 -5.13,0.46 -5.13,4.14 v 2.73 h -2.1 v 3.47 h 2.09 v 14.13 h 5 V 82.35 H 100.33 v -3.47 h -4.329997 v -1 c 0,-1.12 0,-2.61 2.23,-2.61 z"
     id="path38-2"
     style="fill:#ffffff;filter:url(#filter7060);stroke:#ffffff;stroke-opacity:1" />
  <path
     inkscape:connector-curvature="0"
     class="cls-3"
     d="m 132,81.93 a 11.73,11.73 0 0 1 4.6,1 l -0.42,-3.82 a 19.8,19.8 0 0 0 -5.2,-0.67 c -6.69,0 -9,4.21 -9,8.89 0,6.41 3.58,9.56 9.21,9.56 a 20.23,20.23 0 0 0 4.85,-0.6 l 0.46,-3.86 a 10.15,10.15 0 0 1 -4.32,1 c -3.36,0 -5.1,-2.19 -5.24,-5.45 -0.24,-3.5 1.42,-6.05 5.06,-6.05 z"
     id="path40-2"
     style="fill:#ffffff;filter:url(#filter7068);stroke:#ffffff;stroke-opacity:1" />
  <path
     inkscape:connector-curvature="0"
     class="cls-3"
     d="m 151.73,78.46 c -2.94,0 -5.27,0.78 -6.58,3.4 l -0.07,-0.07 v -8.92 h -5 v 23.61 h 5 v -6.8 c 0,-5.45 1.7,-7.26 5,-7.26 1.91,0 3.61,1 3.61,2.87 v 11.19 h 5 V 84.16 c -0.02,-4.32 -3.25,-5.7 -6.96,-5.7 z"
     id="path42-7"
     style="fill:#ffffff;filter:url(#filter7072);stroke:#ffffff;stroke-opacity:1" />
  <polygon
     class="cls-1"
     points="6.08,75.94 6.18,75.94 13.79,96.48 17.02,96.48 24.56,76.34 24.63,76.34 24.63,96.48 27.64,96.48 27.64,72.86 23,72.86 15.53,92.83 8.38,72.86 3.42,72.86 3.42,96.48 6.08,96.48 "
     id="polygon44-3"
     style="fill:#ffffff;filter:url(#filter7040);stroke:#ffffff;stroke-opacity:1" />
  <path
     inkscape:connector-curvature="0"
     class="cls-1"
     d="m 66.900003,78.57 c -5.7,0 -8.36,4.14 -8.36,9.13 0,3.61 1.81,9.17 9,9.17 a 23.08,23.08 0 0 0 5.7,-0.71 l 0.5,-2.62 a 13.81,13.81 0 0 1 -6.2,1.13 c -4.57,0 -6,-3.5 -6,-7 v -0.32 h 13.18 v -1.6 c 0,-4.81 -3.18,-7.18 -7.82,-7.18 z m -5.24,7 c 0.39,-3.12 2.37,-5.13 5.59,-5.13 3.22,0 4.46,2.2 4.46,5.13 z"
     id="path46-8"
     style="fill:#ffffff;filter:url(#filter7052);stroke:#ffffff;stroke-opacity:1" />
  <path
     inkscape:connector-curvature="0"
     class="cls-1"
     d="m 86.440003,78.57 a 5,5 0 0 0 -5,3 l -0.07,0.07 V 79 h -3 v 17.48 h 3 V 86.6 c 0,-3 1.81,-5.67 4.67,-5.67 a 6.86,6.86 0 0 1 2,0.42 l -0.28,-2.62 a 5.16,5.16 0 0 0 -1.32,-0.16 z"
     id="path48-2"
     style="fill:#ffffff;filter:url(#filter7056);stroke:#ffffff;stroke-opacity:1" />
  <path
     inkscape:connector-curvature="0"
     class="cls-1"
     d="m 40.170003,78.57 a 24.9,24.9 0 0 0 -6.48,0.92 l -0.35,2.41 a 15.21,15.21 0 0 1 6.51,-1.49 c 1.66,0 4.18,0.39 4.18,2.51 0,4.71 -12.640003,2.16 -12.640003,9 0,3.54 2.510003,5 6.200003,5 a 20.4,20.4 0 0 0 4,-0.35 l 0.5,-2.13 a 11.62,11.62 0 0 1 -3.65,0.64 c -1.81,0 -4,-0.64 -4,-2.87 0,-4.11 7.58,-3.82 9.63,-5.84 v 10.11 h 3 V 83.1 c -0.07,-2.76 -1.7,-4.53 -6.9,-4.53 z"
     id="path50-8"
     style="fill:#ffffff;filter:url(#filter7044);stroke:#ffffff;stroke-opacity:1" />
  <rect
     class="cls-1"
     x="51.599991"
     y="72.870003"
     width="3.01"
     height="23.620001"
     id="rect52-8"
     style="fill:#ffffff;filter:url(#filter7048);stroke:#ffffff;stroke-opacity:1" />
  <polygon
     class="cls-1"
     points="268.93 56.07 248.73 56.07 249.03 47.41 266 47.41 266.36 37.17 249.39 37.17 249.68 28.8 269.87 28.8 270.23 18.56 237.26 18.56 235.6 66.3 268.57 66.3 268.93 56.07"
     id="polygon8" />
  <polygon
     class="cls-1"
     points="217.63 19.26 204.28 41.48 216.9 66.3 231.88 66.3 217.34 41.34 231.9 19.26 217.63 19.26"
     id="polygon10" />
  <polygon
     class="cls-1"
     points="203.44 18.56 190.66 18.56 189.01 66.3 201.78 66.3 203.44 18.56"
     id="polygon12" />
  <polygon
     class="cls-1"
     points="169.81 49.63 169.69 49.63 155.2 18.56 140.12 18.56 138.46 66.3 149.65 66.3 150.71 35.81 150.83 35.81 165.52 66.3 180.43 66.3 182.08 18.56 170.89 18.56 169.81 49.63"
     id="polygon14" />
  <path
     class="cls-1"
     d="M136.38,66.3,121.13,18.56H105.81C99,34.48,92.25,50.54,84.84,66c-2.71-6.37-5.32-13.75-8-20.79,5.68-2.36,9.1-6.44,9.3-12.1.33-9.45-3.63-14.53-14.34-14.53H50.15L48.49,66.3H60.72L62,28.58h6.26c1.82,0,5.78,0,5.6,5.08-.16,4.65-4,6.23-7.58,6.23a17.29,17.29,0,0,1-3.15-.36c3.1,8.66,5.59,17.75,8.07,26.77H98.67L104,52.56h15l3.9,13.74Zm-29-23.77,5.46-13.67h.12l3.9,13.67Z"
     id="path16" />
  <polygon
     class="cls-1"
     points="3.4 66.3 20.44 66.3 21.31 41.1 41.91 41.1 42.39 27.45 21.78 27.45 22.17 16.28 46.75 16.28 47.22 2.63 5.61 2.63 3.4 66.3"
     id="polygon18" />
  <path
     class="cls-1"
     d="M261.23,78.57a22.68,22.68,0,0,0-5.13.67V72.87h-3V96.48h3V93.4h.07a6.94,6.94,0,0,0,6.13,3.47c5.7,0,7.93-4.67,7.93-9.31C270.22,80.62,266.12,78.57,261.23,78.57Zm.46,16.11c-4.21,0-5.59-3.33-5.59-6.73v-6.3a14.1,14.1,0,0,1,4.74-.89c4,0,6.37,2.34,6.37,6.83C267.21,90.68,265.87,94.68,261.69,94.68Z"
     id="path20" />
  <rect
     class="cls-1"
     x="226.32"
     y="78.96"
     width="3.01"
     height="17.53"
     id="rect22" />
  <rect
     class="cls-2"
     x="226.18"
     y="72.87"
     width="3.26"
     height="2.37"
     id="rect24" />
  <path
     class="cls-1"
     d="M222.07,78.57a5,5,0,0,0-5,3l-.07.07V79h-3V96.48h3V86.6c0-3,1.81-5.67,4.67-5.67a6.86,6.86,0,0,1,2,.42l-.28-2.62A5.16,5.16,0,0,0,222.07,78.57Z"
     id="path26" />
  <path
     class="cls-1"
     d="M241.62,78.57c-5.7,0-8.36,4.14-8.36,9.13,0,3.61,1.81,9.17,9,9.17a23.06,23.06,0,0,0,5.7-.71l.5-2.62a13.81,13.81,0,0,1-6.2,1.13c-4.57,0-6-3.5-6-7v-.32h13.17V85.75C249.44,80.94,246.26,78.57,241.62,78.57Zm-5.24,7c.39-3.12,2.37-5.13,5.59-5.13s4.46,2.2,4.46,5.13Z"
     id="path28" />
  <path
     class="cls-1"
     d="M171.41,78.57a22.68,22.68,0,0,0-5.13.67V72.87h-3V96.48h3V93.4h.07a6.94,6.94,0,0,0,6.13,3.47c5.7,0,7.93-4.67,7.93-9.31C180.4,80.62,176.3,78.57,171.41,78.57Zm.46,16.11c-4.21,0-5.59-3.33-5.59-6.73v-6.3a14.1,14.1,0,0,1,4.74-.89c4,0,6.37,2.34,6.37,6.83C177.4,90.68,176,94.68,171.87,94.68Z"
     id="path30" />
  <path
     class="cls-1"
     d="M191.31,78.57c-5.7,0-8.36,4.14-8.36,9.13,0,3.61,1.81,9.17,9,9.17a23.06,23.06,0,0,0,5.7-.71l.5-2.62a13.8,13.8,0,0,1-6.2,1.13c-4.57,0-6-3.5-6-7v-.32h13.17V85.75C199.13,80.94,195.95,78.57,191.31,78.57Zm-5.24,7c.39-3.12,2.37-5.13,5.59-5.13s4.46,2.2,4.46,5.13Z"
     id="path32" />
  <path
     class="cls-1"
     d="M206.32,91.49V81.15h4.78V79h-4.78V75.13l-3,.64V79h-2.2v2.19h2.2V92.66c0,3.08,1.45,4.21,4.46,4.21a14.64,14.64,0,0,0,3.22-.42l.35-2.37a11.23,11.23,0,0,1-2.66.42C206.74,94.5,206.32,93.15,206.32,91.49Z"
     id="path34" />
  <path
     class="cls-3"
     d="M111.79,78.46a32.32,32.32,0,0,0-7.61,1l-.39,3.29a18.77,18.77,0,0,1,6.83-1.49c1.31,0,3.26.25,3.26,2.16,0,3.47-12,1.42-12,8.21,0,3.54,2.58,5.24,6.55,5.24.64,0,2.16-.21,3.26-.32l.78-3a8.51,8.51,0,0,1-2.8.53c-1.42,0-3.08-.42-3.08-2.12,0-3.12,5.88-3,7.58-4.57v9.1h4.71V83.24C118.84,79.2,114.91,78.46,111.79,78.46Z"
     id="path36" />
  <path
     class="cls-3"
     d="M98.23,75.27a9.44,9.44,0,0,1,3.08.67L101,72.58a17.08,17.08,0,0,0-4.6-.57c-1.88,0-5.13.46-5.13,4.14v2.73H89.17v3.47h2.09V96.48h5V82.35h4.07V78.88H96v-1C96,76.76,96,75.27,98.23,75.27Z"
     id="path38" />
  <path
     class="cls-3"
     d="M132,81.93a11.73,11.73,0,0,1,4.6,1l-.42-3.82a19.8,19.8,0,0,0-5.2-.67c-6.69,0-9,4.21-9,8.89,0,6.41,3.58,9.56,9.21,9.56a20.23,20.23,0,0,0,4.85-.6l.46-3.86a10.15,10.15,0,0,1-4.32,1c-3.36,0-5.1-2.19-5.24-5.45C126.7,84.48,128.36,81.93,132,81.93Z"
     id="path40" />
  <path
     class="cls-3"
     d="M151.73,78.46c-2.94,0-5.27.78-6.58,3.4l-.07-.07V72.87h-5V96.48h5v-6.8c0-5.45,1.7-7.26,5-7.26,1.91,0,3.61,1,3.61,2.87V96.48h5V84.16C158.67,79.84,155.44,78.46,151.73,78.46Z"
     id="path42" />
  <polygon
     class="cls-1"
     points="15.53 92.83 8.38 72.86 3.42 72.86 3.42 96.48 6.08 96.48 6.08 75.94 6.18 75.94 13.79 96.48 17.02 96.48 24.56 76.34 24.63 76.34 24.63 96.48 27.64 96.48 27.64 72.86 23 72.86 15.53 92.83"
     id="polygon44" />
  <path
     class="cls-1"
     d="M66.9,78.57c-5.7,0-8.36,4.14-8.36,9.13,0,3.61,1.81,9.17,9,9.17a23.08,23.08,0,0,0,5.7-.71l.5-2.62a13.81,13.81,0,0,1-6.2,1.13c-4.57,0-6-3.5-6-7v-.32H74.72V85.75C74.72,80.94,71.54,78.57,66.9,78.57Zm-5.24,7c.39-3.12,2.37-5.13,5.59-5.13s4.46,2.2,4.46,5.13Z"
     id="path46" />
  <path
     class="cls-1"
     d="M86.44,78.57a5,5,0,0,0-5,3l-.07.07V79h-3V96.48h3V86.6c0-3,1.81-5.67,4.67-5.67a6.86,6.86,0,0,1,2,.42l-.28-2.62A5.16,5.16,0,0,0,86.44,78.57Z"
     id="path48" />
  <path
     class="cls-1"
     d="M40.17,78.57a24.9,24.9,0,0,0-6.48.92l-.35,2.41a15.21,15.21,0,0,1,6.51-1.49c1.66,0,4.18.39,4.18,2.51,0,4.71-12.64,2.16-12.64,9,0,3.54,2.51,5,6.2,5a20.4,20.4,0,0,0,4-.35l.5-2.13a11.62,11.62,0,0,1-3.65.64c-1.81,0-4-.64-4-2.87,0-4.11,7.58-3.82,9.63-5.84V96.48h3V83.1C47,80.34,45.37,78.57,40.17,78.57Z"
     id="path50" />
  <rect
     class="cls-1"
     x="51.6"
     y="72.87"
     width="3.01"
     height="23.62"
     id="rect52" />
</svg>
