<svg viewBox="0 0 272.99 102.41" xmlns="http://www.w3.org/2000/svg" xmlns:xlink="http://www.w3.org/1999/xlink"><filter id="a" color-interpolation-filters="sRGB" height="1.128426" width="1.125244" x="-.062622" y="-.064213"><feGaussianBlur stdDeviation=".63196228"/></filter><filter id="b" color-interpolation-filters="sRGB" height="1.165297" width="1.193458" x="-.096729" y="-.082649"><feGaussianBlur stdDeviation=".63196228"/></filter><filter id="c" color-interpolation-filters="sRGB" height="1.128426" width="2.00778" x="-.50389" y="-.064213"><feGaussianBlur stdDeviation=".63196228"/></filter><filter id="d" color-interpolation-filters="sRGB" height="1.165761" width="1.18748" x="-.09374" y="-.08288"><feGaussianBlur stdDeviation=".63196228"/></filter><filter id="e" color-interpolation-filters="sRGB" height="1.169211" width="1.313694" x="-.156847" y="-.084605"><feGaussianBlur stdDeviation=".63196228"/></filter><filter id="f" color-interpolation-filters="sRGB" height="1.123958" width="1.24987" x="-.124935" y="-.061979"><feGaussianBlur stdDeviation=".63196228"/></filter><filter id="g" color-interpolation-filters="sRGB" height="1.16477" width="1.178436" x="-.089218" y="-.082385"><feGaussianBlur stdDeviation=".63196228"/></filter><filter id="h" color-interpolation-filters="sRGB" height="1.164411" width="1.207484" x="-.103742" y="-.082206"><feGaussianBlur stdDeviation=".63196228"/></filter><filter id="i" color-interpolation-filters="sRGB" height="1.12848" width="1.162999" x="-.0815" y="-.06424"><feGaussianBlur stdDeviation=".63196228"/></filter><filter id="j" color-interpolation-filters="sRGB" height="1.126387" width="1.177082" x="-.088541" y="-.063194"><feGaussianBlur stdDeviation=".63196228"/></filter><filter id="k" color-interpolation-filters="sRGB" height="1.165761" width="1.187595" x="-.093798" y="-.08288"><feGaussianBlur stdDeviation=".63196228"/></filter><filter id="l" color-interpolation-filters="sRGB" height="1.139532" width="1.296522" x="-.148261" y="-.069766"><feGaussianBlur stdDeviation=".63196228"/></filter><filter id="m" color-interpolation-filters="sRGB" height="1.173042" width="2.00778" x="-.50389" y="-.086521"><feGaussianBlur stdDeviation=".63196228"/></filter><filter id="n" color-interpolation-filters="sRGB" height="2.279924" width="1.930497" x="-.465248" y="-.639962"><feGaussianBlur stdDeviation=".63196228"/></filter><filter id="o" color-interpolation-filters="sRGB" height="1.06354" width="1.087595" x="-.043798" y="-.03177"><feGaussianBlur stdDeviation=".63196228"/></filter><filter id="p" color-interpolation-filters="sRGB" height="1.064486" width="1.109827" x="-.054913" y="-.032243"><feGaussianBlur stdDeviation=".63196228"/></filter><filter id="q" color-interpolation-filters="sRGB" height="1.06354" width="1.210216" x="-.105108" y="-.03177"><feGaussianBlur stdDeviation=".63196228"/></filter><filter id="r" color-interpolation-filters="sRGB" height="1.06354" width="1.034514" x="-.017257" y="-.03177"><feGaussianBlur stdDeviation=".63196228"/></filter><filter id="s" color-interpolation-filters="sRGB" height="1.06354" width="1.069542" x="-.034771" y="-.03177"><feGaussianBlur stdDeviation=".63196228"/></filter><filter id="t" color-interpolation-filters="sRGB" height="1.047643" width="1.069225" x="-.034612" y="-.023821"><feGaussianBlur stdDeviation=".63196228"/></filter><g fill="#fff" stroke="#fff"><path d="m249.39 37.17.29-8.37h20.19l.36-10.24h-32.97l-1.66 47.74h32.97l.36-10.23h-20.2l.3-8.66h16.97l.36-10.24z" filter="url(#o)"/><path d="m231.9 19.26h-14.27l-13.35 22.22 12.62 24.82h14.98l-14.54-24.96z" filter="url(#p)"/><path d="m190.66 18.56-1.65 47.74h12.77l1.66-47.74z" filter="url(#q)"/><path d="m149.65 66.3 1.06-30.49h.12l14.69 30.49h14.91l1.65-47.74h-11.19l-1.08 31.07h-.12l-14.49-31.07h-15.08l-1.66 47.74z" filter="url(#s)"/><path d="m136.38 66.3-15.25-47.74h-15.32c-6.809997 15.92-13.559997 31.98-20.969997 47.44-2.71-6.37-5.32-13.75-8-20.79 5.68-2.36 9.1-6.44 9.3-12.1.33-9.45-3.63-14.53-14.34-14.53h-21.65l-1.66 47.72h12.23l1.28-37.72h6.26c1.82 0 5.78 0 5.6 5.08-.16 4.65-4 6.23-7.58 6.23a17.29 17.29 0 0 1 -3.15-.36c3.1 8.66 5.59 17.75 8.07 26.77h27.47l5.329997-13.74h15l3.9 13.74zm-29-23.77 5.46-13.67h.12l3.9 13.67z" filter="url(#r)"/><path d="m21.78 27.45.39-11.17h24.58l.47-13.65h-41.61l-2.21 63.67h17.04l.87-25.2h20.6l.48-13.65z" filter="url(#t)"/><path d="m261.23 78.57a22.68 22.68 0 0 0 -5.13.67v-6.37h-3v23.61h3v-3.08h.07a6.94 6.94 0 0 0 6.13 3.47c5.7 0 7.93-4.67 7.93-9.31-.01-6.94-4.11-8.99-9-8.99zm.46 16.11c-4.21 0-5.59-3.33-5.59-6.73v-6.3a14.1 14.1 0 0 1 4.74-.89c4 0 6.37 2.34 6.37 6.83 0 3.09-1.34 7.09-5.52 7.09z" filter="url(#j)"/><path d="m226.32001 78.959999h3.01v17.530001h-3.01z" filter="url(#m)"/><path d="m226.17999 72.870003h3.26v2.37h-3.26z" filter="url(#n)"/><path d="m222.07 78.57a5 5 0 0 0 -5 3l-.07.07v-2.64h-3v17.48h3v-9.88c0-3 1.81-5.67 4.67-5.67a6.86 6.86 0 0 1 2 .42l-.28-2.62a5.16 5.16 0 0 0 -1.32-.16z" filter="url(#e)"/><path d="m241.62 78.57c-5.7 0-8.36 4.14-8.36 9.13 0 3.61 1.81 9.17 9 9.17a23.06 23.06 0 0 0 5.7-.71l.5-2.62a13.81 13.81 0 0 1 -6.2 1.13c-4.57 0-6-3.5-6-7v-.32h13.17v-1.6c.01-4.81-3.17-7.18-7.81-7.18zm-5.24 7c.39-3.12 2.37-5.13 5.59-5.13s4.46 2.2 4.46 5.13z" filter="url(#k)"/><path d="m171.41 78.57a22.68 22.68 0 0 0 -5.13.67v-6.37h-3v23.61h3v-3.08h.07a6.94 6.94 0 0 0 6.13 3.47c5.7 0 7.93-4.67 7.93-9.31-.01-6.94-4.11-8.99-9-8.99zm.46 16.11c-4.21 0-5.59-3.33-5.59-6.73v-6.3a14.1 14.1 0 0 1 4.74-.89c4 0 6.37 2.34 6.37 6.83.01 3.09-1.39 7.09-5.52 7.09z" filter="url(#j)"/><path d="m191.31 78.57c-5.7 0-8.36 4.14-8.36 9.13 0 3.61 1.81 9.17 9 9.17a23.06 23.06 0 0 0 5.7-.71l.5-2.62a13.8 13.8 0 0 1 -6.2 1.13c-4.57 0-6-3.5-6-7v-.32h13.17v-1.6c.01-4.81-3.17-7.18-7.81-7.18zm-5.24 7c.39-3.12 2.37-5.13 5.59-5.13s4.46 2.2 4.46 5.13z" filter="url(#k)"/><path d="m206.32 91.49v-10.34h4.78v-2.15h-4.78v-3.87l-3 .64v3.23h-2.2v2.19h2.2v11.47c0 3.08 1.45 4.21 4.46 4.21a14.64 14.64 0 0 0 3.22-.42l.35-2.37a11.23 11.23 0 0 1 -2.66.42c-1.95 0-2.37-1.35-2.37-3.01z" filter="url(#l)"/><path d="m111.79 78.46a32.32 32.32 0 0 0 -7.61 1l-.39 3.29a18.77 18.77 0 0 1 6.83-1.49c1.31 0 3.26.25 3.26 2.16 0 3.47-12 1.42-12 8.21 0 3.54 2.58 5.24 6.55 5.24.64 0 2.16-.21 3.26-.32l.78-3a8.51 8.51 0 0 1 -2.8.53c-1.42 0-3.08-.42-3.08-2.12 0-3.12 5.88-3 7.58-4.57v9.1h4.71v-13.25c-.04-4.04-3.97-4.78-7.09-4.78z" filter="url(#g)"/><path d="m98.230003 75.27a9.44 9.44 0 0 1 3.079997.67l-.31-3.36a17.08 17.08 0 0 0 -4.599997-.57c-1.88 0-5.13.46-5.13 4.14v2.73h-2.1v3.47h2.09v14.13h5v-14.13h4.069997v-3.47h-4.329997v-1c0-1.12 0-2.61 2.23-2.61z" filter="url(#f)"/><path d="m132 81.93a11.73 11.73 0 0 1 4.6 1l-.42-3.82a19.8 19.8 0 0 0 -5.2-.67c-6.69 0-9 4.21-9 8.89 0 6.41 3.58 9.56 9.21 9.56a20.23 20.23 0 0 0 4.85-.6l.46-3.86a10.15 10.15 0 0 1 -4.32 1c-3.36 0-5.1-2.19-5.24-5.45-.24-3.5 1.42-6.05 5.06-6.05z" filter="url(#h)"/><path d="m151.73 78.46c-2.94 0-5.27.78-6.58 3.4l-.07-.07v-8.92h-5v23.61h5v-6.8c0-5.45 1.7-7.26 5-7.26 1.91 0 3.61 1 3.61 2.87v11.19h5v-12.32c-.02-4.32-3.25-5.7-6.96-5.7z" filter="url(#i)"/><path d="m6.08 75.94h.1l7.61 20.54h3.23l7.54-20.14h.07v20.14h3.01v-23.62h-4.64l-7.47 19.97-7.15-19.97h-4.96v23.62h2.66z" filter="url(#a)"/><path d="m66.900003 78.57c-5.7 0-8.36 4.14-8.36 9.13 0 3.61 1.81 9.17 9 9.17a23.08 23.08 0 0 0 5.7-.71l.5-2.62a13.81 13.81 0 0 1 -6.2 1.13c-4.57 0-6-3.5-6-7v-.32h13.18v-1.6c0-4.81-3.18-7.18-7.82-7.18zm-5.24 7c.39-3.12 2.37-5.13 5.59-5.13s4.46 2.2 4.46 5.13z" filter="url(#d)"/><path d="m86.440003 78.57a5 5 0 0 0 -5 3l-.07.07v-2.64h-3v17.48h3v-9.88c0-3 1.81-5.67 4.67-5.67a6.86 6.86 0 0 1 2 .42l-.28-2.62a5.16 5.16 0 0 0 -1.32-.16z" filter="url(#e)"/><path d="m40.170003 78.57a24.9 24.9 0 0 0 -6.48.92l-.35 2.41a15.21 15.21 0 0 1 6.51-1.49c1.66 0 4.18.39 4.18 2.51 0 4.71-12.640003 2.16-12.640003 9 0 3.54 2.510003 5 6.200003 5a20.4 20.4 0 0 0 4-.35l.5-2.13a11.62 11.62 0 0 1 -3.65.64c-1.81 0-4-.64-4-2.87 0-4.11 7.58-3.82 9.63-5.84v10.11h3v-13.38c-.07-2.76-1.7-4.53-6.9-4.53z" filter="url(#b)"/><path d="m51.599991 72.870003h3.01v23.620001h-3.01z" filter="url(#c)"/></g><path d="m268.93 56.07h-20.2l.3-8.66h16.97l.36-10.24h-16.97l.29-8.37h20.19l.36-10.24h-32.97l-1.66 47.74h32.97z" fill="#2072b9"/><path d="m217.63 19.26-13.35 22.22 12.62 24.82h14.98l-14.54-24.96 14.56-22.08z" fill="#2072b9"/><path d="m203.44 18.56h-12.78l-1.65 47.74h12.77z" fill="#2072b9"/><path d="m169.81 49.63h-.12l-14.49-31.07h-15.08l-1.66 47.74h11.19l1.06-30.49h.12l14.69 30.49h14.91l1.65-47.74h-11.19z" fill="#2072b9"/><path d="m136.38 66.3-15.25-47.74h-15.32c-6.81 15.92-13.56 31.98-20.97 47.44-2.71-6.37-5.32-13.75-8-20.79 5.68-2.36 9.1-6.44 9.3-12.1.33-9.45-3.63-14.53-14.34-14.53h-21.65l-1.66 47.72h12.23l1.28-37.72h6.26c1.82 0 5.78 0 5.6 5.08-.16 4.65-4 6.23-7.58 6.23a17.29 17.29 0 0 1 -3.15-.36c3.1 8.66 5.59 17.75 8.07 26.77h27.47l5.33-13.74h15l3.9 13.74zm-29-23.77 5.46-13.67h.12l3.9 13.67z" fill="#2072b9"/><path d="m3.4 66.3h17.04l.87-25.2h20.6l.48-13.65h-20.61l.39-11.17h24.58l.47-13.65h-41.61z" fill="#2072b9"/><path d="m261.23 78.57a22.68 22.68 0 0 0 -5.13.67v-6.37h-3v23.61h3v-3.08h.07a6.94 6.94 0 0 0 6.13 3.47c5.7 0 7.93-4.67 7.93-9.31-.01-6.94-4.11-8.99-9-8.99zm.46 16.11c-4.21 0-5.59-3.33-5.59-6.73v-6.3a14.1 14.1 0 0 1 4.74-.89c4 0 6.37 2.34 6.37 6.83-0 3.09-1.34 7.09-5.52 7.09z" fill="#2072b9"/><path d="m226.32 78.96h3.01v17.53h-3.01z" fill="#2072b9"/><path d="m226.18 72.87h3.26v2.37h-3.26z" fill="#4d4d4d"/><path d="m222.07 78.57a5 5 0 0 0 -5 3l-.07.07v-2.64h-3v17.48h3v-9.88c0-3 1.81-5.67 4.67-5.67a6.86 6.86 0 0 1 2 .42l-.28-2.62a5.16 5.16 0 0 0 -1.32-.16z" fill="#2072b9"/><path d="m241.62 78.57c-5.7 0-8.36 4.14-8.36 9.13 0 3.61 1.81 9.17 9 9.17a23.06 23.06 0 0 0 5.7-.71l.5-2.62a13.81 13.81 0 0 1 -6.2 1.13c-4.57 0-6-3.5-6-7v-.32h13.17v-1.6c.01-4.81-3.17-7.18-7.81-7.18zm-5.24 7c.39-3.12 2.37-5.13 5.59-5.13s4.46 2.2 4.46 5.13z" fill="#2072b9"/><path d="m171.41 78.57a22.68 22.68 0 0 0 -5.13.67v-6.37h-3v23.61h3v-3.08h.07a6.94 6.94 0 0 0 6.13 3.47c5.7 0 7.93-4.67 7.93-9.31-.01-6.94-4.11-8.99-9-8.99zm.46 16.11c-4.21 0-5.59-3.33-5.59-6.73v-6.3a14.1 14.1 0 0 1 4.74-.89c4 0 6.37 2.34 6.37 6.83.01 3.09-1.39 7.09-5.52 7.09z" fill="#2072b9"/><path d="m191.31 78.57c-5.7 0-8.36 4.14-8.36 9.13 0 3.61 1.81 9.17 9 9.17a23.06 23.06 0 0 0 5.7-.71l.5-2.62a13.8 13.8 0 0 1 -6.2 1.13c-4.57 0-6-3.5-6-7v-.32h13.17v-1.6c.01-4.81-3.17-7.18-7.81-7.18zm-5.24 7c.39-3.12 2.37-5.13 5.59-5.13s4.46 2.2 4.46 5.13z" fill="#2072b9"/><path d="m206.32 91.49v-10.34h4.78v-2.15h-4.78v-3.87l-3 .64v3.23h-2.2v2.19h2.2v11.47c0 3.08 1.45 4.21 4.46 4.21a14.64 14.64 0 0 0 3.22-.42l.35-2.37a11.23 11.23 0 0 1 -2.66.42c-1.95 0-2.37-1.35-2.37-3.01z" fill="#2072b9"/><path d="m111.79 78.46a32.32 32.32 0 0 0 -7.61 1l-.39 3.29a18.77 18.77 0 0 1 6.83-1.49c1.31 0 3.26.25 3.26 2.16 0 3.47-12 1.42-12 8.21 0 3.54 2.58 5.24 6.55 5.24.64 0 2.16-.21 3.26-.32l.78-3a8.51 8.51 0 0 1 -2.8.53c-1.42 0-3.08-.42-3.08-2.12 0-3.12 5.88-3 7.58-4.57v9.1h4.71v-13.25c-.04-4.04-3.97-4.78-7.09-4.78z" fill="#e20d18"/><path d="m98.23 75.27a9.44 9.44 0 0 1 3.08.67l-.31-3.36a17.08 17.08 0 0 0 -4.6-.57c-1.88 0-5.13.46-5.13 4.14v2.73h-2.1v3.47h2.09v14.13h5v-14.13h4.07v-3.47h-4.33v-1c0-1.12 0-2.61 2.23-2.61z" fill="#e20d18"/><path d="m132 81.93a11.73 11.73 0 0 1 4.6 1l-.42-3.82a19.8 19.8 0 0 0 -5.2-.67c-6.69 0-9 4.21-9 8.89 0 6.41 3.58 9.56 9.21 9.56a20.23 20.23 0 0 0 4.85-.6l.46-3.86a10.15 10.15 0 0 1 -4.32 1c-3.36 0-5.1-2.19-5.24-5.45-.24-3.5 1.42-6.05 5.06-6.05z" fill="#e20d18"/><path d="m151.73 78.46c-2.94 0-5.27.78-6.58 3.4l-.07-.07v-8.92h-5v23.61h5v-6.8c0-5.45 1.7-7.26 5-7.26 1.91 0 3.61 1 3.61 2.87v11.19h5v-12.32c-.02-4.32-3.25-5.7-6.96-5.7z" fill="#e20d18"/><path d="m15.53 92.83-7.15-19.97h-4.96v23.62h2.66v-20.54h.1l7.61 20.54h3.23l7.54-20.14h.07v20.14h3.01v-23.62h-4.64z" fill="#2072b9"/><path d="m66.9 78.57c-5.7 0-8.36 4.14-8.36 9.13 0 3.61 1.81 9.17 9 9.17a23.08 23.08 0 0 0 5.7-.71l.5-2.62a13.81 13.81 0 0 1 -6.2 1.13c-4.57 0-6-3.5-6-7v-.32h13.18v-1.6c0-4.81-3.18-7.18-7.82-7.18zm-5.24 7c.39-3.12 2.37-5.13 5.59-5.13s4.46 2.2 4.46 5.13z" fill="#2072b9"/><path d="m86.44 78.57a5 5 0 0 0 -5 3l-.07.07v-2.64h-3v17.48h3v-9.88c0-3 1.81-5.67 4.67-5.67a6.86 6.86 0 0 1 2 .42l-.28-2.62a5.16 5.16 0 0 0 -1.32-.16z" fill="#2072b9"/><path d="m40.17 78.57a24.9 24.9 0 0 0 -6.48.92l-.35 2.41a15.21 15.21 0 0 1 6.51-1.49c1.66 0 4.18.39 4.18 2.51 0 4.71-12.64 2.16-12.64 9 0 3.54 2.51 5 6.2 5a20.4 20.4 0 0 0 4-.35l.5-2.13a11.62 11.62 0 0 1 -3.65.64c-1.81 0-4-.64-4-2.87 0-4.11 7.58-3.82 9.63-5.84v10.11h3v-13.38c-.07-2.76-1.7-4.53-6.9-4.53z" fill="#2072b9"/><path d="m51.6 72.87h3.01v23.62h-3.01z" fill="#2072b9"/></svg>