<?xml version="1.0" encoding="utf-8"?>
<!-- Generator: Adobe Illustrator 21.1.0, SVG Export Plug-In . SVG Version: 6.00 Build 0)  -->
<svg version="1.1" id="Ebene_1" xmlns="http://www.w3.org/2000/svg" xmlns:xlink="http://www.w3.org/1999/xlink" x="0px" y="0px"
	 viewBox="0 0 200 50" style="enable-background:new 0 0 200 50;" xml:space="preserve">
<style type="text/css">
	.st0{fill:#3C3C3B;}
	.st1{fill:#CE2820;}
	.st2{fill:#0474BA;}
	.st3{fill:#F7CC00;}
	.st4{fill:#1D70B7;}
</style>
<g>
	<g>
		<path class="st0" d="M62.5,36.9V17.7h3.8l0.6,2.4c2.2-1.6,4.4-2.4,6.6-2.4c2.4,0,4.2,0.9,5.2,2.7c2.5-1.8,4.8-2.7,6.9-2.7
			c4.1,0,6.1,2.4,6.1,7.3v12h-4.9V24.8c0-2.1-0.9-3.2-2.7-3.2c-1.4,0-3,0.8-4.5,2.5v12.8h-4.9V24.8c0-2.2-0.9-3.3-2.7-3.3
			c-1.5,0-3.1,0.8-4.6,2.5v12.9H62.5z"/>
	</g>
	<path class="st0" d="M95.3,30.9c0-3.9,2.8-5.9,8.4-5.9c1.7,0,3.2,0.1,4.5,0.4v-1.3c0-1.7-1.7-2.6-5-2.6c-2.1,0-4.2,0.3-6.3,0.9
		v-3.9c2.1-0.6,4.2-0.9,6.3-0.9c6.6,0,9.9,2.1,9.9,6.4v12.9h-2.5l-2.1-1.4c-1.7,0.9-3.5,1.4-5.4,1.4C97.9,36.9,95.3,34.9,95.3,30.9z
		 M103.7,28.7c-2.3,0-3.5,0.7-3.5,2.2s1,2.2,2.9,2.2c2,0,3.7-0.5,5.1-1.5V29C107,28.8,105.5,28.7,103.7,28.7z"/>
	<path class="st0" d="M122.5,10.7V37h-4.9V10.7H122.5z"/>
	<path class="st0" d="M143.4,29.2h-12.6c0,2.6,2.1,3.9,6.4,3.9c2,0,3.9-0.2,5.8-0.6v3.9c-1.7,0.4-3.9,0.6-6.6,0.6
		c-7,0-10.5-3.3-10.5-9.9c0-6.3,3.2-9.4,9.6-9.4C141.9,17.7,144.6,21.5,143.4,29.2z M130.8,25.6h8.1c0.2-2.8-1.1-4.2-3.9-4.2
		C132.4,21.5,131,22.9,130.8,25.6z"/>
	<path class="st0" d="M147.1,36.9V17.7h3.8l0.6,2.5c1.7-1.6,3.5-2.5,5.4-2.5v3.9c-1.8,0-3.5,0.8-4.9,2.4v12.9H147.1z"/>
	<g>
		<path class="st0" d="M157.8,35.4v1.5h-1.6v-1.5H157.8z"/>
		<path class="st0" d="M160.3,30.5c0-4.3,2.1-6.4,6.1-6.4c4.1,0,6.1,2.1,6.1,6.4s-2.1,6.4-6.1,6.4C162.3,36.9,160.3,34.8,160.3,30.5
			z M166.4,35.8c3.2,0,4.8-1.8,4.8-5.4c0-3.5-1.6-5.3-4.8-5.3s-4.8,1.7-4.8,5.3C161.5,34,163.1,35.8,166.4,35.8z"/>
		<path class="st0" d="M175.6,36.9V24.1h0.9l0.2,1.6c0.7-1.1,1.9-1.6,3.5-1.6v1c-1.5,0-2.6,0.6-3.2,1.6v10.2H175.6L175.6,36.9z"/>
		<path class="st0" d="M193.3,36.9c0,3.1-2,4.6-5.9,4.6c-1.6,0-3-0.2-4.2-0.6v-1.1c1.3,0.4,2.7,0.6,4.3,0.6c3.1,0,4.6-1.2,4.6-3.6
			v-0.6c-1.6,0.4-3,0.6-4.1,0.6c-4.1,0-6.1-2.2-6.1-6.5s2.1-6.4,6.4-6.4c1.7,0,3.4,0.2,5.1,0.5L193.3,36.9L193.3,36.9z M192,25.5
			c-1.4-0.2-2.7-0.3-3.9-0.3c-3.4,0-5.1,1.7-5.1,5.2s1.6,5.3,4.8,5.3c1.2,0,2.5-0.2,4.1-0.7L192,25.5L192,25.5z"/>
	</g>
	<g>
		<path class="st1" d="M58.3,36.7V17.4v-3.5C54.8,9,50,5.3,43.1,4.2C38.4,7,36,8.5,31.4,11.7C46.8,11,53,25.2,58.3,36.9V36.7
			L58.3,36.7z"/>
	</g>
	<path class="st2" d="M16.4,23.1c-4.1,3.6-6.5,5.8-9.4,9.1c7.2-7.2,14-0.9,20.3,4.9h15.4C36.7,28.2,28.9,16.7,16.4,23.1z"/>
	<path class="st3" d="M30,12.6c-5.1,3.5-7.6,5.4-12.3,9.3c12.9-5.8,20.6,6,26.6,15.2h12.9C51.7,25.5,45.4,11.4,30,12.6z"/>
	<path class="st4" d="M4.8,34.9c0.8-1,1.5-1.9,2.2-2.7C6.3,32.9,5.5,33.8,4.8,34.9z"/>
	<rect x="4.7" y="44.7" class="st2" width="62.9" height="1.2"/>
	<rect x="67.6" y="44.7" class="st3" width="62.9" height="1.2"/>
	<rect x="130.4" y="44.7" class="st1" width="62.9" height="1.2"/>
</g>
</svg>
