<svg viewBox="-.0025 0 304.505 301.5" xmlns="http://www.w3.org/2000/svg"><path d="m2 2h300.5v297.5h-300.5z" fill="#fff"/><path d="m300.5 4v293.5h-296.5v-293.5zm4-4h-304.5v301.5h304.5z"/><path d="m109.6 70.1h-91v34.1h91" fill="#ef7d00"/><path d="m200 17.6-89.2.2h-23l-69.3-.2v49.4h157.8c11.2 0 20.2 9.1 20.2 20.2 0 11.2-9.1 20.2-20.2 20.2h-157.7v111.9h91v-63.9l90.6-.5c37.9 0 68.6-30.7 68.6-68.6 0-37.8-32.8-70-68.8-68.7z"/><path d="m18.6 230.3h26.1c13.3 0 23.1 6.9 23.1 20.9 0 11.6-7.1 18.9-18.7 18.9h-10.6v17.2h-19.9zm19.9 25.6h2c3.7 0 7.6-.5 7.6-5.2 0-4.4-4.2-4.7-7.6-4.7h-2z"/><path d="m73.5 230.3h24.8c12.8 0 23.6 5.4 23.6 19.7 0 8.6-3.2 12.3-11.1 14.8v.5c1 .7 2.2 1.7 3.4 3.4l12.3 18.5h-23.9l-9.1-18.2h-.5v18.2h-20v-56.8zm20.1 25.3h1.5c3.4 0 6.9-.5 6.9-4.7 0-4.4-3.2-4.9-6.6-4.9h-1.5v9.6z"/><path d="m132.5 230.3h20.7v56.8h-20.7z"/><path d="m223.5 258.8c0 18.2-14 29.3-31.5 29.3s-31.5-10.8-31.5-29.3c0-18 14.3-29.5 31.5-29.5 17.3.3 31.5 11.8 31.5 29.5zm-42 .5c0 6.4 4.4 10.8 10.6 10.8s10.6-4.4 10.6-10.8c0-5.9-4.2-11.1-10.6-11.1-6.7.1-10.6 5-10.6 11.1z"/><path d="m230.7 230.3h24.8c12.8 0 23.6 5.4 23.6 19.7 0 8.6-3.2 12.3-11.1 14.8v.5c1 .7 2.2 1.7 3.4 3.4l12.3 18.5h-23.9l-9.1-18.2h-.5v18.2h-20.2v-56.8zm20.1 25.3h1.5c3.4 0 6.9-.5 6.9-4.7 0-4.4-3.2-4.9-6.6-4.9h-1.5v9.6z"/><path d="m112.9 158.7v60.7h172.2v-201.8h-62.5c13.4 5.1 25.7 14.2 33.3 23.5 10.4 12.8 16.1 28.9 16.1 45.2 0 19.3-7.6 37.4-21.3 50.9s-31.9 20.9-51.3 20.9z" fill="#ef7d00"/></svg>