<svg viewBox="-.0025 0 304.505 301.5" xmlns="http://www.w3.org/2000/svg" class="i7"><path style="display:none;" fill="#F18834" d="M215.5 17.8c31 7.4 54.5 35.4 54.5 68.6 0 38.9-31.7 69.8-70.6 69.8l-88.5.6v62.7l175.8.1 .2-201.7 -71.4-.1Z"></path><path fill="#FFF" d="M2 2h300.5v297.5H2Z"></path><path d="M300.5 4v293.5H4V4h296.5m4-4H0v301.5h304.5V0v0Z"></path><path fill="#EF7D00" d="M109.6 70.1l-91 0 0 34.1 91 0"></path><g><path d="M200 17.6l-89.2.2h-23l-69.3-.2V67h157.8c11.2 0 20.2 9.1 20.2 20.2v0c0 11.2-9.1 20.2-20.2 20.2H18.6v111.9h91v-63.9l90.6-.5c37.9 0 68.6-30.7 68.6-68.6v0c0-37.8-32.8-70-68.8-68.7Z"></path><path d="M18.6 230.3h26.1c13.3 0 23.1 6.9 23.1 20.9 0 11.6-7.1 18.9-18.7 18.9H38.5v17.2H18.6v-57Zm19.9 25.6h2c3.7 0 7.6-.5 7.6-5.2 0-4.4-4.2-4.7-7.6-4.7h-2v9.9Z"></path><path d="M73.5 230.3h24.8c12.8 0 23.6 5.4 23.6 19.7 0 8.6-3.2 12.3-11.1 14.8v.5c1 .7 2.2 1.7 3.4 3.4l12.3 18.5h-23.9L93.5 269H93v18.2H73v-56.8l.5-.1v0Zm20.1 25.3h1.5c3.4 0 6.9-.5 6.9-4.7 0-4.4-3.2-4.9-6.6-4.9h-1.5v9.6h-.3v0Z"></path><path d="M132.5 230.3h20.7v56.8h-20.7v-56.8Z"></path><path d="M223.5 258.8c0 18.2-14 29.3-31.5 29.3s-31.5-10.8-31.5-29.3c0-18 14.3-29.5 31.5-29.5 17.3.3 31.5 11.8 31.5 29.5Zm-42 .5c0 6.4 4.4 10.8 10.6 10.8 6.2 0 10.6-4.4 10.6-10.8 0-5.9-4.2-11.1-10.6-11.1 -6.7.1-10.6 5-10.6 11.1Z"></path><path d="M230.7 230.3h24.8c12.8 0 23.6 5.4 23.6 19.7 0 8.6-3.2 12.3-11.1 14.8v.5c1 .7 2.2 1.7 3.4 3.4l12.3 18.5h-23.9l-9.1-18.2h-.5v18.2H230v-56.8l.7-.1v0Zm20.1 25.3h1.5c3.4 0 6.9-.5 6.9-4.7 0-4.4-3.2-4.9-6.6-4.9h-1.5v9.6h-.3v0Z"></path></g><path fill="#EF7D00" d="M112.9 158.7v60.7h172.2V17.6h-62.5c13.4 5.1 25.7 14.2 33.3 23.5C266.3 53.9 272 70 272 86.3c0 19.3-7.6 37.4-21.3 50.9 -13.7 13.5-31.9 20.9-51.3 20.9l-86.5.6Z"></path></svg>