<svg xmlns="http://www.w3.org/2000/svg" viewBox="0 0 160 80"><g fill="none" fill-rule="evenodd"><path fill="#CC071E" d="M0 0h160v80H0z"></path><g fill-rule="nonzero"><path fill="#CC071E" d="M28 14h105v53H28z"></path><path fill="#CC071E" d="M28 58.651h105V22H28z"></path><path fill="#FFFFFE" d="M124.066 27.984c1.387 0 2.043.658 2.043 2.046v1.792c0 1.352-.656 2.01-2.043 2.01h-7.075v3.582h5.981c1.386 0 2.043.658 2.043 2.047v1.79c0 1.353-.657 2.01-2.043 2.01h-5.981v3.73h8.17c1.386 0 2.042.657 2.042 2.046v1.791c0 1.353-.656 2.01-2.042 2.01h-13.824c-1.35 0-2.006-.657-2.006-2.01V30.03c0-1.388.656-2.046 2.006-2.046h12.73zm-43.368 0c1.605 0 2.297.584 2.516 1.973l2.007 12.209h.072l2.48-12.209c.293-1.389.985-1.973 2.517-1.973h3.1c1.533 0 2.226.584 2.518 1.973l2.517 12.209h.072l2.007-12.209c.218-1.389.912-1.973 2.516-1.973h2.553c1.204 0 1.934.548 1.934 1.644 0 .22-.037.512-.11.805l-4.777 20.395c-.328 1.353-.985 2.01-2.7 2.01h-2.99c-1.532 0-2.225-.584-2.517-1.973l-2.735-13.342h-.073l-2.736 13.342c-.292 1.389-.985 1.974-2.517 1.974h-2.99c-1.715 0-2.372-.658-2.7-2.011l-4.778-20.395a3.515 3.515 0 01-.11-.805c0-1.096.693-1.644 1.934-1.644h2.99zm-8.79 0c1.385 0 2.042.658 2.042 2.046v1.792c0 1.352-.657 2.01-2.043 2.01h-7.076v3.582h5.982c1.386 0 2.042.658 2.042 2.047v1.79c0 1.353-.656 2.01-2.042 2.01H64.83v3.73H73c1.386 0 2.043.657 2.043 2.046v1.791c0 1.353-.657 2.01-2.043 2.01H59.177c-1.35 0-2.006-.657-2.006-2.01V30.03c0-1.388.657-2.046 2.006-2.046h12.73zm-28.597 0c7.66 0 10.577 2.924 10.577 7.858 0 2.924-1.495 5.373-4.924 6.652l5.326 7.896c.291.475.437.877.437 1.206 0 .84-.875 1.243-1.933 1.243h-4.34c-1.24 0-1.934-.585-2.736-1.974l-4.304-7.42h-.073v7.383c0 1.353-.657 2.01-2.043 2.01h-3.465c-1.35 0-2.006-.657-2.006-2.01V30.03c0-1.388.657-2.046 2.006-2.046h7.478zm-.365 5.702H41.34v5.19h1.605c2.152 0 3.064-.914 3.064-2.595 0-1.682-.912-2.595-3.064-2.595z"></path></g></g></svg>