<?xml version="1.0" encoding="UTF-8" standalone="no"?>
<!-- Created with Inkscape (http://www.inkscape.org/) -->

<svg
   version="1.1"
   id="svg1"
   width="1133.8574"
   height="566.92871"
   viewBox="0 0 1133.8574 566.92871"
   sodipodi:docname="Kachelbanner DRUCK.pdf"
   xmlns:inkscape="http://www.inkscape.org/namespaces/inkscape"
   xmlns:sodipodi="http://sodipodi.sourceforge.net/DTD/sodipodi-0.dtd"
   xmlns:xlink="http://www.w3.org/1999/xlink"
   xmlns="http://www.w3.org/2000/svg"
   xmlns:svg="http://www.w3.org/2000/svg">
  <sodipodi:namedview
     id="namedview1"
     pagecolor="#ffffff"
     bordercolor="#666666"
     borderopacity="1.0"
     inkscape:showpageshadow="2"
     inkscape:pageopacity="0.0"
     inkscape:pagecheckerboard="0"
     inkscape:deskcolor="#d1d1d1"
     showgrid="false"
     inkscape:zoom="0.23254652"
     inkscape:cx="3111.2055"
     inkscape:cy="4119.6058"
     inkscape:window-width="1920"
     inkscape:window-height="1027"
     inkscape:window-x="1920"
     inkscape:window-y="25"
     inkscape:window-maximized="0"
     inkscape:current-layer="layer-Pr16" />
  <g
     id="layer-Pr12"
     inkscape:groupmode="layer"
     inkscape:label="Ebene 1"
     transform="translate(-15668.866,-4942.5151)">
    <path
       id="path1"
       d="M 0.2835,4932.5666 H 14173.512 V 0.2835 H 0.2835 Z"
       style="fill:none;stroke:#ffffff;stroke-width:0.5669;stroke-linecap:butt;stroke-linejoin:miter;stroke-miterlimit:22.9256;stroke-dasharray:none;stroke-opacity:1"
       transform="matrix(1.3333333,0,0,-1.3333333,1.3333333,6578.4668)" />
  </g>
  <g
     id="layer-Pr16"
     inkscape:groupmode="layer"
     inkscape:label="Ebene 1"
     transform="translate(-15668.866,-4942.5151)">
    <path
       id="path941"
       d="M 11750.649,1226.9639 H 12601.043 V 801.7671 H 11750.649 Z"
       style="fill:#cd1316;fill-opacity:1;fill-rule:evenodd;stroke:none"
       transform="matrix(1.3333333,0,0,-1.3333333,1.3333333,6578.4668)" />
    <path
       id="path979"
       d="M 11873.902,982.9443 C 11884.058,982.9443 11888.864,987.7544 11888.864,997.6428 V 1051.6215 H 11889.401 L 11920.932,997.3746 C 11926.807,987.2218 11931.885,982.9443 11940.968,982.9443 H 11972.767 C 11980.517,982.9443 11986.929,985.8844 11986.929,992.0319 C 11986.929,994.4388 11985.86,997.3746 11983.721,1000.8465 L 11944.709,1058.5698 C 11969.828,1067.9173 11980.786,1085.8235 11980.786,1107.1998 C 11980.786,1143.2741 11959.407,1164.6505 11903.294,1164.6505 H 11848.514 C 11838.63,1164.6505 11833.82,1159.8409 11833.82,1149.6861 V 997.6428 C 11833.82,987.7544 11838.63,982.9443 11848.514,982.9443 Z M 11888.864,1085.0224 V 1122.9636 H 11900.619 C 11916.386,1122.9636 11923.066,1116.2849 11923.066,1103.9961 C 11923.066,1091.7006 11916.386,1085.0224 11900.619,1085.0224 Z M 12120.803,982.9443 C 12130.959,982.9443 12135.765,987.7544 12135.765,997.6428 V 1010.7343 C 12135.765,1020.8871 12130.959,1025.6973 12120.803,1025.6973 H 12060.949 V 1052.9549 H 12104.766 C 12114.923,1052.9549 12119.733,1057.7645 12119.733,1067.6574 V 1080.7475 C 12119.733,1090.9018 12114.923,1095.7079 12104.766,1095.7079 H 12060.949 V 1121.8978 H 12112.785 C 12122.941,1121.8978 12127.747,1126.7039 12127.747,1136.592 V 1149.6861 C 12127.747,1159.8409 12122.941,1164.6505 12112.785,1164.6505 H 12019.53 C 12009.641,1164.6505 12004.831,1159.8409 12004.831,1149.6861 V 997.6428 C 12004.831,987.7544 12009.641,982.9443 12019.53,982.9443 Z M 12288.61,1150.219 C 12286.471,1160.3738 12281.397,1164.6505 12270.171,1164.6505 H 12247.458 C 12236.237,1164.6505 12231.159,1160.3738 12229.02,1150.219 L 12210.85,1060.969 H 12210.317 L 12195.619,1150.219 C 12194.017,1160.3738 12188.943,1164.6505 12177.18,1164.6505 H 12155.273 C 12146.186,1164.6505 12141.108,1160.6397 12141.108,1152.6236 C 12141.108,1151.0223 12141.376,1148.8833 12141.913,1146.7488 L 12176.92,997.6428 C 12179.319,987.7544 12184.133,982.9443 12196.689,982.9443 H 12218.599 C 12229.821,982.9443 12234.899,987.2218 12237.038,997.3746 L 12257.078,1094.9085 H 12257.615 L 12277.656,997.3746 C 12279.791,987.2218 12284.869,982.9443 12296.091,982.9443 H 12318.002 C 12330.561,982.9443 12335.368,987.7544 12337.775,997.6428 L 12372.781,1146.7488 C 12373.314,1148.8833 12373.579,1151.0223 12373.579,1152.6236 C 12373.579,1160.6397 12368.236,1164.6505 12359.421,1164.6505 H 12340.714 C 12328.96,1164.6505 12323.882,1160.3738 12322.275,1150.219 L 12307.581,1060.969 H 12307.045 Z M 12502.906,982.9443 C 12513.063,982.9443 12517.873,987.7544 12517.873,997.6428 V 1010.7343 C 12517.873,1020.8871 12513.063,1025.6973 12502.906,1025.6973 H 12443.056 V 1052.9549 H 12486.879 C 12497.035,1052.9549 12501.841,1057.7645 12501.841,1067.6574 V 1080.7475 C 12501.841,1090.9018 12497.035,1095.7079 12486.879,1095.7079 H 12443.056 V 1121.8978 H 12494.896 C 12505.045,1121.8978 12509.855,1126.7039 12509.855,1136.592 V 1149.6861 C 12509.855,1159.8409 12505.045,1164.6505 12494.896,1164.6505 H 12401.637 C 12391.749,1164.6505 12386.943,1159.8409 12386.943,1149.6861 V 997.6428 C 12386.943,987.7544 12391.749,982.9443 12401.637,982.9443 Z"
       style="fill:#ffffff;fill-opacity:1;fill-rule:nonzero;stroke:none"
       transform="matrix(1.3333333,0,0,-1.3333333,1.3333333,6578.4668)" />
    <path
       id="path980"
       d="M 11859.205,867.49 V 867.49 H 11855.256 H 11851.251 V 867.49 V 925.7956 V 925.7956 H 11857.682 H 11864.17 V 925.7956 L 11882.449,876.996 H 11882.463 V 876.996 L 11900.191,925.7956 V 925.7956 H 11906.637 H 11913.11 V 925.7956 V 867.49 V 867.49 H 11909.161 H 11905.156 V 867.49 V 919.7592 H 11905.17 L 11886.44,867.49 H 11882.434 H 11878.415 L 11859.22,919.6744 H 11859.205 Z"
       style="fill:#ffffff;fill-opacity:1;fill-rule:nonzero;stroke:none"
       transform="matrix(1.3333333,0,0,-1.3333333,1.3333333,6578.4668)" />
    <path
       id="path981"
       d="M 11926.932,867.49 V 908.1094 V 908.1094 H 11930.642 H 11934.379 V 908.1094 V 867.49 V 867.49 H 11930.684 Z M 11926.594,925.7111 H 11934.718 V 918.1794 H 11926.594 Z"
       style="fill:#ffffff;fill-opacity:1;fill-rule:nonzero;stroke:none"
       transform="matrix(1.3333333,0,0,-1.3333333,1.3333333,6578.4668)" />
    <path
       id="path982"
       d="M 11981.655,881.2837 V 881.2837 C 11981.275,876.3191 11979.667,872.5816 11976.86,870.071 C 11974.054,867.5606 11970.062,866.3054 11964.886,866.3054 C 11958.257,866.3054 11953.335,868.0825 11950.119,871.6365 C 11946.917,875.2048 11945.296,880.6632 11945.267,888.0253 C 11945.267,894.6683 11947.016,899.8866 11950.5,903.6524 C 11953.984,907.4183 11958.779,909.294 11964.9,909.294 C 11969.893,909.294 11973.842,908.0388 11976.747,905.5423 C 11979.653,903.0461 11981.176,899.5907 11981.317,895.1618 V 895.1618 H 11973.701 V 895.1618 C 11973.616,897.8559 11972.728,899.9714 11971.021,901.4947 C 11969.329,903.0319 11967.03,903.7936 11964.124,903.7936 C 11960.373,903.7936 11957.608,902.5243 11955.859,899.9714 C 11954.096,897.4327 11953.222,893.4412 11953.222,887.9831 C 11953.222,882.3132 11954.082,878.1948 11955.789,875.6422 C 11957.495,873.0893 11960.26,871.8058 11964.082,871.8058 C 11967.312,871.8058 11969.724,872.5674 11971.331,874.0908 C 11972.953,875.6138 11973.87,878.0117 11974.124,881.2837 V 881.2837 Z"
       style="fill:#ffffff;fill-opacity:1;fill-rule:nonzero;stroke:none"
       transform="matrix(1.3333333,0,0,-1.3333333,1.3333333,6578.4668)" />
    <path
       id="path983"
       d="M 11992.205,867.49 V 925.7956 V 925.7956 H 11995.915 H 11999.652 V 925.7956 V 903.1448 V 903.1448 V 903.1448 L 12000.569,904.1321 C 12003.615,907.5733 12007.748,909.294 12012.966,909.294 C 12018.283,909.294 12022.19,907.8837 12024.687,905.0488 C 12027.183,902.228 12028.424,897.8134 12028.424,891.805 V 867.49 V 867.49 H 12024.729 H 12020.977 V 867.49 V 891.5936 C 12020.977,895.7543 12020.187,898.7726 12018.622,900.6483 C 12017.042,902.5243 12014.532,903.4551 12011.076,903.4551 C 12007.071,903.4551 12004.165,902.4253 12002.36,900.3804 C 12000.555,898.3213 11999.652,895.0209 11999.652,890.4793 V 890.4793 V 867.49 V 867.49 H 11995.957 Z"
       style="fill:#ffffff;fill-opacity:1;fill-rule:nonzero;stroke:none"
       transform="matrix(1.3333333,0,0,-1.3333333,1.3333333,6578.4668)" />
    <path
       id="path984"
       d="M 12054.22,866.3054 C 12049.566,866.3054 12045.913,867.4336 12043.276,869.6761 C 12040.638,871.9328 12039.326,875.0356 12039.326,879.0129 C 12039.326,883.3147 12041.132,886.6854 12044.756,889.1254 C 12048.367,891.5655 12053.346,892.7923 12059.707,892.7923 H 12066.49 V 892.7923 V 896.262 C 12066.49,898.8854 12065.743,900.7894 12064.248,901.9882 C 12062.739,903.187 12060.341,903.7936 12057.013,903.7936 C 12054.742,903.7936 12052.923,903.2434 12051.541,902.1294 C 12050.172,901.0293 12049.397,899.4917 12049.228,897.5313 V 897.5313 H 12041.357 V 897.5313 C 12041.668,901.6075 12043.121,904.5833 12045.744,906.4732 C 12048.367,908.3492 12052.33,909.294 12057.633,909.294 C 12062.513,909.294 12066.448,908.0952 12069.452,905.6976 C 12072.442,903.2998 12073.937,900.1406 12073.937,896.2339 V 882.0876 C 12073.937,878.2231 12074.036,875.0075 12074.219,872.4124 C 12074.417,869.8173 12074.685,868.1811 12075.038,867.49 V 867.49 V 867.49 H 12067.957 V 867.49 C 12067.661,867.8426 12067.421,868.7452 12067.252,870.198 C 12067.125,871.1711 12067.027,872.3134 12066.97,873.6676 V 873.6676 C 12066.477,872.7789 12065.913,871.9328 12065.278,871.143 C 12062.598,867.9132 12058.917,866.3054 12054.22,866.3054 Z M 12066.477,884.1892 L 12066.49,887.292 V 887.292 H 12059.608 C 12055.349,887.292 12052.161,886.6009 12050.046,885.2046 C 12047.93,883.8082 12046.872,881.7069 12046.872,878.9142 C 12046.872,876.6575 12047.62,874.9086 12049.101,873.6676 C 12050.595,872.4263 12052.711,871.8058 12055.447,871.8058 C 12059.128,871.8058 12061.878,872.8495 12063.698,874.9511 C 12065.532,877.0382 12066.462,880.1271 12066.477,884.1892"
       style="fill:#ffffff;fill-opacity:1;fill-rule:nonzero;stroke:none"
       transform="matrix(1.3333333,0,0,-1.3333333,1.3333333,6578.4668)" />
    <path
       id="path985"
       d="M 12103.147,866.3054 C 12097.153,866.3054 12092.47,868.153 12089.071,871.848 C 12085.672,875.5432 12083.98,880.649 12083.98,887.165 C 12083.98,894.0478 12085.686,899.4637 12089.085,903.3987 C 12092.498,907.3335 12097.181,909.294 12103.133,909.294 C 12108.901,909.294 12113.288,907.5875 12116.32,904.1885 C 12119.352,900.7894 12120.875,895.839 12120.875,889.3369 L 12120.791,886.6148 V 886.6148 H 12091.765 V 886.6148 C 12091.962,881.9606 12092.851,878.4207 12094.431,876.0087 C 12096.222,873.2585 12099.071,871.8905 12102.949,871.8905 C 12105.685,871.8905 12107.942,872.6522 12109.705,874.1611 C 12111.454,875.6702 12112.498,877.7718 12112.836,880.4375 V 880.4375 H 12120.537 V 880.4375 C 12119.959,875.8536 12118.182,872.3418 12115.22,869.9301 C 12112.244,867.5184 12108.224,866.3054 12103.147,866.3054 Z M 12113.175,892.2002 V 892.2002 C 12112.921,895.9235 12112.159,898.6598 12110.862,900.3946 C 12109.226,902.6087 12106.433,903.7089 12102.498,903.7089 C 12099.071,903.7089 12096.405,902.4253 12094.501,899.8586 C 12093.063,897.9262 12092.174,895.3736 12091.85,892.2002 V 892.2002 Z"
       style="fill:#ffffff;fill-opacity:1;fill-rule:nonzero;stroke:none"
       transform="matrix(1.3333333,0,0,-1.3333333,1.3333333,6578.4668)" />
    <path
       id="path986"
       d="M 12131.171,867.49 V 925.7956 V 925.7956 H 12134.881 H 12138.618 V 925.7956 V 867.49 V 867.49 H 12134.923 Z"
       style="fill:#ffffff;fill-opacity:1;fill-rule:nonzero;stroke:none"
       transform="matrix(1.3333333,0,0,-1.3333333,1.3333333,6578.4668)" />
    <path
       id="path987"
       d="M 12177.517,874.965 L 12210.027,917.9116 L 12211.014,919.1951 V 919.1951 H 12178.448 V 919.1951 V 922.4952 V 925.7956 V 925.7956 H 12219.913 V 921.8747 V 917.9116 L 12187.108,874.965 L 12186.445,874.0908 V 874.0908 H 12220.675 V 874.0908 V 870.7904 V 867.49 V 867.49 H 12177.517 V 871.1994 Z"
       style="fill:#ffffff;fill-opacity:1;fill-rule:nonzero;stroke:none"
       transform="matrix(1.3333333,0,0,-1.3333333,1.3333333,6578.4668)" />
    <path
       id="path988"
       d="M 12244.567,866.3054 C 12239.913,866.3054 12236.26,867.4336 12233.622,869.6761 C 12230.985,871.9328 12229.673,875.0356 12229.673,879.0129 C 12229.673,883.3147 12231.478,886.6854 12235.103,889.1254 C 12238.714,891.5655 12243.692,892.7923 12250.053,892.7923 H 12256.837 V 892.7923 V 896.262 C 12256.837,898.8854 12256.09,900.7894 12254.595,901.9882 C 12253.086,903.187 12250.688,903.7936 12247.36,903.7936 C 12245.089,903.7936 12243.27,903.2434 12241.887,902.1294 C 12240.519,901.0293 12239.744,899.4917 12239.574,897.5313 V 897.5313 H 12231.704 V 897.5313 C 12232.015,901.6075 12233.467,904.5833 12236.091,906.4732 C 12238.714,908.3492 12242.677,909.294 12247.98,909.294 C 12252.86,909.294 12256.795,908.0952 12259.799,905.6976 C 12262.789,903.2998 12264.284,900.1406 12264.284,896.2339 V 882.0876 C 12264.284,878.2231 12264.383,875.0075 12264.566,872.4124 C 12264.764,869.8173 12265.032,868.1811 12265.384,867.49 V 867.49 V 867.49 H 12258.304 V 867.49 C 12258.008,867.8426 12257.768,868.7452 12257.599,870.198 C 12257.472,871.1711 12257.373,872.3134 12257.317,873.6676 V 873.6676 C 12256.823,872.7789 12256.259,871.9328 12255.625,871.143 C 12252.945,867.9132 12249.264,866.3054 12244.567,866.3054 Z M 12256.823,884.1892 L 12256.837,887.292 V 887.292 H 12249.955 C 12245.695,887.292 12242.508,886.6009 12240.392,885.2046 C 12238.277,883.8082 12237.219,881.7069 12237.219,878.9142 C 12237.219,876.6575 12237.966,874.9086 12239.447,873.6676 C 12240.942,872.4263 12243.058,871.8058 12245.794,871.8058 C 12249.475,871.8058 12252.225,872.8495 12254.045,874.9511 C 12255.878,877.0382 12256.809,880.1271 12256.823,884.1892"
       style="fill:#ffffff;fill-opacity:1;fill-rule:nonzero;stroke:none"
       transform="matrix(1.3333333,0,0,-1.3333333,1.3333333,6578.4668)" />
    <path
       id="path989"
       d="M 12288.05,867.49 L 12274.411,908.1094 V 908.1094 H 12278.332 H 12282.295 V 908.1094 L 12292.393,874.26 H 12292.422 V 874.26 L 12302.266,908.1094 H 12307.019 H 12311.772 L 12322.308,874.26 H 12322.294 V 874.26 L 12332.152,908.1094 V 908.1094 H 12335.777 H 12339.444 V 908.1094 L 12326.187,867.49 H 12321.969 H 12317.752 L 12306.836,903.1164 H 12306.878 V 903.1164 L 12296.484,867.49 H 12292.267 Z"
       style="fill:#ffffff;fill-opacity:1;fill-rule:nonzero;stroke:none"
       transform="matrix(1.3333333,0,0,-1.3333333,1.3333333,6578.4668)" />
    <path
       id="path990"
       d="M 12349.782,867.49 V 908.1094 V 908.1094 H 12353.492 H 12357.229 V 908.1094 V 867.49 V 867.49 H 12353.534 Z M 12349.444,925.7111 H 12357.568 V 918.1794 H 12349.444 Z"
       style="fill:#ffffff;fill-opacity:1;fill-rule:nonzero;stroke:none"
       transform="matrix(1.3333333,0,0,-1.3333333,1.3333333,6578.4668)" />
    <path
       id="path991"
       d="M 12393.109,897.1929 V 897.1929 C 12393.109,899.238 12392.39,900.8459 12390.952,902.0305 C 12389.499,903.2012 12387.496,903.7936 12384.929,903.7936 C 12382.292,903.7936 12380.233,903.2998 12378.78,902.3267 C 12377.313,901.3535 12376.58,899.9855 12376.58,898.2224 C 12376.58,896.9389 12376.989,895.8813 12377.779,895.049 C 12378.554,894.2029 12379.767,893.5682 12381.417,893.1169 L 12389.668,890.8883 C 12393.871,889.7179 12396.889,888.251 12398.737,886.4597 C 12400.556,884.6827 12401.459,882.3416 12401.459,879.4219 C 12401.459,875.3318 12399.964,872.1303 12396.988,869.8031 C 12393.998,867.4758 12389.88,866.3054 12384.619,866.3054 C 12379.119,866.3054 12374.93,867.4478 12372.052,869.7183 C 12369.175,872.0033 12367.751,875.3176 12367.751,879.6759 V 879.6759 H 12375.452 V 879.6759 C 12375.452,877.2077 12376.255,875.2754 12377.891,873.8932 C 12379.513,872.4969 12381.756,871.8058 12384.619,871.8058 C 12387.623,871.8058 12389.964,872.3982 12391.614,873.597 C 12393.265,874.7957 12394.097,876.4883 12394.097,878.6886 C 12394.097,879.9721 12393.575,881.058 12392.545,881.9464 C 12391.53,882.8351 12389.95,883.5826 12387.835,884.1609 L 12379.57,886.4175 C 12375.832,887.4329 12373.139,888.8012 12371.488,890.5076 C 12369.866,892.2141 12369.048,894.5413 12369.048,897.4607 C 12369.048,901.156 12370.459,904.0473 12373.265,906.1489 C 12376.072,908.2502 12379.951,909.294 12384.915,909.294 C 12389.866,909.294 12393.758,908.2222 12396.579,906.0783 C 12399.4,903.9203 12400.81,900.9587 12400.81,897.1929 V 897.1929 Z"
       style="fill:#ffffff;fill-opacity:1;fill-rule:nonzero;stroke:none"
       transform="matrix(1.3333333,0,0,-1.3333333,1.3333333,6578.4668)" />
    <path
       id="path992"
       d="M 12409.921,873.9074 L 12432.558,901.692 L 12433.263,902.5243 V 902.5243 H 12411.022 V 902.5243 V 905.3025 V 908.1094 V 908.1094 H 12441.655 V 904.9218 V 901.692 L 12419.018,873.9074 L 12418.313,873.0751 V 873.0751 H 12442.247 V 873.0751 V 870.3108 V 867.49 V 867.49 H 12409.921 V 870.6776 Z"
       style="fill:#ffffff;fill-opacity:1;fill-rule:nonzero;stroke:none"
       transform="matrix(1.3333333,0,0,-1.3333333,1.3333333,6578.4668)" />
    <path
       id="path993"
       d="M 12466.154,866.3054 C 12461.5,866.3054 12457.846,867.4336 12455.209,869.6761 C 12452.572,871.9328 12451.26,875.0356 12451.26,879.0129 C 12451.26,883.3147 12453.065,886.6854 12456.69,889.1254 C 12460.301,891.5655 12465.279,892.7923 12471.64,892.7923 H 12478.424 V 892.7923 V 896.262 C 12478.424,898.8854 12477.676,900.7894 12476.182,901.9882 C 12474.673,903.187 12472.275,903.7936 12468.946,903.7936 C 12466.676,903.7936 12464.856,903.2434 12463.474,902.1294 C 12462.106,901.0293 12461.33,899.4917 12461.161,897.5313 V 897.5313 H 12453.291 V 897.5313 C 12453.601,901.6075 12455.054,904.5833 12457.677,906.4732 C 12460.301,908.3492 12464.264,909.294 12469.567,909.294 C 12474.447,909.294 12478.382,908.0952 12481.386,905.6976 C 12484.376,903.2998 12485.871,900.1406 12485.871,896.2339 V 882.0876 C 12485.871,878.2231 12485.97,875.0075 12486.153,872.4124 C 12486.351,869.8173 12486.618,868.1811 12486.971,867.49 V 867.49 V 867.49 H 12479.891 V 867.49 C 12479.595,867.8426 12479.355,868.7452 12479.186,870.198 C 12479.059,871.1711 12478.96,872.3134 12478.904,873.6676 V 873.6676 C 12478.41,872.7789 12477.846,871.9328 12477.211,871.143 C 12474.532,867.9132 12470.85,866.3054 12466.154,866.3054 Z M 12478.41,884.1892 L 12478.424,887.292 V 887.292 H 12471.542 C 12467.282,887.292 12464.095,886.6009 12461.979,885.2046 C 12459.863,883.8082 12458.806,881.7069 12458.806,878.9142 C 12458.806,876.6575 12459.553,874.9086 12461.034,873.6676 C 12462.529,872.4263 12464.645,871.8058 12467.381,871.8058 C 12471.062,871.8058 12473.812,872.8495 12475.632,874.9511 C 12477.465,877.0382 12478.396,880.1271 12478.41,884.1892"
       style="fill:#ffffff;fill-opacity:1;fill-rule:nonzero;stroke:none"
       transform="matrix(1.3333333,0,0,-1.3333333,1.3333333,6578.4668)" />
  </g>
</svg>
