<?xml version="1.0" encoding="UTF-8" standalone="no"?>
<!-- Generator: Adobe Illustrator 26.0.2, SVG Export Plug-In . SVG Version: 6.00 Build 0)  -->

<svg
   version="1.1"
   id="Ebene_1"
   x="0px"
   y="0px"
   viewBox="0 0 450.87349 382.87906"
   xml:space="preserve"
   sodipodi:docname="sks-germany-logo-neg.svg"
   inkscape:version="1.3 (0e150ed, 2023-07-21)"
   width="450.87347"
   height="382.87906"
   xmlns:inkscape="http://www.inkscape.org/namespaces/inkscape"
   xmlns:sodipodi="http://sodipodi.sourceforge.net/DTD/sodipodi-0.dtd"
   xmlns:xlink="http://www.w3.org/1999/xlink"
   xmlns="http://www.w3.org/2000/svg"
   xmlns:svg="http://www.w3.org/2000/svg"><defs
   id="defs4" /><sodipodi:namedview
   id="namedview4"
   pagecolor="#ffffff"
   bordercolor="#666666"
   borderopacity="1.0"
   inkscape:showpageshadow="2"
   inkscape:pageopacity="0.0"
   inkscape:pagecheckerboard="0"
   inkscape:deskcolor="#d1d1d1"
   inkscape:zoom="1.3759629"
   inkscape:cx="236.56161"
   inkscape:cy="145.35276"
   inkscape:window-width="1920"
   inkscape:window-height="1027"
   inkscape:window-x="1920"
   inkscape:window-y="25"
   inkscape:window-maximized="1"
   inkscape:current-layer="Ebene_1" />&#10;<style
   type="text/css"
   id="style1">&#10;	.st0{display:none;}&#10;	.st1{clip-path:url(#SVGID_00000183931704773964011210000017162088886848991423_);fill:#EE7203;}&#10;	.st2{clip-path:url(#SVGID_00000041981060016458900550000017924720892497877684_);fill:#FFFFFF;}&#10;	.st3{clip-path:url(#SVGID_00000059309053177160225360000006561790053921037247_);fill:#FFFFFF;}&#10;	.st4{fill:none;stroke:#FFED00;stroke-width:1.26;}&#10;</style>&#10;<rect
   style="fill:#000000;stroke-width:1.13272"
   id="rect4"
   width="450.87347"
   height="382.87906"
   x="0"
   y="0" /><rect
   x="-58.263264"
   y="-92.443558"
   class="st0"
   width="566.90002"
   height="566.90002"
   id="rect1" />&#10;<g
   id="g4"
   transform="translate(25.436733,23.256441)">&#10;	<g
   id="g1">&#10;		<defs
   id="defs1">&#10;			<rect
   id="SVGID_1_"
   x="-83.699997"
   y="-115.7"
   width="566.90002"
   height="566.90002" />&#10;		</defs>&#10;		<clipPath
   id="SVGID_00000025420943208926970520000015866317075239371945_">&#10;			<use
   xlink:href="#SVGID_1_"
   style="overflow:visible"
   id="use1" />&#10;		</clipPath>&#10;		<path
   style="fill:#ee7203"
   d="M 200.2,328.9 C 228.3,318.1 252.1,289.1 262,249.7 H 316.2 C 299.9,307.4 262,335.6 222.9,335.6 H 200.2 H 177.4 C 138.2,335.6 100.3,307.4 84,249.7 H 138.3 C 148.2,289.1 172.1,318 200.2,328.9 M 200.2,6.6 C 228.3,17.4 252.1,46.4 262,85.8 H 316.2 C 299.9,28.2 262,0 222.9,0 H 200.2 H 177.4 C 138.2,0 100.3,28.2 84,85.9 H 138.3 C 148.2,46.4 172.1,17.5 200.2,6.6"
   clip-path="url(#SVGID_00000025420943208926970520000015866317075239371945_)"
   id="path1" />&#10;	</g>&#10;	<g
   id="g2">&#10;		<defs
   id="defs2">&#10;			<rect
   id="SVGID_00000128484937929481602150000011403476688667017858_"
   x="-83.699997"
   y="-115.7"
   width="566.90002"
   height="566.90002" />&#10;		</defs>&#10;		<clipPath
   id="SVGID_00000016053462348997933840000000297512053349032121_">&#10;			<use
   xlink:href="#SVGID_00000128484937929481602150000011403476688667017858_"
   style="overflow:visible"
   id="use2" />&#10;		</clipPath>&#10;		<path
   style="fill:#ffffff"
   d="M 344.8,249.7 H 333 L 326.1,263.2 L 319.2,249.7 H 307.4 L 320.7,272 V 287.3 H 331.5 V 272 Z M 302.9,287.4 V 249.7 H 292.1 V 268.6 L 278,249.7 H 268.5 V 287.4 H 279.3 V 268.4 L 293.4,287.4 Z M 247.9,274 H 240.2 L 244.2,264 Z M 264.1,287.4 L 248.1,249.7 H 239.7 L 223.7,287.4 H 235 L 237.2,281.8 H 250.7 L 252.7,287.4 Z M 219.2,287.4 V 249.7 H 208.6 L 198.7,266.3 L 188.8,249.7 H 178.2 V 287.4 H 189 V 269.4 L 195.3,278.7 H 202.2 L 208.5,269.4 V 287.4 Z M 159.4,261.8 C 159.4,263.8 157.7,265.6 154.7,265.6 H 148.6 V 258 H 154.7 C 157.7,258 159.4,259.8 159.4,261.8 M 172.6,287.4 L 163.1,271.7 C 166.6,270.2 170.3,267 170.3,261.9 C 170.3,255.7 165,249.8 155.3,249.8 H 137.9 V 287.5 H 148.7 V 273.5 H 152.3 L 160.1,287.5 H 172.6 Z M 130.1,287.4 V 279.1 H 111 V 272.5 H 127.3 V 264.2 H 111 V 257.9 H 130.1 V 249.6 H 100.1 V 287.3 Z M 93.1,270.7 V 265.6 H 76.2 V 273.3 H 82.3 V 273.7 C 82.3,275 81.9,276.8 80.7,277.8 C 79.7,278.7 78.5,279.3 76.2,279.3 C 74.2,279.3 72.7,278.6 71.9,277.7 C 70.9,276.6 70.3,275.3 70.3,268.4 C 70.3,261.5 70.9,260.2 71.9,259.1 C 72.7,258.2 74.2,257.5 76.2,257.5 C 79,257.5 80.3,258.4 82.5,260.2 L 89.9,253.9 C 85.9,250.5 82.6,249.2 76.3,249.2 C 71,249.2 67.3,250.7 64,253.4 C 59.4,257.4 59.5,262.7 59.5,268.3 C 59.5,274 59.3,279.3 64,283.2 C 67.2,286 71.1,287.4 76.3,287.4 C 81.6,287.4 85.5,285.9 88.8,283.1 C 92.1,280.4 93.1,276.8 93.1,270.7"
   clip-path="url(#SVGID_00000016053462348997933840000000297512053349032121_)"
   id="path2" />&#10;	</g>&#10;	<g
   id="g3">&#10;		<defs
   id="defs3">&#10;			<rect
   id="SVGID_00000052071250523456250480000005752538473150428546_"
   x="-83.699997"
   y="-115.7"
   width="566.90002"
   height="566.90002" />&#10;		</defs>&#10;		<clipPath
   id="SVGID_00000003101840345992240790000005904284641210857658_">&#10;			<use
   xlink:href="#SVGID_00000052071250523456250480000005752538473150428546_"
   style="overflow:visible"
   id="use3" />&#10;		</clipPath>&#10;		<path
   style="fill:#ffffff"
   d="M 8.2,197.7 L 1.7,236 H 126.8 L 132.8,196.6 L 77,136.4 H 143 L 135.3,183.7 L 183.5,236 H 243.4 L 194,182.6 L 264.7,98.2 H 214.6 L 177.7,142.1 L 185.3,98.2 H 41.6 C 30.3,98.8 21.4,109 21.4,121.3 C 21.4,127.3 23.2,132.4 26.7,136.5 L 83.2,197.7 Z M 258.9,236 H 360.6 C 371.8,235.4 380.7,225.5 380.7,213.2 C 380.7,207.3 378.6,201.9 375.2,197.8 L 318.2,136.5 H 391.6 L 397.8,98.2 H 282.1 C 271.2,99.2 262.6,109.3 262.6,121.3 C 262.6,127.2 264.6,132.5 268,136.6 L 325,197.8 H 225 Z"
   clip-path="url(#SVGID_00000003101840345992240790000005904284641210857658_)"
   id="path3" />&#10;	</g>&#10;</g>&#10;<path
   class="st4"
   d="M 28.936733,219.75644"
   id="path4" />&#10;</svg>
