<svg height="423.23315" viewBox="0 0 423.23292 423.23315" width="423.23291" xmlns="http://www.w3.org/2000/svg"><g transform="matrix(1.3333333 0 0 -1.3333333 -2452.315767 3492.5266)"><path d="m1839.2369 2301.9701h317.4247v317.425h-317.4247z" fill="#009ee3"/><g fill="#fff"><path d="m1979.9977 2518.5229v-53.0017h-44.1433v53.0017h-33.1288v37.0984h110.3422v-37.0984z"/><path d="m2035.9701 2518.5699h57.0798l-53.1113-53.0487 55.855-53.0575h-57.0206l-53.0297 53.0575z"/><path d="m1931.794 2427.3581 5.1562.7189v-22.2718h-5.1562zm2.5781 9.1704c1.0985 0 1.8947-.2478 2.3879-.7393.4927-.4938.7393-1.1914.7393-2.0917 0-.9025-.2466-1.599-.7393-2.0931-.4932-.4927-1.2894-.739-2.3879-.739-1.0984 0-1.8949.2463-2.3876.739-.4932.4941-.7393 1.1906-.7393 2.0931 0 .9003.2461 1.5979.7393 2.0917.4927.4915 1.2892.7393 2.3876.7393"/><path d="m1948.9723 2422.9429c.7466 1 1.9794 1.4995 3.6977 1.4995 1.4378 0 2.4937-.3317 3.17-.9935.6395-.6259 1.0358-1.5262 1.1971-2.6941l-9.1845-4.0884v1.3538c0 2.2811.373 3.9215 1.1197 4.9227zm10.544 3.0625c-1.5778 1.4927-3.8186 2.2397-6.7187 2.2397-1.7476 0-3.2479-.252-4.5008-.7591-1.2541-.5074-2.2899-1.2263-3.1065-2.1558-.8173-.9295-1.4157-2.0426-1.7963-3.3392-.3799-1.2957-.5701-2.7323-.5701-4.3101v-1.775c0-1.747.1755-3.2755.5281-4.5856.3521-1.3102.9437-2.4154 1.7751-3.3169.8305-.9014 1.9156-1.5777 3.2536-2.0279 1.3382-.4512 2.9936-.6763 4.9654-.6763.6205 0 1.2543.0212 1.9026.0638.6475.0413 1.2813.1051 1.9015.1902.6194.0842 1.1894.1825 1.711.2948.5219.1131.9788.2395 1.3742.3807l.675 3.6762c-1.1824-.2262-2.2261-.3795-3.1264-.4649-.9025-.085-1.8175-.1264-2.7467-.1264-2.0852 0-3.6496.2384-4.6914.7189-1.0426.4782-1.747 1.3371-2.1129 2.5767l13.2698 5.8756c.2531.1109.3796.3093.3796.5902v.5924c0 2.7323-.7881 4.8442-2.3661 6.338"/><path d="m2094.855 2383.0866c-.3416.0853-.7546.1701-1.2384.2554-.4839.0862-.982.1276-1.4928.1276-1.879 0-3.2374-.4904-4.077-1.4726-.8388-.9808-1.2589-2.4826-1.2589-4.5026v-12.0345h-5.2058v21.8506l4.4804.6406.3841-2.9877c.7109.9664 1.5934 1.7 2.6459 2.1983 1.0525.4972 2.3193.7469 3.7984.7469.5689 0 1.074-.036 1.5151-.1066.4414-.0714.9037-.1924 1.3876-.3625z"/><path d="m1926.3657 2395.8468-.5976-4.3951h-8.8339v-25.992h-5.3348v25.992h-9.432l.5548 4.3951z"/><path d="m1964.3482 2365.8437c-.9394-.2854-1.8567-.4903-2.7536-.619-.8957-.1276-1.8419-.1917-2.8374-.1917-1.9352 0-3.5431.2498-4.8229.747-1.2801.4972-2.3046 1.2084-3.0728 2.1333-.7681.9238-1.3164 2.0279-1.6426 3.3078-.3274 1.2812-.491 2.7034-.491 4.2687v2.1758c0 1.5645.2061 2.9878.6185 4.2676.4125 1.2798 1.0457 2.3763 1.899 3.2868.8535.9102 1.9428 1.6066 3.2655 2.0905 1.3223.4839 2.908.7257 4.7579.7257 1.1098 0 2.1558-.0851 3.1377-.2565.9811-.1701 1.8836-.3839 2.7099-.6404l-.8544-3.7548c-.5689.1701-1.1948.3124-1.8768.4266-.6831.1132-1.4377.1713-2.2632.1713-2.2473 0-3.8262-.4836-4.7366-1.4511-.9103-.9675-1.3663-2.6192-1.3663-4.9518v-1.7918c0-2.4477.4918-4.1757 1.4726-5.1857.9822-1.01 2.6248-1.5151 4.9294-1.5151.7974 0 1.5868.0504 2.3686.1499.7827.0998 1.516.2206 2.1992.3629z"/><path d="m1970.365 2365.4597v31.3256l5.2073.7257v-11.8219c.7109.796 1.6067 1.4009 2.6884 1.8142 1.0808.4118 2.2756.6179 3.5847.6179 1.1948 0 2.2833-.1567 3.2652-.4691.9811-.3135 1.8275-.7895 2.5398-1.429.7098-.6406 1.2654-1.4445 1.664-2.412.3974-.9674.5967-2.1052.5967-3.4143v-14.9371h-5.2059v13.5286c0 1.7937-.3279 3.0659-.9819 3.8194-.6551.7537-1.7493 1.1313-3.2868 1.1313-1.6784 0-2.908-.4402-3.6907-1.3227-.7829-.8824-1.1735-2.2912-1.1735-4.225v-12.9316z"/><path d="m1996.611 2365.4597v21.8508l4.4816.6406.3852-2.7311c.7098.9394 1.6271 1.6571 2.7513 2.1543 1.1243.4986 2.4109.7469 3.8622.7469 1.1948 0 2.2845-.1567 3.2664-.4691.9811-.3135 1.8278-.7895 2.5387-1.429.7112-.6406 1.2654-1.4445 1.6642-2.412.3986-.9674.5979-2.1052.5979-3.4143v-14.9371h-5.207v13.5286c0 1.7937-.3271 3.0659-.9811 3.8194-.6551.7537-1.7504 1.1313-3.2865 1.1313-1.6789 0-2.9094-.4402-3.6921-1.3227-.7818-.8824-1.1735-2.2912-1.1735-4.225v-12.9316z"/><path d="m2022.8581 2387.2255 5.2062.7256v-22.4914h-5.2062zm2.6037 9.2619c1.1097 0 1.9125-.2497 2.4108-.7481.4972-.4983.747-1.2027.747-2.1118 0-.9105-.2498-1.6149-.747-2.1121-.4983-.4994-1.3011-.748-2.4108-.748-1.1109 0-1.9137.2486-2.4109.748-.4983.4972-.7481 1.2016-.7481 2.1121 0 .9091.2498 1.6135.7481 2.1118.4972.4984 1.3.7481 2.4109.7481"/><path d="m2040.0574 2375.6389v-10.1792h-4.9944v31.3256l4.9944.7257v-18.0312l8.5339 8.1298h5.8901l-10.3702-9.879 10.7543-12.2709h-6.1027z"/><path d="m1931.2089 2382.7652c.7538 1.0102 1.999 1.5151 3.7344 1.5151 1.4513 0 2.518-.3348 3.2012-1.0032.6457-.633 1.0465-1.5409 1.2087-2.7213l-9.2753-4.1286v1.3663c0 2.3045.3773 3.9617 1.131 4.9717zm10.6484 3.094c-1.5936 1.5074-3.8554 2.262-6.7859 2.262-1.7643 0-3.2794-.2565-4.545-.767-1.2663-.5128-2.3123-1.2385-3.1371-2.1768-.8255-.9396-1.4296-2.0639-1.8134-3.3718-.3841-1.309-.5762-2.7603-.5762-4.3537v-1.7929c0-1.7649.1771-3.3066.5334-4.6304.3555-1.3224.9528-2.4401 1.7924-3.3494.8393-.9116 1.9346-1.5934 3.2865-2.0492 1.3507-.4547 3.0228-.6831 5.0145-.6831.6256 0 1.2656.0224 1.9204.0649.6545.0425 1.2946.1066 1.9208.1916.6253.0862 1.2013.1848 1.7283.2991.5261.1139.9884.2406 1.3872.3838l.6829 3.7134c-1.1954-.2285-2.2479-.3841-3.1586-.4692-.9111-.0862-1.8349-.129-2.7743-.129-2.1053 0-3.6848.241-4.7367.726-1.0531.4825-1.7646 1.3504-2.1342 2.6033l13.4014 5.9318c.2556.1131.3838.3135.3838.5978v.597c0 2.7604-.7969 4.8935-2.3902 6.4018"/><path d="m2063.4222 2382.7652c.7535 1.0102 1.9987 1.5151 3.7344 1.5151 1.4513 0 2.5185-.3348 3.2014-1.0032.6463-.633 1.046-1.5409 1.2084-2.7213l-9.2752-4.1286v1.3663c0 2.3045.3773 3.9617 1.131 4.9717zm10.6492 3.094c-1.5934 1.5074-3.8554 2.262-6.7873 2.262-1.7634 0-3.2785-.2565-4.5439-.767-1.2665-.5128-2.3125-1.2385-3.1377-2.1768-.8254-.9396-1.4289-2.0639-1.813-3.3718-.3852-1.309-.5766-2.7603-.5766-4.3537v-1.7929c0-1.7649.178-3.3066.5341-4.6304.3549-1.3224.9518-2.4401 1.7926-3.3494.8379-.9116 1.9341-1.5934 3.2856-2.0492 1.3505-.4547 3.0226-.6831 5.0145-.6831.6259 0 1.2665.0224 1.9205.0649.6539.0425 1.2946.1066 1.9205.1916.6261.0862 1.2016.1848 1.7291.2991.525.1139.9887.2406 1.3873.3838l.682 3.7134c-1.1948-.2285-2.2473-.3841-3.1589-.4692-.9094-.0862-1.8343-.129-2.7729-.129-2.1061 0-3.6853.241-4.7378.726-1.0525.4825-1.7649 1.3504-2.1334 2.6033l13.4008 5.9318c.2554.1131.3841.3135.3841.5978v.597c0 2.7604-.7971 4.8935-2.3896 6.4018"/><path d="m1908.0026 2410.2006h4.4373c1.3244 0 2.486.1545 3.4861.4646 1 .3101 1.8311.8243 2.4939 1.5431.6616.7189 1.1619 1.683 1.4998 2.8948.3384 1.2104.5074 2.719.5074 4.5218v2.4937c0 1.8017-.1624 3.3103-.4862 4.5218-.3242 1.2107-.8175 2.1759-1.4788 2.8947-.6627.7178-1.4868 1.2249-2.4721 1.5208-.987.2965-2.1554.4445-3.5084.4445h-4.479zm-4.5601 25.694c.2259 0 9.462-.0059 9.462-.0059 2.5359 0 4.6344-.3314 6.2969-1.0089 1.6619-.6752 2.9857-1.6123 3.9722-2.8105.9864-1.1971 1.6758-2.6181 2.0713-4.2676.3937-1.6483.5915-3.4435.5915-5.3886v-3.085c0-2.0001-.2114-3.8242-.6344-5.4714-.4223-1.6484-1.1267-3.0716-2.1126-4.2687-.9865-1.1971-2.3179-2.1277-3.9937-2.7896-1.6765-.6616-3.7543-.9932-6.2331-.9932h-10.1424v29.3346c0 .4198.4068.7548.7223.7548"/></g></g></svg>