<svg height="417.75" width="608.28125" xmlns="http://www.w3.org/2000/svg"><g transform="translate(-45.859375 -323.48718)"><path d="m45.859375 323.48718v417.75h608.281245v-417.75z" fill="#fff"/><path d="m416.26562 651.79967c-6.00223 31.50758-11.08917 58.26335-13.0625 68.65625h233.46875v-68.65625zm-357.812495.625v68.65625h231.812495l-15.46875-68.65625z" fill="#e05f0c"/><path d="m172.34931 495.00301-16.87201-71.0236h143.95477l46.62005 203.87837h1.98977l29.3698-130.60187c14.80001-59.29872 20.39113-73.2765 103.79742-73.2765h59.98937s-12.11955 54.66137-27.19913 113.97653c-5.73912 22.62757-55.82893 19.94712-53.32938-1.184.26312-2.20356 2.63112-18.10535 4.50579-29.41914 2.72978-16.28001-16.26357-18.31912-19.68402-2.20356-2.43378 11.54401-13.43512 68.8365-23.71291 122.70854h214.89617v-292.74422h-578.236439v292.74422h209.847709l-29.89602-132.7561-66.04094-.0987z" fill="#0a438a"/></g></svg>