<svg height="466.75781" viewBox="0 0 483.22877 466.75781" width="483.22876" xmlns="http://www.w3.org/2000/svg"><g transform="translate(-2409.6918 -5002.6528)"><path d="m2619.8886 5002.8216c-127.0693 4.7652-200.8413 150.4089-182.7426 245.788-9.0614 95.907 30.8453 159.5466 86.8506 187.1637 103.8507 78.7843 315.088 12.8617 336.2294-132.0121 31.456-90.3368-8.2174-308.0265-240.3374-300.9396zm-156.672 318.3061v.0336c-.0346-.1673-.0346-.3325-.068-.5004 41.6027 67.1532 111.1947 94.9403 145.8334 100.3167 44.8573 22.4284 73.3 28.6469 139.5866-1.7958-60.872 56.1903-161.36 41.4079-232.0866 4.7555-20.748-19.0889-46.7094-57.7005-53.2654-102.8096zm110.988 80.7947c-55.404-17.7268-89.792-51.9622-112.12-92.566-2.1933-34.4232 5.3867-64.7898 17.8214-96.6576-4.796 80.5862 18.8826 144.1009 94.2986 189.2236zm-116.7746-101.5095c-7.58-15.7119-12.2267-32.5493-15.4294-49.9763 7.6387-75.4625 38.3814-161.6916 109.992-202.0939 22.1787-12.705 52.3094-24.4744 78.3027-28.1655 15.8467-1.844 30.5107-.4305 46.4213 2.9941 35.1934 7.6347 49.9427 11.7804 61.812 16.6247 49.8294 21.8876 109.148 121.1474 91.4174 204.1942-21.5254-152.6941-115.1414-167.8413-205.1827-164.1536-100.212 4.1042-141.1533 110.7486-143.992 119.2611-13.0427 32.098-23.756 64.3972-23.3413 101.3152zm357.0586-55.8217c1.416 8.0454 2.3867 16.4644 2.7947 25.3028-3.956 6.8908-8.2293 13.4913-12.712 19.8662-16.8253 43.3135-53.5973 80.1287-103.3 97.2432-11.6333 4.0051-23.3733 6.683-35.0467 8.1974-23.3866 8.5285-44.8906 12.5178-61.4306 11.9124-18.1454-11.4366-34.208-22.2766-47.6014-34.8004-27.5413-17.2019-49.1786-42.8622-60.2213-74.9311-27.1947-78.9827 20.1787-166.9156 105.8147-196.4028 85.6346-29.4871 177.0986 10.6383 204.2986 89.6221 6.1267 17.8 8.436 36.0514 7.404 53.9902zm-373.784 21.5369c3.4147 15.2136 9.3014 31.4569 17.224 45.6899 2.7987 37.6618 20.568 75.2726 42.2614 101.3125-38.1894-30.4627-63.8907-81.2251-59.4854-147.0024zm367.4387 69.2393c-9.0933 15.8948-23.7147 38.4484-47.0387 70.6156-46.6506 23.3239-79.32 37.3535-130.4093 16.0914 101.1187-10.9138 158.528-78.5515 179.668-109.2355 2.792-5.618 5.6133-10.6436 8.14-14.5951 13.0133-38.1377 27.04-82.628 21.4027-95.5208 2.6893-51.1177-29.8934-139.9892-98.9827-169.0117-16.3267-6.8504-58.2493-15.5614-69.7933-17.3885-8.5974-1.3739-21.1694-4.01-41-1.5639-28.2507 3.572-57.5067 16.1159-82.8587 30.4252-62.9787 35.5641-97.9133 115.9252-107.9627 186.2664-4.6186-53.7404 28.4454-220.7052 197.036-223.098 155.9547-14.9854 282.4774 153.9675 171.7987 327.0149zm43.3333-42.7725s-6.9653 82.3601-97.7853 137.2279c11.704-10.3484 19.924-19.1895 27.3307-28.229 33.7373-45.0017 70.4546-108.9989 70.4546-108.9989zm-48.1253 50.0701c1.6507-2.4325 3.2347-4.8673 4.792-7.2976.4333-.7548.8333-1.474 1.2373-2.2-2.0146 3.2142-3.8546 5.7786-5.3613 7.4518-.2227.681-.4573 1.3957-.668 2.0458" fill="#d9dada"/><g fill="#e5a100"><path d="m2520.3926 5203.3954c-4.6453 15.428-11.6106 29.929-20.8866 43.5008-2.58 3.7146-5.0667 6.6052-7.456 8.6688-1.8387 1.519-3.892 2.9752-6.1574 4.3691-1.7746 1.09-3.7293 1.6019-5.8666 1.53-3.4174-.136-5.212-1.9144-5.3787-5.334-.1187-1.0387-.116-1.8917.0107-2.5664.5013-2.9865.9066-5.0905 1.2173-6.3121 1.304-4.941 3.9027-12.4978 7.7907-22.6787.7413-1.8875 1.4826-3.9001 2.2253-6.0333.2493-.7324.372-1.4339.3747-2.1086.068-1.2173-.4174-2.1377-1.4507-2.7496-1.1573-.6769-2.288-.5918-3.392.2592-.428.3036-.888.8176-1.38 1.55-.308.3663-.7053.9295-1.1973 1.6866-.4934.766-.7707 1.2041-.8307 1.3269-10.1387 15.1597-15.6693 23.3775-16.5907 24.6549-6.1466 8.8256-13.6933 17.615-22.6453 26.3687-5.028 4.9811-10.2373 9.2051-15.6227 12.6607-1.2253.7861-2.908 1.666-5.048 2.6354-.2466.0583-.4453.0896-.596.0874-.1546 0-.3826-.0159-.688-.047-.3066-.0336-.5186-.049-.64-.049-.3013-1.5282-.464-2.5376-.4906-3.0244-.0294-.4918.1106-1.3134.4226-2.4707 1.116-4.0248 2.0774-7.1052 2.8787-9.2383 2.2253-5.85 5.3987-12.6738 9.5213-20.4718 4.68-8.8944 10.8-19.31 18.3614-31.2423 4.9186-7.6705 9.2213-14.1548 12.9066-19.4488.7987-1.2169 3.132-4.0784 6.9987-8.5795.6733-.8508 1.532-1.6705 2.5747-2.4612 1.04-.7888 1.896-1.1396 2.568-1.0432.6706.0938 1.432.6656 2.2826 1.7066.0614 0 .1534.1069.2734.3216.1213.212.228.337.32.3662.0906.0314.2586.0468.5026.0491.1854-.3663.2787-.5805.2787-.6409-.056-1.5282-.5387-2.7187-1.4493-3.5763-.9147-.8599-2.1027-1.2037-3.568-1.0249-1.1614.1182-2.2627.5113-3.3027 1.1769-1.2853.8511-2.696 1.9725-4.2267 3.3705-2.884 2.6736-5.8893 6.2344-9.0226 10.675-8.9694 12.5397-17.268 25.2336-24.8934 38.0817-6.0866 10.1095-11.0773 19.9155-14.9626 29.424-1.9147 4.814-3.152 8.8075-3.7174 11.9815-.3146 2.1958-.384 4.2108-.2093 6.0424.116 1.771.7933 3.2386 2.04 4.4046 1.2467 1.1636 2.9093 1.6887 4.9853 1.5795 1.9547-.1141 3.7894-.6569 5.5027-1.6241 3.1227-1.9412 5.816-3.7014 8.0813-5.2782 6.0014-4.309 12.8987-10.7508 20.6907-19.3258 5.276-5.8367 10.9853-13.076 17.1293-21.7202.06-.1205.168-.3038.3214-.5473.1546-.2456.2933-.4444.416-.5941.124-.1519.2773-.333.46-.5472.184-.2124.3826-.4132.5986-.5942.2147-.1833.4747-.3308.7787-.4536-1.116 4.0252-1.7053 6.1894-1.768 6.4932-1.0547 3.9047-1.4653 7.3222-1.2347 10.2506.2294 3.1184 1.304 5.5952 3.2187 7.4336 1.916 1.8405 4.4293 2.83 7.5427 2.9642 3.052.136 6.1386-.6746 9.26-2.4302 2.264-1.2756 4.6213-3.0959 7.0773-5.4683 2.8787-2.7319 5.796-6.3503 8.7467-10.8577 6.3306-9.6183 11.6266-20.1567 15.8906-31.6178 2.036-5.4232 3.432-10.3641 4.1867-14.818.4373-2.7454.448-5.0952.028-7.0518-.184.1229-.3667.2434-.5493.364-.1854.1228-.3214.2414-.4134.3666-.0946.1206-.2013.2722-.324.4554-.1226.1833-.216.3194-.276.4113-.0613.0915-.1386.2275-.2306.4108-.092.1811-.1547.3193-.1854.4108-.032.0919-.0786.2437-.1386.4581-.0627.2143-.1254.3507-.1854.4108-.0626.1834-.5586 1.8898-1.488 5.122zm30.6174 45.6495c-.9494.7284-1.8227 1.3357-2.6187 1.8184-.7947.4868-1.592.8799-2.3853 1.1815-3.18 1.0854-6.2654 1.4093-9.2534.9649.1854-.4845.4174-1.1101.6947-1.8716.2787-.7616.5093-1.3248.6947-1.6911.6786-1.9501 1.0546-3.7504 1.1213-5.3986.132-2.0171-.548-3.679-2.0373-5.0015-1.492-1.3179-3.52-1.5881-6.0867-.8043-.0627.0606-.584.3039-1.5613.7262-1.224.543-1.8654.8488-1.928.907-1.648.1766-3.3934 1.177-5.232 2.9998-4.1694 3.891-7.604 7.874-10.3094 11.9524-1.2893 1.8874-2.2746 3.6854-2.9533 5.3896-.616 1.5258-.96 3.0804-1.028 4.6662-.068 2.0148.5027 3.6208 1.7187 4.8159 1.216 1.1973 2.8613 1.8273 4.936 1.8988 1.892.0087 4.0946-.5919 6.6026-1.8028 4.0987-1.9968 7.684-5.1239 10.7547-9.3857.3093-.364.7227-.9112 1.2453-1.6419.52-.7324.812-1.1259.8747-1.1883 3.8467-.2256 5.892-.3706 6.1387-.4312 3.1133-.2902 6.0173-1.2842 8.7133-2.984 2.0187-1.2732 3.46-2.9752 4.3267-5.1084.308-.7328.188-1.2532-.36-1.5593-.428.3016-1.1187.8197-2.068 1.548zm-35.5187 17.5212c-.2747-.0651-.8387-.3084-1.6907-.742-.3613-1.0385-.2333-2.2583.3827-3.6608 1.9733-4.5699 4.7693-8.8297 8.3907-12.7876l.3653-.0896c.6027 1.3493 1.012 2.2673 1.224 2.7564.212.4895.6053 1.0523 1.184 1.6977.576.6456 1.1227 1.1211 1.6413 1.4272.5174.3084 1.476.8935 2.8774 1.7515-3.8094 5.1107-8.096 8.2711-12.8614 9.4707-.736.1788-1.2386.2389-1.5133.1765zm16.9587-14.3985c-1.4-.6142-2.1334-.9248-2.1934-.9248-1.2773-.7394-1.7026-1.838-1.2666-3.3011.8666-3.2323 2.6466-5.1465 5.336-5.7475.6053.9807.9386 1.5322 1.0013 1.6531.1187.7348.0533 1.4987-.1947 2.2893-.6826 2.6827-1.576 4.6954-2.6826 6.031zm50.8973 5.0774c-2.1373.1739-4.12-.1701-5.9493-1.0322-2.1934-1.0476-3.1627-2.7919-2.9054-5.2335.0614-.4891.2014-1.2511.4214-2.2873.2173-1.0364.3573-1.798.4226-2.2894.2507-1.7692.3467-3.0489.2907-3.8445-.176-1.4048-.8133-2.3875-1.9093-2.9393-1.0974-.554-2.2587-.5268-3.48.076-.7974.4266-1.6867 1.1837-2.668 2.2782-1.84 2.1314-4.02 4.6863-6.536 7.666-.7974 1.0342-2.0254 2.571-3.6827 4.608-1.6573 2.0395-2.916 3.574-3.7747 4.6084 0 .0624-.6746.6388-2.0226 1.7311-.12-.9157.192-2.1645.932-3.7504 1.9093-4.2059 5.2093-11.3651 9.8933-21.4791 9.1827-19.8618 16.5-38.8192 21.9533-56.8672.184-.6096.2467-1.0677.1894-1.3734-.0614-.0604-.364-.4895-.912-1.287-.1227.121-.2907.2594-.5054.4112-.2133.152-.3986.288-.5506.4086-.152.1229-.2614.2748-.3214.4581-.3093.6073-.7706 1.7064-1.388 3.2901-2.84 7.13-7.312 17.8268-13.42 32.0867l-13.312 28.6045c-4.7453 10.1163-8.5693 19.138-11.4746 27.0611-.556 1.4631-.9587 2.7115-1.2054 3.7459-.252 1.1614.1734 2.0794 1.268 2.756 1.1574.7374 2.256.7106 3.2974-.0779.676-.5449 1.4426-1.3069 2.3-2.2783 2.452-2.8614 6.2586-7.3288 11.4146-13.4153.4907-.5455 1.196-1.3671 2.1174-2.4617.92-1.0946 1.7626-2.0818 2.5306-2.9643.7667-.8821 1.488-1.6887 2.1614-2.4188.0026-.0605.612-.4536 1.84-1.1839.296 1.7758.4746 2.6892.5346 2.7516.5387 2.9956 2.2067 5.0174 5.0134 6.0668 3.8386 1.481 7.6853 1.3762 11.5386-.317.7347-.3016.9494-.7907.648-1.4608-1.7106.1742-2.628.2948-2.7493.353zm41.52-8.4302-.6333-1.3735c-.9827 1.2173-1.472 1.8561-1.4747 1.9163-3.808 5.2334-9.6253 9.2386-17.452 12.0128-.612.181-1.0693.2702-1.376.268-.1227 0-.8213-.1252-2.104-.3754.0067-1.6505.012-2.5326.012-2.6558.3107-1.157.7427-2.4995 1.2987-4.0226.2466-.6701.7106-1.8293 1.3906-3.4734.6787-1.6463 1.204-2.9575 1.5747-3.9315.4933-1.4025.772-2.6536.84-3.7545.004-1.2802-.4653-2.1982-1.408-2.7496-.9453-.5542-1.968-.5587-3.068-.0136-.612.3016-1.2853.8174-2.0227 1.5458-1.532 1.4608-2.972 2.886-4.3213 4.284-.86.9763-1.888 2.0996-3.0827 3.3775-1.1973 1.2752-2.3786 2.5395-3.5426 3.7836-1.1654 1.2488-2.2094 2.3588-3.1294 3.3305-.06.0624-.8253.7307-2.2986 2.0059-.0574-.4913-.04-.9313.0533-1.3312.092-.3931.2773-.8667.5547-1.4139.276-.5496.4146-.8534.4173-.9158 2.528-6.3371 3.8893-9.7814 4.0747-10.331.2453-.7324.436-2.0436.5653-3.9333.064-.8557-.452-1.2843-1.5493-1.2888-.8014 1.1569-1.232 1.7647-1.292 1.8248-2.3414 4.6307-4.3734 8.6823-6.096 12.1511-1.048 2.075-1.972 4.0229-2.7747 5.8526-.4307 1.034-.7093 2.0727-.8373 3.1091-.3134 1.7711.232 3.1157 1.6306 4.0361 1.2187.8624 2.5627.8356 4.0307-.0737 1.1627-.6656 2.144-1.3648 2.9413-2.0927 1.04-1.0322 2.4507-2.4616 4.2294-4.2864.796-.8512 1.9173-2.0685 3.36-3.6498 1.44-1.5795 2.528-2.7342 3.2653-3.4647 0-.0601.612-.5496 1.8387-1.4563-.8667 2.4971-1.332 3.8396-1.392 4.023-.5 2.1932-.7814 3.7213-.844 4.5742-.0094 2.015.5786 3.6076 1.764 4.7714 1.1866 1.166 2.7853 1.6596 4.8026 1.4853 1.5867-.1137 3.3-.5651 5.1334-1.3512 4.588-1.932 8.6893-4.6016 12.3066-8.0057.9214-.9114 2.1467-2.3384 3.6814-4.2887.9226-1.2151 1.236-2.5885.9333-4.1189"/><path d="m2530.4353 5250.832c.196.0626.644.2478 1.8787.7906.964-1.2797 1.7653-3.1605 2.3853-5.5974.2253-.7126.2893-1.3918.1987-2.0327-.0987-.172-.3587-.6009-.7814-1.2865-2.364.6386-3.9026 2.392-4.6946 5.3517-.376 1.2597-.052 2.14 1.0133 2.7743zm2.144 1.8852-.3093-.1384c-1.716-.7551-2.0494-.8803-2.112-.898l-.124-.0491c-1.456-.8421-1.9654-2.1623-1.472-3.8173.9053-3.3752 2.8133-5.4191 5.668-6.0579l.3093-.0669.168.2698c.6147.9967.952 1.5572 1.016 1.68l.0453.1388c.128.8016.0587 1.6391-.2093 2.4926-.6893 2.7137-1.6227 4.8004-2.764 6.1825zm-16.988 13.4132c.0867.0154.4053.0422 1.3067-.1766 4.5146-1.1346 8.6573-4.1321 12.3146-8.9098-1.172-.7196-1.9906-1.2178-2.4533-1.4922-.5533-.3262-1.1413-.838-1.7453-1.5145-.6134-.6815-1.0254-1.2779-1.26-1.816-.1907-.4359-.536-1.2152-1.0374-2.3365-3.4826 3.8464-6.216 8.0368-8.124 12.455-.5333 1.2174-.6746 2.2806-.4226 3.1695.936.4713 1.2906.5923 1.4213.6211zm.1533.907c-.1346 0-.252-.0136-.3506-.036h-.0014c-.32-.0713-.9066-.3261-1.7946-.7797l-.16-.0823-.0587-.1674c-.3987-1.1438-.2653-2.4839.3947-3.9875 1.98-4.5879 4.8306-8.9321 8.4706-12.9081l.0907-.0983.8587-.2124.1533.3397c.6027 1.3512 1.012 2.2692 1.2267 2.7606.192.4426.564.974 1.1053 1.5749.544.6096 1.0613 1.0609 1.5373 1.3403.5187.3125 1.48.898 2.8827 1.7578l.416.2588-.292.3912c-3.8547 5.1731-8.2667 8.414-13.1093 9.6338-.5894.1428-1.0347.2146-1.3694.2146zm34.8174-17.099c-.576 1.3002-1.136 2.5822-1.68 3.842 1.924-1.2152 3.3173-2.8612 4.1426-4.8919.1907-.4532.1454-.6947.044-.8331-.4253.3084-1.0213.7571-1.7866 1.3448-.244.1875-.484.3663-.72.5382zm29.336 6.652c1.0733.2302 2.1986.308 3.356.2142.0973-.029.288-.0668.7293-.125.084-.2011.1827-.4154.296-.6364.324-.6456.3747-.7862.3813-.8086 2.6574-6.6856 3.912-9.8641 4.0867-10.3777.2333-.6969.416-1.9859.5413-3.8241.0294-.3708-.092-.5027-.1333-.5451-.1307-.1428-.3853-.2324-.7413-.2569-.804 1.1594-1.052 1.5012-1.1454 1.6153-2.3306 4.6121-4.3546 8.6464-6.0706 12.1061-.4547.9027-.8894 1.7826-1.3 2.6382zm4.7333.909c-.0293.0915-.0533.1787-.072.2615-.02.0801-.0347.1675-.0467.2544.252-.2188.472-.4108.664-.576-.2066.0223-.3866.04-.5453.0601zm-5.9587 1.7378c1.6414.0896 3.284-.1451 4.92-.6588-.0093-.3398.0174-.6546.08-.9494-.1026.0178-.1466.0268-.1653.0314l-.0733.0378-.0507-.0088c-1.34.1139-2.64.0179-3.876-.2705-.2933.6209-.5707 1.2287-.8347 1.8183zm-.3733.878c-.336.8821-.5613 1.7733-.6693 2.6536-.2854 1.6128.184 2.7874 1.432 3.6072 1.0813.7642 2.2386.7305 3.5493-.0802 1.14-.6524 2.1027-1.3357 2.876-2.0417 1.0253-1.0185 2.4347-2.4484 4.212-4.2708.788-.8421 1.9067-2.0549 3.348-3.634 1.432-1.5727 2.488-2.6964 3.232-3.4379.156-.2033.612-.5628 1.936-1.5454l1.164-.8626-.476 1.3694c-.864 2.4953-1.328 3.8309-1.388 4.0138-.484 2.1246-.7627 3.6412-.8227 4.4675-.0066 1.8561.54 3.3505 1.632 4.4205 1.096 1.0764 2.536 1.5167 4.4507 1.358 1.5333-.1074 3.2133-.5518 4.996-1.3134 4.5147-1.903 8.6093-4.5656 12.176-7.9208.9-.8935 2.1267-2.3206 3.636-4.2414.836-1.0968 1.1173-2.3118.856-3.7016l-.308-.672c-.6307.7884-.852 1.0878-.9267 1.1992l-.0026.0268-.08.1119c-3.8467 5.2872-9.7894 9.3816-17.664 12.1689-.6747.2011-1.164.2948-1.5147.2948-.0053 0-.0093.0023-.016 0-.0787 0-.2413-.0022-2.184-.384l-.3627-.069.0267-3.1386c.316-1.1769.7573-2.5421 1.312-4.063.2427-.6634.7013-1.8047 1.396-3.4892.676-1.6438 1.2013-2.9503 1.5693-3.9198.4747-1.3448.7494-2.5666.8134-3.6208.0026-1.0968-.3854-1.8697-1.188-2.3388-.8147-.4804-1.68-.4781-2.6467 0-.5627.2794-1.2027.7707-1.9027 1.4654-1.5333 1.4562-2.9826 2.8946-4.316 4.2773-.8493.9629-1.8786 2.0908-3.0786 3.3709l-3.5427 3.7836c-1.1653 1.2488-2.2093 2.3588-3.128 3.3306-.008.0065-.0133.0133-.0253.0246.0173.2075-.0094.4044-.0827.5874-.148.3706-.4747.6632-.968.8665-.376.1629-.7533.3131-1.1307.4513-.0413.0332-.0826.0715-.1266.1096l-.636.5492-.0467-.3908c-1.7893.5404-3.5827.7594-5.38.6278zm-50.6013-19.795c-1.536.163-3.2067 1.1324-4.9654 2.8726-4.1346 3.8596-7.5813 7.8534-10.252 11.8809-1.268 1.8561-2.2453 3.6408-2.912 5.3095-.5946 1.474-.9293 2.9952-.9946 4.521-.0654 1.8984.4533 3.3638 1.584 4.4784 1.1293 1.11 2.6906 1.7042 4.6386 1.7692h.036c1.7974 0 3.9414-.59 6.3574-1.7582 4.0133-1.9567 7.576-5.0658 10.5866-9.2428.316-.3754.716-.9046 1.244-1.6438.8014-1.1237.8787-1.1996.9267-1.2442l.12-.1187.1667-.0109c5.1-.2994 5.9386-.3931 6.06-.4178 2.5933-.2456 5.028-.9761 7.2946-2.1822.5067-1.1883 1.0294-2.3966 1.568-3.6211-.1813.1187-.36.2283-.5333.3352-.8147.4959-1.6413.9048-2.4587 1.2151-3.252 1.1081-6.44 1.443-9.4786.9917l-.5494-.0801.1974-.5208c.1853-.4868.4173-1.1055.6933-1.8694.2907-.7929.5253-1.3602.716-1.7378.64-1.8494 1.0093-3.6231 1.0733-5.2158.1227-1.8961-.4946-3.4106-1.888-4.6457-1.364-1.2064-3.192-1.4521-5.5893-.7352-.1507.0919-.5133.2684-1.5853.7307-1.5334.6833-1.796.8265-1.8414.8556l-.108.1025zm20.5893 14.8495c-1.9893 4.6752-3.7373 9.064-5.2293 13.1343-.5507 1.4493-.9507 2.6913-1.192 3.6966-.208.9672.1306 1.6907 1.0693 2.2715 1.0093.6411 1.8947.6233 2.7933-.0536.636-.5159 1.392-1.2643 2.2347-2.2201 2.448-2.8551 6.2533-7.322 11.408-13.4067.4973-.5537 1.2-1.3712 2.116-2.4616.9227-1.0965 1.7667-2.086 2.536-2.9685.7427-.8575 1.4453-1.644 2.104-2.3566.1187-.1897.5293-.4598 2.0067-1.3356l.56-.333.108.6437c.3093 1.8425.4306 2.4029.4773 2.5731l.032.0332.0253.1388c.5134 2.8546 2.0614 4.7285 4.7294 5.7248 1.216.469 2.4386.7752 3.6626.9134.2854-.6432.5867-1.3065.9054-1.9857-.4854-.156-.9614-.3416-1.4267-.5583-2.3733-1.1368-3.436-3.0489-3.1587-5.6869.0627-.5115.208-1.2912.428-2.332.2134-1.0187.3547-1.7779.4174-2.2537.2453-1.7288.3426-2.9931.288-3.757-.156-1.2354-.7014-2.0844-1.6654-2.5712-.972-.4936-1.98-.4689-3.0813.0783-.7373.3953-1.5933 1.1279-2.532 2.1755-1.8347 2.1222-4.0133 4.6776-6.528 7.6546-.8027 1.041-2.044 2.5982-3.6773 4.6016-1.632 2.0082-2.8747 3.5248-3.7334 4.559-.1386.2146-.5973.6054-2.1293 1.8448l-.62.5053-.104-.7931c-.132-1.0053.1853-2.3141.9707-3.9986 1.8306-4.0294 5.068-11.0563 9.892-21.4764 9.1306-19.7503 16.5093-38.8615 21.9306-56.8094.1734-.5673.2-.8912.1894-1.0632-.0867-.116-.2494-.3416-.5707-.8061-.052.0355-.104.076-.1613.1137-.204.1475-.384.2771-.528.3931-.088.0692-.144.152-.1774.248-.3266.6591-.7866 1.7536-1.3946 3.3149-2.8627 7.1858-7.38 17.9831-13.4254 32.1l-13.32 28.6178c-1.1146 2.3788-2.1826 4.7021-3.2 6.9713.6627-.5045 1.164-.8757 1.5027-1.1168l.232-.1652.2453.1407c.4374.2433 1.088.8488.5534 2.1198-.896 2.207-2.4107 3.9962-4.5 5.314-.3494.2231-.704.4287-1.0627.6275zm-3.956 20.4581c-.616 0-1.2453-.1988-1.8707-.5986-1.2466-.7726-1.7546-1.8875-1.4653-3.2274.2507-1.0498.6627-2.33 1.2253-3.8132 1.392-3.7949 3.0054-7.867 4.8307-12.1889-2.0933.9781-4.3067 1.5791-6.612 1.7937-.0507.0179-.3493.0892-5.9573.4219-.1027.1341-.312.4199-.7347 1.0121-.5427.7594-.956 1.3066-1.2667 1.6728-3.0773 4.271-6.752 7.474-10.9013 9.4976-2.54 1.2264-4.8133 1.8475-6.7573 1.8475h-.0427c-2.192-.0719-3.9533-.7552-5.2467-2.0263-1.3013-1.282-1.924-3.013-1.8506-5.1506.068-1.6283.4253-3.25 1.0586-4.8159.6894-1.7311 1.6974-3.574 2.9987-5.4747 2.7067-4.0834 6.1973-8.1305 10.3747-12.0284 1.8573-1.8406 3.672-2.8901 5.3866-3.107.1907-.1071.6534-.3286 1.8947-.88 1.1827-.5118 1.4227-.6387 1.472-.6723l.0787-.0783.064.0046c2.7093-.8267 4.904-.525 6.5106.8976 1.5934 1.412 2.3294 3.2145 2.188 5.3636-.068 1.6682-.452 3.5289-1.1453 5.5169-.1987.3999-.4187.9359-.6973 1.6977-.1854.5114-.352.9627-.4974 1.349 2.7347.317 5.588-.0268 8.4934-1.0208.752-.2858 1.5293-.6679 2.2973-1.1347.5227-.3193 1.0867-.6969 1.684-1.1281 1.216-2.736 2.504-5.5571 3.864-8.4542l13.312-28.6068c6.0387-14.0992 10.552-24.8897 13.4107-32.0666.6173-1.5836 1.0893-2.7051 1.404-3.3238.06-.2033.2173-.4266.4413-.6054.1573-.1251.3493-.268.572-.4242.1893-.1341.3387-.2524.4453-.362l.38-.384.3067.4444c.7067 1.0319.8453 1.2084.8693 1.2375l.0787.0915.0333.1296c.072.3844.0067.9025-.2013 1.5858-5.4333 17.9831-12.8253 37.137-21.9747 56.9255-4.824 10.4179-8.06 17.4425-9.892 21.4741-.4773 1.0254-.7693 1.8988-.8733 2.6112.7267-.5964 1.02-.8553 1.1333-.9649l.08-.096c.8587-1.0317 2.1147-2.5667 3.772-4.6037 1.628-1.9991 2.8654-3.5491 3.6774-4.599 2.5266-2.9976 4.708-5.5552 6.5506-7.6861 1.0134-1.13 1.952-1.9275 2.796-2.3765 1.36-.677 2.6654-.7015 3.8907-.0828 1.232.621 1.956 1.7269 2.1507 3.2814.0613.8534-.0374 2.1778-.2907 3.967-.0653.4913-.2093 1.271-.428 2.3142-.216 1.0182-.356 1.7756-.416 2.2515-.2347 2.2447.6333 3.8081 2.656 4.7731.464.2212.94.4044 1.4267.5518.4346-.9089.896-1.847 1.3813-2.8078 1.7213-3.4688 3.7547-7.5227 6.096-12.1531l.08-.1119c.0173-.0222.1973-.2546 1.2427-1.7669l.1346-.1943h.2347c.7533.0046 1.2853.1856 1.6253.5538.2814.3061.4067.715.368 1.2177-.1333 1.9389-.3253 3.2611-.588 4.0452-.18.536-1.396 3.6183-4.0626 10.3061-.0294.116-.1227.3394-.4534.9963-.02.0377-.0373.0759-.056.1092.2934-.0288.6347-.0669 1.0307-.1069l.2333-.0227c.8547-.9068 1.82-1.9344 2.888-3.0736l3.5414-3.7881c1.1933-1.2734 2.216-2.3944 3.0733-3.3639 1.3587-1.4071 2.8173-2.8524 4.352-4.3132.772-.766 1.472-1.3001 2.1307-1.6263 1.2373-.6141 2.4146-.6028 3.4906.0314 1.0867.6342 1.636 1.6909 1.6307 3.1362-.0707 1.1638-.364 2.468-.8667 3.8998-.3746.9876-.9013 2.3028-1.5826 3.9537-.6934 1.6728-1.144 2.8056-1.384 3.4579-.536 1.4694-.964 2.792-1.272 3.9288l-.0094 2.2292c1.324.2548 1.6067.2925 1.664.2948h.0067c.1773 0 .536-.0446 1.2333-.2499 7.664-2.714 13.4534-6.6901 17.192-11.8117.1147-.2124.4587-.6636 1.512-1.9703l.452-.5605.9694 2.1309c.3266 1.6573-.0174 3.1581-1.016 4.4739-1.5347 1.9525-2.788 3.4109-3.7214 4.3354-3.652 3.4379-7.8386 6.1607-12.448 8.1018-1.8733.7998-3.648 1.2665-5.2773 1.3849-2.1187.1855-3.868-.3572-5.1453-1.6151-1.2694-1.2418-1.908-2.9552-1.8987-5.0906.0667-.9135.3467-2.4324.8547-4.6703.0586-.1788.3653-1.0655.9253-2.6828-.264.2033-.4093.3217-.4893.3931v.009l-.132.1298c-.7254.7169-1.8187 1.8784-3.2494 3.4506-1.4453 1.584-2.5666 2.7988-3.364 3.6522-1.788 1.8316-3.2 3.2654-4.2426 4.2977-.8347.7616-1.8507 1.4876-3.0334 2.1623-1.6133 1.0026-3.136 1.0208-4.5093.0536-1.544-1.0163-2.1587-2.5266-1.8133-4.481.1053-.8553.3186-1.7333.6346-2.6109-1.2133-.1587-2.4253-.4713-3.632-.9384-2.924-1.0923-4.7026-3.2277-5.28-6.3436-.0813-.2097-.1906-.7169-.4386-2.1687-.7987.48-1.0587.6611-1.1427.7256l-.036.0383c-.6707.7301-1.3907 1.5321-2.1533 2.4097-.768.8803-1.608 1.8652-2.5254 2.9598-.9253 1.0992-1.6346 1.9234-2.128 2.4726-5.1466 6.0782-8.9546 10.5452-11.408 13.4067-.8786.9963-1.672 1.7824-2.3586 2.3365-.6214.471-1.276.7056-1.9467.7056zm-73.0267-91.1893c-.2186 0-.4466.0155-.684.0445-1.0906.1092-2.1373.4823-3.1173 1.1079-1.272.842-2.6747 1.9612-4.1653 3.3213-2.8387 2.6336-5.8534 6.2008-8.9587 10.6032-8.924 12.4774-17.2933 25.2808-24.8747 38.053-6.06 10.0649-11.084 19.9446-14.9333 29.3662-1.8907 4.7554-3.1333 8.756-3.692 11.8896-.3053 2.1332-.3747 4.1303-.2027 5.9218.1094 1.6818.7294 3.0266 1.9 4.1208 1.148 1.0722 2.704 1.5481 4.656 1.4589 1.872-.1073 3.6587-.6368 5.308-1.5681 3.0734-1.9098 5.7854-3.6812 8.044-5.2539 5.952-4.2728 12.8894-10.7551 20.616-19.2564 5.244-5.8053 10.996-13.1005 17.096-21.6801.028-.0714.144-.2679.308-.5291.1654-.2616.3134-.4736.4454-.6369.1266-.1538.2826-.3371.4693-.5559.2053-.2371.424-.4536.652-.6456.2427-.2079.5373-.3821.8973-.5249l.84-.3418-.2413.8735c-1.38 4.9743-1.72 6.2631-1.7627 6.4664-1.0426 3.8597-1.452 7.2593-1.2266 10.1276.22 2.9863 1.2573 5.3896 3.0826 7.1452 1.8294 1.7537 4.268 2.7096 7.252 2.8369 2.94.1138 5.988-.6656 9.0227-2.372 2.216-1.2488 4.5667-3.0625 6.9853-5.399 2.8507-2.7074 5.772-6.335 8.6827-10.7819 6.2827-9.5467 11.6133-20.1543 15.8467-31.5284 2.0186-5.3787 3.42-10.3352 4.164-14.7376.3786-2.3792.4293-4.4696.1533-6.232-.1333.0892-.2307.1743-.288.2501-.0947.123-.196.2635-.3107.4355l-.2746.4089c-.056.0847-.124.2052-.2054.3663-.0786.1587-.1333.2748-.16.3529-.032.0915-.076.2344-.132.4378-.0666.2256-.1346.3866-.2146.5026-.1734.5583-1.1334 3.8956-1.4587 5.0324l-.0027.0046c-4.636 15.3966-11.6826 30.0741-20.9453 43.6237-2.592 3.7323-5.1253 6.6784-7.5333 8.756-1.856 1.5345-3.944 3.0153-6.2147 4.4137-1.8453 1.1324-3.912 1.6774-6.1173 1.5947-3.6747-.1475-5.6294-2.0837-5.808-5.7581-.124-1.07-.1187-1.9503.0186-2.6695.4974-2.9753.9094-5.1129 1.2227-6.3436 1.3013-4.9273 3.928-12.5711 7.8053-22.7256.7374-1.8761 1.484-3.8997 2.22-6.0219.2307-.6765.3494-1.338.3507-1.9612.0587-1.07-.3453-1.8384-1.232-2.3652-.9907-.5786-1.936-.5049-2.8907.2275-.3986.2839-.824.7665-1.2813 1.4476-.3213.384-.712.9357-1.1933 1.6819-.636.9808-.7774 1.2241-.808 1.2797-10.1147 15.1309-15.6987 23.4316-16.628 24.7181-6.1254 8.8007-13.7627 17.6927-22.6947 26.4264-5.0267 4.9834-10.308 9.263-15.6933 12.7186-1.2387.7956-2.956 1.6932-5.1054 2.6649-.3746.0983-.576.1384-.7866.1273-.1574 0-.4014-.0158-.728-.0513-.2854-.0291-.4814-.0447-.5934-.0447h-.368l-.0706-.3597c-.308-1.5636-.4707-2.5753-.4974-3.0868-.0333-.5408.1094-1.3961.436-2.6112 1.1147-4.0139 2.088-7.1343 2.8934-9.2788 2.2213-5.8435 5.432-12.7476 9.544-20.5228 4.6613-8.8611 10.844-19.3837 18.3786-31.2737 4.9227-7.6751 9.2667-14.2243 12.9174-19.4664.8066-1.2288 3.108-4.0498 7.0253-8.6132.6827-.8622 1.576-1.7178 2.6453-2.5263 1.1494-.8735 2.0987-1.2464 2.9014-1.1277.772.1092 1.5893.692 2.4973 1.7824.188.1182.3093.3302.384.4668.0627.1114.104.1628.1213.1829.0014-.0043.0147-.0068.0387-.0043.06-.1228.0987-.2101.1133-.2614-.0586-1.3044-.5-2.4035-1.3173-3.1742-.6747-.6341-1.504-.9489-2.5227-.9489zm-54.5786 106.7961c-1.9414 0-3.5387-.5762-4.76-1.7154-1.3254-1.242-2.0574-2.8234-2.18-4.7018-.176-1.8474-.1054-3.9156.2133-6.1338.5693-3.2099 1.828-7.2684 3.7427-12.0843 3.8693-9.4661 8.9133-19.3859 14.996-29.4889 7.592-12.7923 15.9746-25.618 24.9133-38.111 3.1387-4.4518 6.1947-8.0681 9.0813-10.7436 1.528-1.3962 2.9667-2.5444 4.284-3.4156 1.104-.7078 2.2827-1.1233 3.5054-1.2465 1.58-.1943 2.9053.1901 3.9186 1.1437.9947.9362 1.528 2.2428 1.588 3.8823.0014.1629-.048.3104-.3266.8599l-.124.248-.2787-.0023c-.328-.0045-.5107-.0247-.6533-.0783-.1894-.056-.3667-.2321-.5534-.565-.0213-.0378-.04-.0692-.056-.0938h-.0386l-.1347-.1652c-.9653-1.1796-1.62-1.4898-1.9987-1.5412-.5426-.0805-1.312.2524-2.2373.9514-1.008.766-1.848 1.568-2.4947 2.3833-3.8493 4.4875-6.1933 7.3576-6.976 8.5481-3.6493 5.2426-7.988 11.7804-12.9013 19.4442-7.5213 11.87-13.6933 22.3702-18.344 31.2113-4.0933 7.742-7.2893 14.6151-9.4987 20.42-.796 2.12-1.76 5.2136-2.8653 9.1983-.3707 1.3761-.4253 2.024-.4067 2.3233.0227.4331.1627 1.3156.416 2.6268.0934.0068.1987.0177.316.0313.2894.031.508.02.6494.0423.1146 0 .2746-.0223.4826-.0736 2.0294-.9272 3.708-1.8025 4.9094-2.5755 5.3346-3.422 10.5653-7.6614 15.5506-12.6024 8.8934-8.696 16.4947-17.5453 22.5934-26.3058.9266-1.2843 6.5053-9.5759 16.5866-24.6487.02-.0513.16-.2883.8267-1.3201.508-.7862.9107-1.3516 1.232-1.7334.4947-.7414.9827-1.2865 1.4613-1.6262 1.228-.945 2.572-1.0451 3.876-.279 1.188.7056 1.7494 1.7666 1.672 3.1604-.0026.697-.136 1.454-.3986 2.2251-.7414 2.1328-1.492 4.168-2.2307 6.0529-3.8667 10.1208-6.484 17.7354-7.776 22.6295-.3053 1.2016-.7133 3.3147-1.208 6.2767-.1187.6274-.1213 1.4449-.008 2.4366.1573 3.2078 1.7773 4.8136 4.952 4.9387 2.0347.076 3.9213-.4244 5.616-1.4629 2.236-1.3759 4.2893-2.832 6.1053-4.3334 2.344-2.0257 4.8267-4.9141 7.3747-8.5794 9.208-13.4714 16.2147-28.066 20.8253-43.3712 1.2347-4.2955 1.448-5.0079 1.4947-5.1444l.1027-.1651c-.0054 0 .028-.0605.076-.2257.0613-.2188.1106-.3795.1453-.478.032-.0983.1027-.2544.208-.4646.1027-.2033.1893-.3553.2573-.4577l.2774-.4135c.1293-.192.2426-.3526.3413-.48.1187-.1565.2907-.3129.5213-.4649l1.0934-.7256.1373.6409c.428 1.9968.4213 4.4248-.0227 7.2148-.756 4.4651-2.172 9.4798-4.2093 14.9054-4.256 11.4386-9.6187 22.1064-15.936 31.7068-2.9493 4.5056-5.9147 8.1886-8.8133 10.9384-2.4707 2.3856-4.8827 4.2462-7.164 5.5328-3.1827 1.7869-6.3934 2.6134-9.5 2.4861-3.2067-.1387-5.8414-1.1773-7.8334-3.0848-1.988-1.9121-3.1173-4.5143-3.3533-7.7243-.2333-2.9684.1867-6.4686 1.2493-10.3997.0547-.268.5307-2.0281 1.4494-5.3496-.1.1007-.1974.2031-.2894.3104-.1786.2101-.3306.3889-.452.5359-.1133.141-.2413.3262-.384.5518-.144.2256-.244.3958-.3.5072-6.156 8.671-11.9306 15.9931-17.1973 21.823-7.7693 8.5505-14.7547 15.0728-20.7627 19.3882-2.2773 1.5859-5.0013 3.366-8.1053 5.294-1.784 1.0072-3.7013 1.5723-5.712 1.691-.1893.0086-.3747.0154-.5573.0154"/><path d="m2665.2526 5268.2994c-1.7733-.1206-2.9666-.4068-3.58-.8644-.6146-.4558-1.7293-1.8184-3.344-4.0898-7.684-10.9028-13.5853-18.8255-17.7-23.7687-2.1546-2.6717-3.3813-4.2059-3.6746-4.6057l.9493-1.1996 1.9813-2.14c6.5627-7.6838 11.4507-13.4487 14.6574-17.2951.6466-.7639 1.2893-1.2333 1.9306-1.4076.6427-.1716 2.0987-.2256 4.3694-.156 1.0853.0041 1.628-.3061 1.6293-.9272.0027-.4532-.2427-.7347-.732-.8531-.248-.0581-1.2333-.0917-2.9547-.0982l-4.0613-.0182c-4.0867-.0177-6.4733 0-7.164.056-.6893.0536-1.0333.2794-1.036.6747-.0027.6273.7347.9135 2.212.8621 2.3133-.0446 3.468.3039 3.4667 1.0386-.0027.4558-4.78 6.1452-14.3267 17.0721l-6.3093 7.1879.0906-20.7084c.008-2.1532.1534-3.4243.4334-3.8174.2786-.3976 1.1493-.6209 2.6133-.67 1.4627-.0492 2.3333-.1184 2.6133-.201.276-.0847.4187-.295.4187-.6347.0027-.6205-.4453-.9357-1.3413-.94-.596-.0023-1.168.0265-1.7174.0779-1.0466.1096-3.5146.1542-7.396.1388-3.636-.0182-5.852-.0806-6.648-.2011-.3986-.0583-.724-.0851-.9706-.0873-.8467-.0023-1.272.2478-1.2734.7596-.0026.621.6.9358 1.8134.9404 2.676.0109 4.036.6096 4.0813 1.7978l-.2067 47.2782c-.012 3.2833-.096 5.0684-.2426 5.3496-.3.7884-1.2867 1.2105-2.96 1.2578-1.8227.0487-2.7334.3394-2.736.8776-.0027.4848.3666.7238 1.108.7283l.668.0023c.8893.0041 1.764.0086 2.6306.0132.8654.0045 1.6174.0064 2.2614.0109l10.3026.0428c.396 0 .84.0023 1.336.0045.6907.0042 1.0374-.2457 1.04-.7552.004-.565-.2706-.8489-.8186-.8508-2.3947-.009-3.8587-.2569-4.4094-.7392-.5453-.4804-.8133-1.7092-.804-3.6858l.108-24.4588c13.3614 17.7109 20.0427 26.936 20.04 27.6706-.0026.6792-1.2893 1.1551-3.848 1.4254-1.232.1028-1.848.3661-1.8506.7952-.0014.4266.4653.6454 1.4013.65.344 0 .6653.0022.96.0022l8.6427.0356 8.8586.0423.5894.0023c.692.0026 1.036-.2524 1.0386-.7616 0-.4512-.7106-.7392-2.14-.8598zm47.1334-57.1733-1.1134-.0045c-.2946 0-.7653-.0023-1.4093-.0023-.6947-.0041-1.3107-.0064-1.856-.0087-3.712-.0158-5.8627-.0292-6.4573-.0314-.2454 0-.5694-.0023-.9654-.0046-.6893-.0022-1.04.2503-1.0426.7575-.0027.6187.4866.9313 1.4746.9381 1.6747.0064 2.68.0646 3.0267.181 1.032.2857 1.5453 1.0496 1.5413 2.2874.0014-.1118 0 .1966-.0026.929-.004.6769-.0067 1.2976-.0094 1.8606l-.0266 5.8323-.0307 6.7567-.02 4.8181c-.048 10.9315-.1507 17.1253-.304 18.5907-1.028 9.7413-5.2813 14.5973-12.764 14.5637-4.0867-.0179-7.156-1.3849-9.2133-4.1031-2.0547-2.7164-3.0667-7.798-3.036-15.2474l.1333-30.2975c.012-2.9865.0453-4.5969.0947-4.8227.052-.5626.3266-.9557.8173-1.1814.248-.1115.7173-.1628 1.4027-.161 1.676-.051 2.6626-.1001 2.956-.1584.296-.0536.4466-.2793.448-.6724.0026-.6232-.4174-.9334-1.252-.9357-.3467-.0023-.6414-.0045-.8854-.0045l-10.5626-.0492c-.6387-.0023-1.352-.0046-2.14-.0091-.8854-.0045-1.4547-.0064-1.7-.0064l-1.3267-.0068c-.692 0-1.036.2524-1.0387.7593-.0026.4535.42.737 1.2694.8556 1.5453.0064 2.468.0402 2.7653.096 1.0467.2348 1.6413.8554 1.7867 1.8739l-.148 34.0369c-.0307 7.132.9066 12.2586 2.8146 15.3767 2.884 4.6527 7.8934 6.9936 15.032 7.0269 5.956.0246 10.2867-1.8338 12.9867-5.5797 2.6987-3.7459 4.064-9.7452 4.1-17.9944l.14-31.7828c.0027-.9048.0533-1.5548.156-1.9501.2507-.7326.9893-1.097 2.2187-1.092.4466.002.788.0042 1.0346.0042.8374.0046 1.328.0068 1.476.0068.8867.0046 1.3307-.2212 1.3334-.6769.0026-.5049-.5667-.7616-1.704-.7684zm43.0666 49.0805c.0054-.3953.0054-.7906.0067-1.1882.0027-.3954.0053-.6502.0053-.7639l.008-2.1221c.0494-.8486-.2293-1.273-.844-1.2752-.52-.0023-.8066.3661-.856 1.0986-.16 3.1699-.664 5.6848-1.5093 7.55-.8467 1.863-2.4507 3.1272-4.816 3.795-2.368.6724-6.4307.9918-12.1867.9649-2.3653-.0068-4.212-.0445-5.5413-.1051l.2187-50.0786c.0106-2.4931.152-3.9762.4266-4.4543.272-.48 1.1214-.746 2.5507-.7971 1.4293-.049 2.276-.1186 2.5493-.201.272-.0851.4054-.2975.408-.6368.0027-.5651-.44-.8508-1.324-.8531l-.8133-.0045c-.8387-.0046-1.896.0332-3.176.1137-1.28.0783-2.1427.1183-2.5853.116-4.824-.0223-8.0494-.1205-9.6734-.2967l-.664-.0026c-.592-.0019-.884.2506-.8866.7597-.004.6232.4626.9359 1.3986.9404 2.26.0109 3.5787.1855 3.9467.5249.3667.3416.548 1.5614.5387 3.6522l-.208 47.7021c-.0067 1.7579-.1987 2.8143-.5667 3.1809-.372.3686-1.4947.6051-3.364.7102-1.332.105-1.9973.3598-2 .7529-.0013.5091.416.766 1.2507.7683l30.66.3885c1.4253.0069 2.7026.0669 3.8333.1879 1.128.1184 1.84.1761 2.1347.1784l.8133.0022c.1613-3.3905.2453-5.823.2507-7.2952zm42.9787-34.061c-.0467-.2571-.0693-.4695-.0667-.6392-.5186-6.223-.8186-10.9224-.9026-14.0923l-12.2587.2015c-3.7413.0422-6.5.0264-8.2707-.0338l-15.064-.3238-3.3213-.0136c-.316 4.244-.552 7.6682-.7107 10.2664l-.156 1.9517c-.052.6236-.076 1.2464-.0786 1.8675-.0094 1.1886.2853 1.7846.876 1.7892.54.0022.8906-.8467 1.0453-2.544.5653-5.6535 2.4013-9.1291 5.508-10.4179 1.184-.5027 4.2147-.7729 9.0867-.8063l-.2187 50.9164c-.0093 1.8698-.1387 3.0311-.3853 3.4824-.448.7371-1.436 1.0987-2.9614 1.0923-2.1173.0515-3.1733.3304-3.176.8353-.0026.4558.5627.6834 1.6934.6879 2.2173.0136 4.036-.0243 5.468-.1028 1.4253-.0779 2.9506-.1139 4.576-.1071 1.2293.0047 3.3213.0715 6.2746.1967.2974.0577.6387.0891 1.0347.0891.7853.0045 1.184-.232 1.184-.7124.0013-.4312-.2907-.6724-.8827-.726-2.2653-.067-3.6426-.2458-4.132-.5315-.9346-.5117-1.396-1.7892-1.388-3.8309l.2267-51.2606c.488-.031 1.8933-.0846 4.208-.1497.936-.0536 2.164.0941 3.6893.4404 2.3614.52 4.0547 1.7173 5.08 3.5893.7814 1.4163 1.34 3.145 1.6774 5.1822.0933 1.0186.1853 2.0372.2813 3.0576.2413 1.4721.6547 2.2092 1.2467 2.2118.5893.0019.8866-.3644.888-1.099.0026-.0538-.0214-.2124-.0707-.4668zm48.0573-14.4344-1.112-.0042c-.3013 0-.7706-.0022-1.412-.0068-.6946-.0022-1.3133-.0045-1.856-.0068-3.7106-.0156-5.864-.0246-6.4573-.0269-.248 0-.572-.0023-.9653-.0041-.6947-.0023-1.0387.248-1.0414.757-.0013.6164.4854.9316 1.4694.9336 1.6733.0068 2.6826.0695 3.028.1855 1.0333.2816 1.548 1.0455 1.5426 2.2852 0-.1119 0 .1965-.0066.9289-.0014.6792-.004 1.2979-.0067 1.8584l-.0267 5.8323-.0293 6.7612-.0173 4.8159c-.052 10.9314-.152 17.1257-.3067 18.591-1.0267 9.7432-5.28 14.5947-12.7653 14.5656-4.0854-.0201-7.156-1.3872-9.2107-4.103-2.0573-2.7187-3.0693-7.798-3.0347-15.2475l.1307-30.2993c.0133-2.9888.044-4.5947.096-4.8227.0507-.5628.3227-.9584.8173-1.1796.2454-.1137.712-.1673 1.4027-.1651 1.6733-.0492 2.66-.0982 2.9573-.1565.2934-.0513.4427-.2789.444-.6743.0027-.6209-.4146-.9338-1.252-.9384-.344 0-.64-.002-.8853-.002l-10.56-.0472c-.6413-.0018-1.3547-.0064-2.1427-.0086-.8853-.0046-1.452-.0068-1.6973-.0068l-1.3293-.0064c-.6907-.0027-1.0347.252-1.036.7593-.0027.4531.42.7369 1.2666.8529 1.5467.0091 2.468.0406 2.7694.0983 1.0426.2303 1.6386.858 1.784 1.8765l-.1494 34.0343c-.0306 7.1301.9067 12.2563 2.8147 15.3789 2.884 4.6527 7.8933 6.9936 15.032 7.0228 5.9573.0268 10.2867-1.8316 12.9867-5.5797 2.7013-3.7459 4.0653-9.7433 4.104-17.9899l.136-31.7854c.004-.9026.0586-1.5522.156-1.9499.2506-.7328.9893-1.0945 2.2226-1.09.44.002.784.0043 1.032.0043.836.0045 1.3294.0068 1.4787.0068.8853.0045 1.3293-.2235 1.332-.6788.0013-.5074-.568-.762-1.7027-.7688zm44.2227 54.4328c-1.084-.0046-1.6267.5873-1.6333 1.7756 0 .3953.12.907.364 1.5325.0493.0533.072.1135.072.1675 0 .3393-.3707.5068-1.1107.5068-2.3587-.011-3.7293-2.343-4.1027-6.9982-.6053-8.2333-1.872-13.9268-3.804-17.0853-1.9306-3.1563-5.4773-5.2559-10.6413-6.3012-.4933-.0023-.74-.1161-.7373-.3417.0493-.116.2946-.1966.7386-.2548 4.7294-.4308 8.476-1.9275 11.2467-4.4896 2.7653-2.5642 4.1573-5.8255 4.176-9.7856.02-4.0184-1.312-7.208-3.9813-9.5671-2.676-2.3608-6.3014-3.5491-10.8774-3.5713-.7893-.0023-2.1693.0669-4.1373.212-1.7733.065-3.1507.0982-4.136.0937l-9.82-.2989c-.2947-.0583-.516-.0851-.6653-.0896-.7867-.0023-1.18.2793-1.1814.8466-.0053.5072.6094.7662 1.84.7707 2.1147.0668 3.384.3261 3.8.7796.4174.4555.6187 1.8157.612 4.0763l-.208 46.8537c-.0066 1.9252-.112 3.0285-.308 3.31-.2013.6233-1.4546.9563-3.7693 1.0032-1.4307.0491-2.144.2747-2.144.6677-.0013.5092.5347.7662 1.62.7707l2.8787.0133c.5413.0023 1.6733.0068 3.3973.0182 1.7747.0064 3.0267.0109 3.7667.0154 3.84.0132 5.9786.0246 6.424.0246l.8866.0045c.836.0045 1.2547-.2479 1.2574-.7575.0026-.453-.3147-.6788-.956-.681-1.8227-.0672-2.9547-.1296-3.3974-.1855-1.5746-.288-2.3586-1.0005-2.3533-2.1332l.1173-26.7372c3.8867.1297 6.6907.9517 8.4107 2.4548 1.7133 1.5077 2.7133 4.0744 2.992 7.6952.5147 6.0019.9027 9.7368 1.1693 11.2085.2627 1.4767.8614 3.0044 1.7907 4.5926 2.1493 3.6876 5.1413 5.5414 8.9813 5.555 3.4467.0156 5.1787-1.1658 5.1854-3.5425.0066-1.4097-.5814-2.1244-1.7627-2.1285zm-16.5187-30.5436c-2.1013 2.0281-5.5146 3.0021-10.2413 2.9261l.0947-21.5569c.0066-1.3024.308-2.2095.8973-2.7163.5947-.5049 1.7027-.7552 3.328-.7484 6.1027.0291 9.1387 4.0853 9.1027 12.178-.02 4.5857-1.0814 7.8895-3.1814 9.9175"/><path d="m2864.4006 5238.0844h.056c4.324 0 7.4934-.9427 9.4254-2.8034 2.0013-1.9344 3.0266-5.1644 3.0453-9.6004.016-3.9265-.7107-6.9017-2.16-8.8429-1.4427-1.928-3.5693-2.8724-6.5-2.8837-1.8493-.0068-2.6853.3438-3.036.6409-.4853.4157-.7333 1.2152-.7387 2.3765zm.0507.8934c-.1693 0-.336-.0022-.5067-.0045l-.44-.0064.0947-21.9996c.008-1.4343.3613-2.4593 1.0533-3.0535.6774-.5741 1.8414-.8533 3.5547-.8533h.064c3.1853.0132 5.6107 1.1036 7.2107 3.2432 1.5706 2.0976 2.356 5.2557 2.3386 9.3815-.02 4.6862-1.1373 8.1328-3.3146 10.2392h-.0027c-2.1067 2.0257-5.4853 3.0534-10.052 3.0534zm-244.804-27.8072c-.8107 0-.8107.2348-.8107.3152-.0013.3996.7427.4868 1.368.4891 2.948.0156 4.4694.7661 4.5227 2.2315l-.2027 47.2958c-.0213 5.0303-.1973 5.3696-.2933 5.553-.3533.9357-1.4533 1.4453-3.344 1.4985-2.108.056-2.3027.4313-2.3027.4336 0 .0827-.0026.2769.664.2815l17.1987.0714c.3413-.0358.496-.0805.5333-.1186.0147-.0132.056-.0534.056-.192.0027-.1564-.0266-.2726-.0773-.3239-.0493-.0492-.152-.076-.2947-.076-3.3693-.0155-4.2986-.4936-4.7026-.8508-.6614-.5855-.9654-1.8629-.956-4.0229l.204-46.6995c.0133-2.9797.2813-3.7436.5133-4.0743.3747-.5296 1.3173-.8016 2.964-.8553 1.916-.0651 2.388-.152 2.5-.1833.0547-.0178.0973-.0314.0973-.2056.0027-.1807-.0493-.2544-.0906-.2971-.0734-.076-.324-.1965-.896-.1988-.5347 0-1.0654.0268-1.5774.076-1.068.1119-3.5.1541-7.4426.1409-3.704-.0181-5.8987-.0828-6.7094-.2056-.38-.0513-.7-.1096-.9213-.0828zm11.8707 27.3291.4.5272c20.132 26.688 20.1293 27.5369 20.1266 27.9432-.0026.9831-1.312 1.5591-4.2453 1.8675-1.2907.1073-1.452.364-1.4547.3662.0067.0046.1414.1811.9614.1856l19.0506.0847h.008c.5814 0 .5814-.1829.5814-.3149-.0067 0-.2174-.286-1.7294-.4154-1.876-.125-3.12-.4357-3.8106-.9472-.66-.4913-1.7867-1.8605-3.4414-4.1902-7.632-10.8311-13.5813-18.821-17.68-23.7438-2.144-2.6562-3.384-4.2085-3.6893-4.6284l-.2013-.2748 1.1586-1.4653 2.004-2.1668c6.6787-7.8199 11.472-13.4756 14.6414-17.2751.704-.833 1.428-1.3557 2.156-1.5522.696-.1856 2.1706-.2435 4.5013-.1743.5267-.0155.8453-.0919.9867-.172.132-.076.1826-.1609.1826-.3107.0027-.1765-.0266-.3302-.3906-.4153-.076-.0177-.5067-.076-2.852-.0851l-4.0614-.02c-4.064-.0154-6.464 0-7.1253.0536-.104.0091-.6253.0606-.6253.2326-.0027.0736.0226.1114.06.1473.096.096.472.308 1.6893.268 1.932-.0515 3.0707.1852 3.5933.6992.2214.2165.336.4891.336.7861-.0026.3576-.004.8467-14.4386 17.3647zm34.8453 31.8679h-.012l-19.048-.0824c-.5387-.0046-.9453-.0715-1.24-.2079-.532-.2457-.608-.6656-.608-.8912.0067-1.05 1.644-1.186 2.2587-1.2375 3.3946-.3576 3.436-.9762 3.436-.9808-.1734-.6341-3.664-5.7985-19.1494-26.3437l-.1013 23.1364c-.0107 2.3989.4053 3.1268.6533 3.3483.2587.2257 1.1387.612 4.116.6252.3907.0022.7014.1186.924.3442.228.2276.34.5515.3374.9582-.0014.4176-.176.6769-.3187.8197-.2547.2548-.6307.3617-1.1707.3776l-17.1946-.0713c-1.4067-.0092-1.5574-.829-1.5547-1.1796.004-1.0992 1.6973-1.2822 3.172-1.3203 1.0067-.0313 2.2693-.2233 2.5533-.9736.0574-.1477.1987-.8621.2134-5.1912l.2066-47.2781c-.0426-1.0964-2-1.3398-3.6373-1.3488-1.8693-.0068-2.26-.7594-2.2573-1.3895.0013-.4512.228-1.2037 1.7106-1.2037h.0107c.2667.0018.6107.031 1.0347.0933.7586.1119 2.9746.1788 6.584.1924 3.8533.0223 6.3293-.0245 7.3466-.1319.5787-.056 1.164-.0846 1.768-.0801.6587.0019 1.1294.1539 1.4334.4645.232.232.3533.5536.3506.9244 0 .5295-.268.9162-.7346 1.0568-.212.0647-.724.1562-2.728.2211-1.8774.0624-2.2147.4112-2.264.4804-.0787.1115-.34.7011-.3507 3.5625l-.0853 19.5156 5.5213-6.2902c11.2573-12.8836 13.9653-16.2966 14.2227-16.8598-.0134.0202-.032-.0222-.0747-.0668-.152-.1474-.7507-.5001-2.944-.4445-1.192.0313-1.9267-.1205-2.336-.5159-.216-.2124-.3333-.4872-.3307-.7929.0027-.3776.192-1.0187 1.4454-1.1215.7013-.0536 3.06-.0736 7.204-.0558l4.06.0204c2.6266.0109 2.9373.0824 3.0546.1092.6987.1652 1.0827.6209 1.0787 1.2888-.0027.4668-.228.8534-.6373 1.0836-.344.1965-.8014.2634-1.4427.288-2.7627-.0806-3.8373.0336-4.2533.1406-.5454.1496-1.1214.5763-1.704 1.2666-3.1694 3.7994-7.9654 9.4574-14.6547 17.2954l-1.9947 2.1532-.7133.9026c.396.5113 1.3333 1.6882 3.4573 4.3177 4.1107 4.9383 10.072 12.946 17.716 23.7928 1.9654 2.7652 2.852 3.6945 3.2454 3.9893.3706.2748 1.256.6343 3.3466.7775h.0067c1.188.1001 2.548.3395 2.548 1.3065-.0013.364-.148 1.2062-1.476 1.2062zm112.38-.6588h.3707c1.1933.0045 3.2506.0692 6.2933.1988.344.0601.6547.0869 1.016.0869h.02c.4933 0 .6453-.1092.6787-.1448.0133-.0113.0386-.0359.0386-.1209 0-.0892 0-.237-.4786-.2816-3.112-.087-3.9534-.3772-4.3134-.5896-1.092-.5964-1.6186-1.9812-1.6106-4.2195l.224-51.6736.416-.0292c.5213-.0377 1.9853-.0869 4.2293-.1496.9587-.056 2.216.0896 3.8027.4512 2.4773.5428 4.2866 1.8248 5.3693 3.8083.8013 1.4521 1.3827 3.2454 1.7267 5.3253l.2853 3.0891c.2173 1.3224.556 1.805.804 1.805h.0053c.2227 0 .288-.0762.3107-.1073.0773-.0983.124-.2925.124-.5449-.0013-.0606-.0267-.1879-.0613-.3822v-.0041c-.0574-.2907-.0814-.5319-.0814-.7243-.484-5.863-.784-10.4601-.884-13.6342l-11.8186.1942c-3.7014.0406-6.4907.0292-8.2934-.0332l-17.9546-.3352c-.3014 4.0498-.5254 7.3334-.6814 9.846l-.156 1.959c-.0493.6141-.076 1.2218-.0786 1.8338-.0014.4022.0346 1.336.4333 1.3379.0027 0 .4133-.1228.5987-2.1353.5813-5.81 2.5266-9.4395 5.7826-10.7887 1.2467-.5315 4.2787-.8063 9.252-.844l.452-.0023v.4532l-.2213 50.9167c-.0133 2.6176-.2573 3.3637-.44 3.6967-.5387.8912-1.7 1.3312-3.3533 1.3225-2.344.0555-2.704.3976-2.74.4376.0226.0177.216.1897 1.2613.1943 2.172.0177 4.0013-.0246 5.4387-.1028 1.328-.0715 2.748-.1092 4.2333-.1092zm7.7013 1.1796c-.464-.0068-.8053-.0314-1.1426-.0987-2.9627-.1183-5.0107-.1833-6.1894-.1875-1.6133-.0154-3.1373.0291-4.5546.107-1.4547.0782-3.308.1164-5.4907.105-.6307-.0045-1.1013-.0713-1.4387-.2097-.6133-.246-.704-.6856-.704-.9293.0054-.849 1.0534-1.2198 3.6187-1.2775h.0387c1.3426 0 2.196-.2971 2.548-.878.1093-.1988.3066-.9091.3173-3.2545l.2213-50.4632c-4.5253.0446-7.3733.3038-8.4626.7665-2.9334 1.2147-4.6934 4.5967-5.2387 10.0512-.1253 1.3716-.408 2.9461-1.488 2.9461h-.004c-.6093-.0064-1.3307-.3972-1.3253-2.2358.0026-.6256.032-1.2666.0853-1.9031l.1573-1.9521c.156-2.5912.3947-6.0178.7094-10.2614l.032-.4157 3.736.0136 15.0733.3239c1.7933.0624 4.5707.0782 8.256.0336l12.6973-.2079.012.4423c.0854 3.1653.3867 7.9002.8974 14.0677 0 .1875.0253.3727.0653.5941.0693.3618.08.4823.076.5651 0 .4535-.108.8265-.3213 1.09-.1614.2011-.4667.4376-1.0054.4376h-.0093c-1.2667-.0045-1.5813-1.9475-1.684-2.5844l-.2867-3.0889c-.3226-1.9476-.8706-3.6432-1.6253-5.0102-.9667-1.7712-2.5333-2.8725-4.7827-3.3684-1.4826-.3329-2.676-.4736-3.5693-.4289-1.7733.0491-3.0827.0937-3.7907.1273l-.2213 50.8384c-.008 1.8539.38 3.0112 1.156 3.4375.2493.1479 1.0787.3935 3.9307.4736 1.1946.1141 1.316.8603 1.316 1.1773 0 .2971-.104.5583-.3027.7552-.272.2703-.7.4022-1.3067.4022zm-68.816-59.3756c-.432 0-.4346.1473-.4346.317 0 .1675.052.2388.092.2816.076.0756.2906.2075.8626.2098 3.16.0113 3.9307.3485 4.248.6433.3267.3016.6947 1.0295.6854 3.9824l-.212 47.7003c-.0067 1.9476-.2227 3.0266-.7014 3.498-.3093.3102-1.0106.6856-3.6466.8353-1.388.1137-1.5867.3575-1.596.3661.016.0492.048.0828.0653.0987.0373.0379.2053.1652.7573.1652l30.6614.3885c1.4786.0091 2.7453.0715 3.876.192 1.112.1142 1.8133.1743 2.0906.1743l.3814.0023c.152-3.1651.2306-5.4679.2333-6.8486l.0307-7.3866c.0333-.5206-.076-.6947-.1227-.7439-.0227-.0223-.1093-.0647-.2853-.0847-.128 0-.3507.0178-.3934.6788-.164 3.2032-.6866 5.7967-1.5506 7.7066-.9 1.9789-2.616 3.3414-5.1014 4.0429-2.3946.6788-6.5226.9895-12.312.9827-2.4173-.0114-4.236-.047-5.56-.1096l-.4266-.02.0026-.4268.2187-50.0787c.016-3.4175.268-4.2932.484-4.6753.3667-.6387 1.2933-.965 2.924-1.0186 1.8813-.0669 2.328-.1497 2.4333-.1833.044-.0132.0907-.0288.0934-.212 0-.1271-.0374-.1829-.0694-.2167-.0586-.0558-.248-.1852-.8106-.1874l-.8134-.0023c-.8133-.0132-1.876.0333-3.1466.1116-1.3427.0804-2.1627.1341-2.6134.1183-4.8973-.0243-8.076-.1228-9.7213-.3012h-.6173zm37.9814 59.7505-1.2387-.0045c-.3107-.0023-1.0227-.0602-2.1773-.1811-1.1014-.116-2.3414-.1761-3.7907-.1852l-30.6613-.3885c-.6454-.0023-1.0987-.1406-1.3854-.429-.2026-.2056-.3106-.4758-.308-.7861.004-.8912 1.2907-1.1105 2.4107-1.1997 2.392-.1342 2.9507-.4512 3.0827-.5786.1-.1002.4266-.5984.4333-2.868l.212-47.6998c.0107-2.8011-.328-3.2614-.3987-3.3238-.068-.0649-.58-.3934-3.644-.4044-.6933-.0045-1.1826-.1586-1.4946-.4758-.2307-.2324-.3534-.5495-.3507-.9158.004-.7525.5027-1.2041 1.3307-1.2041h.0093l.6627.0023c1.6373.1765 4.8773.277 9.6746.2997.4267-.0091 1.2507-.0383 2.5534-.1164 1.2906-.0805 2.3546-.1139 3.2066-.1161l.8134.0045c.668.0023 1.1386.1493 1.4386.4509.2187.2192.3307.514.3307.8512-.004.5318-.268.918-.7213 1.0632-.2187.065-.7147.1496-2.6654.2192-1.708.06-2.0946.4176-2.18.5692-.1306.2324-.3546 1.0878-.368 4.2376l-.2186 49.6479c1.268.0513 2.9413.0779 5.0946.0869 5.656.0359 9.748-.2925 12.0667-.9472 2.2507-.6364 3.732-1.7978 4.528-3.5512.8213-1.8074 1.3133-4.2913 1.4733-7.3893.092-1.3712.932-1.5232 1.296-1.5232h.004c.4787.0023.764.2011.9227.3685.284.3039.4027.7571.3667 1.3848l-.0334 7.3576c-.0053 1.479-.088 3.871-.2533 7.3176zm-87.46-59.8803c-.576 0-.5787.1807-.5787.3127-.0027.2679.6773.382.8827.4108 2.0573.0068 2.58.0604 2.7893.1009 1.236.2744 1.9733 1.0519 2.1453 2.2515l-.144 34.0992c-.0306 7.0137.892 12.1067 2.7454 15.1443 2.784 4.485 7.716 6.7789 14.6573 6.808h.1253c5.712 0 9.9147-1.8134 12.4934-5.3919 2.6306-3.6521 3.984-9.6181 4.0173-17.7332l.1413-31.7851c.004-.9538.0587-1.6281.172-2.0594.3187-.9562 1.2014-1.4275 2.6294-1.4275h.02l2.5106.0136c.4894-.0227.688-.0651.7974-.1187.0893-.0465.0893-.0737.0893-.116 0-.1474-.3933-.3126-1.26-.3172l-11.8-.0513c-.356.0023-.4627.0627-.516.1005-.0267.02-.076.0559-.076.212-.0027.1811.06.2571.156.3175.1187.0779.364.1675.8693.1697 2.292.0064 2.896.1138 3.1694.2056.8333.2279 1.8493.8912 1.8426 2.7074v.0041h-.0066c.0066.0937.0066.1943.0066.2948l-.0866 19.9023c-.048 10.8778-.1507 17.1476-.3067 18.6376-1.0467 9.9265-5.4653 14.9612-13.136 14.9612h-.0733c-4.2134-.0178-7.432-1.4563-9.5667-4.2796-2.136-2.8214-3.1587-7.8962-3.1307-15.5176l.1374-30.2998c.0173-4.5365.076-4.7934.104-4.9186.056-.6655.4293-1.2015 1.0706-1.4895.3054-.1387.788-.2015 1.5854-.2015 2.04-.0624 2.6893-.1137 2.872-.1492.0506-.0205.0813-.0828.0813-.237.0027-.2143-.0693-.2948-.1293-.3416-.0894-.0674-.2787-.1452-.6747-.1452l-16.616-.0738zm22.6226 60.0231h-.1293c-7.2707-.0332-12.4547-2.468-15.412-7.2369-1.9413-3.181-2.9107-8.4344-2.88-15.6156l.1467-34.0347c-.1134-.7683-.5707-1.2464-1.4374-1.4384-.172-.0311-.7866-.076-2.6693-.0847-1.4293-.1946-1.716-.8152-1.7133-1.3046.0026-.3618.1493-1.2039 1.4746-1.2039h.0107l16.616.0737c.5187.0023.9133.1074 1.204.3262.2253.1674.4933.489.492 1.0586-.0053.8735-.572 1.07-.8133 1.1147-.1987.0359-.7347.096-3.0227.1609-.8933-.0472-1.1493.0847-1.2307.1251-.3506.1561-.52.4064-.5573.8153-.032.1898-.076.9827-.092 4.7823l-.1347 30.2996c-.0306 7.3131.9614 12.3523 2.9467 14.9745 1.956 2.5867 4.9387 3.9092 8.8587 3.9247.024.0023.0466.0023.072.0023 7.232 0 11.24-4.6348 12.2466-14.1638.152-1.4585.252-7.6974.2974-18.5484l.0893-20.1966h-.0027c.0094-1.3607-.6853-1.7088-1.2106-1.8543-.1894-.0624-.784-.1584-2.9107-.1652-.5827-.0045-1.0227-.1051-1.344-.3084-.3773-.2388-.5747-.6119-.572-1.0764.0027-.5027.2453-.7843.4467-.9293.252-.1834.5893-.2726 1.0293-.2726h.016l11.8.0491c1.4293.0091 2.152.42 2.1493 1.2175-.0026.3976-.208.7192-.5786.907-.288.1494-.6627.2635-1.204.2166l-2.512-.0136h-.0187c-1.5053 0-1.7067.5945-1.7707.7906-.0826.3194-.132.9408-.1346 1.8071l-.1387 31.7853c-.0373 8.3048-1.4467 14.4451-4.188 18.2514-2.756 3.8261-7.2027 5.7649-13.2187 5.7649zm111.4787-59.4403c-.5773 0-.5787.1811-.5787.315-.0026.2682.6734.3821.8814.4112 2.292.0068 2.668.0782 2.7906.1028 1.2347.2702 1.972 1.0473 2.1467 2.2469l-.148 34.1037c-.0307 7.0138.896 12.1067 2.7493 15.1402 2.7814 4.487 7.7134 6.7789 14.6534 6.8102.0426.0023.0826.0023.1253.0023 5.7107 0 9.916-1.8137 12.4947-5.3945 2.6293-3.6495 3.9826-9.6182 4.016-17.7332l.1413-31.7851c.004-.9535.06-1.6259.1707-2.0572.328-.9603 1.2066-1.4271 2.6306-1.4271h.024l2.5094.0087c.488-.02.6866-.0624.796-.116.0906-.0469.0906-.0737.0906-.1141 0-.1498-.3933-.3172-1.26-.3214l-11.8013-.0494h-.008c-.5827 0-.5853.1788-.5853.3129 0 .1319-.0027.4804 1.0266.4845 2.2947.0114 2.9.116 3.1694.2079.756.2079 1.664.7729 1.8213 2.2428h.0227v.4353.0334l-.088 20.1993c-.0507 11.0524-.152 17.148-.3054 18.6357-1.048 9.9284-5.468 14.9631-13.1386 14.9631h-.0734c-4.2133-.02-7.4293-1.4585-9.5666-4.2819-2.1387-2.8232-3.1587-7.898-3.128-15.5172l.1346-30.3c.02-4.5344.0774-4.7909.1067-4.9184.0533-.6633.4267-1.1973 1.068-1.4898.3107-.1387.764-.1879 1.588-.2034 2.0413-.0581 2.6893-.1137 2.8707-.1473.0306-.0068.084-.0156.084-.2389.0026-.1811.0026-.4827-.808-.4872l-16.6147-.0738zm22.62 60.0235h-.1293c-7.2707-.0313-12.4547-2.4661-15.4107-7.2348-1.9427-3.1808-2.912-8.4321-2.8813-15.6136l.1493-34.0365c-.1133-.7683-.572-1.2464-1.436-1.4362-.1453-.0292-.6987-.0805-2.6733-.0873-1.428-.1943-1.7134-.8152-1.7107-1.3043.0013-.3617.1493-1.2042 1.4733-1.2042h.012l16.612.0714c1.5387.0091 1.7014.974 1.6987 1.3875-.004.8731-.5707 1.07-.8133 1.1123-.2134.0424-.752.096-3.0214.1652-.884-.0178-1.148.085-1.2333.1205-.348.1611-.52.4109-.556.8176-.0333.1897-.0773.9872-.0933 4.7823l-.132 30.2996c-.0334 7.313.9586 12.3504 2.944 14.9749 1.9586 2.5885 4.9413 3.9088 8.8586 3.9265 7.2747.02 11.312-4.6034 12.3214-14.1637.1493-1.4359.2493-7.6771.2973-18.5461l.088-20.2236c-.0013-1.3402-.692-1.6864-1.2093-1.827-.192-.0628-.7867-.1588-2.9134-.1678-1.6706-.0068-1.9186-.8708-1.9186-1.3826.0026-.3662.152-1.206 1.4826-1.206h.0094l11.8026.0514c1.4294.0086 2.1507.4176 2.1494 1.2193-.0027.3957-.208.7169-.5787.9071-.2867.1428-.6707.2142-1.1773.2142h-.0267l-2.5107-.0109h-.02c-1.5053 0-1.7093.5937-1.7733.7884-.0813.3216-.132.9381-.1347 1.8069l-.1386 31.7851c-.0374 8.3048-1.4454 14.4455-4.188 18.2492-2.756 3.8263-7.204 5.7652-13.2187 5.7652zm38.6293-32.1403.46.0155c3.9734.1319 6.8974.9963 8.6867 2.5644 1.7973 1.5813 2.8573 4.2708 3.1427 7.9967.512 5.9637.9053 9.7229 1.1653 11.1636.2533 1.414.836 2.9084 1.736 4.4452 2.0813 3.5761 4.8947 5.3208 8.6 5.334 1.6147.0245 2.844-.259 3.6253-.7952.744-.5072 1.1054-1.2598 1.108-2.3007.004-.6455-.1253-1.1059-.3893-1.3693-.2027-.2079-.5093-.3107-.9267-.3126h-.0093c-.8307 0-1.1693.3863-1.1747 1.3312 0 .3307.108.7839.3134 1.3111.08.1205.1226.2525.1226.3885 0 .2256-.0853.4267-.2413.5855-.2507.2503-.6653.3663-1.3027.3663h-.0146c-2.6254-.0132-4.1534-2.5063-4.5467-7.4114-.5987-8.1241-1.856-13.8042-3.7413-16.8842-1.8534-3.0335-5.3334-5.0839-10.348-6.0956-.4067-.0114-.6974-.0896-.8934-.2884-.1346-.1342-.204-.3062-.2013-.4982l.0373-.1742c.144-.3348.5414-.449 1.0934-.5182 4.6186-.4221 8.316-1.8942 10.996-4.3778 2.6586-2.4594 4.016-5.6424 4.0346-9.4575.0147-3.8643-1.2733-6.9691-3.832-9.2319-2.58-2.276-6.14-3.4374-10.5826-3.4552h-.036c-.7947 0-2.1614.0691-4.0654.2075-1.7706.0668-3.1666.0915-4.172.096l-9.8306-.2993c-.3387-.0579-.5227-.1139-.668-.087-.7187 0-.7214.2479-.7214.3999 0 .0869.2507.3171 1.3987.3216 3.02.0937 3.7987.5719 4.1253.9225.32.3531.7414 1.1884.728 4.3824l-.2053 46.8556c-.0093 2.4794-.176 3.1986-.3507 3.5026-.3173.8152-1.608 1.2018-4.168 1.2532-1.3493.0469-1.6666.248-1.72.2925.0134 0 .0387.0401.1627.1005.1453.0692.44.1498 1.0293.152l6.724.0314c1.5374.0041 2.6454.009 3.3187.0132l7.312.0314h.0173c.424 0 .6147-.0737.6907-.1206.064-.0404.1-.0806.1-.192 0-.0964-.0267-.121-.0333-.13-.0494-.0511-.1987-.1024-.4787-.1024-1.8267-.0651-2.9813-.1296-3.452-.1902-2.2787-.4176-2.748-1.6328-2.744-2.5776zm23.8534 32.4151h-.0667c-3.992-.0159-7.144-1.9589-9.3693-5.7785-.9507-1.6283-1.5694-3.221-1.84-4.7376-.2707-1.4876-.6547-5.169-1.1787-11.2514-.268-3.4865-1.224-5.9724-2.8413-7.3953-1.564-1.3693-4.144-2.1532-7.6694-2.3252l-.116 26.2723c-.0013.5673.2014 1.3648 1.988 1.6886.2814.0379 1.1107.1006 3.3307.1788.4893.0023.8533.1228 1.0973.3708.1334.1342.292.375.292.7615-.0026.4091-.192.7461-.5333.954-.28.1675-.6547.248-1.1507.248h-.0226l-7.3107-.0292c-.6747-.0045-1.7827-.0091-3.316-.0159l-6.7267-.0313c-.6133-.0019-1.0746-.0801-1.4093-.2365-.424-.2035-.6587-.5519-.6587-.9828 0-.898 1.3027-1.0654 2.5774-1.1123 3.0693-.0604 3.34-.6277 3.3626-.6924l.0574-.1187c.036-.0578.2186-.509.228-3.0553l.2026-46.856c.0134-2.9037-.3386-3.6053-.4906-3.7727-.1494-.1606-.7907-.5518-3.4827-.6324-1.5093-.0086-2.2787-.4194-2.276-1.2214 0-.389.1627-1.2888 1.6213-1.2888h.0094c.1746.0022.42.0313.7533.0982l9.7453.286c.9774.002 2.3627-.0249 4.1054-.094 1.9386-.1406 3.3013-.2257 4.1546-.2076 4.6654.0202 8.4254 1.2575 11.1707 3.6787 2.7627 2.4416 4.152 5.7721 4.1347 9.9065-.0214 4.072-1.472 7.4736-4.3227 10.1095-2.6507 2.4571-6.2227 3.9737-10.6213 4.5165 4.8546 1.1304 8.2226 3.25 10.0946 6.3122 1.96 3.2013 3.2614 9.0176 3.8707 17.2845.348 4.3579 1.5813 6.5735 3.6587 6.5825.3333-.0269.532-.0378.6186-.0714-.2613-.6611-.3933-1.2284-.3933-1.6864.0093-1.4318.744-2.2224 2.068-2.2224h.0147c.656.0045 1.1813.1988 1.5586.5782.4334.438.652 1.1123.648 1.9994-.0053 1.3402-.5093 2.3606-1.4973 3.0376-.924.6301-2.296.9517-4.0693.9517"/></g></g></svg>