<svg enable-background="new 0 0 122.88 122.88" viewBox="0 0 122.88 122.88" xmlns="http://www.w3.org/2000/svg"><path d="m81.61 4.73c0-2.61 2.58-4.73 5.77-4.73s5.77 2.12 5.77 4.73v20.72c0 2.61-2.58 4.73-5.77 4.73s-5.77-2.12-5.77-4.73zm-15.5 99.08c-.34 0-.61-1.43-.61-3.2s.27-3.2.61-3.2h15.79c.34 0 .61 1.43.61 3.2s-.27 3.2-.61 3.2zm-50.26-36.72c-.34 0-.61-1.43-.61-3.2s.27-3.2.61-3.2h15.79c.34 0 .61 1.43.61 3.2s-.27 3.2-.61 3.2zm25.13 0c-.34 0-.61-1.43-.61-3.2s.27-3.2.61-3.2h15.79c.34 0 .61 1.43.61 3.2s-.27 3.2-.61 3.2zm25.13 0c-.34 0-.61-1.43-.61-3.2s.27-3.2.61-3.2h15.79c.34 0 .61 1.43.61 3.2s-.27 3.2-.61 3.2zm25.14 0c-.34 0-.61-1.43-.61-3.2s.27-3.2.61-3.2h15.79c.34 0 .61 1.43.61 3.2s-.27 3.2-.61 3.2zm-75.4 18.36c-.34 0-.61-1.43-.61-3.2s.27-3.2.61-3.2h15.79c.34 0 .61 1.43.61 3.2s-.27 3.2-.61 3.2zm25.13 0c-.34 0-.61-1.43-.61-3.2s.27-3.2.61-3.2h15.79c.34 0 .61 1.43.61 3.2s-.27 3.2-.61 3.2zm25.13 0c-.34 0-.61-1.43-.61-3.2s.27-3.2.61-3.2h15.79c.34 0 .61 1.43.61 3.2s-.27 3.2-.61 3.2zm25.14 0c-.34 0-.61-1.43-.61-3.2s.27-3.2.61-3.2h15.79c.34 0 .61 1.43.61 3.2s-.27 3.2-.61 3.2zm-75.4 18.36c-.34 0-.61-1.43-.61-3.2s.27-3.2.61-3.2h15.79c.34 0 .61 1.43.61 3.2s-.27 3.2-.61 3.2zm25.13 0c-.34 0-.61-1.43-.61-3.2s.27-3.2.61-3.2h15.79c.34 0 .61 1.43.61 3.2s-.27 3.2-.61 3.2zm-11.37-99.08c0-2.61 2.58-4.73 5.77-4.73s5.77 2.12 5.77 4.73v20.72c0 2.61-2.58 4.73-5.77 4.73s-5.77-2.12-5.77-4.73zm-23.21 40.59h110.07v-23.85c0-.8-.33-1.53-.86-2.07-.53-.53-1.26-.86-2.07-.86h-10.54c-1.77 0-3.2-1.43-3.2-3.2s1.43-3.2 3.2-3.2h10.55c2.57 0 4.9 1.05 6.59 2.74s2.74 4.02 2.74 6.59v27.06 65.03c0 2.57-1.05 4.9-2.74 6.59s-4.02 2.74-6.59 2.74h-104.22c-2.57 0-4.9-1.05-6.59-2.74-1.69-1.7-2.74-4.03-2.74-6.6v-65.03-27.05c0-2.57 1.05-4.9 2.74-6.59s4.02-2.74 6.59-2.74h11.27c1.77 0 3.2 1.43 3.2 3.2s-1.43 3.2-3.2 3.2h-11.27c-.8 0-1.53.33-2.07.86-.53.53-.86 1.26-.86 2.07zm110.08 6.41h-110.08v61.82c0 .8.33 1.53.86 2.07.53.53 1.26.86 2.07.86h104.22c.8 0 1.53-.33 2.07-.86.53-.53.86-1.26.86-2.07zm-66.05-33.19c-1.77 0-3.2-1.43-3.2-3.2s1.43-3.2 3.2-3.2h21.49c1.77 0 3.2 1.43 3.2 3.2s-1.43 3.2-3.2 3.2z" fill="#fff"/></svg>