<svg height="150.237mm" viewBox="0 0 146.38901 150.237" width="146.38901mm" xmlns="http://www.w3.org/2000/svg"><path d="m4.41275 149.32354c.28529-.63229 6.64927-16.5721 14.1422-35.42179l13.6235-34.272175 3.01177-1.769888c5.43552-3.19423 11.83837-4.67399 16.49743-3.81271 7.01554 1.29689 12.994947 6.399778 23.465707 20.025871 7.647839 9.952502 11.817529 14.062842 16.724429 16.486402 3.74483 1.84959 3.86632 1.87347 9.446994 1.85664 6.23593-.01881 8.60935-.67341 13.67146-3.77064l2.61167-1.59794 14.38952-36.230583c7.91423-19.926821 14.39046-36.52702 14.39162-36.889324.00144-.451956-.80477-.206079-2.56831.783291-6.13663 3.442708-12.44971 4.932166-16.95645 4.000576-6.99579-1.446106-12.49662-6.105109-22.66027-19.192428-6.823225-8.785989-11.037514-13.361625-14.453704-15.69299-7.06819-4.82366099-15.671149-5.094684-24.252019-.764019-3.228087 1.629172-3.318777 1.648802-3.318777.718257 0-.577001-2.05109-1.433751-3.57334-1.492597-.34129-.013195-58.60618 145.804267-58.60618 146.671587 0 .18298.53033.4658 1.17852.62849.64819.16268 1.52435.42849 1.94703.59069.50629.19428.94549-.09735 1.2872-.85472zm90.097956-38.55254c-1.3426-.51015-3.8738-1.94991-5.6249-3.19946l-3.1838-2.27192.81955-2.06377c.45076-1.13507 1.72293-4.31768 2.82705-7.072482l2.0075-5.0087 2.915 2.19406c2.887829 2.17363 7.200904 4.151342 9.053394 4.151342.52846 0 .96084.25504.96084.56676s-1.1392 3.50638-2.53155 7.09924c-2.854665 7.36624-2.773335 7.3033-7.243084 5.60493zm10.264234-13.03074c0-.13717 1.21176-3.268912 2.69281-6.959422s2.69282-6.867453 2.69282-7.059893c0-.19243-1.26685-.71548-2.81522-1.16232-2.98159-.86047-5.11403-1.98725-8.026495-4.241188-.98124-.75937-1.89373-1.38068-2.02776-1.38068s-1.402309 2.919258-2.818399 6.487228c-1.41608 3.567983-2.78158 6.707563-3.03443 6.976843-.51766.5513-3.11515-2.17395-7.81639-8.200843-1.6279-2.08693-3.00649-3.794418-3.06354-3.794418s-1.27724 2.974328-2.71154 6.609631c-1.434299 3.6353-2.779299 6.60964-2.988899 6.60964s-1.4313-1.37701-2.71489-3.06002c-1.2836-1.68301-3.61908-4.410273-5.18996-6.060583l-2.85616-3.00057 2.39272-6.057078c1.316-3.33139 2.54476-6.48089 2.73058-6.99889.30288-.84425.56926-.71745 2.57159 1.22401 1.22854 1.1912 3.66259 3.98346 5.40901 6.20504 1.746419 2.22157 3.250309 4.03922 3.341989 4.03922.09167 0 1.42045-3.20625 2.95282-7.12499 1.53238-3.91874 2.84373-7.058318 2.91412-6.976834.07038.081479 1.88795 2.351364 4.03904 5.044174s4.563 5.5057 5.3598 6.25087l1.448729 1.35484 2.59286-6.74047c1.426075-3.70726 2.770945-6.933661 2.988615-7.169788.21851-.237035 1.35273.354846 2.53241 1.321501 2.37276 1.944297 6.63311 4.077647 9.07342 4.543477.87516.16706 1.59121.4523 1.59121.63387 0 .18158-1.21177 3.34964-2.69282 7.04015-1.48104 3.690498-2.69281 6.822238-2.69281 6.959418 0 .52491 4.81463.21702 7.4857-.47871 1.53747-.40046 4.33777-1.50483 6.22289-2.45417 1.88512-.94932 3.42749-1.657878 3.42749-1.574558 0 .08333-1.27024 3.335828-2.82277 7.227791l-2.82277 7.0763-3.66446 1.83099c-2.01545 1.00705-4.87623 2.14923-6.35727 2.538192-2.61924.68788-7.34404 1.02386-7.34404.52224zm-68.52133-26.985313c1.38215-3.46668 2.75476-6.595639 3.05024-6.95325.82426-.997558 4.63849-2.797246 8.36157-3.945271 3.79133-1.169077 8.89953-1.423323 8.49795-.422957-.13513.336603-1.40846 3.531259-2.82962 7.099238l-2.58395 6.48723h-3.04641c-3.28814 0-7.91626 1.27052-11.4728 3.14952-1.21177.6402-2.26774 1.10203-2.3466 1.02627-.07886-.07575.98746-2.97411 2.36962-6.44078zm80.49499-2.26597c-.12962-.33778.95778-3.587515 2.41645-7.221639 1.45867-3.634123 2.55007-6.772735 2.42535-6.974694-.12472-.201962-.53598-.367202-.91391-.367202-1.60727 0-6.30131-2.178913-9.04453-4.198356-2.92302-2.151808-2.96503-2.16509-3.38621-1.071052-1.80714 4.694084-5.13671 12.903891-5.31407 13.103048-.27884.31309-3.765205-3.581654-7.554674-8.439613-1.62534-2.083615-3.11447-3.689927-3.30919-3.569584-.19472.120346-1.51881 3.211288-2.94242 6.868766-1.42361 3.657484-2.74816 6.585723-2.94345 6.5072-.19529-.078518-2.12663-2.345976-4.29188-5.038789-2.16524-2.692812-4.504819-5.42382-5.199059-6.068901l-1.26226-1.172877-.45579 1.172877c-.25068.645081-1.47861 3.807791-2.72873 7.028243-1.25012 3.220453-2.35204 5.934453-2.4487 6.031123-.09666.09666-1.24393-.643777-2.54948-1.645421-2.50182-1.919457-6.962897-4.115882-8.385307-4.128534-2.35778-.020974-2.31302-.609299.60085-7.898662 1.54489-3.864698 2.85375-7.073686 2.90858-7.131085.05483-.057401 1.191047.184399 2.524927.537332 3.00404.79484 5.7617 2.189348 8.2454 4.169569 1.04683.834625 2.03827 1.515726 2.20321 1.513562.16493-.002164 1.49011-3.03158 2.944829-6.732035 1.45472-3.700454 2.72618-6.824514 2.82547-6.942362.32769-.388922 4.60514 4.065894 7.60995 7.925504 1.62473 2.08693 3.1109 3.794419 3.30258 3.794419.1917 0 1.52686-2.986527 2.96704-6.636729 1.440179-3.650197 2.749879-6.717922 2.910459-6.817162.16057-.09924 1.86788 1.840759 3.794035 4.311113 3.49556 4.483198 6.82511 8.040399 7.15153 7.640505.09487-.116237 1.34577-3.185671 2.77977-6.820969s2.66475-6.684579 2.73499-6.776177c.07024-.091599 1.30125.707334 2.73558 1.775407 3.36119 2.502905 4.46128 3.064867 7.82271 3.996052l2.76682.766466-2.64442 6.588689c-1.45443 3.623778-2.64442 6.897711-2.64442 7.275401 0 .55489.62109.620194 3.23558.340204 3.62258-.387945 7.04858-1.456058 10.85149-3.383137 1.40768-.713327 2.55941-1.109557 2.55941-.880518 0 1.391235-5.10772 13.228336-6.08383 14.09922-3.21599 2.869308-15.52669 6.263678-16.21468 4.470798zm-68.89993-26.85437 2.82519-7.048463 3.03414-1.604624c4.9992-2.643849 13.857147-4.501801 13.857147-2.90653 0 .346321-1.18988 3.596058-2.64418 7.221635l-2.644177 6.591964-3.20159.323893c-3.97786.402428-7.59606 1.482838-11.09416 3.312758-1.48104.774766-2.75238 1.352227-2.82518 1.283247-.0728-.068979 1.13896-3.297221 2.69281-7.17388zm27.109147-9.702708c-.96923-.486894-2.64353-1.152136-3.72065-1.478309-1.07713-.326178-2.21979-.674179-2.53925-.773337-.38519-.119558.32961-2.457135 2.12205-6.939645 1.48659-3.71765 2.8976-6.961619 3.13559-7.208819 1.00396-1.042848 7.052869 1.545822 11.627799 4.976193l1.46637 1.099513 2.68507-6.710775c1.47678-3.690922 2.91934-6.7888669 3.20568-6.8843099.48781-.162608 8.300904 8.8865939 9.846754 11.4046179.64983 1.058503.4988 1.671415-1.9266 7.818718-1.447445 3.668601-2.758485 6.748534-2.913435 6.844295-.15495.09576-1.923459-1.90137-3.930019-4.438076-3.69683-4.673529-6.71005-7.892587-7.02718-7.507222-.14385.174797-3.72077 9.045549-5.26939 13.068065-.4255 1.105233-.42804 1.104635-2.71323-.639686-1.25802-.960276-3.080329-2.144326-4.049559-2.631223zm-18.163927-12.515419c0-.130227 1.11197-3.049484 2.47105-6.487234 2.80118-7.085457 3.35002-7.716065 8.638027-9.924793 3.31825-1.385988 10.606019-2.92589999 11.171389-2.36052299.14249.142481-1.00399 3.48642599-2.547729 7.43098709l-2.80679 7.1719289-2.95494.006551c-3.08647.006839-9.780117 1.99771-12.041047 3.581328-1.15427.80848-1.92996 1.0423-1.92996.581755z" stroke-width=".264583"/></svg>