<?xml version="1.0" encoding="UTF-8" standalone="no"?>
<!-- Created with Inkscape (http://www.inkscape.org/) -->

<svg
   version="1.1"
   id="svg1"
   width="800"
   height="400"
   viewBox="0 0 800 400"
   sodipodi:docname="logo_w.svg"
   inkscape:version="1.3 (0e150ed, 2023-07-21)"
   xmlns:inkscape="http://www.inkscape.org/namespaces/inkscape"
   xmlns:sodipodi="http://sodipodi.sourceforge.net/DTD/sodipodi-0.dtd"
   xmlns:xlink="http://www.w3.org/1999/xlink"
   xmlns="http://www.w3.org/2000/svg"
   xmlns:svg="http://www.w3.org/2000/svg">
   <sodipodi:namedview
      id="namedview1"
      pagecolor="#ffffff"
      bordercolor="#666666"
      borderopacity="1.0"
      inkscape:showpageshadow="2"
      inkscape:pageopacity="0.0"
      inkscape:pagecheckerboard="true"
      inkscape:deskcolor="#d1d1d1"
      showgrid="false"
      inkscape:zoom="0.7625702"
      inkscape:cx="395.37344"
      inkscape:cy="247.84603"
      inkscape:window-width="1920"
      inkscape:window-height="1027"
      inkscape:window-x="0"
      inkscape:window-y="25"
      inkscape:window-maximized="0"
      inkscape:current-layer="layer-Pr12">
      <inkscape:page
         x="0"
         y="0"
         inkscape:label="1"
         id="page1"
         width="800"
         height="400"
         margin="0"
         bleed="0"
         inkscape:export-filename="logo_w.svg"
         inkscape:export-xdpi="96"
         inkscape:export-ydpi="96" />
   </sodipodi:namedview>
   <g
      id="layer-Pr12"
      inkscape:groupmode="layer"
      inkscape:label="Ebene 1">
      <path
         id="path1"
         d="M 55.177742,174.20773 C 55.177742,174.05148 55.177742,174.05148 55.021493,173.89523 C 54.880867,173.7546 54.880867,173.59835 54.724618,173.45773 C 54.568367,173.14523 54.271493,172.84835 53.818367,172.55148 C 53.365242,172.39523 52.927742,172.2546 52.474618,172.2546 H 75.458992 C 75.615241,172.2546 75.912117,172.2546 76.208992,172.2546 C 76.365241,172.2546 76.662117,172.2546 76.818367,172.39523 C 77.115241,172.39523 77.412117,172.39523 77.708992,172.55148 C 78.005867,172.70773 78.318367,172.70773 78.615241,172.70773 C 78.771492,172.84835 78.912117,172.84835 79.068367,172.84835 C 79.208992,173.0046 79.365241,173.0046 79.521492,173.0046 C 80.271492,173.45773 80.865241,174.05148 81.318367,175.09835 C 81.615241,176.16085 81.771492,177.05148 81.927741,178.11398 C 81.927741,178.41085 81.927741,178.70773 81.927741,178.86398 C 81.927741,179.16085 81.927741,179.45773 81.927741,179.61398 C 81.927741,179.7546 81.927741,179.7546 81.927741,179.91085 C 81.927741,180.0671 81.927741,180.20773 81.927741,180.36398 C 81.927741,180.66085 81.927741,180.95773 81.927741,181.27023 C 81.927741,181.70773 81.927741,182.02023 81.771492,182.16085 L 85.224617,175.55148 C 85.380867,175.2546 85.677741,174.95773 86.130867,174.5046 C 86.427741,174.20773 86.724617,173.89523 87.177741,173.7546 C 87.474617,173.59835 87.787117,173.45773 87.927741,173.30148 C 88.083992,173.14523 88.380866,173.14523 88.537117,173.0046 C 88.677741,173.0046 88.833992,173.0046 88.974617,172.84835 C 89.130866,172.70773 89.42774,172.70773 89.58399,172.55148 C 89.74024,172.55148 89.74024,172.55148 89.88087,172.55148 C 89.88087,172.55148 89.88087,172.55148 90.03712,172.55148 C 90.17774,172.39523 90.33399,172.39523 90.49024,172.2546 C 90.63087,172.2546 90.78712,172.2546 90.92774,172.2546 H 114.67774 L 111.36524,185.02023 C 111.36524,185.6296 111.22462,186.22335 111.06837,186.67648 C 110.77149,187.1296 110.47462,187.72335 110.16212,188.17648 C 110.02149,188.33273 110.02149,188.33273 109.86524,188.47335 C 109.70899,188.6296 109.70899,188.77023 109.56837,188.92648 C 109.41212,189.08273 109.41212,189.08273 109.27149,189.22335 C 109.11524,189.3796 109.11524,189.3796 108.95899,189.53585 C 108.66212,189.83273 108.36524,190.1296 107.91212,190.42648 C 107.45899,190.72335 106.86524,191.03585 106.41212,191.17648 C 105.95899,191.33273 105.66212,191.33273 105.36524,191.48898 C 104.91212,191.6296 104.61524,191.6296 104.30274,191.6296 H 87.021492 C 85.380867,191.6296 84.177741,191.78585 83.271492,191.92648 C 82.365241,192.08273 81.474617,192.53585 80.724617,192.98898 C 80.568367,193.1296 80.568367,193.1296 80.412117,193.28585 C 80.271492,193.4421 79.958992,193.4421 79.818367,193.58273 C 79.662117,193.73898 79.521492,193.73898 79.365241,193.8796 C 79.208992,194.03585 78.912117,194.33273 78.771492,194.48898 C 78.318367,194.9421 77.865241,195.39523 77.412117,196.14523 C 76.958992,196.89523 76.662117,197.78585 76.365241,198.84835 L 61.630867,261.9421 C 61.490242,262.2546 61.490242,262.55147 61.490242,262.70772 C 61.490242,262.84835 61.490242,263.14522 61.490242,263.30147 C 61.490242,263.7546 61.490242,264.20772 61.630867,264.66085 C 61.787118,265.09835 61.943367,265.41085 62.083992,265.70772 C 62.083992,265.84835 62.083992,265.84835 62.240242,266.0046 C 62.240242,266.16085 62.240242,266.16085 62.240242,266.16085 C 62.240242,266.30147 62.240242,266.30147 62.380867,266.30147 C 62.380867,266.45772 62.380867,266.45772 62.380867,266.61397 C 62.833992,267.36397 63.443367,267.95772 64.193367,268.41085 C 64.943367,268.86397 65.693367,269.16085 66.443367,269.16085 H 42.255868 C 40.896493,269.16085 39.849618,269.0046 38.943368,268.70772 C 37.896493,268.41085 37.302743,267.95772 36.990243,267.20772 C 36.693368,266.7546 36.396493,266.30147 36.240243,265.70772 C 36.099618,265.09835 35.943368,264.5046 35.787118,263.89522 C 35.787118,263.7546 35.787118,263.59835 35.787118,263.45772 C 35.787118,263.30147 35.787118,263.30147 35.787118,263.14522 L 55.177742,179.7546 C 55.318367,179.0046 55.630867,178.2546 55.771493,177.66085 C 55.927742,177.05148 55.927742,176.61398 55.927742,176.16085 C 55.927742,176.0046 55.927742,175.70773 55.927742,175.55148 C 55.771493,175.41085 55.771493,175.2546 55.771493,175.09835 C 55.630867,174.95773 55.630867,174.80148 55.474618,174.66085 C 55.318367,174.5046 55.318367,174.34835 55.177742,174.20773 Z M 127.60352,183.52023 L 129.24415,172.55148 H 177.32227 C 180.04101,172.55148 182.43164,172.84835 184.54101,173.30148 C 186.49415,173.7546 188.29101,174.95773 189.94727,176.61398 C 191.1504,177.80148 192.05664,179.3171 192.80664,180.95773 C 193.55664,182.61398 194.00977,184.42648 194.1504,186.0671 C 194.1504,186.22335 194.1504,186.52023 194.1504,186.67648 C 194.1504,186.8171 194.1504,187.1296 194.1504,187.27023 C 194.1504,188.02023 194.1504,188.92648 194.00977,189.67648 C 193.85352,190.42648 193.55664,191.33273 193.4004,192.08273 L 179.88477,254.73897 C 179.43164,256.08272 179.2754,257.4421 179.13477,258.64522 C 178.97852,259.84835 178.83789,260.89522 178.83789,261.9421 C 178.83789,263.0046 178.97852,264.05147 179.13477,264.80147 C 179.2754,265.55147 179.43164,266.30147 179.58789,266.7546 C 179.72852,266.91085 179.72852,266.91085 179.88477,266.91085 C 179.88477,267.05147 179.88477,267.05147 179.88477,267.20772 C 180.18164,267.66085 180.47852,267.95772 180.93164,268.2546 C 181.38477,268.5671 181.83789,268.70772 182.29101,268.86397 C 182.43164,269.0046 182.74415,269.0046 182.88477,269.0046 C 183.04101,269.16085 183.33789,269.16085 183.49415,269.16085 H 155.99415 C 155.8379,269.16085 155.54102,269.16085 155.4004,269.0046 C 155.0879,269.0046 154.79102,268.86397 154.49415,268.70772 C 154.3379,268.5671 154.04102,268.41085 153.88477,268.2546 C 153.5879,268.11397 153.29102,268.11397 153.13477,267.95772 C 152.99415,267.80147 152.8379,267.66085 152.68165,267.5046 C 152.54102,267.36397 152.54102,267.36397 152.54102,267.20772 C 152.38477,267.05147 152.38477,266.91085 152.38477,266.7546 C 152.24415,266.61397 152.24415,266.45772 152.0879,266.30147 C 151.93165,266.16085 151.93165,265.84835 151.93165,265.55147 C 151.79102,265.41085 151.79102,265.09835 151.63477,264.95772 C 151.49415,264.66085 151.49415,264.34835 151.49415,264.05147 C 151.3379,263.7546 151.3379,263.45772 151.3379,263.30147 L 161.4004,220.6296 H 142.61915 C 140.9629,220.6296 139.32227,220.78585 137.9629,221.08273 C 136.4629,221.53585 135.10352,222.28585 134.05665,223.6296 C 133.75977,224.08273 133.4629,224.53585 133.00977,225.28585 C 132.55665,226.03585 131.94727,226.9421 131.50977,227.84835 C 131.05665,228.89522 130.74415,229.9421 130.30665,231.0046 C 129.85352,232.1921 129.4004,233.39522 128.94727,234.59835 C 128.6504,235.66085 128.49415,236.55147 128.35352,237.61397 C 128.19727,238.66085 128.04102,239.5671 128.04102,240.45772 C 128.04102,241.36397 128.19727,242.27022 128.49415,243.02022 C 128.6504,243.77022 129.10352,244.52022 129.55665,244.97335 C 129.69727,244.97335 129.85352,245.11397 130.1504,245.27022 C 130.30665,245.42647 130.60352,245.72335 131.05665,245.8796 C 131.19727,246.02022 131.35352,246.02022 131.50977,246.17647 C 131.6504,246.3171 131.6504,246.3171 131.80665,246.3171 C 131.94727,246.47335 132.25977,246.47335 132.4004,246.6296 C 132.55665,246.77022 132.85352,246.77022 133.00977,246.77022 H 155.99415 L 146.22852,263.30147 C 146.07227,263.45772 145.93165,263.7546 145.7754,263.89522 C 145.61915,264.05147 145.32227,264.34835 145.18165,264.5046 C 145.0254,264.80147 144.72852,265.09835 144.57227,265.2546 C 144.43165,265.41085 144.11915,265.70772 143.97852,265.84835 C 143.66602,266.0046 143.36915,266.16085 143.22852,266.30147 C 143.07227,266.45772 142.7754,266.7546 142.61915,266.91085 C 142.47852,267.05147 142.16602,267.05147 141.86915,267.20772 C 141.57227,267.36397 141.2754,267.66085 141.11915,267.80147 C 140.66602,268.11397 140.07227,268.41085 139.61915,268.70772 C 139.16602,269.0046 138.57227,269.16085 137.9629,269.16085 H 118.2754 C 118.13477,269.16085 118.13477,269.16085 117.97852,269.16085 C 117.8379,269.16085 117.5254,269.16085 117.38477,269.16085 C 116.63477,269.16085 115.88477,269.0046 115.11915,268.86397 C 114.36915,268.70772 113.47852,268.5671 112.72852,268.11397 C 111.2129,267.66085 109.86915,266.7546 108.66602,265.70772 C 107.30665,264.66085 106.25977,263.45772 105.50977,261.80147 C 104.75977,260.4421 104.30665,258.78585 104.00977,256.83272 C 103.7129,254.8796 103.55665,252.92647 103.55665,250.83272 C 103.55665,248.72335 103.7129,246.47335 104.00977,244.0671 C 104.1504,241.8171 104.60352,239.41085 105.05665,237.0046 C 105.9629,232.64522 107.16602,228.4421 108.50977,224.3796 C 109.86915,220.33273 111.2129,216.8796 112.72852,213.86397 C 113.32227,212.66085 113.93165,211.61397 114.5254,210.5671 C 115.11915,209.5046 115.72852,208.7546 116.32227,208.0046 C 117.68165,206.20773 119.47852,205.0046 122.04102,204.2546 C 124.5879,203.5046 127.1504,203.20773 129.99415,203.05147 C 130.60352,202.89523 131.19727,202.89523 131.94727,202.89523 C 132.55665,202.89523 133.1504,202.89523 133.75977,202.89523 H 160.6504 C 160.80665,202.89523 160.94727,202.89523 161.10352,202.89523 C 161.25977,203.05147 161.4004,203.05147 161.55665,203.05147 C 161.69727,203.05147 161.85352,203.05147 162.00977,203.05147 C 162.1504,203.05147 162.1504,203.05147 162.30665,203.05147 C 162.60352,203.05147 162.9004,203.05147 163.2129,202.89523 C 163.50977,202.89523 163.80665,202.89523 164.10352,202.89523 C 164.25977,202.7546 164.55665,202.7546 164.85352,202.59835 C 165.16602,202.4421 165.4629,202.4421 165.75977,202.30147 C 166.50977,201.6921 167.11915,201.09835 167.41602,200.34835 C 167.55664,199.59835 167.7129,198.84835 167.86915,197.9421 C 167.86915,197.48898 167.86915,197.1921 167.86915,196.73898 C 167.86915,196.4421 167.86915,196.14523 168.00978,195.6921 C 168.00978,195.53585 168.00978,195.53585 168.00978,195.39523 C 168.00978,195.39523 168.00978,195.39523 168.00978,195.23898 C 168.00978,195.23898 168.00978,195.23898 168.00978,195.08273 C 168.00978,195.08273 168.00978,195.08273 168.00978,194.9421 C 168.00978,194.1921 167.86915,193.4421 167.7129,192.67648 C 167.41602,191.92648 167.11915,191.48898 166.80665,191.03585 C 166.35352,190.42648 165.75977,189.97335 165.00977,189.83273 C 164.10352,189.67648 163.2129,189.53585 162.1504,189.53585 H 134.66602 C 133.75977,189.53585 133.00977,189.3796 132.25977,189.08273 C 131.50977,188.77023 130.74415,188.47335 130.1504,188.17648 C 129.99415,188.17648 129.99415,188.17648 129.85352,188.02023 C 129.69727,188.02023 129.69727,188.02023 129.55665,187.8796 C 129.10352,187.72335 128.6504,187.27023 128.35352,186.67648 C 128.04102,186.0671 127.9004,185.47335 127.74415,184.72335 C 127.60352,184.5671 127.60352,184.27023 127.60352,184.11398 C 127.60352,183.97335 127.60352,183.66085 127.60352,183.52023 Z M 270.18555,151.36398 C 270.18555,151.20773 270.18555,151.20773 270.02931,151.0671 C 269.88868,150.91085 269.88868,150.91085 269.73243,150.77023 C 269.57617,150.61398 269.27931,150.3171 268.98243,150.16085 C 268.52931,150.02023 268.23243,149.70773 267.93555,149.5671 C 267.77931,149.41085 267.48243,149.41085 267.32617,149.2546 C 267.02931,149.2546 266.73243,149.2546 266.57617,149.2546 H 289.41992 C 290.16992,149.2546 290.91992,149.41085 291.66992,149.70773 C 292.26368,150.16085 292.7168,150.61398 293.16992,151.0671 C 293.77931,151.52023 294.2168,152.27023 294.66992,153.02023 C 294.98243,153.77023 295.12305,154.67648 295.12305,155.72335 L 268.52931,260.30147 C 268.52931,260.4421 268.52931,260.7546 268.52931,260.89522 C 268.52931,261.1921 268.52931,261.5046 268.52931,261.64522 C 268.52931,262.2546 268.52931,262.84835 268.68555,263.30147 C 268.82617,263.89522 268.98243,264.5046 269.13868,264.95772 C 269.27931,265.84835 269.88868,266.61397 270.77931,267.36397 C 271.68555,268.11397 272.5918,268.5671 273.63868,268.86397 C 273.79492,269.0046 274.0918,269.0046 274.38868,269.0046 C 274.68555,269.16085 274.99805,269.16085 275.29492,269.16085 H 252.60743 C 252.31055,269.16085 251.99805,269.16085 251.70117,269.16085 C 251.40431,269.16085 251.10743,269.16085 250.95117,269.16085 C 249.60743,269.0046 248.40431,269.0046 247.65431,268.86397 C 246.88868,268.70772 245.99805,268.41085 245.24805,267.80147 C 244.93555,267.36397 244.63868,266.7546 244.49805,266.16085 C 244.3418,265.70772 244.18555,265.09835 244.18555,264.34835 C 244.18555,264.20772 244.18555,263.89522 244.18555,263.59835 C 244.18555,263.30147 244.18555,263.0046 244.3418,262.70772 L 260.87305,194.03585 H 247.65431 C 247.3418,194.1921 247.04492,194.1921 246.74805,194.1921 C 246.29492,194.1921 245.99805,194.1921 245.54492,194.1921 C 245.24805,194.1921 244.93555,194.1921 244.79492,194.1921 C 244.49805,194.1921 244.18555,194.1921 243.88868,194.1921 C 243.5918,194.1921 243.29492,194.1921 243.13868,194.1921 C 242.8418,194.1921 242.54492,194.1921 242.23243,194.1921 C 239.98243,194.1921 237.57617,194.78585 235.32617,196.14523 C 232.91992,197.48898 230.37305,201.2546 227.81055,207.11397 C 227.35743,208.3171 226.76368,209.8171 226.01368,211.45773 C 225.26368,213.11397 224.65431,214.92647 223.90431,216.8796 C 223.45117,217.92647 223.15431,218.97335 222.70117,220.03585 C 222.24805,221.08273 221.95117,222.28585 221.49805,223.33273 C 220.74805,225.58273 220.15431,227.84835 219.70117,230.09835 C 219.24805,232.34835 218.95117,234.30147 218.95117,236.09835 C 218.95117,236.70772 218.95117,237.30147 219.0918,237.7546 C 219.24805,238.20772 219.24805,238.8171 219.40431,239.2546 C 220.45117,242.72335 222.24805,244.97335 224.65431,246.02022 C 227.06055,247.22335 229.76368,247.83272 232.62305,247.83272 C 233.2168,247.83272 233.82617,247.83272 234.41992,247.67647 C 234.87305,247.67647 235.48243,247.67647 235.91992,247.67647 C 237.27931,247.52022 238.63868,247.22335 239.98243,247.0671 C 241.3418,246.92647 242.54492,246.6296 243.74805,246.3171 C 244.3418,246.17647 244.93555,246.02022 245.54492,245.8796 C 245.99805,245.72335 246.5918,245.72335 247.04492,245.5671 C 247.3418,245.42647 247.65431,245.27022 247.95117,245.11397 C 248.24805,244.97335 248.54492,244.67647 248.99805,244.36397 C 249.15431,244.36397 249.15431,244.36397 249.29492,244.22335 C 249.29492,244.22335 249.29492,244.22335 249.45117,244.0671 C 249.74805,243.77022 250.04492,243.47335 250.49805,243.16085 C 250.79492,243.02022 251.10743,242.86397 251.24805,242.72335 L 238.63868,264.95772 C 238.63868,265.09835 238.63868,265.09835 238.63868,265.09835 C 238.48243,265.2546 238.48243,265.2546 238.32617,265.41085 C 238.02931,265.70772 237.73243,266.0046 237.27931,266.30147 C 236.82617,266.7546 236.52931,267.05147 236.07617,267.36397 C 235.77931,267.5046 235.48243,267.66085 235.16992,267.80147 C 234.87305,267.95772 234.57617,267.95772 234.41992,267.95772 C 233.9668,268.2546 233.52931,268.5671 232.91992,268.70772 C 232.32617,268.86397 231.7168,269.0046 230.9668,269.0046 C 230.51368,269.16085 230.2168,269.16085 229.91992,269.16085 C 229.4668,269.16085 229.16992,269.16085 228.87305,269.16085 H 213.99805 C 212.04492,269.16085 210.38868,268.86397 208.73243,268.41085 C 207.07617,267.95772 205.27931,267.36397 203.62305,266.61397 C 200.01368,264.66085 197.60743,261.80147 196.40431,258.03585 C 195.2168,254.28585 194.60743,250.3796 194.45117,246.3171 C 194.45117,246.17647 194.45117,246.02022 194.45117,245.8796 C 194.45117,245.72335 194.45117,245.72335 194.45117,245.5671 C 194.45117,241.97335 195.06055,237.16085 196.10743,231.30147 C 197.16992,225.4421 198.66992,219.27023 200.76368,212.8171 C 203.32617,205.16085 206.48243,197.78585 210.38868,190.8796 C 214.29492,183.97335 218.79492,179.16085 223.76368,176.30148 C 225.7168,175.2546 228.10743,174.5046 230.82617,174.34835 C 233.37305,174.20773 236.07617,174.20773 238.93555,174.20773 H 265.07617 L 270.77931,154.52023 C 270.77931,153.77023 270.77931,153.16085 270.63868,152.72335 C 270.48243,152.27023 270.3418,151.8171 270.18555,151.36398 Z M 314.36524,183.52023 L 316.00586,172.55148 H 364.08398 C 366.80273,172.55148 369.19336,172.84835 371.30273,173.30148 C 373.25586,173.7546 375.05273,174.95773 376.70898,176.61398 C 377.9121,177.80148 378.81836,179.3171 379.56836,180.95773 C 380.31836,182.61398 380.77149,184.42648 380.9121,186.0671 C 380.9121,186.22335 380.9121,186.52023 380.9121,186.67648 C 380.9121,186.8171 380.9121,187.1296 380.9121,187.27023 C 380.9121,188.02023 380.9121,188.92648 380.77149,189.67648 C 380.61524,190.42648 380.31836,191.33273 380.1621,192.08273 L 366.64649,254.73897 C 366.19336,256.08272 366.0371,257.4421 365.89649,258.64522 C 365.74024,259.84835 365.59961,260.89522 365.59961,261.9421 C 365.59961,263.0046 365.74024,264.05147 365.89649,264.80147 C 366.0371,265.55147 366.19336,266.30147 366.34961,266.7546 C 366.49024,266.91085 366.49024,266.91085 366.64649,266.91085 C 366.64649,267.05147 366.64649,267.05147 366.64649,267.20772 C 366.94336,267.66085 367.24024,267.95772 367.69336,268.2546 C 368.14649,268.5671 368.59961,268.70772 369.05273,268.86397 C 369.19336,269.0046 369.50586,269.0046 369.64649,269.0046 C 369.80273,269.16085 370.09961,269.16085 370.25586,269.16085 H 342.75586 C 342.59961,269.16085 342.30273,269.16085 342.1621,269.0046 C 341.84961,269.0046 341.55273,268.86397 341.25586,268.70772 C 341.09961,268.5671 340.80273,268.41085 340.64649,268.2546 C 340.34961,268.11397 340.05273,268.11397 339.89649,267.95772 C 339.75586,267.80147 339.59961,267.66085 339.44336,267.5046 C 339.30273,267.36397 339.30273,267.36397 339.30273,267.20772 C 339.14649,267.05147 339.14649,266.91085 339.14649,266.7546 C 339.00586,266.61397 339.00586,266.45772 338.84961,266.30147 C 338.69336,266.16085 338.69336,265.84835 338.69336,265.55147 C 338.55273,265.41085 338.55273,265.09835 338.39649,264.95772 C 338.25586,264.66085 338.25586,264.34835 338.25586,264.05147 C 338.09961,263.7546 338.09961,263.45772 338.09961,263.30147 L 348.1621,220.6296 H 329.38086 C 327.72461,220.6296 326.08398,220.78585 324.72461,221.08273 C 323.22461,221.53585 321.86524,222.28585 320.81836,223.6296 C 320.52149,224.08273 320.22461,224.53585 319.77149,225.28585 C 319.31836,226.03585 318.70898,226.9421 318.27149,227.84835 C 317.81836,228.89522 317.50586,229.9421 317.06836,231.0046 C 316.61524,232.1921 316.1621,233.39522 315.70898,234.59835 C 315.4121,235.66085 315.25586,236.55147 315.11524,237.61397 C 314.95898,238.66085 314.80273,239.5671 314.80273,240.45772 C 314.80273,241.36397 314.95898,242.27022 315.25586,243.02022 C 315.4121,243.77022 315.86524,244.52022 316.31836,244.97335 C 316.45898,244.97335 316.61524,245.11397 316.9121,245.27022 C 317.06836,245.42647 317.36524,245.72335 317.81836,245.8796 C 317.95898,246.02022 318.11524,246.02022 318.27149,246.17647 C 318.4121,246.3171 318.4121,246.3171 318.56836,246.3171 C 318.70898,246.47335 319.02149,246.47335 319.1621,246.6296 C 319.31836,246.77022 319.61524,246.77022 319.77149,246.77022 H 342.75586 L 332.99024,263.30147 C 332.83398,263.45772 332.69336,263.7546 332.5371,263.89522 C 332.38086,264.05147 332.08398,264.34835 331.94336,264.5046 C 331.7871,264.80147 331.49024,265.09835 331.33398,265.2546 C 331.19336,265.41085 330.88086,265.70772 330.74024,265.84835 C 330.42773,266.0046 330.13086,266.16085 329.99024,266.30147 C 329.83398,266.45772 329.5371,266.7546 329.38086,266.91085 C 329.24024,267.05147 328.92773,267.05147 328.63086,267.20772 C 328.33398,267.36397 328.0371,267.66085 327.88086,267.80147 C 327.42773,268.11397 326.83398,268.41085 326.38086,268.70772 C 325.92773,269.0046 325.33398,269.16085 324.72461,269.16085 H 305.03711 C 304.89649,269.16085 304.89649,269.16085 304.74024,269.16085 C 304.59961,269.16085 304.28711,269.16085 304.14649,269.16085 C 303.39649,269.16085 302.64649,269.0046 301.88087,268.86397 C 301.13087,268.70772 300.24024,268.5671 299.49024,268.11397 C 297.97461,267.66085 296.63087,266.7546 295.42773,265.70772 C 294.06836,264.66085 293.02149,263.45772 292.27149,261.80147 C 291.52149,260.4421 291.06836,258.78585 290.77149,256.83272 C 290.47461,254.8796 290.31836,252.92647 290.31836,250.83272 C 290.31836,248.72335 290.47461,246.47335 290.77149,244.0671 C 290.91211,241.8171 291.36524,239.41085 291.81836,237.0046 C 292.72461,232.64522 293.92773,228.4421 295.27149,224.3796 C 296.63087,220.33273 297.97461,216.8796 299.49024,213.86397 C 300.08399,212.66085 300.69336,211.61397 301.28711,210.5671 C 301.88087,209.5046 302.49024,208.7546 303.08399,208.0046 C 304.44336,206.20773 306.24024,205.0046 308.80273,204.2546 C 311.34961,203.5046 313.9121,203.20773 316.75586,203.05147 C 317.36524,202.89523 317.95898,202.89523 318.70898,202.89523 C 319.31836,202.89523 319.9121,202.89523 320.52149,202.89523 H 347.4121 C 347.56836,202.89523 347.70898,202.89523 347.86524,202.89523 C 348.02149,203.05147 348.1621,203.05147 348.31836,203.05147 C 348.45898,203.05147 348.61524,203.05147 348.77149,203.05147 C 348.9121,203.05147 348.9121,203.05147 349.06836,203.05147 C 349.36524,203.05147 349.6621,203.05147 349.97461,202.89523 C 350.27149,202.89523 350.56836,202.89523 350.86524,202.89523 C 351.02149,202.7546 351.31836,202.7546 351.61524,202.59835 C 351.92773,202.4421 352.22461,202.4421 352.52149,202.30147 C 353.27149,201.6921 353.88086,201.09835 354.17773,200.34835 C 354.31836,199.59835 354.47461,198.84835 354.63086,197.9421 C 354.63086,197.48898 354.63086,197.1921 354.63086,196.73898 C 354.63086,196.4421 354.63086,196.14523 354.77149,195.6921 C 354.77149,195.53585 354.77149,195.53585 354.77149,195.39523 C 354.77149,195.39523 354.77149,195.39523 354.77149,195.23898 C 354.77149,195.23898 354.77149,195.23898 354.77149,195.08273 C 354.77149,195.08273 354.77149,195.08273 354.77149,194.9421 C 354.77149,194.1921 354.63086,193.4421 354.47461,192.67648 C 354.17773,191.92648 353.88086,191.48898 353.56836,191.03585 C 353.11524,190.42648 352.52149,189.97335 351.77149,189.83273 C 350.86524,189.67648 349.97461,189.53585 348.9121,189.53585 H 321.42773 C 320.52149,189.53585 319.77149,189.3796 319.02149,189.08273 C 318.27149,188.77023 317.50586,188.47335 316.9121,188.17648 C 316.75586,188.17648 316.75586,188.17648 316.61524,188.02023 C 316.45898,188.02023 316.45898,188.02023 316.31836,187.8796 C 315.86524,187.72335 315.4121,187.27023 315.11524,186.67648 C 314.80273,186.0671 314.6621,185.47335 314.50586,184.72335 C 314.36524,184.5671 314.36524,184.27023 314.36524,184.11398 C 314.36524,183.97335 314.36524,183.66085 314.36524,183.52023 Z M 386.93164,192.53585 L 390.38477,175.41085 C 393.24414,175.41085 395.79101,175.09835 398.04101,174.5046 C 400.30664,173.89523 402.4004,173.0046 404.66601,171.9421 C 405.41601,171.64523 406.00977,171.34835 406.75977,170.89523 C 407.50977,170.4421 408.11914,170.14523 408.86914,169.6921 C 411.72852,168.03585 414.2754,165.78585 416.22852,163.23898 C 418.18164,160.67648 419.83789,157.83273 420.88477,154.67648 H 429.1504 L 425.54101,172.39523 H 448.08789 L 447.02539,187.58273 C 446.72851,188.47335 446.27539,189.22335 445.82226,189.67648 C 445.36914,190.28585 444.61914,190.72335 443.86914,191.17648 C 443.11914,191.6296 442.36914,192.08273 441.61914,192.23898 C 440.86914,192.3796 439.96289,192.53585 438.91601,192.53585 H 426.1504 C 425.69726,192.53585 425.4004,192.53585 425.08789,192.53585 C 424.79101,192.67648 424.49414,192.67648 424.19726,192.67648 C 423.58789,192.83273 423.13477,192.83273 422.68164,192.98898 C 422.24414,193.1296 421.79101,193.28585 421.49414,193.58273 C 421.33789,193.73898 421.18164,193.73898 421.04101,193.8796 C 420.88477,194.03585 420.88477,194.1921 420.72852,194.33273 C 420.43164,194.6296 420.29101,194.9421 420.13477,195.23898 C 419.97852,195.6921 419.97852,195.98898 419.83789,196.4421 C 419.68164,196.58273 419.68164,196.89523 419.68164,197.03585 C 419.68164,197.1921 419.68164,197.48898 419.54101,197.64523 L 408.86914,243.3171 C 408.86914,243.47335 408.86914,243.77022 408.86914,243.92647 C 408.86914,244.22335 408.86914,244.52022 408.86914,244.67647 C 408.86914,245.11397 408.86914,245.72335 409.00977,246.17647 C 409.00977,246.6296 409.16601,247.0671 409.32226,247.22335 C 409.32226,247.3796 409.32226,247.3796 409.46289,247.52022 C 409.46289,247.67647 409.46289,247.67647 409.46289,247.83272 C 409.7754,248.42647 410.21289,249.02022 410.82226,249.47335 C 411.41601,249.92647 412.16601,250.22335 412.91601,250.22335 H 429.1504 C 429.60352,250.22335 430.19726,250.08272 430.80664,249.6296 C 431.25977,249.33272 431.85352,249.02022 432.30664,248.58272 C 432.60352,248.27022 432.9004,247.97335 433.21289,247.67647 C 433.50977,247.52022 433.80664,247.3796 434.10352,247.22335 C 434.25977,247.0671 434.55664,246.92647 434.85352,246.6296 C 435.00977,246.47335 435.30664,246.17647 435.60352,245.72335 C 435.75977,245.42647 436.05664,245.11397 436.36914,244.8171 C 436.50977,244.52022 436.80664,244.22335 436.96289,243.77022 C 437.11914,243.61397 437.11914,243.3171 437.25977,243.16085 C 437.41601,243.02022 437.41601,242.72335 437.41601,242.5671 L 432.1504,264.66085 C 432.00977,264.80147 432.00977,265.09835 431.85352,265.2546 C 431.69726,265.55147 431.69726,265.84835 431.55664,266.0046 C 431.25977,266.45772 430.94726,266.91085 430.6504,267.36397 C 430.35352,267.80147 430.05664,268.11397 429.60352,268.2546 C 429.60352,268.2546 429.60352,268.2546 429.44726,268.2546 C 429.30664,268.41085 429.30664,268.41085 429.1504,268.41085 C 428.99414,268.5671 428.69726,268.5671 428.55664,268.70772 C 428.24414,268.86397 427.94726,268.86397 427.6504,269.0046 C 427.19726,269.16085 426.74414,269.16085 426.29101,269.3171 C 425.69726,269.45772 425.08789,269.45772 424.49414,269.45772 L 385.72852,269.61397 C 385.2754,269.45772 384.68164,269.3171 384.22852,269.16085 C 383.61914,269.0046 383.16601,268.70772 382.72852,268.41085 C 382.57226,268.2546 382.57226,268.11397 382.41601,267.95772 C 382.2754,267.80147 382.11914,267.80147 381.97852,267.66085 C 381.36914,267.20772 380.91601,266.45772 380.32226,265.55147 C 379.86914,264.80147 379.71289,263.89522 379.57226,263.0046 C 379.57226,262.84835 379.57226,262.70772 379.57226,262.55147 C 379.57226,262.39522 379.57226,262.39522 379.57226,262.2546 L 395.04101,192.53585 Z M 468.50977,152.5671 C 468.50977,151.97335 468.36914,151.36398 467.91601,150.77023 C 467.46289,150.3171 466.85351,149.86398 466.25977,149.41085 C 466.25977,149.2546 466.25977,149.2546 466.25977,149.11398 C 466.10351,149.11398 466.10351,149.11398 465.96289,149.11398 H 492.85351 C 493.00977,149.11398 493.15039,149.11398 493.30663,149.2546 C 493.46289,149.41085 493.75977,149.41085 493.90039,149.5671 C 493.90039,149.5671 493.90039,149.5671 494.05663,149.5671 C 494.05663,149.70773 494.05663,149.70773 494.05663,149.70773 C 494.21289,149.86398 494.50977,149.86398 494.65039,150.02023 C 494.80663,150.16085 494.96289,150.3171 494.96289,150.3171 C 494.96289,150.45773 494.96289,150.45773 495.10351,150.61398 C 495.10351,150.77023 495.10351,150.91085 495.10351,151.0671 C 495.25977,151.20773 495.25977,151.52023 495.41601,151.8171 C 495.41601,152.11398 495.41601,152.41085 495.41601,152.72335 C 495.41601,152.86398 495.41601,152.86398 495.41601,153.02023 C 495.41601,153.16085 495.41601,153.16085 495.41601,153.16085 C 495.41601,153.3171 495.41601,153.3171 495.41601,153.47335 C 495.25977,153.61398 495.25977,153.61398 495.25977,153.77023 L 487.90039,186.0671 L 494.96289,175.2546 C 495.25977,175.09835 495.55663,174.95773 495.85351,174.80148 C 496.16601,174.66085 496.46289,174.34835 496.75977,174.20773 C 497.05663,174.05148 497.36914,173.7546 497.80663,173.59835 C 498.11914,173.45773 498.41601,173.30148 498.86914,173.14523 C 499.00977,173.14523 499.32226,173.14523 499.46289,173.0046 C 499.61914,172.84835 499.91601,172.70773 500.21289,172.55148 C 500.21289,172.55148 500.21289,172.55148 500.36914,172.55148 C 500.66601,172.39523 500.96289,172.39523 501.11914,172.2546 C 501.27539,172.09835 501.57226,172.09835 501.71289,172.09835 H 523.50977 C 523.80663,172.09835 524.10351,172.09835 524.40039,172.09835 C 524.71289,172.09835 525.00977,172.09835 525.30663,172.09835 C 527.25977,172.2546 529.05663,172.70773 530.86914,173.45773 C 532.52539,174.20773 534.02539,175.41085 535.22851,177.05148 C 535.82226,177.80148 536.43163,178.5671 537.02539,179.45773 C 537.47851,180.52023 537.93163,181.41085 538.22851,182.3171 C 538.38477,183.0671 538.68163,183.66085 538.83789,184.27023 C 538.97851,184.86398 538.97851,185.47335 538.97851,186.0671 C 538.97851,186.22335 538.97851,186.22335 538.97851,186.3796 C 538.97851,186.52023 538.97851,186.67648 538.83789,186.8171 C 538.83789,186.97335 538.83789,186.97335 538.83789,187.1296 C 538.68163,187.27023 538.68163,187.42648 538.68163,187.58273 L 521.55663,263.45772 C 521.40039,263.59835 521.40039,263.7546 521.40039,263.89522 C 521.40039,264.05147 521.40039,264.34835 521.40039,264.5046 C 521.40039,264.95772 521.55663,265.41085 521.69726,265.70772 C 521.85351,266.0046 522.15039,266.30147 522.30663,266.45772 C 522.44726,266.61397 522.44726,266.7546 522.60351,266.91085 C 522.75977,267.05147 522.75977,267.05147 522.90039,267.20772 C 523.19726,267.80147 523.65039,268.2546 524.40039,268.5671 C 525.15039,269.0046 525.75977,269.16085 526.50977,269.16085 H 502.16601 C 502.02539,269.16085 501.71289,269.16085 501.57226,269.0046 C 501.41601,269.0046 501.11914,269.0046 500.82226,269.0046 C 500.36914,268.86397 499.91601,268.5671 499.46289,268.2546 C 499.00977,267.95772 498.55663,267.66085 498.25977,267.20772 C 497.96289,266.91085 497.80663,266.45772 497.66601,265.84835 C 497.50977,265.41085 497.36914,264.80147 497.36914,264.20772 C 497.36914,264.05147 497.36914,264.05147 497.36914,263.89522 C 497.36914,263.7546 497.36914,263.7546 497.36914,263.59835 C 497.36914,263.59835 497.36914,263.59835 497.50977,263.45772 C 497.50977,263.30147 497.50977,263.30147 497.50977,263.14522 L 511.04101,204.41085 C 511.18163,204.09835 511.18163,203.80147 511.33789,203.5046 C 511.33789,203.20773 511.33789,202.89523 511.33789,202.59835 C 511.33789,202.4421 511.33789,202.30147 511.33789,202.14523 C 511.33789,202.0046 511.33789,201.84835 511.33789,201.6921 C 511.33789,201.39523 511.33789,201.09835 511.33789,200.80147 C 511.33789,200.48897 511.33789,200.1921 511.18163,199.89523 C 511.04101,199.14523 510.88477,198.23898 510.72851,197.48898 C 510.58789,196.73898 510.27539,196.14523 509.97851,195.53585 C 509.52539,195.08273 509.22851,194.6296 508.93163,194.1921 C 508.63477,193.73898 508.32226,193.4421 508.02539,192.98898 C 506.97851,192.08273 505.93163,191.48898 504.86914,191.17648 C 503.82226,191.03585 502.16601,190.8796 500.21289,190.8796 C 497.36914,190.8796 495.25977,190.8796 493.75977,191.03585 C 492.25977,191.17648 490.90039,191.48898 489.69726,192.23898 C 489.54101,192.3796 489.54101,192.3796 489.40039,192.3796 C 489.24414,192.53585 489.24414,192.53585 489.10351,192.67648 C 488.94726,192.83273 488.65039,192.83273 488.49414,192.98898 C 488.35351,193.1296 488.04101,193.4421 487.74414,193.58273 C 487.44726,193.8796 487.15039,194.1921 486.99414,194.33273 C 486.69726,194.6296 486.40039,194.9421 486.08789,195.23898 C 485.94726,195.53585 485.79101,195.83273 485.63477,195.98898 C 485.49414,196.14523 485.33789,196.4421 485.19726,196.58273 L 468.50977,263.14522 C 468.50977,264.20772 468.66601,264.95772 469.11914,265.55147 C 469.41601,266.16085 469.71289,266.7546 470.16601,267.20772 C 470.61914,267.80147 471.07226,268.2546 471.82226,268.5671 C 472.41601,269.0046 473.16601,269.16085 474.07226,269.16085 H 449.27539 C 448.52539,269.16085 447.77539,269.0046 447.18163,268.5671 C 446.43163,268.2546 445.97851,267.80147 445.52539,267.20772 C 445.36914,266.91085 445.22851,266.61397 445.07226,266.16085 C 444.93163,265.70772 444.93163,265.41085 444.93163,264.95772 C 444.93163,264.66085 444.93163,264.34835 444.93163,264.05147 C 445.07226,263.7546 445.07226,263.45772 445.22851,263.14522 L 468.80663,155.72335 C 468.80663,155.5671 468.80663,155.5671 468.80663,155.42648 C 468.80663,155.27023 468.80663,155.27023 468.80663,155.11398 C 468.80663,154.97335 468.80663,154.67648 468.80663,154.52023 C 468.66601,154.36398 468.66601,154.0671 468.66601,153.92648 C 468.66601,153.61398 468.66601,153.3171 468.66601,153.02023 C 468.50977,152.86398 468.50977,152.72335 468.50977,152.5671 Z M 560.01367,152.27023 C 560.01367,152.11398 560.01367,152.11398 560.01367,151.97335 C 559.87305,151.97335 559.87305,151.97335 559.87305,151.8171 C 559.71679,151.36398 559.41991,150.77023 558.96679,150.3171 C 558.51367,149.86398 558.06054,149.5671 557.60742,149.2546 C 557.46679,149.11398 557.16991,149.11398 557.01367,148.95773 C 556.85742,148.8171 556.56054,148.8171 556.41991,148.8171 H 579.85742 C 579.99804,148.8171 580.29491,148.8171 580.60742,148.8171 C 580.74804,148.8171 581.06054,148.8171 581.20116,148.8171 C 582.4043,148.8171 583.31054,148.8171 584.06054,148.95773 C 584.6543,149.11398 585.10742,149.41085 585.56054,150.02023 C 585.71679,150.3171 586.01367,150.77023 586.16991,151.20773 C 586.31054,151.8171 586.46679,152.41085 586.46679,153.16085 C 586.46679,153.47335 586.46679,153.77023 586.46679,154.0671 C 586.31054,154.36398 586.31054,154.67648 586.16991,154.8171 L 564.66991,257.73897 C 564.37305,259.09835 564.07617,260.14522 563.91991,261.1921 C 563.62305,262.2546 563.46679,263.14522 563.46679,264.05147 C 563.46679,264.34835 563.46679,264.66085 563.62305,264.95772 C 563.62305,265.41085 563.62305,265.70772 563.7793,266.16085 C 563.91991,266.30147 564.07617,266.45772 564.23242,266.61397 C 564.37305,266.7546 564.5293,267.05147 564.66991,267.20772 C 564.82617,267.36397 565.12305,267.5046 565.2793,267.66085 C 565.41991,267.80147 565.57617,268.11397 565.73242,268.2546 C 565.87305,268.41085 566.18554,268.5671 566.48242,268.70772 C 566.62305,268.86397 566.93554,269.0046 567.07617,269.16085 H 544.24805 C 543.18554,269.16085 542.43554,269.0046 541.68554,268.5671 C 540.93554,268.11397 540.48242,267.66085 540.0293,267.05147 C 539.88867,266.91085 539.73242,266.7546 539.59179,266.61397 C 539.43554,266.45772 539.43554,266.30147 539.2793,266.16085 C 539.13867,266.0046 539.13867,265.70772 538.98242,265.55147 C 538.82617,265.41085 538.82617,265.09835 538.68554,264.95772 C 538.5293,264.5046 538.38867,264.20772 538.38867,263.7546 C 538.23242,263.30147 538.23242,263.0046 538.23242,262.55147 C 538.23242,261.9421 538.23242,261.1921 538.38867,260.4421 C 538.5293,259.6921 538.68554,258.78585 538.98242,257.73897 L 559.71679,160.22335 C 559.71679,159.6296 559.71679,159.02023 559.87305,158.58273 C 560.01367,158.1296 560.01367,157.67648 560.16991,157.22335 C 560.32617,156.6296 560.32617,156.02023 560.46679,155.5671 C 560.62305,155.11398 560.62305,154.67648 560.62305,154.22335 C 560.62305,154.0671 560.62305,153.77023 560.62305,153.61398 C 560.62305,153.47335 560.62305,153.3171 560.46679,153.16085 C 560.46679,153.02023 560.46679,152.86398 560.32617,152.72335 C 560.16991,152.5671 560.16991,152.41085 560.01367,152.27023 Z M 650.76367,258.1921 C 647.31054,260.89522 643.70116,263.0046 639.79491,264.66085 C 635.74804,266.30147 631.84179,267.36397 627.7793,268.11397 C 625.98242,268.41085 624.16991,268.5671 622.5293,268.70772 C 620.71679,268.86397 618.91991,269.0046 617.26367,269.0046 C 610.81054,269.0046 605.09179,268.11397 599.84179,266.16085 C 594.57616,264.34835 590.82616,261.9421 588.71679,258.9421 C 587.35742,256.6921 586.31054,253.83272 585.56054,250.3796 C 584.81054,246.92647 584.51367,243.02022 584.51367,238.66085 C 584.51367,235.20772 584.6543,231.4421 585.26367,227.39522 C 585.71679,223.48897 586.46679,219.58273 587.51367,215.67647 C 588.87304,210.41085 590.82616,205.16085 593.21679,200.05147 C 595.48242,195.08273 598.32616,190.42648 601.79491,186.22335 C 606.45116,180.66085 611.4043,176.7546 616.51367,174.80148 C 621.46679,172.84835 627.0293,171.9421 633.18554,172.09835 C 633.63867,172.09835 634.24804,172.09835 634.70116,172.09835 C 635.13867,172.09835 635.59179,172.09835 636.04491,172.09835 V 188.77023 C 634.99804,188.77023 633.93554,188.77023 632.88867,188.77023 C 631.84179,188.92648 630.63867,189.08273 629.59179,189.22335 C 627.93554,189.67648 626.12304,190.28585 624.48242,191.17648 C 622.82616,192.08273 621.16991,193.4421 619.82616,195.39523 C 618.01367,198.09835 616.35742,201.2546 614.85742,204.84835 C 613.20116,208.61397 611.85742,212.36397 610.6543,216.1296 C 609.29491,220.6296 608.24804,224.98897 607.49804,229.05147 C 606.74804,233.2546 606.29491,236.70772 606.29491,239.2546 C 606.29491,239.41085 606.29491,239.41085 606.29491,239.41085 C 606.29491,239.5671 606.29491,239.5671 606.29491,239.5671 C 606.29491,239.70772 606.29491,239.70772 606.29491,239.70772 C 606.29491,239.86397 606.29491,239.86397 606.29491,240.0046 C 606.29491,244.52022 607.95116,247.83272 611.10742,249.78585 C 614.26367,251.8796 617.56054,252.92647 621.32616,253.08272 C 621.46679,253.08272 621.46679,253.08272 621.62304,253.08272 C 621.62304,253.08272 621.62304,253.08272 621.7793,253.08272 C 624.62304,253.08272 627.32616,252.48897 629.88867,251.42647 C 632.43554,250.3796 634.09179,249.02022 635.13867,247.0671 C 635.45116,246.6296 635.74804,246.17647 636.04491,245.72335 C 636.20116,245.27022 636.49804,244.97335 636.6543,244.52022 C 638.29491,241.52022 639.95116,238.05147 641.60742,234.0046 C 643.26367,229.9421 644.60742,225.89522 645.96679,221.83273 C 647.01367,218.3796 647.76367,214.77023 648.37304,211.3171 C 648.96679,207.86397 649.26367,204.84835 649.26367,202.0046 C 649.26367,200.34835 649.12304,198.84835 648.96679,197.48898 C 648.81054,196.14523 648.37304,195.08273 647.91991,194.03585 C 647.16991,192.3796 645.81054,191.03585 643.85742,190.1296 C 641.9043,189.22335 639.6543,188.77023 637.09179,188.77023 C 636.95116,188.77023 636.95116,188.77023 636.79491,188.77023 C 636.6543,188.77023 636.6543,188.77023 636.6543,188.77023 C 636.49804,188.77023 636.49804,188.77023 636.34179,188.77023 C 636.20116,188.77023 636.20116,188.77023 636.04491,188.77023 V 172.09835 C 636.20116,172.09835 636.49804,172.09835 636.6543,172.09835 C 636.79491,172.09835 636.79491,172.09835 636.95116,172.09835 C 645.21679,172.39523 653.0293,173.7546 660.09179,176.16085 C 667.1543,178.5671 670.9043,185.47335 671.6543,196.89523 C 671.6543,197.03585 671.6543,197.03585 671.6543,197.1921 C 671.6543,197.34835 671.6543,197.34835 671.6543,197.34835 C 671.6543,197.48898 671.6543,197.48898 671.6543,197.64523 C 671.6543,197.78585 671.6543,197.78585 671.6543,197.9421 C 671.6543,201.2546 671.35742,205.45773 670.60742,210.5671 C 669.85742,215.8171 668.79491,221.22335 667.29491,226.78585 C 665.63867,233.2546 663.38867,239.2546 660.68554,244.97335 C 657.82616,250.83272 654.5293,255.1921 650.76367,258.1921 Z M 690.88476,174.95773 C 690.88476,174.80148 690.72851,174.66085 690.58788,174.34835 C 690.43163,174.20773 690.13476,173.89523 689.97851,173.59835 C 689.83788,173.45773 689.83788,173.45773 689.68163,173.30148 C 689.52539,173.14523 689.52539,173.14523 689.38476,173.0046 C 689.22851,172.84835 688.93163,172.55148 688.77539,172.39523 C 688.47851,172.2546 688.33788,172.2546 688.18163,172.09835 H 711.46288 C 711.61913,172.09835 711.916,172.09835 712.36913,172.2546 C 712.666,172.39523 712.97851,172.55148 713.27539,172.70773 C 713.416,172.70773 713.416,172.70773 713.57225,172.70773 C 713.57225,172.84835 713.57225,172.84835 713.72851,172.84835 C 714.02539,173.0046 714.32225,173.14523 714.61913,173.30148 C 714.77539,173.45773 715.07225,173.45773 715.22851,173.59835 C 715.97851,174.05148 716.72851,174.66085 717.18163,175.41085 C 717.63476,176.16085 717.93163,177.05148 717.93163,178.11398 L 717.18163,184.42648 L 721.99413,176.91085 C 722.13476,176.7546 722.13476,176.45773 722.291,176.30148 C 722.43163,176.16085 722.43163,176.0046 722.58788,175.84835 C 722.74413,175.55148 723.041,175.2546 723.33788,174.95773 C 723.63476,174.80148 723.94725,174.5046 724.24413,174.34835 C 724.38476,174.20773 724.69725,174.05148 724.83788,173.89523 C 724.99413,173.7546 725.291,173.7546 725.44725,173.59835 C 725.90039,173.45773 726.33788,173.14523 726.791,173.0046 C 727.24413,172.84835 727.541,172.70773 727.99413,172.55148 C 728.44725,172.39523 728.90039,172.39523 729.35351,172.2546 C 729.80663,172.09835 730.10351,172.09835 730.55663,172.09835 H 748.88476 C 750.83788,172.09835 752.791,172.39523 754.58788,173.0046 C 756.24413,173.59835 757.90039,174.5046 759.55663,175.70773 C 761.19725,177.05148 762.40039,178.70773 763.15039,180.52023 C 763.90039,182.3171 764.21288,184.27023 764.21288,186.52023 C 764.21288,187.58273 764.05663,188.6296 763.90039,189.83273 C 763.75976,191.03585 763.46288,192.23898 763.15039,193.4421 L 747.22851,260.7546 C 747.22851,261.80147 747.38476,262.70772 747.52539,263.45772 C 747.68163,264.20772 747.97851,265.09835 748.43163,265.84835 C 748.58788,266.0046 748.72851,266.30147 748.88476,266.45772 C 749.02539,266.61397 749.18163,266.91085 749.33788,267.20772 C 749.47851,267.36397 749.77539,267.66085 750.08788,267.80147 C 750.22851,268.11397 750.541,268.41085 750.68163,268.5671 C 750.83788,268.70772 751.13476,268.70772 751.291,268.86397 C 751.43163,269.0046 751.58788,269.0046 751.72851,269.16085 H 725.90039 C 725.74413,269.16085 725.74413,269.16085 725.58788,269.0046 C 725.44725,269.0046 725.13476,269.0046 724.99413,269.0046 C 724.69725,268.86397 724.38476,268.70772 724.08788,268.5671 C 723.791,268.41085 723.49413,268.11397 723.33788,267.95772 C 723.18163,267.80147 723.18163,267.66085 723.041,267.5046 C 722.88476,267.36397 722.88476,267.36397 722.74413,267.20772 C 722.58788,267.05147 722.43163,266.61397 722.291,266.16085 C 722.13476,265.70772 722.13476,265.09835 722.13476,264.66085 C 722.13476,264.5046 722.13476,264.5046 722.13476,264.34835 C 722.13476,264.20772 722.13476,264.20772 722.13476,264.05147 C 722.291,263.89522 722.291,263.59835 722.43163,263.30147 C 722.43163,263.14522 722.43163,263.0046 722.43163,262.84835 L 737.00976,200.1921 C 737.00976,200.05147 737.00976,199.73897 737.00976,199.59835 C 737.00976,199.4421 737.00976,199.30147 737.00976,199.14523 C 736.85351,198.09835 736.71288,197.03585 736.55663,195.98898 C 736.416,195.08273 736.10351,194.48898 735.80663,194.03585 C 735.35351,193.28585 734.30663,192.67648 732.50976,192.23898 C 730.69725,191.92648 728.74413,191.78585 726.49413,191.78585 C 726.33788,191.78585 726.19725,191.78585 726.041,191.78585 C 725.90039,191.78585 725.58788,191.78585 725.44725,191.78585 C 723.94725,191.92648 722.43163,192.08273 721.08788,192.23898 C 719.72851,192.53585 718.52539,192.98898 717.63476,193.4421 C 716.57225,193.73898 715.82225,194.33273 715.22851,195.23898 C 714.61913,196.14523 714.166,197.34835 713.72851,198.98897 L 697.791,262.84835 C 697.791,264.20772 697.94726,265.09835 698.10351,265.55147 C 698.24414,266.0046 698.541,266.45772 698.85351,266.7546 C 698.99414,266.91085 698.99414,266.91085 699.15039,266.91085 C 699.15039,267.05147 699.15039,267.05147 699.291,267.20772 C 699.44726,267.36397 699.44726,267.36397 699.60351,267.5046 C 699.74414,267.66085 699.74414,267.80147 699.90039,267.95772 C 700.05663,268.11397 700.35351,268.11397 700.49414,268.2546 C 700.65039,268.41085 700.94726,268.5671 701.10351,268.70772 C 701.40039,268.86397 701.69726,268.86397 702.00976,269.0046 C 702.15039,269.16085 702.44726,269.16085 702.60351,269.16085 H 677.50976 C 677.36914,269.16085 677.21288,269.16085 677.05663,269.16085 C 676.916,269.16085 676.75976,269.16085 676.60351,269.16085 C 676.00976,269.0046 675.416,268.86397 674.80663,268.70772 C 674.21288,268.5671 673.75976,268.2546 673.30663,267.95772 C 672.69726,267.5046 672.25976,266.91085 671.94726,266.30147 C 671.65039,265.70772 671.50976,264.95772 671.65039,264.05147 C 671.65039,263.89522 671.65039,263.59835 671.65039,263.45772 C 671.65039,263.30147 671.65039,263.30147 671.65039,263.14522 L 691.63476,179.91085 C 691.63476,179.0046 691.63476,178.11398 691.47851,177.20773 C 691.33788,176.45773 691.041,175.70773 690.88476,174.95773 Z M 690.88476,174.95773"
         style="fill:#ffffff;fill-opacity:1;fill-rule:nonzero;stroke:none;stroke-width:1.33333"
         aria-label="radathlon" />
      <path
         id="path2"
         d="M 297.02484,324.70754 C 330.0583,310.5914 359.0635,292.18207 382.72044,271.4106 H 356.25204 C 335.45017,287.32687 310.83977,301.44687 283.26057,312.581 C 177.74031,355.18193 68.80991,338.0066 39.958044,274.21914 C 39.536977,273.2878 39.139377,272.35127 38.756977,271.4106 H 36.711777 C 37.738711,274.955 38.978044,278.45074 40.446444,281.887 C 70.87271,353.08807 185.74657,372.25927 297.02484,324.70754 Z M 450.82937,149.20367 C 451.14537,135.52367 448.77523,122.21594 443.4211,109.68607 C 412.99483,38.485141 298.12057,19.313808 186.84257,66.86594 C 139.07311,87.279139 99.743783,116.67261 72.804443,149.20367 H 76.244176 C 101.51071,122.51874 136.68977,98.578469 178.77977,81.586073 C 284.30004,38.985141 393.23044,56.160473 422.0823,119.94794 C 426.3063,129.28714 428.56523,139.10967 429.03777,149.20367 Z"
         style="fill:#00963f;fill-opacity:1;fill-rule:evenodd;stroke:none;stroke-width:1.33333" />
      <path
         id="path3"
         d="M 616.98496,333.13407 C 649.08483,317.13754 676.73776,295.62367 698.32109,271.4106 H 676.74229 C 657.16923,290.7742 632.92696,307.9446 605.1815,321.0074 C 514.69697,363.60833 421.2875,346.4334 396.54737,282.64554 C 395.12257,278.97194 393.9683,275.22074 393.05284,271.4106 H 392.04417 C 393.0975,277.86447 394.71924,284.1838 396.96577,290.3138 C 423.0567,361.51487 521.56203,380.6862 616.98496,333.13407 Z M 748.75029,149.20367 C 748.19923,138.48567 746.16389,128.05461 742.52083,118.11287 C 716.42963,46.91194 617.92416,27.740608 522.50243,75.29234 C 495.6183,88.689673 471.84883,105.95381 452.15523,125.43501 C 452.5559,127.28061 452.90243,129.13781 453.19577,131.00341 C 470.99123,115.15887 492.02697,101.10541 515.58777,90.012873 C 606.0723,47.41194 699.48189,64.586873 724.22256,128.37474 C 726.82856,135.09354 728.55816,142.06381 729.48029,149.20367 Z"
         style="fill:#00963f;fill-opacity:1;fill-rule:evenodd;stroke:none;stroke-width:1.33333" />
   </g>
</svg>