<?xml version="1.0" encoding="UTF-8" standalone="no"?>
<!-- Created with Inkscape (http://www.inkscape.org/) -->

<svg
   version="1.1"
   id="svg1"
   width="1000"
   height="178"
   viewBox="0 0 999.99995 178"
   sodipodi:docname="logo_txt_w.svg"
   inkscape:version="1.3 (0e150ed, 2023-07-21)"
   xmlns:inkscape="http://www.inkscape.org/namespaces/inkscape"
   xmlns:sodipodi="http://sodipodi.sourceforge.net/DTD/sodipodi-0.dtd"
   xmlns="http://www.w3.org/2000/svg"
   xmlns:svg="http://www.w3.org/2000/svg">
  <defs
     id="defs1">
    <clipPath
       clipPathUnits="userSpaceOnUse"
       id="clipPath3">
      <path
         d="M 0,358 H 791 V 0 H 0 Z"
         transform="translate(-43.731901,-203.1104)"
         id="path3" />
    </clipPath>
    <clipPath
       clipPathUnits="userSpaceOnUse"
       id="clipPath5">
      <path
         d="M 0,358 H 791 V 0 H 0 Z"
         transform="translate(-432.59571,-227.68021)"
         id="path5" />
    </clipPath>
    <clipPath
       clipPathUnits="userSpaceOnUse"
       id="clipPath7">
      <path
         d="M 0,358 H 791 V 0 H 0 Z"
         transform="translate(-725.40532,-227.68021)"
         id="path7" />
    </clipPath>
    <clipPath
       clipPathUnits="userSpaceOnUse"
       id="clipPath9">
      <path
         d="M 0,358 H 791 V 0 H 0 Z"
         transform="translate(-758.51559,-228.1694)"
         id="path9" />
    </clipPath>
  </defs>
  <sodipodi:namedview
     id="namedview1"
     pagecolor="#ffffff"
     bordercolor="#666666"
     borderopacity="1.0"
     inkscape:showpageshadow="2"
     inkscape:pageopacity="0.0"
     inkscape:pagecheckerboard="0"
     inkscape:deskcolor="#d1d1d1"
     inkscape:zoom="0.75189624"
     inkscape:cx="539.30313"
     inkscape:cy="182.87098"
     inkscape:window-width="1408"
     inkscape:window-height="916"
     inkscape:window-x="0"
     inkscape:window-y="38"
     inkscape:window-maximized="0"
     inkscape:current-layer="g1">
    <inkscape:page
       x="0"
       y="0"
       inkscape:label="1"
       id="page1"
       width="999.99994"
       height="178"
       margin="28.308533 22.630667 31.628 32.9128"
       bleed="0" />
  </sodipodi:namedview>
  <g
     id="g1"
     inkscape:groupmode="layer"
     inkscape:label="1">
    <path
       id="path2"
       d="M 0,0 C 0,0.145 0,0.145 -0.147,0.294 C -0.295,0.442 -0.295,0.591 -0.44,0.736 C -0.587,1.034 -0.885,1.328 -1.329,1.625 C -1.773,1.774 -2.214,1.923 -2.656,1.923 H 19.934 H 20.674 C 20.823,1.923 21.117,1.923 21.264,1.774 C 21.561,1.774 21.853,1.774 22.15,1.625 C 22.446,1.476 22.742,1.476 23.039,1.476 C 23.188,1.328 23.331,1.328 23.483,1.328 C 23.628,1.179 23.777,1.179 23.924,1.179 C 24.662,0.736 25.251,0.145 25.696,-0.885 C 25.991,-1.922 26.14,-2.807 26.289,-3.841 V -4.577 V -5.312 V -5.61 V -6.053 V -6.941 C 26.289,-7.388 26.289,-7.677 26.14,-7.826 L 29.535,-1.331 C 29.681,-1.038 29.975,-0.74 30.419,-0.293 C 30.715,0 31.013,0.294 31.457,0.442 C 31.749,0.591 32.046,0.736 32.195,0.885 C 32.342,1.034 32.635,1.034 32.782,1.179 C 32.931,1.179 33.08,1.179 33.225,1.328 C 33.375,1.476 33.669,1.476 33.822,1.625 H 34.113 H 34.262 C 34.409,1.774 34.554,1.774 34.703,1.923 H 35.147 H 58.478 L 55.228,-10.629 C 55.228,-11.221 55.083,-11.812 54.937,-12.258 C 54.639,-12.697 54.343,-13.292 54.045,-13.734 C 53.899,-13.879 53.899,-13.879 53.754,-14.028 C 53.605,-14.177 53.605,-14.326 53.457,-14.47 C 53.31,-14.623 53.31,-14.623 53.161,-14.768 C 53.016,-14.913 53.016,-14.913 52.869,-15.062 C 52.572,-15.359 52.276,-15.653 51.83,-15.946 C 51.389,-16.244 50.8,-16.538 50.355,-16.687 C 49.915,-16.835 49.62,-16.835 49.322,-16.98 C 48.877,-17.129 48.586,-17.129 48.288,-17.129 H 31.308 C 29.681,-17.129 28.501,-17.278 27.614,-17.426 C 26.729,-17.575 25.844,-18.018 25.106,-18.46 C 24.958,-18.605 24.958,-18.605 24.807,-18.758 C 24.662,-18.902 24.364,-18.902 24.222,-19.047 C 24.069,-19.196 23.924,-19.196 23.777,-19.341 C 23.628,-19.494 23.331,-19.787 23.188,-19.936 C 22.742,-20.378 22.297,-20.825 21.853,-21.561 C 21.412,-22.297 21.117,-23.186 20.823,-24.219 L 6.351,-86.24 C 6.204,-86.534 6.204,-86.827 6.204,-86.976 V -87.571 C 6.204,-88.01 6.204,-88.456 6.351,-88.898 C 6.5,-89.337 6.644,-89.634 6.797,-89.936 C 6.797,-90.077 6.797,-90.077 6.94,-90.226 V -90.375 C 6.94,-90.523 6.94,-90.523 7.088,-90.523 V -90.817 C 7.533,-91.553 8.122,-92.144 8.86,-92.59 C 9.6,-93.033 10.338,-93.327 11.074,-93.327 H -12.701 C -14.026,-93.327 -15.064,-93.178 -15.949,-92.888 C -16.978,-92.59 -17.571,-92.144 -17.869,-91.408 C -18.161,-90.966 -18.458,-90.523 -18.605,-89.936 C -18.754,-89.337 -18.898,-88.75 -19.047,-88.159 V -87.72 V -87.422 L 0,-5.461 C 0.149,-4.726 0.442,-3.989 0.589,-3.394 C 0.738,-2.807 0.738,-2.361 0.738,-1.922 V -1.331 C 0.589,-1.178 0.589,-1.038 0.589,-0.885 C 0.442,-0.74 0.442,-0.591 0.298,-0.442 C 0.149,-0.293 0.149,-0.145 0,0 M 71.179,-9.158 L 72.801,1.625 H 120.06 C 122.716,1.625 125.079,1.328 127.143,0.885 C 129.067,0.442 130.836,-0.74 132.459,-2.361 C 133.646,-3.543 134.526,-5.023 135.265,-6.644 C 136.006,-8.269 136.451,-10.042 136.594,-11.663 V -12.258 V -12.85 C 136.594,-13.589 136.594,-14.47 136.451,-15.21 C 136.302,-15.946 136.006,-16.835 135.858,-17.575 L 122.567,-79.154 C 122.123,-80.477 121.975,-81.808 121.826,-82.99 C 121.683,-84.169 121.534,-85.207 121.534,-86.24 C 121.534,-87.274 121.683,-88.307 121.826,-89.043 C 121.975,-89.783 122.123,-90.523 122.27,-90.966 C 122.419,-91.11 122.419,-91.11 122.567,-91.11 V -91.408 C 122.863,-91.851 123.157,-92.144 123.601,-92.442 C 124.042,-92.739 124.486,-92.888 124.931,-93.033 C 125.079,-93.178 125.373,-93.178 125.52,-93.178 C 125.668,-93.327 125.966,-93.327 126.109,-93.327 H 99.088 C 98.941,-93.327 98.644,-93.327 98.499,-93.178 C 98.203,-93.178 97.908,-93.033 97.61,-92.888 C 97.461,-92.739 97.17,-92.59 97.021,-92.442 C 96.725,-92.293 96.432,-92.293 96.285,-92.144 C 96.136,-92 95.987,-91.851 95.838,-91.702 C 95.692,-91.553 95.692,-91.553 95.692,-91.408 C 95.543,-91.259 95.543,-91.11 95.543,-90.966 C 95.398,-90.817 95.398,-90.672 95.247,-90.523 C 95.099,-90.375 95.099,-90.077 95.099,-89.783 C 94.954,-89.634 94.954,-89.337 94.801,-89.192 C 94.658,-88.898 94.658,-88.601 94.658,-88.307 C 94.509,-88.01 94.509,-87.72 94.509,-87.571 L 104.405,-45.627 H 85.947 C 84.32,-45.627 82.697,-45.776 81.368,-46.074 C 79.894,-46.517 78.559,-47.256 77.529,-48.583 C 77.233,-49.026 76.936,-49.468 76.496,-50.208 C 76.051,-50.944 75.462,-51.833 75.021,-52.722 C 74.577,-53.751 74.279,-54.785 73.835,-55.819 C 73.395,-57.001 72.95,-58.184 72.508,-59.362 C 72.212,-60.396 72.063,-61.285 71.917,-62.318 C 71.772,-63.352 71.623,-64.237 71.623,-65.122 C 71.623,-66.01 71.772,-66.895 72.063,-67.635 C 72.212,-68.371 72.652,-69.107 73.097,-69.553 C 73.246,-69.553 73.395,-69.702 73.686,-69.847 C 73.835,-69.996 74.13,-70.29 74.577,-70.438 C 74.724,-70.587 74.869,-70.587 75.021,-70.736 C 75.164,-70.885 75.164,-70.885 75.313,-70.885 C 75.462,-71.029 75.757,-71.029 75.902,-71.174 C 76.051,-71.327 76.347,-71.327 76.496,-71.327 H 99.088 L 89.488,-87.571 C 89.341,-87.72 89.192,-88.01 89.047,-88.159 C 88.895,-88.307 88.603,-88.601 88.455,-88.75 C 88.312,-89.043 88.014,-89.337 87.865,-89.49 C 87.718,-89.634 87.421,-89.936 87.274,-90.077 C 86.977,-90.226 86.685,-90.375 86.536,-90.523 C 86.387,-90.672 86.091,-90.966 85.947,-91.11 C 85.798,-91.259 85.502,-91.259 85.211,-91.408 C 84.913,-91.553 84.618,-91.851 84.469,-92 C 84.024,-92.293 83.435,-92.59 82.991,-92.888 C 82.55,-93.178 81.957,-93.327 81.368,-93.327 H 62.023 H 61.727 H 61.138 C 60.396,-93.327 59.66,-93.178 58.922,-93.033 C 58.186,-92.888 57.295,-92.739 56.559,-92.293 C 55.083,-91.851 53.754,-90.966 52.572,-89.936 C 51.242,-88.898 50.208,-87.72 49.471,-86.091 C 48.733,-84.76 48.288,-83.139 47.997,-81.217 C 47.699,-79.302 47.552,-77.38 47.552,-75.309 C 47.552,-73.242 47.699,-71.029 47.997,-68.668 C 48.146,-66.453 48.586,-64.092 49.026,-61.723 C 49.915,-57.444 51.098,-53.309 52.423,-49.324 C 53.754,-45.338 55.083,-41.939 56.559,-38.987 C 57.146,-37.805 57.74,-36.771 58.333,-35.738 C 58.922,-34.704 59.511,-33.964 60.101,-33.224 C 61.434,-31.455 63.205,-30.272 65.713,-29.536 C 68.223,-28.796 70.734,-28.502 73.538,-28.358 C 74.13,-28.205 74.724,-28.205 75.462,-28.205 H 77.233 H 103.669 H 104.109 C 104.258,-28.358 104.405,-28.358 104.554,-28.358 H 104.994 H 105.292 C 105.583,-28.358 105.879,-28.358 106.177,-28.205 H 107.062 C 107.21,-28.056 107.506,-28.056 107.799,-27.907 C 108.095,-27.758 108.389,-27.758 108.688,-27.614 C 109.426,-27.022 110.016,-26.436 110.311,-25.695 C 110.46,-24.955 110.603,-24.219 110.751,-23.331 V -22.152 C 110.751,-21.854 110.751,-21.561 110.9,-21.119 V -20.825 V -20.676 V -20.527 V -20.378 C 110.9,-19.638 110.751,-18.902 110.603,-18.163 C 110.311,-17.426 110.016,-16.98 109.722,-16.538 C 109.277,-15.946 108.688,-15.508 107.948,-15.359 C 107.062,-15.21 106.177,-15.062 105.143,-15.062 H 78.118 C 77.233,-15.062 76.496,-14.913 75.757,-14.623 C 75.021,-14.326 74.279,-14.028 73.686,-13.734 C 73.538,-13.734 73.538,-13.734 73.395,-13.589 C 73.246,-13.589 73.246,-13.589 73.097,-13.437 C 72.652,-13.292 72.212,-12.85 71.917,-12.258 C 71.623,-11.663 71.474,-11.076 71.327,-10.34 C 71.179,-10.191 71.179,-9.894 71.179,-9.745 Z M 211.317,22.442 C 211.317,22.591 211.317,22.591 211.171,22.74 C 211.022,22.889 211.022,22.889 210.873,23.037 C 210.724,23.186 210.429,23.479 210.137,23.625 C 209.691,23.773 209.399,24.071 209.104,24.22 C 208.955,24.36 208.661,24.36 208.51,24.509 H 207.772 H 230.222 C 230.958,24.509 231.696,24.36 232.432,24.071 C 233.025,23.625 233.472,23.186 233.912,22.74 C 234.501,22.293 234.946,21.557 235.386,20.821 C 235.686,20.085 235.831,19.192 235.831,18.163 L 209.691,-84.619 V -85.207 V -85.942 C 209.691,-86.534 209.691,-87.125 209.844,-87.571 C 209.988,-88.159 210.137,-88.75 210.284,-89.192 C 210.429,-90.077 211.022,-90.817 211.907,-91.553 C 212.793,-92.293 213.682,-92.739 214.716,-93.033 C 214.861,-93.178 215.156,-93.178 215.454,-93.178 C 215.75,-93.327 216.041,-93.327 216.339,-93.327 H 194.042 H 193.157 H 192.415 C 191.09,-93.178 189.907,-93.178 189.165,-93.033 C 188.429,-92.888 187.542,-92.59 186.802,-92 C 186.509,-91.553 186.213,-90.966 186.064,-90.375 C 185.919,-89.936 185.769,-89.337 185.769,-88.601 V -87.865 C 185.769,-87.571 185.769,-87.274 185.919,-86.976 L 202.164,-19.494 H 189.165 C 188.874,-19.638 188.576,-19.638 188.28,-19.638 H 187.098 H 186.36 H 185.475 H 184.739 H 183.848 C 181.636,-19.638 179.273,-20.229 177.058,-21.561 C 174.699,-22.888 172.185,-26.58 169.673,-32.339 C 169.233,-33.522 168.644,-34.998 167.902,-36.623 C 167.166,-38.244 166.573,-40.021 165.834,-41.939 C 165.394,-42.973 165.095,-44.007 164.652,-45.041 C 164.212,-46.074 163.916,-47.256 163.476,-48.29 C 162.734,-50.506 162.141,-52.722 161.7,-54.938 C 161.26,-57.15 160.962,-59.068 160.962,-60.842 C 160.962,-61.429 160.962,-62.021 161.111,-62.467 C 161.26,-62.909 161.26,-63.5 161.404,-63.939 C 162.438,-67.337 164.212,-69.553 166.573,-70.587 C 168.936,-71.77 171.596,-72.357 174.401,-72.357 C 174.99,-72.357 175.583,-72.357 176.173,-72.212 H 177.646 C 178.976,-72.063 180.307,-71.77 181.636,-71.621 C 182.968,-71.472 184.146,-71.174 185.326,-70.885 C 185.919,-70.736 186.509,-70.587 187.098,-70.438 C 187.542,-70.29 188.136,-70.29 188.576,-70.141 C 188.874,-69.996 189.165,-69.847 189.463,-69.702 C 189.758,-69.553 190.056,-69.26 190.497,-68.962 C 190.643,-68.962 190.643,-68.962 190.792,-68.817 L 190.941,-68.668 C 191.232,-68.371 191.53,-68.073 191.971,-67.78 C 192.266,-67.635 192.563,-67.486 192.71,-67.337 L 180.307,-89.192 V -89.337 C 180.158,-89.49 180.158,-89.49 180.014,-89.634 C 179.718,-89.936 179.422,-90.226 178.976,-90.523 C 178.536,-90.966 178.24,-91.259 177.799,-91.553 C 177.502,-91.702 177.207,-91.851 176.913,-92 C 176.617,-92.144 176.319,-92.144 176.173,-92.144 C 175.729,-92.442 175.286,-92.739 174.699,-92.888 C 174.109,-93.033 173.512,-93.178 172.774,-93.178 C 172.334,-93.327 172.038,-93.327 171.741,-93.327 H 170.707 H 156.092 C 154.167,-93.327 152.544,-93.033 150.921,-92.59 C 149.295,-92.144 147.525,-91.553 145.898,-90.817 C 142.357,-88.898 139.992,-86.091 138.81,-82.403 C 137.633,-78.707 137.04,-74.871 136.896,-70.885 V -70.438 V -70.141 C 136.896,-66.602 137.484,-61.876 138.514,-56.112 C 139.552,-50.357 141.026,-44.304 143.093,-37.954 C 145.604,-30.421 148.708,-23.186 152.544,-16.389 C 156.383,-9.6 160.815,-4.875 165.686,-2.071 C 167.606,-1.038 169.969,-0.293 172.629,-0.145 C 175.139,0 177.799,0 180.603,0 H 206.298 L 211.907,19.345 C 211.907,20.085 211.907,20.672 211.764,21.119 C 211.615,21.557 211.466,22.004 211.317,22.442 M 254.733,-9.158 L 256.356,1.625 H 303.615 C 306.271,1.625 308.636,1.328 310.699,0.885 C 312.622,0.442 314.393,-0.74 316.016,-2.361 C 317.196,-3.543 318.083,-5.023 318.819,-6.644 C 319.561,-8.269 320.006,-10.042 320.15,-11.663 V -12.258 V -12.85 C 320.15,-13.589 320.15,-14.47 320.006,-15.21 C 319.857,-15.946 319.561,-16.835 319.413,-17.575 L 306.123,-79.154 C 305.678,-80.477 305.529,-81.808 305.382,-82.99 C 305.237,-84.169 305.089,-85.207 305.089,-86.24 C 305.089,-87.274 305.237,-88.307 305.382,-89.043 C 305.529,-89.783 305.678,-90.523 305.827,-90.966 C 305.976,-91.11 305.976,-91.11 306.123,-91.11 V -91.408 C 306.42,-91.851 306.715,-92.144 307.156,-92.442 C 307.596,-92.739 308.042,-92.888 308.487,-93.033 C 308.636,-93.178 308.932,-93.178 309.076,-93.178 C 309.223,-93.327 309.521,-93.327 309.669,-93.327 H 282.645 C 282.496,-93.327 282.198,-93.327 282.056,-93.178 C 281.758,-93.178 281.462,-93.033 281.165,-92.888 C 281.018,-92.739 280.72,-92.59 280.578,-92.442 C 280.28,-92.293 279.984,-92.293 279.839,-92.144 C 279.691,-92 279.542,-91.851 279.395,-91.702 C 279.247,-91.553 279.247,-91.553 279.247,-91.408 C 279.098,-91.259 279.098,-91.11 279.098,-90.966 C 278.951,-90.817 278.951,-90.672 278.802,-90.523 C 278.657,-90.375 278.657,-90.077 278.657,-89.783 C 278.504,-89.634 278.504,-89.337 278.362,-89.192 C 278.213,-88.898 278.213,-88.601 278.213,-88.307 C 278.064,-88.01 278.064,-87.72 278.064,-87.571 L 287.962,-45.627 H 269.501 C 267.876,-45.627 266.254,-45.776 264.922,-46.074 C 263.445,-46.517 262.117,-47.256 261.083,-48.583 C 260.788,-49.026 260.495,-49.468 260.05,-50.208 C 259.606,-50.944 259.017,-51.833 258.572,-52.722 C 258.132,-53.751 257.834,-54.785 257.39,-55.819 C 256.949,-57.001 256.505,-58.184 256.061,-59.362 C 255.767,-60.396 255.62,-61.285 255.475,-62.318 C 255.322,-63.352 255.18,-64.237 255.18,-65.122 C 255.18,-66.01 255.322,-66.895 255.62,-67.635 C 255.767,-68.371 256.213,-69.107 256.654,-69.553 C 256.796,-69.553 256.949,-69.702 257.243,-69.847 C 257.39,-69.996 257.687,-70.29 258.132,-70.438 C 258.281,-70.587 258.427,-70.587 258.572,-70.736 C 258.721,-70.885 258.721,-70.885 258.87,-70.885 C 259.017,-71.029 259.31,-71.029 259.457,-71.174 C 259.606,-71.327 259.903,-71.327 260.05,-71.327 H 282.645 L 273.044,-87.571 C 272.896,-87.72 272.747,-88.01 272.6,-88.159 C 272.456,-88.307 272.158,-88.601 272.011,-88.75 C 271.862,-89.043 271.571,-89.337 271.422,-89.49 C 271.273,-89.634 270.978,-89.936 270.829,-90.077 C 270.531,-90.226 270.24,-90.375 270.091,-90.523 C 269.944,-90.672 269.646,-90.966 269.501,-91.11 C 269.354,-91.259 269.057,-91.259 268.766,-91.408 C 268.468,-91.553 268.172,-91.851 268.023,-92 C 267.579,-92.293 266.99,-92.59 266.549,-92.888 C 266.105,-93.178 265.512,-93.327 264.922,-93.327 H 245.58 H 245.282 H 244.693 C 243.957,-93.327 243.215,-93.178 242.477,-93.033 C 241.741,-92.888 240.852,-92.739 240.114,-92.293 C 238.64,-91.851 237.309,-90.966 236.126,-89.936 C 234.797,-88.898 233.768,-87.72 233.025,-86.091 C 232.29,-84.76 231.845,-83.139 231.551,-81.217 C 231.256,-79.302 231.107,-77.38 231.107,-75.309 C 231.107,-73.242 231.256,-71.029 231.551,-68.668 C 231.696,-66.453 232.141,-64.092 232.581,-61.723 C 233.472,-57.444 234.648,-53.309 235.979,-49.324 C 237.309,-45.338 238.64,-41.939 240.114,-38.987 C 240.703,-37.805 241.296,-36.771 241.89,-35.738 C 242.477,-34.704 243.066,-33.964 243.659,-33.224 C 244.986,-31.455 246.76,-30.272 249.27,-29.536 C 251.781,-28.796 254.289,-28.502 257.094,-28.358 C 257.687,-28.205 258.281,-28.205 259.017,-28.205 H 260.788 H 287.22 H 287.664 C 287.813,-28.358 287.962,-28.358 288.104,-28.358 H 288.549 H 288.842 C 289.138,-28.358 289.436,-28.358 289.731,-28.205 H 290.618 C 290.765,-28.056 291.062,-28.056 291.354,-27.907 C 291.652,-27.758 291.947,-27.758 292.239,-27.614 C 292.981,-27.022 293.57,-26.436 293.866,-25.695 C 294.011,-24.955 294.164,-24.219 294.308,-23.331 V -22.152 C 294.308,-21.854 294.308,-21.561 294.455,-21.119 V -20.825 V -20.676 V -20.527 V -20.378 C 294.455,-19.638 294.308,-18.902 294.164,-18.163 C 293.866,-17.426 293.57,-16.98 293.274,-16.538 C 292.832,-15.946 292.239,-15.508 291.503,-15.359 C 290.618,-15.21 289.731,-15.062 288.698,-15.062 H 261.673 C 260.788,-15.062 260.05,-14.913 259.31,-14.623 C 258.572,-14.326 257.834,-14.028 257.243,-13.734 C 257.094,-13.734 257.094,-13.734 256.949,-13.589 C 256.796,-13.589 256.796,-13.589 256.654,-13.437 C 256.213,-13.292 255.767,-12.85 255.475,-12.258 C 255.18,-11.663 255.031,-11.076 254.882,-10.34 C 254.733,-10.191 254.733,-9.894 254.733,-9.745 Z M 326.061,-18.018 L 329.453,-1.178 C 332.258,-1.178 334.77,-0.885 336.986,-0.293 C 339.202,0.294 341.269,1.179 343.485,2.212 C 344.221,2.51 344.814,2.808 345.552,3.246 C 346.289,3.688 346.882,3.986 347.62,4.428 C 350.429,6.053 352.933,8.269 354.855,10.779 C 356.776,13.289 358.398,16.096 359.432,19.192 H 367.551 L 364.008,1.774 H 386.161 L 385.131,-13.143 C 384.833,-14.028 384.387,-14.768 383.941,-15.21 C 383.502,-15.802 382.762,-16.244 382.026,-16.687 C 381.287,-17.129 380.546,-17.575 379.807,-17.724 C 379.075,-17.869 378.186,-18.018 377.152,-18.018 H 364.6 H 363.567 C 363.272,-18.163 362.979,-18.163 362.686,-18.163 C 362.086,-18.311 361.644,-18.311 361.206,-18.46 C 360.767,-18.605 360.317,-18.758 360.027,-19.047 C 359.874,-19.196 359.727,-19.196 359.579,-19.341 C 359.432,-19.494 359.432,-19.638 359.288,-19.787 C 358.989,-20.085 358.838,-20.378 358.694,-20.676 C 358.545,-21.119 358.545,-21.412 358.398,-21.854 C 358.253,-22.003 358.253,-22.297 358.253,-22.442 C 358.253,-22.594 358.253,-22.888 358.1,-23.041 L 347.62,-67.925 V -68.52 V -69.26 C 347.62,-69.702 347.62,-70.29 347.765,-70.736 C 347.765,-71.174 347.916,-71.621 348.06,-71.77 C 348.06,-71.918 348.06,-71.918 348.213,-72.063 V -72.357 C 348.504,-72.952 348.949,-73.539 349.538,-73.985 C 350.131,-74.428 350.869,-74.722 351.605,-74.722 H 367.551 C 367.999,-74.722 368.589,-74.573 369.172,-74.13 C 369.624,-73.837 370.21,-73.539 370.653,-73.093 C 370.95,-72.803 371.249,-72.505 371.545,-72.212 C 371.839,-72.063 372.129,-71.918 372.422,-71.77 C 372.575,-71.621 372.869,-71.472 373.167,-71.174 C 373.315,-71.029 373.613,-70.736 373.903,-70.29 C 374.055,-69.996 374.344,-69.702 374.643,-69.405 C 374.795,-69.107 375.088,-68.817 375.233,-68.371 C 375.375,-68.222 375.375,-67.925 375.528,-67.78 C 375.672,-67.635 375.672,-67.337 375.672,-67.188 L 370.508,-88.898 C 370.355,-89.043 370.355,-89.337 370.21,-89.49 C 370.065,-89.783 370.065,-90.077 369.917,-90.226 C 369.624,-90.672 369.326,-91.11 369.032,-91.553 C 368.735,-92 368.441,-92.293 367.999,-92.442 H 367.85 C 367.701,-92.59 367.701,-92.59 367.551,-92.59 C 367.411,-92.739 367.114,-92.739 366.96,-92.888 C 366.67,-93.033 366.374,-93.033 366.076,-93.178 C 365.637,-93.327 365.191,-93.327 364.752,-93.476 C 364.162,-93.624 363.567,-93.624 362.979,-93.624 L 324.878,-93.769 C 324.434,-93.624 323.845,-93.476 323.4,-93.327 C 322.811,-93.178 322.371,-92.888 321.924,-92.59 C 321.777,-92.442 321.777,-92.293 321.628,-92.144 C 321.48,-92 321.333,-92 321.184,-91.851 C 320.595,-91.408 320.155,-90.672 319.561,-89.783 C 319.117,-89.043 318.972,-88.159 318.823,-87.274 V -86.827 V -86.534 L 334.034,-18.018 Z M 406.246,21.264 C 406.246,21.855 406.097,22.442 405.655,23.037 C 405.216,23.479 404.622,23.922 404.026,24.36 V 24.658 H 403.737 H 430.167 C 430.317,24.658 430.465,24.658 430.61,24.509 C 430.763,24.36 431.057,24.36 431.202,24.22 H 431.346 V 24.071 C 431.5,23.922 431.792,23.922 431.938,23.773 C 432.086,23.625 432.235,23.479 432.235,23.479 C 432.235,23.331 432.235,23.331 432.379,23.186 V 22.74 C 432.533,22.591 432.533,22.293 432.677,22.004 V 21.119 V 20.821 V 20.672 V 20.375 C 432.533,20.23 432.533,20.23 432.533,20.085 L 425.293,-11.663 L 432.235,-1.038 C 432.533,-0.885 432.823,-0.74 433.12,-0.591 C 433.417,-0.442 433.715,-0.145 434.013,0 C 434.306,0.145 434.596,0.442 435.042,0.591 C 435.336,0.736 435.633,0.885 436.072,1.034 C 436.225,1.034 436.514,1.034 436.667,1.179 C 436.812,1.328 437.11,1.476 437.403,1.625 H 437.548 C 437.845,1.774 438.139,1.774 438.292,1.923 C 438.437,2.067 438.735,2.067 438.883,2.067 H 460.292 H 461.176 H 462.065 C 463.984,1.923 465.761,1.476 467.531,0.736 C 469.152,0 470.631,-1.178 471.81,-2.807 C 472.401,-3.543 472.993,-4.283 473.583,-5.172 C 474.022,-6.202 474.464,-7.09 474.762,-7.975 C 474.915,-8.711 475.205,-9.306 475.357,-9.894 C 475.502,-10.485 475.502,-11.076 475.502,-11.663 V -11.961 C 475.502,-12.109 475.502,-12.258 475.357,-12.407 V -12.697 C 475.205,-12.85 475.205,-12.994 475.205,-13.143 L 458.377,-87.72 C 458.224,-87.865 458.224,-88.01 458.224,-88.159 V -88.75 C 458.224,-89.192 458.377,-89.634 458.518,-89.936 C 458.67,-90.226 458.96,-90.523 459.109,-90.672 C 459.262,-90.817 459.262,-90.966 459.407,-91.11 C 459.551,-91.259 459.551,-91.259 459.701,-91.408 C 459.998,-92 460.436,-92.442 461.176,-92.739 C 461.917,-93.178 462.503,-93.327 463.248,-93.327 H 439.322 C 439.177,-93.327 438.883,-93.327 438.735,-93.178 H 437.995 C 437.548,-93.033 437.11,-92.739 436.667,-92.442 C 436.225,-92.144 435.783,-91.851 435.485,-91.408 C 435.187,-91.11 435.042,-90.672 434.889,-90.077 C 434.745,-89.634 434.596,-89.043 434.596,-88.456 V -88.159 V -87.865 L 434.745,-87.72 V -87.422 L 448.037,-29.681 C 448.182,-29.387 448.182,-29.094 448.331,-28.796 V -27.907 V -27.469 V -27.022 V -26.142 C 448.331,-25.844 448.331,-25.546 448.182,-25.253 C 448.037,-24.509 447.888,-23.628 447.744,-22.888 C 447.598,-22.152 447.301,-21.561 447.003,-20.97 C 446.561,-20.527 446.263,-20.085 445.965,-19.638 C 445.668,-19.196 445.371,-18.902 445.084,-18.46 C 444.051,-17.575 443.013,-16.98 441.98,-16.687 C 440.951,-16.538 439.322,-16.389 437.403,-16.389 C 434.596,-16.389 432.533,-16.389 431.057,-16.538 C 429.581,-16.687 428.25,-16.98 427.067,-17.724 C 426.922,-17.869 426.922,-17.869 426.769,-17.869 C 426.628,-18.018 426.628,-18.018 426.476,-18.163 C 426.331,-18.311 426.034,-18.311 425.889,-18.46 C 425.736,-18.605 425.446,-18.902 425.149,-19.047 C 424.851,-19.341 424.553,-19.638 424.409,-19.787 C 424.115,-20.085 423.817,-20.378 423.524,-20.676 C 423.379,-20.97 423.226,-21.263 423.082,-21.412 C 422.932,-21.561 422.784,-21.854 422.639,-22.003 L 406.246,-87.422 C 406.246,-88.456 406.391,-89.192 406.837,-89.783 C 407.135,-90.375 407.428,-90.966 407.871,-91.408 C 408.313,-92 408.755,-92.442 409.496,-92.739 C 410.086,-93.178 410.823,-93.327 411.708,-93.327 H 387.343 C 386.603,-93.327 385.868,-93.178 385.276,-92.739 C 384.541,-92.442 384.093,-92 383.651,-91.408 C 383.506,-91.11 383.354,-90.817 383.208,-90.375 C 383.064,-89.936 383.064,-89.634 383.064,-89.192 V -88.307 C 383.208,-88.01 383.208,-87.72 383.354,-87.422 L 406.543,18.163 V 18.457 V 18.754 V 19.345 C 406.391,19.49 406.391,19.788 406.391,19.933 V 20.821 C 406.246,20.97 406.246,21.119 406.246,21.264 M 496.182,21.557 V 21.855 C 496.03,21.855 496.03,21.855 496.03,22.004 C 495.884,22.442 495.587,23.037 495.145,23.479 C 494.703,23.922 494.251,24.22 493.813,24.509 C 493.668,24.658 493.375,24.658 493.222,24.807 C 493.078,24.956 492.78,24.956 492.635,24.956 H 515.672 H 516.413 H 517 C 518.186,24.956 519.067,24.956 519.807,24.807 C 520.402,24.658 520.844,24.36 521.283,23.773 C 521.427,23.479 521.721,23.037 521.874,22.591 C 522.019,22.004 522.167,21.413 522.167,20.672 V 19.788 C 522.019,19.49 522.019,19.192 521.874,19.052 L 500.759,-82.105 C 500.461,-83.433 500.168,-84.471 500.015,-85.504 C 499.721,-86.534 499.577,-87.422 499.577,-88.307 C 499.577,-88.601 499.577,-88.898 499.721,-89.192 C 499.721,-89.634 499.721,-89.936 499.871,-90.375 C 500.015,-90.523 500.168,-90.672 500.313,-90.817 C 500.461,-90.966 500.606,-91.259 500.759,-91.408 C 500.904,-91.553 501.198,-91.702 501.35,-91.851 C 501.491,-92 501.644,-92.293 501.789,-92.442 C 501.942,-92.59 502.231,-92.739 502.529,-92.888 C 502.673,-93.033 502.971,-93.178 503.12,-93.327 H 480.674 C 479.645,-93.327 478.901,-93.178 478.165,-92.739 C 477.424,-92.293 476.982,-91.851 476.54,-91.259 C 476.387,-91.11 476.242,-90.966 476.089,-90.817 C 475.949,-90.672 475.949,-90.523 475.803,-90.375 C 475.651,-90.226 475.651,-89.936 475.506,-89.783 C 475.357,-89.634 475.357,-89.337 475.212,-89.192 C 475.068,-88.75 474.915,-88.456 474.915,-88.01 C 474.77,-87.571 474.77,-87.274 474.77,-86.827 C 474.77,-86.24 474.77,-85.504 474.915,-84.76 C 475.068,-84.024 475.212,-83.139 475.506,-82.105 L 495.884,13.735 C 495.884,14.322 495.884,14.913 496.03,15.355 C 496.182,15.802 496.182,16.24 496.327,16.687 C 496.48,17.274 496.48,17.869 496.625,18.312 C 496.765,18.754 496.765,19.192 496.765,19.639 V 20.23 C 496.765,20.375 496.765,20.523 496.625,20.672 C 496.625,20.821 496.625,20.97 496.48,21.119 C 496.327,21.264 496.327,21.413 496.182,21.557 M 585.371,-82.552 C 581.976,-85.207 578.429,-87.274 574.584,-88.898 C 570.602,-90.523 566.761,-91.553 562.776,-92.293 C 561.006,-92.59 559.233,-92.739 557.612,-92.888 C 555.842,-93.033 554.065,-93.178 552.44,-93.178 C 546.085,-93.178 540.479,-92.293 535.311,-90.375 C 530.143,-88.601 526.451,-86.24 524.379,-83.288 C 523.056,-81.072 522.019,-78.265 521.283,-74.871 C 520.546,-71.472 520.249,-67.635 520.249,-63.352 C 520.249,-59.953 520.402,-56.261 520.989,-52.276 C 521.427,-48.435 522.171,-44.594 523.201,-40.757 C 524.533,-35.589 526.451,-30.421 528.811,-25.402 C 531.028,-20.527 533.834,-15.946 537.229,-11.812 C 541.806,-6.346 546.68,-2.509 551.708,-0.591 C 556.575,1.328 562.043,2.212 568.093,2.067 H 569.573 H 570.9 V -14.326 H 567.799 C 566.761,-14.47 565.583,-14.623 564.549,-14.768 C 562.929,-15.21 561.151,-15.802 559.531,-16.687 C 557.902,-17.575 556.281,-18.902 554.95,-20.825 C 553.184,-23.479 551.555,-26.58 550.079,-30.124 C 548.458,-33.819 547.123,-37.507 545.941,-41.2 C 544.614,-45.627 543.58,-49.911 542.835,-53.9 C 542.104,-58.039 541.662,-61.429 541.662,-63.939 V -64.092 V -64.237 V -64.385 V -64.679 C 541.662,-69.107 543.286,-72.357 546.383,-74.279 C 549.488,-76.342 552.738,-77.38 556.425,-77.525 H 556.719 H 556.872 C 559.671,-77.525 562.333,-76.938 564.843,-75.904 C 567.353,-74.871 568.978,-73.539 570.011,-71.621 C 570.305,-71.174 570.602,-70.736 570.9,-70.29 C 571.049,-69.847 571.346,-69.553 571.487,-69.107 C 573.112,-66.155 574.737,-62.756 576.362,-58.771 C 577.987,-54.785 579.318,-50.8 580.645,-46.81 C 581.678,-43.412 582.418,-39.873 583.005,-36.474 C 583.597,-33.075 583.895,-30.124 583.895,-27.32 C 583.895,-25.695 583.746,-24.219 583.597,-22.888 C 583.457,-21.561 583.005,-20.527 582.563,-19.494 C 581.828,-17.869 580.5,-16.538 578.578,-15.653 C 576.66,-14.768 574.443,-14.326 571.929,-14.326 H 571.632 H 571.487 H 571.194 H 570.9 V 2.067 H 571.487 H 571.785 C 579.909,1.774 587.59,0.442 594.529,-1.922 C 601.474,-4.283 605.158,-11.076 605.898,-22.297 V -22.594 V -22.743 V -23.041 V -23.331 C 605.898,-26.58 605.6,-30.714 604.865,-35.738 C 604.128,-40.906 603.091,-46.223 601.615,-51.685 C 599.986,-58.039 597.778,-63.939 595.12,-69.553 C 592.312,-75.309 589.063,-79.596 585.371,-82.552 M 624.8,-0.74 C 624.8,-0.591 624.656,-0.442 624.503,-0.145 C 624.358,0 624.061,0.294 623.912,0.591 C 623.763,0.736 623.763,0.736 623.619,0.885 C 623.465,1.034 623.465,1.034 623.321,1.179 C 623.18,1.328 622.882,1.625 622.729,1.774 C 622.436,1.923 622.292,1.923 622.142,2.067 H 645.031 C 645.175,2.067 645.473,2.067 645.916,1.923 C 646.213,1.774 646.51,1.625 646.8,1.476 H 647.094 C 647.094,1.328 647.094,1.328 647.247,1.328 C 647.544,1.179 647.83,1.034 648.127,0.885 C 648.28,0.736 648.574,0.736 648.723,0.591 C 649.462,0.145 650.203,-0.442 650.641,-1.178 C 651.08,-1.922 651.377,-2.807 651.377,-3.841 L 650.641,-10.042 L 655.367,-2.658 C 655.511,-2.509 655.511,-2.216 655.665,-2.071 C 655.809,-1.922 655.809,-1.773 655.954,-1.625 C 656.107,-1.331 656.405,-1.038 656.698,-0.74 C 656.992,-0.591 657.29,-0.293 657.586,-0.145 C 657.727,0 658.025,0.145 658.178,0.294 C 658.319,0.442 658.617,0.442 658.761,0.591 C 659.208,0.736 659.654,1.034 660.092,1.179 C 660.539,1.328 660.833,1.476 661.275,1.625 C 661.713,1.774 662.16,1.774 662.598,1.923 C 663.048,2.067 663.338,2.067 663.789,2.067 H 681.798 C 683.721,2.067 685.639,1.774 687.413,1.179 C 689.038,0.591 690.663,-0.293 692.288,-1.476 C 693.908,-2.807 695.094,-4.432 695.823,-6.202 C 696.567,-7.975 696.86,-9.894 696.86,-12.109 C 696.86,-13.143 696.711,-14.177 696.567,-15.359 C 696.414,-16.538 696.12,-17.724 695.823,-18.902 L 680.173,-85.058 C 680.173,-86.091 680.327,-86.976 680.471,-87.72 C 680.616,-88.456 680.914,-89.337 681.356,-90.077 C 681.508,-90.226 681.654,-90.523 681.798,-90.672 C 681.951,-90.817 682.092,-91.11 682.245,-91.408 C 682.389,-91.553 682.683,-91.851 682.981,-92 C 683.129,-92.293 683.423,-92.59 683.572,-92.739 C 683.721,-92.888 684.01,-92.888 684.163,-93.033 C 684.308,-93.178 684.46,-93.178 684.606,-93.327 H 659.208 C 659.059,-93.327 659.059,-93.327 658.91,-93.178 H 658.319 C 658.025,-93.033 657.727,-92.888 657.434,-92.739 C 657.136,-92.59 656.842,-92.293 656.698,-92.144 C 656.549,-92 656.549,-91.851 656.405,-91.702 C 656.251,-91.553 656.251,-91.553 656.107,-91.408 C 655.954,-91.259 655.809,-90.817 655.665,-90.375 C 655.511,-89.936 655.511,-89.337 655.511,-88.898 V -88.601 V -88.307 C 655.665,-88.159 655.665,-87.865 655.809,-87.571 V -87.125 L 670.135,-25.546 V -24.955 V -24.509 C 669.99,-23.479 669.837,-22.442 669.693,-21.412 C 669.54,-20.527 669.242,-19.936 668.953,-19.494 C 668.51,-18.758 667.476,-18.163 665.703,-17.724 C 663.933,-17.426 662.011,-17.278 659.794,-17.278 H 659.356 H 658.761 C 657.29,-17.426 655.809,-17.575 654.478,-17.724 C 653.155,-18.018 651.964,-18.46 651.08,-18.902 C 650.05,-19.196 649.31,-19.787 648.723,-20.676 C 648.127,-21.561 647.685,-22.743 647.247,-24.364 L 631.589,-87.125 C 631.589,-88.456 631.743,-89.337 631.887,-89.783 C 632.032,-90.226 632.33,-90.672 632.627,-90.966 C 632.772,-91.11 632.772,-91.11 632.925,-91.11 C 632.925,-91.259 632.925,-91.259 633.07,-91.408 C 633.222,-91.553 633.222,-91.553 633.363,-91.702 C 633.508,-91.851 633.508,-92 633.661,-92.144 C 633.801,-92.293 634.099,-92.293 634.244,-92.442 C 634.397,-92.59 634.695,-92.739 634.839,-92.888 C 635.137,-93.033 635.43,-93.033 635.724,-93.178 C 635.876,-93.327 636.174,-93.327 636.319,-93.327 H 611.658 H 611.215 H 610.773 C 610.177,-93.178 609.59,-93.033 608.999,-92.888 C 608.408,-92.739 607.961,-92.442 607.523,-92.144 C 606.927,-91.702 606.485,-91.11 606.192,-90.523 C 605.898,-89.936 605.75,-89.192 605.898,-88.307 V -87.72 V -87.422 L 625.541,-5.61 C 625.541,-4.726 625.541,-3.841 625.388,-2.956 C 625.243,-2.216 624.946,-1.476 624.8,-0.74"
       style="fill:#ffffff;fill-opacity:1;fill-rule:nonzero;stroke:none"
       transform="matrix(1.3333333,0,0,-1.3333333,25.395999,52.254666)"
       clip-path="url(#clipPath3)" />
    <path
       id="path8"
       d="M 0,0 C 0.575,0 1.494,0.115 1.954,0.459 C 2.873,0.919 3.218,1.723 3.218,2.872 C 3.218,5.055 1.379,5.515 0.46,5.515 C -0.574,5.515 -1.034,5.285 -1.034,4.136 V 0 Z M 8.618,-8.618 C 6.09,-8.618 4.481,-8.043 3.103,-6.205 C 2.068,-4.826 1.494,-3.333 1.034,-2.528 C 0.575,-1.839 0,-1.724 -0.574,-1.724 H -1.034 V -4.481 C -1.034,-6.549 -0.804,-6.549 1.149,-6.665 V -8.503 H -6.549 V -6.665 C -4.596,-6.549 -4.366,-6.549 -4.366,-4.481 V 3.332 C -4.366,5.4 -4.596,5.4 -6.434,5.515 V 7.238 H 1.379 C 3.907,7.238 6.895,6.549 6.895,3.217 C 6.895,1.264 5.631,0 3.792,-0.689 C 4.941,-2.873 5.86,-4.137 7.584,-6.09 C 8.158,-6.665 8.618,-7.009 9.077,-7.239 Z M -10.915,-0.689 C -10.915,-7.583 -5.975,-12.754 0.575,-12.754 C 7.239,-12.754 12.18,-7.583 12.18,-0.689 C 12.18,6.089 7.239,11.49 0.575,11.49 C -6.204,11.49 -10.915,6.089 -10.915,-0.689 M 15.512,-0.689 C 15.512,-8.503 9.077,-15.512 0.575,-15.512 C -7.928,-15.512 -14.247,-9.077 -14.247,-0.689 C -14.247,7.354 -7.812,14.132 0.575,14.132 C 9.077,14.132 15.512,7.354 15.512,-0.689"
       style="fill:#ffffff;fill-opacity:1;fill-rule:nonzero;stroke:none"
       transform="matrix(1.3333333,0,0,-1.3333333,978.4409,18.842666)"
       clip-path="url(#clipPath9)" />
  </g>
</svg>
