<?xml version="1.0" encoding="UTF-8" standalone="no"?>
<!-- Created with Inkscape (http://www.inkscape.org/) -->

<svg
   width="800"
   height="133"
   viewBox="0 0 800 133"
   version="1.1"
   id="svg1"
   inkscape:version="1.3 (0e150ed, 2023-07-21)"
   sodipodi:docname="logo_txt_w.svg"
   xmlns:inkscape="http://www.inkscape.org/namespaces/inkscape"
   xmlns:sodipodi="http://sodipodi.sourceforge.net/DTD/sodipodi-0.dtd"
   xmlns="http://www.w3.org/2000/svg"
   xmlns:svg="http://www.w3.org/2000/svg">
  <sodipodi:namedview
     id="namedview1"
     pagecolor="#ffffff"
     bordercolor="#666666"
     borderopacity="1.0"
     inkscape:showpageshadow="2"
     inkscape:pageopacity="0.0"
     inkscape:pagecheckerboard="true"
     inkscape:deskcolor="#d1d1d1"
     inkscape:document-units="px"
     inkscape:zoom="0.78751403"
     inkscape:cx="396.81833"
     inkscape:cy="358.08886"
     inkscape:window-width="1392"
     inkscape:window-height="1027"
     inkscape:window-x="0"
     inkscape:window-y="25"
     inkscape:window-maximized="0"
     inkscape:current-layer="layer1"
     showgrid="false" />
  <defs
     id="defs1" />
  <g
     inkscape:label="Layer 1"
     inkscape:groupmode="layer"
     id="layer1">
    <path
       id="path1"
       d="M 21.295924,27.885493 C 21.295924,27.713895 21.295924,27.713895 21.124323,27.542255 C 20.96988,27.387842 20.96988,27.216244 20.798276,27.061789 C 20.626671,26.718593 20.300626,26.392539 19.802978,26.066486 C 19.305327,25.894888 18.82484,25.740433 18.327193,25.740433 H 43.569982 C 43.741585,25.740433 44.067633,25.740433 44.393678,25.740433 C 44.565282,25.740433 44.891326,25.740433 45.062929,25.894888 C 45.388973,25.894888 45.715022,25.894888 46.041067,26.066486 C 46.367111,26.238085 46.710316,26.238085 47.036362,26.238085 C 47.207967,26.392539 47.362409,26.392539 47.534013,26.392539 C 47.688455,26.564137 47.860058,26.564137 48.03166,26.564137 C 48.855357,27.061789 49.507446,27.713895 50.005093,28.863611 C 50.331138,30.030512 50.502744,31.008671 50.674347,32.175573 C 50.674347,32.501584 50.674347,32.827638 50.674347,32.999236 C 50.674347,33.325288 50.674347,33.651341 50.674347,33.82294 C 50.674347,33.977395 50.674347,33.977395 50.674347,34.148993 C 50.674347,34.320592 50.674347,34.475046 50.674347,34.646644 C 50.674347,34.972656 50.674347,35.29871 50.674347,35.641948 C 50.674347,36.122413 50.674347,36.46561 50.502744,36.620066 L 54.295168,29.361263 C 54.46677,29.03521 54.792814,28.709156 55.290466,28.211505 C 55.616511,27.885493 55.942556,27.542255 56.440203,27.387842 C 56.766252,27.216244 57.109456,27.061789 57.263899,26.890191 C 57.435502,26.718593 57.761547,26.718593 57.933149,26.564137 C 58.087591,26.564137 58.259194,26.564137 58.413641,26.392539 C 58.585239,26.238085 58.911284,26.238085 59.082885,26.066486 C 59.254493,26.066486 59.254493,26.066486 59.408939,26.066486 C 59.408939,26.066486 59.408939,26.066486 59.580541,26.066486 C 59.734979,25.894888 59.906582,25.894888 60.078184,25.740433 C 60.232631,25.740433 60.404238,25.740433 60.558671,25.740433 H 86.642328 L 83.004341,39.760386 C 83.004341,40.429636 82.849902,41.081742 82.6783,41.579393 C 82.352251,42.077045 82.02621,42.72911 81.683001,43.226803 C 81.528555,43.398401 81.528555,43.398401 81.356953,43.552814 C 81.18535,43.724412 81.18535,43.878867 81.030912,44.050465 C 80.859309,44.222064 80.859309,44.222064 80.704862,44.376519 C 80.533257,44.548117 80.533257,44.548117 80.361654,44.719715 C 80.035614,45.045767 79.709565,45.371821 79.211922,45.697875 C 78.714266,46.023886 78.062176,46.367123 77.564532,46.521579 C 77.066876,46.693177 76.740837,46.693177 76.414787,46.864775 C 75.917144,47.019189 75.591091,47.019189 75.247887,47.019189 H 56.2686 C 54.46677,47.019189 53.145427,47.190786 52.150133,47.345241 C 51.154834,47.51684 50.176699,48.014492 49.353004,48.512142 C 49.181401,48.666597 49.181401,48.666597 49.009798,48.838196 C 48.855357,49.009794 48.512147,49.009794 48.357705,49.164249 C 48.186102,49.335848 48.03166,49.335848 47.860058,49.490303 C 47.688455,49.6619 47.362409,49.987953 47.207967,50.159551 C 46.710316,50.657203 46.21267,51.154854 45.715022,51.978517 C 45.217371,52.802222 44.891326,53.78034 44.565282,54.947241 L 28.383124,124.24054 C 28.228681,124.58372 28.228681,124.90978 28.228681,125.08137 C 28.228681,125.23584 28.228681,125.56185 28.228681,125.73348 C 28.228681,126.23114 28.228681,126.72874 28.383124,127.2264 C 28.554726,127.70691 28.726329,128.0501 28.880772,128.37616 C 28.880772,128.5306 28.880772,128.5306 29.052378,128.70221 C 29.052378,128.8738 29.052378,128.8738 29.052378,128.8738 C 29.052378,129.02827 29.052378,129.02827 29.20682,129.02827 C 29.20682,129.19986 29.20682,129.19986 29.20682,129.37146 C 29.704467,130.19516 30.373717,130.84724 31.197413,131.34488 C 32.021105,131.84254 32.844801,132.16859 33.668493,132.16859 H 7.10436 C 5.6114146,132.16859 4.4616767,131.99698 3.4663787,131.67093 C 2.3166397,131.34488 1.6645481,130.84724 1.3213427,130.02353 C 0.99529694,129.52592 0.66925113,129.02827 0.49764847,128.37616 C 0.3432064,127.70691 0.17160374,127.0548 0,126.38555 C 0,126.23114 0,126.0595 0,125.90508 C 0,125.73348 0,125.73348 0,125.56185 L 21.295924,33.977395 C 21.450367,33.15369 21.793571,32.329985 21.948014,31.677921 C 22.119616,31.008671 22.119616,30.528164 22.119616,30.030512 C 22.119616,29.858913 22.119616,29.532861 22.119616,29.361263 C 21.948014,29.206808 21.948014,29.03521 21.948014,28.863611 C 21.793571,28.709156 21.793571,28.537557 21.621969,28.383145 C 21.450367,28.211505 21.450367,28.039907 21.295924,27.885493 Z M 100.83818,38.113019 L 102.64001,26.066486 H 155.44224 C 158.42811,26.066486 161.05366,26.392539 163.37028,26.890191 C 165.51533,27.387842 167.48874,28.709156 169.30774,30.528164 C 170.6291,31.832335 171.62438,33.496886 172.44808,35.29871 C 173.27177,37.117716 173.76943,39.108322 173.92387,40.910144 C 173.92387,41.081742 173.92387,41.407795 173.92387,41.579393 C 173.92387,41.733848 173.92387,42.077045 173.92387,42.2315 C 173.92387,43.055163 173.92387,44.050465 173.76943,44.874169 C 173.59783,45.697875 173.27177,46.693177 173.10017,47.51684 L 158.25651,116.32962 C 157.75886,117.80539 157.58728,119.29835 157.43283,120.61971 C 157.26122,121.94105 157.10677,123.09077 157.10677,124.24054 C 157.10677,125.40743 157.26122,126.55715 157.43283,127.38086 C 157.58728,128.20456 157.75886,129.02827 157.93046,129.52592 C 158.08493,129.69751 158.08493,129.69751 158.25651,129.69751 C 158.25651,129.85193 158.25651,129.85193 158.25651,130.02353 C 158.58257,130.52117 158.90861,130.84724 159.40625,131.17328 C 159.9039,131.51647 160.40154,131.67093 160.89919,131.84254 C 161.05366,131.99698 161.39685,131.99698 161.55129,131.99698 C 161.7229,132.16859 162.04894,132.16859 162.22056,132.16859 H 132.01843 C 131.84682,132.16859 131.52079,132.16859 131.36635,131.99698 C 131.02315,131.99698 130.6971,131.84254 130.37106,131.67093 C 130.19945,131.51647 129.8734,131.34488 129.70181,131.17328 C 129.37576,131.01883 129.0497,131.01883 128.8781,130.84724 C 128.72367,130.67562 128.55207,130.52117 128.38044,130.34958 C 128.22602,130.19516 128.22602,130.19516 128.22602,130.02353 C 128.05441,129.85193 128.05441,129.69751 128.05441,129.52592 C 127.89998,129.37146 127.89998,129.19986 127.72837,129.02827 C 127.55678,128.8738 127.55678,128.5306 127.55678,128.20456 C 127.4023,128.0501 127.4023,127.70691 127.23072,127.55245 C 127.07627,127.2264 127.07627,126.8832 127.07627,126.55715 C 126.90468,126.23114 126.90468,125.90508 126.90468,125.73348 L 137.95589,78.868708 H 117.32923 C 115.51024,78.868708 113.7084,79.040304 112.21546,79.366359 C 110.56806,79.86401 109.07513,80.687716 107.92538,82.16349 C 107.59933,82.661141 107.27329,83.158791 106.77565,83.982498 C 106.278,84.806161 105.60873,85.801462 105.12825,86.796763 C 104.63061,87.946513 104.2874,89.096232 103.80691,90.263139 C 103.30927,91.567308 102.81161,92.888665 102.31397,94.210022 C 101.98792,95.376917 101.81632,96.355041 101.66187,97.521938 C 101.49027,98.671699 101.31866,99.667 101.31866,100.64513 C 101.31866,101.64043 101.49027,102.63573 101.81632,103.45939 C 101.98792,104.2831 102.48557,105.1068 102.98323,105.60445 C 103.13766,105.60445 103.30927,105.7589 103.63531,105.93049 C 103.80691,106.1021 104.13295,106.42815 104.63061,106.59975 C 104.78504,106.75416 104.95665,106.75416 105.12825,106.92581 C 105.2827,107.08022 105.2827,107.08022 105.4543,107.08022 C 105.60873,107.25186 105.95195,107.25186 106.1064,107.42346 C 106.278,107.57786 106.60403,107.57786 106.77565,107.57786 H 132.01843 L 121.29326,125.73348 C 121.12165,125.90508 120.9672,126.23114 120.79561,126.38555 C 120.62401,126.55715 120.29796,126.8832 120.14352,127.0548 C 119.97191,127.38086 119.64586,127.70691 119.47426,127.8785 C 119.31983,128.0501 118.97662,128.37616 118.82217,128.5306 C 118.47897,128.70221 118.15293,128.8738 117.99847,129.02827 C 117.82688,129.19986 117.50082,129.52592 117.32923,129.69751 C 117.17478,129.85193 116.83156,129.85193 116.50553,130.02353 C 116.17949,130.19516 115.85344,130.52117 115.68184,130.67562 C 115.18418,131.01883 114.5321,131.34488 114.03445,131.67093 C 113.5368,131.99698 112.88471,132.16859 112.21546,132.16859 H 90.593479 C 90.439041,132.16859 90.439041,132.16859 90.267434,132.16859 C 90.112996,132.16859 89.769795,132.16859 89.615345,132.16859 C 88.79165,132.16859 87.967954,131.99698 87.127102,131.84254 C 86.303408,131.67093 85.325273,131.51647 84.501578,131.01883 C 82.837029,130.52117 81.361245,129.52592 80.039897,128.37616 C 78.54696,127.2264 77.397215,125.90508 76.573518,124.08607 C 75.749826,122.59312 75.252183,120.77416 74.92613,118.6291 C 74.600089,116.48407 74.428487,114.33902 74.428487,112.03954 C 74.428487,109.72292 74.600089,107.25186 74.92613,104.60914 C 75.08058,102.13807 75.578223,99.495405 76.075875,96.852691 C 77.071174,92.064958 78.392508,87.448863 79.868294,82.987186 C 81.361245,78.542654 82.837029,74.750231 84.501578,71.438305 C 85.153667,70.116949 85.822924,68.967197 86.475013,67.817479 C 87.127102,66.650582 87.796348,65.826876 88.448438,65.003214 C 89.941389,63.029746 91.914826,61.708433 94.729113,60.884729 C 97.526244,60.061024 100.34054,59.734971 103.4637,59.563373 C 104.13295,59.391775 104.78504,59.391775 105.60873,59.391775 C 106.278,59.391775 106.93009,59.391775 107.59933,59.391775 H 137.13221 C 137.30382,59.391775 137.45824,59.391775 137.62986,59.391775 C 137.80145,59.563373 137.95589,59.563373 138.12751,59.563373 C 138.28195,59.563373 138.45353,59.563373 138.62515,59.563373 C 138.77958,59.563373 138.77958,59.563373 138.95119,59.563373 C 139.27724,59.563373 139.60329,59.563373 139.94648,59.391775 C 140.27253,59.391775 140.59859,59.391775 140.92462,59.391775 C 141.09624,59.23732 141.42227,59.23732 141.74831,59.065721 C 142.09153,58.894123 142.41757,58.894123 142.74361,58.739669 C 143.56731,58.070419 144.23658,57.418354 144.5626,56.594649 C 144.71704,55.770945 144.88866,54.947241 145.06026,53.951979 C 145.06026,53.454328 145.06026,53.128275 145.06026,52.630624 C 145.06026,52.30457 145.06026,51.978517 145.2147,51.480866 C 145.2147,51.309268 145.2147,51.309268 145.2147,51.154854 C 145.2147,51.154854 145.2147,51.154854 145.2147,50.983256 C 145.2147,50.983256 145.2147,50.983256 145.2147,50.811616 C 145.2147,50.811616 145.2147,50.811616 145.2147,50.657203 C 145.2147,49.833498 145.06026,49.009794 144.88866,48.168947 C 144.5626,47.345241 144.23658,46.864775 143.89336,46.367123 C 143.3957,45.697875 142.74361,45.200223 141.91992,45.045767 C 140.92462,44.874169 139.94648,44.719715 138.77958,44.719715 H 108.59463 C 107.59933,44.719715 106.77565,44.548117 105.95195,44.222064 C 105.12825,43.878867 104.2874,43.552814 103.63531,43.226803 C 103.4637,43.226803 103.4637,43.226803 103.30927,43.055163 C 103.13766,43.055163 103.13766,43.055163 102.98323,42.900749 C 102.48557,42.72911 101.98792,42.2315 101.66187,41.579393 C 101.31866,40.910144 101.16424,40.258037 100.99263,39.434333 C 100.83818,39.262735 100.83818,38.936723 100.83818,38.765125 C 100.83818,38.61067 100.83818,38.267432 100.83818,38.113019 Z M 257.43015,2.7971254 C 257.43015,2.6255271 257.43015,2.6255271 257.25854,2.471072 C 257.10411,2.2994737 257.10411,2.2994737 256.93251,2.1450608 C 256.7609,1.9734204 256.43485,1.6473669 256.1088,1.4757697 C 255.61117,1.3213557 255.28511,0.97815905 254.95907,0.82370401 C 254.78747,0.65210676 254.46142,0.65210676 254.28981,0.48046626 C 253.96379,0.48046626 253.63771,0.48046626 253.46612,0.48046626 H 278.55447 C 279.37815,0.48046626 280.20184,0.65210676 281.02555,0.97815905 C 281.67765,1.4757697 282.17529,1.9734204 282.67293,2.471072 C 283.34221,2.9687237 283.82268,3.7924277 284.32032,4.6161317 C 284.66353,5.4398369 284.81797,6.4350982 284.81797,7.5848555 L 255.61117,122.43871 C 255.61117,122.59312 255.61117,122.93636 255.61117,123.09077 C 255.61117,123.41683 255.61117,123.76003 255.61117,123.91447 C 255.61117,124.58372 255.61117,125.23584 255.78275,125.73348 C 255.93719,126.38555 256.1088,127.0548 256.28041,127.55245 C 256.43485,128.5306 257.10411,129.37146 258.08225,130.19516 C 259.07753,131.01883 260.07283,131.51647 261.22257,131.84254 C 261.39418,131.99698 261.72021,131.99698 262.04628,131.99698 C 262.3723,132.16859 262.71551,132.16859 263.04155,132.16859 H 238.12483 C 237.79877,132.16859 237.45556,132.16859 237.12951,132.16859 C 236.80348,132.16859 236.47743,132.16859 236.30581,132.16859 C 234.83004,131.99698 233.5087,131.99698 232.68502,131.84254 C 231.84415,131.67093 230.86601,131.34488 230.04233,130.67562 C 229.6991,130.19516 229.37306,129.52592 229.21862,128.8738 C 229.04703,128.37616 228.87541,127.70691 228.87541,126.8832 C 228.87541,126.72874 228.87541,126.38555 228.87541,126.0595 C 228.87541,125.73348 228.87541,125.40743 229.04703,125.08137 L 247.20261,49.6619 H 232.68502 C 232.3418,49.833498 232.01576,49.833498 231.68969,49.833498 C 231.19205,49.833498 230.86601,49.833498 230.36835,49.833498 C 230.04233,49.833498 229.6991,49.833498 229.54467,49.833498 C 229.21862,49.833498 228.87541,49.833498 228.54939,49.833498 C 228.22332,49.833498 227.89727,49.833498 227.72568,49.833498 C 227.39963,49.833498 227.07359,49.833498 226.73038,49.833498 C 224.2593,49.833498 221.6166,50.485564 219.14552,51.978517 C 216.50283,53.454328 213.70571,57.589952 210.89144,64.025047 C 210.3938,65.346404 209.74168,66.993773 208.918,68.795635 C 208.0943,70.614599 207.42506,72.605212 206.60137,74.750231 C 206.10371,75.899983 205.77767,77.049701 205.28001,78.216609 C 204.78236,79.366359 204.45633,80.687716 203.95866,81.837434 C 203.13496,84.308543 202.4829,86.796763 201.98523,89.267838 C 201.4876,91.738945 201.16153,93.883966 201.16153,95.85739 C 201.16153,96.526636 201.16153,97.178747 201.316,97.676398 C 201.4876,98.174048 201.4876,98.843295 201.6592,99.323767 C 202.80892,103.13337 204.78236,105.60445 207.42506,106.75416 C 210.06774,108.07552 213.03647,108.74477 216.1768,108.74477 C 216.82889,108.74477 217.49814,108.74477 218.15022,108.57316 C 218.64788,108.57316 219.31713,108.57316 219.79762,108.57316 C 221.29057,108.40157 222.78351,108.07552 224.2593,107.90392 C 225.75223,107.74947 227.07359,107.42346 228.39493,107.08022 C 229.04703,106.92581 229.6991,106.75416 230.36835,106.59975 C 230.86601,106.42815 231.5181,106.42815 232.01576,106.25656 C 232.3418,106.1021 232.68502,105.93049 233.01105,105.7589 C 233.33709,105.60445 233.66312,105.2784 234.16078,104.93519 C 234.3324,104.93519 234.3324,104.93519 234.48684,104.78074 C 234.48684,104.78074 234.48684,104.78074 234.65843,104.60914 C 234.98449,104.2831 235.31051,103.95708 235.80818,103.61384 C 236.13421,103.45939 236.47743,103.2878 236.63187,103.13337 L 222.78351,127.55245 C 222.78351,127.70691 222.78351,127.70691 222.78351,127.70691 C 222.61193,127.8785 222.61193,127.8785 222.44031,128.0501 C 222.11426,128.37616 221.78822,128.70221 221.29057,129.02827 C 220.79291,129.52592 220.46689,129.85193 219.96922,130.19516 C 219.64319,130.34958 219.31713,130.52117 218.97393,130.67562 C 218.64788,130.84724 218.32183,130.84724 218.15022,130.84724 C 217.65259,131.17328 217.1721,131.51647 216.50283,131.67093 C 215.85075,131.84254 215.1815,131.99698 214.3578,131.99698 C 213.86017,132.16859 213.53411,132.16859 213.20806,132.16859 C 212.71041,132.16859 212.38437,132.16859 212.05834,132.16859 H 195.72174 C 193.57668,132.16859 191.7577,131.84254 189.93872,131.34488 C 188.11972,130.84724 186.14629,130.19516 184.3273,129.37146 C 180.36327,127.2264 177.72058,124.08607 176.39925,119.95045 C 175.09506,115.83198 174.42582,111.54189 174.2542,107.08022 C 174.2542,106.92581 174.2542,106.75416 174.2542,106.59975 C 174.2542,106.42815 174.2542,106.42815 174.2542,106.25656 C 174.2542,102.30967 174.92346,97.024287 176.07319,90.589184 C 177.24009,84.154092 178.88749,77.375757 181.18695,70.288554 C 184.00123,61.880031 187.46764,53.78034 191.7577,46.195525 C 196.04777,38.61067 200.98993,33.325288 206.44692,30.184967 C 208.59195,29.03521 211.21747,28.211505 214.20335,28.039907 C 217.00051,27.885493 219.96922,27.885493 223.10955,27.885493 H 251.81873 L 258.08225,6.2634997 C 258.08225,5.4398369 258.08225,4.7705457 257.92779,4.2900795 C 257.7562,3.7924277 257.60175,3.2947761 257.43015,2.7971254 Z M 305.95087,38.113019 L 307.7527,26.066486 H 360.55493 C 363.54081,26.066486 366.16634,26.392539 368.48298,26.890191 C 370.62802,27.387842 372.60145,28.709156 374.42043,30.528164 C 375.74177,31.832335 376.7371,33.496886 377.56078,35.29871 C 378.38447,37.117716 378.8821,39.108322 379.03656,40.910144 C 379.03656,41.081742 379.03656,41.407795 379.03656,41.579393 C 379.03656,41.733848 379.03656,42.077045 379.03656,42.2315 C 379.03656,43.055163 379.03656,44.050465 378.8821,44.874169 C 378.71052,45.697875 378.38447,46.693177 378.21285,47.51684 L 363.36922,116.32962 C 362.87155,117.80539 362.69995,119.29835 362.54553,120.61971 C 362.37392,121.94105 362.21947,123.09077 362.21947,124.24054 C 362.21947,125.40743 362.37392,126.55715 362.54553,127.38086 C 362.69995,128.20456 362.87155,129.02827 363.04317,129.52592 C 363.19762,129.69751 363.19762,129.69751 363.36922,129.69751 C 363.36922,129.85193 363.36922,129.85193 363.36922,130.02353 C 363.69525,130.52117 364.02131,130.84724 364.51896,131.17328 C 365.01661,131.51647 365.51426,131.67093 366.0119,131.84254 C 366.16634,131.99698 366.50956,131.99698 366.664,131.99698 C 366.83558,132.16859 367.16164,132.16859 367.33324,132.16859 H 337.13112 C 336.95953,132.16859 336.63347,132.16859 336.47902,131.99698 C 336.13582,131.99698 335.80979,131.84254 335.48374,131.67093 C 335.31213,131.51647 334.98608,131.34488 334.81449,131.17328 C 334.48844,131.01883 334.16239,131.01883 333.99081,130.84724 C 333.83635,130.67562 333.66476,130.52117 333.49314,130.34958 C 333.3387,130.19516 333.3387,130.19516 333.3387,130.02353 C 333.1671,129.85193 333.1671,129.69751 333.1671,129.52592 C 333.01266,129.37146 333.01266,129.19986 332.84107,129.02827 C 332.66945,128.8738 332.66945,128.5306 332.66945,128.20456 C 332.51499,128.0501 332.51499,127.70691 332.3434,127.55245 C 332.18898,127.2264 332.18898,126.8832 332.18898,126.55715 C 332.01736,126.23114 332.01736,125.90508 332.01736,125.73348 L 343.06857,78.868708 H 322.44193 C 320.62292,78.868708 318.8211,79.040304 317.32815,79.366359 C 315.68076,79.86401 314.18781,80.687716 313.03809,82.16349 C 312.71203,82.661141 312.38598,83.158791 311.88835,83.982498 C 311.39068,84.806161 310.72142,85.801462 310.24096,86.796763 C 309.7433,87.946513 309.4001,89.096232 308.9196,90.263139 C 308.42196,91.567308 307.92429,92.888665 307.42666,94.210022 C 307.1006,95.376917 306.92901,96.355041 306.77457,97.521938 C 306.60296,98.671699 306.43136,99.667 306.43136,100.64513 C 306.43136,101.64043 306.60296,102.63573 306.92901,103.45939 C 307.1006,104.2831 307.59827,105.1068 308.09592,105.60445 C 308.25034,105.60445 308.42196,105.7589 308.748,105.93049 C 308.9196,106.1021 309.24566,106.42815 309.7433,106.59975 C 309.89775,106.75416 310.06936,106.75416 310.24096,106.92581 C 310.39538,107.08022 310.39538,107.08022 310.567,107.08022 C 310.72142,107.25186 311.06464,107.25186 311.21907,107.42346 C 311.39068,107.57786 311.71672,107.57786 311.88835,107.57786 H 337.13112 L 326.40595,125.73348 C 326.23434,125.90508 326.07991,126.23114 325.90829,126.38555 C 325.73669,126.55715 325.41065,126.8832 325.2562,127.0548 C 325.08459,127.38086 324.75855,127.70691 324.58694,127.8785 C 324.43251,128.0501 324.08931,128.37616 323.93486,128.5306 C 323.59164,128.70221 323.26561,128.8738 323.11118,129.02827 C 322.93956,129.19986 322.61352,129.52592 322.44193,129.69751 C 322.28748,129.85193 321.94426,129.85193 321.61822,130.02353 C 321.29219,130.19516 320.96612,130.52117 320.79452,130.67562 C 320.29689,131.01883 319.6448,131.34488 319.14713,131.67093 C 318.64948,131.99698 317.99739,132.16859 317.32815,132.16859 H 295.70618 C 295.55173,132.16859 295.55173,132.16859 295.38013,132.16859 C 295.2257,132.16859 294.8825,132.16859 294.72805,132.16859 C 293.90435,132.16859 293.08067,131.99698 292.23981,131.84254 C 291.41611,131.67093 290.43796,131.51647 289.61428,131.01883 C 287.94973,130.52117 286.47396,129.52592 285.15261,128.37616 C 283.65966,127.2264 282.50991,125.90508 281.68624,124.08607 C 280.86253,122.59312 280.36487,120.77416 280.03884,118.6291 C 279.71279,116.48407 279.54118,114.33902 279.54118,112.03954 C 279.54118,109.72292 279.71279,107.25186 280.03884,104.60914 C 280.19327,102.13807 280.69094,99.495405 281.18857,96.852691 C 282.18387,92.064958 283.5052,87.448863 284.98099,82.987186 C 286.47396,78.542654 287.94973,74.750231 289.61428,71.438305 C 290.26637,70.116949 290.93563,68.967197 291.5877,67.817479 C 292.23981,66.650582 292.90905,65.826876 293.56113,65.003214 C 295.05408,63.029746 297.02751,61.708433 299.8418,60.884729 C 302.63893,60.061024 305.45321,59.734971 308.57639,59.563373 C 309.24566,59.391775 309.89775,59.391775 310.72142,59.391775 C 311.39068,59.391775 312.04276,59.391775 312.71203,59.391775 H 342.24489 C 342.4165,59.391775 342.57094,59.391775 342.74254,59.391775 C 342.91416,59.563373 343.06857,59.563373 343.24019,59.563373 C 343.39462,59.563373 343.56624,59.563373 343.73785,59.563373 C 343.89226,59.563373 343.89226,59.563373 344.06387,59.563373 C 344.38995,59.563373 344.71597,59.563373 345.05918,59.391775 C 345.38523,59.391775 345.71127,59.391775 346.03733,59.391775 C 346.20894,59.23732 346.53496,59.23732 346.86103,59.065721 C 347.20422,58.894123 347.53026,58.894123 347.85631,58.739669 C 348.68,58.070419 349.34925,57.418354 349.6753,56.594649 C 349.82974,55.770945 350.00135,54.947241 350.17295,53.951979 C 350.17295,53.454328 350.17295,53.128275 350.17295,52.630624 C 350.17295,52.30457 350.17295,51.978517 350.3274,51.480866 C 350.3274,51.309268 350.3274,51.309268 350.3274,51.154854 C 350.3274,51.154854 350.3274,51.154854 350.3274,50.983256 C 350.3274,50.983256 350.3274,50.983256 350.3274,50.811616 C 350.3274,50.811616 350.3274,50.811616 350.3274,50.657203 C 350.3274,49.833498 350.17295,49.009794 350.00135,48.168947 C 349.6753,47.345241 349.34925,46.864775 349.00605,46.367123 C 348.50841,45.697875 347.85631,45.200223 347.03263,45.045767 C 346.03733,44.874169 345.05918,44.719715 343.89226,44.719715 H 313.70732 C 312.71203,44.719715 311.88835,44.548117 311.06464,44.222064 C 310.24096,43.878867 309.4001,43.552814 308.748,43.226803 C 308.57639,43.226803 308.57639,43.226803 308.42196,43.055163 C 308.25034,43.055163 308.25034,43.055163 308.09592,42.900749 C 307.59827,42.72911 307.1006,42.2315 306.77457,41.579393 C 306.43136,40.910144 306.27692,40.258037 306.10531,39.434333 C 305.95087,39.262735 305.95087,38.936723 305.95087,38.765125 C 305.95087,38.61067 305.95087,38.267432 305.95087,38.113019 Z M 385.64758,48.014492 L 389.44,29.206808 C 392.58032,29.206808 395.37745,28.863611 397.84852,28.211505 C 400.33678,27.542255 402.63625,26.564137 405.1245,25.397237 C 405.94816,25.071183 406.60028,24.74513 407.424,24.247479 C 408.24769,23.749827 408.91693,23.423816 409.7406,22.926165 C 412.88096,21.107158 415.67809,18.636085 417.8231,15.83896 C 419.96818,13.024651 421.78714,9.9014725 422.9369,6.4350982 H 432.01469 L 428.05063,25.894888 H 452.81295 L 451.64604,42.574696 C 451.31999,43.552814 450.82235,44.376519 450.32469,44.874169 C 449.82709,45.54342 449.00338,46.023886 448.17966,46.521579 C 447.35597,47.019189 446.5323,47.51684 445.7086,47.688479 C 444.8849,47.842893 443.8896,48.014492 442.73987,48.014492 H 428.71992 C 428.22222,48.014492 427.89623,48.014492 427.55303,48.014492 C 427.22697,48.168947 426.90093,48.168947 426.57486,48.168947 C 425.90562,48.340545 425.40796,48.340545 424.9103,48.512142 C 424.42984,48.666597 423.9322,48.838196 423.60613,49.164249 C 423.43453,49.335848 423.26294,49.335848 423.10848,49.490303 C 422.9369,49.6619 422.9369,49.833498 422.76531,49.987953 C 422.43923,50.313966 422.28478,50.657203 422.11318,50.983256 C 421.9416,51.480866 421.9416,51.80692 421.78714,52.30457 C 421.61554,52.459025 421.61554,52.802222 421.61554,52.956677 C 421.61554,53.128275 421.61554,53.454328 421.46107,53.625926 L 409.7406,103.78544 C 409.7406,103.95708 409.7406,104.2831 409.7406,104.45469 C 409.7406,104.78074 409.7406,105.1068 409.7406,105.2784 C 409.7406,105.7589 409.7406,106.42815 409.89505,106.92581 C 409.89505,107.42346 410.06665,107.90392 410.23825,108.07552 C 410.23825,108.24712 410.23825,108.24712 410.39272,108.40157 C 410.39272,108.57316 410.39272,108.57316 410.39272,108.74477 C 410.73595,109.39687 411.21641,110.04894 411.88566,110.54663 C 412.53773,111.04424 413.36142,111.37029 414.18513,111.37029 H 432.01469 C 432.51236,111.37029 433.16443,111.21584 433.83365,110.71822 C 434.33132,110.39217 434.98342,110.04894 435.48108,109.56846 C 435.80712,109.22528 436.13318,108.89922 436.47634,108.57316 C 436.80238,108.40157 437.12844,108.24712 437.4545,108.07552 C 437.62609,107.90392 437.95215,107.74947 438.27821,107.42346 C 438.4498,107.25186 438.77586,106.92581 439.10191,106.42815 C 439.2735,106.1021 439.59951,105.7589 439.94275,105.43285 C 440.09717,105.1068 440.42321,104.78074 440.59481,104.2831 C 440.76641,104.11148 440.76641,103.78544 440.92087,103.61384 C 441.09247,103.45939 441.09247,103.13337 441.09247,102.96178 L 435.30949,127.2264 C 435.15502,127.38086 435.15502,127.70691 434.98342,127.8785 C 434.81178,128.20456 434.81178,128.5306 434.65736,128.70221 C 434.33132,129.19986 433.98811,129.69751 433.66206,130.19516 C 433.33602,130.67562 433.00997,131.01883 432.51236,131.17328 C 432.51236,131.17328 432.51236,131.17328 432.34072,131.17328 C 432.18631,131.34488 432.18631,131.34488 432.01469,131.34488 C 431.84305,131.51647 431.517,131.51647 431.3626,131.67093 C 431.01939,131.84254 430.69334,131.84254 430.36729,131.99698 C 429.86963,132.16859 429.37199,132.16859 428.87433,132.34018 C 428.22222,132.49463 427.55303,132.49463 426.90093,132.49463 L 384.32623,132.66623 C 383.82857,132.49463 383.1765,132.34018 382.67885,132.16859 C 382.00959,131.99698 381.51191,131.67093 381.03144,131.34488 C 380.85985,131.17328 380.85985,131.01883 380.68824,130.84724 C 380.53378,130.67562 380.3622,130.67562 380.20774,130.52117 C 379.53848,130.02353 379.04085,129.19986 378.38876,128.20456 C 377.89112,127.38086 377.71952,126.38555 377.56506,125.40743 C 377.56506,125.23584 377.56506,125.08137 377.56506,124.90978 C 377.56506,124.73818 377.56506,124.73818 377.56506,124.58372 L 394.55375,48.014492 Z M 475.24146,4.1184811 C 475.24146,3.4663744 475.08701,2.7971254 474.58934,2.1450608 C 474.09171,1.6473669 473.42245,1.1497574 472.77038,0.65210676 C 472.77038,0.48046626 472.77038,0.48046626 472.77038,0.32605338 C 472.59874,0.32605338 472.59874,0.32605338 472.44433,0.32605338 H 501.9772 C 502.14879,0.32605338 502.30324,0.32605338 502.47484,0.48046626 C 502.64646,0.65210676 502.9725,0.65210676 503.12696,0.82370401 C 503.12696,0.82370401 503.12696,0.82370401 503.2985,0.82370401 C 503.2985,0.97815905 503.2985,0.97815905 503.2985,0.97815905 C 503.47014,1.1497574 503.7962,1.1497574 503.95062,1.3213557 C 504.12222,1.4757697 504.29385,1.6473669 504.29385,1.6473669 C 504.29385,1.801822 504.29385,1.801822 504.44827,1.9734204 C 504.44827,2.1450608 504.44827,2.2994737 504.44827,2.471072 C 504.61991,2.6255271 504.61991,2.9687237 504.79148,3.2947761 C 504.79148,3.6208294 504.79148,3.9468828 504.79148,4.2900795 C 504.79148,4.4445345 504.79148,4.4445345 504.79148,4.6161317 C 504.79148,4.7705457 504.79148,4.7705457 504.79148,4.7705457 C 504.79148,4.9421441 504.79148,4.9421441 504.79148,5.1137835 C 504.61991,5.2681974 504.61991,5.2681974 504.61991,5.4398369 L 496.53741,40.910144 L 504.29385,29.03521 C 504.61991,28.863611 504.94593,28.709156 505.27197,28.537557 C 505.61516,28.383145 505.94123,28.039907 506.26728,27.885493 C 506.59329,27.713895 506.93652,27.387842 507.41699,27.216244 C 507.76022,27.061789 508.08624,26.890191 508.58389,26.718593 C 508.73835,26.718593 509.08154,26.718593 509.23601,26.564137 C 509.4076,26.392539 509.73365,26.238085 510.05971,26.066486 C 510.05971,26.066486 510.05971,26.066486 510.23131,26.066486 C 510.55736,25.894888 510.8834,25.894888 511.05501,25.740433 C 511.22662,25.568835 511.55261,25.568835 511.70706,25.568835 H 535.64568 C 535.97174,25.568835 536.2978,25.568835 536.62384,25.568835 C 536.96704,25.568835 537.29309,25.568835 537.61911,25.568835 C 539.76418,25.740433 541.73758,26.238085 543.72818,27.061789 C 545.54719,27.885493 547.19455,29.206808 548.51593,31.008671 C 549.16798,31.832335 549.83722,32.673182 550.48935,33.651341 C 550.98698,34.818242 551.48464,35.79636 551.81069,36.791663 C 551.98228,37.615368 552.30836,38.267432 552.47995,38.936723 C 552.63437,39.588788 552.63437,40.258037 552.63437,40.910144 C 552.63437,41.081742 552.63437,41.081742 552.63437,41.25334 C 552.63437,41.407795 552.63437,41.579393 552.47995,41.733848 C 552.47995,41.905447 552.47995,41.905447 552.47995,42.077045 C 552.30836,42.2315 552.30836,42.403098 552.30836,42.574696 L 533.50066,125.90508 C 533.32906,126.0595 533.32906,126.23114 533.32906,126.38555 C 533.32906,126.55715 533.32906,126.8832 533.32906,127.0548 C 533.32906,127.55245 533.50066,128.0501 533.65508,128.37616 C 533.82672,128.70221 534.15274,129.02827 534.32432,129.19986 C 534.47878,129.37146 534.47878,129.52592 534.65037,129.69751 C 534.82201,129.85193 534.82201,129.85193 534.97643,130.02353 C 535.30248,130.67562 535.80014,131.17328 536.62384,131.51647 C 537.44749,131.99698 538.11681,132.16859 538.94046,132.16859 H 512.20472 C 512.0503,132.16859 511.70706,132.16859 511.55261,131.99698 C 511.38102,131.99698 511.05501,131.99698 510.72895,131.99698 C 510.23131,131.84254 509.73365,131.51647 509.23601,131.17328 C 508.73835,130.84724 508.2407,130.52117 507.91468,130.02353 C 507.58863,129.69751 507.41699,129.19986 507.26258,128.5306 C 507.09099,128.0501 506.93652,127.38086 506.93652,126.72874 C 506.93652,126.55715 506.93652,126.55715 506.93652,126.38555 C 506.93652,126.23114 506.93652,126.23114 506.93652,126.0595 C 506.93652,126.0595 506.93652,126.0595 507.09099,125.90508 C 507.09099,125.73348 507.09099,125.73348 507.09099,125.56185 L 521.95178,61.056327 C 522.10619,60.713131 522.10619,60.387077 522.27783,60.061024 C 522.27783,59.734971 522.27783,59.391775 522.27783,59.065721 C 522.27783,58.894123 522.27783,58.739669 522.27783,58.56807 C 522.27783,58.413657 522.27783,58.242016 522.27783,58.070419 C 522.27783,57.744407 522.27783,57.418354 522.27783,57.092301 C 522.27783,56.749104 522.27783,56.423052 522.10619,56.096998 C 521.95178,55.273294 521.78019,54.278032 521.6086,53.454328 C 521.45412,52.630624 521.11093,51.978517 520.78489,51.309268 C 520.28723,50.811616 519.96117,50.313966 519.63512,49.833498 C 519.3091,49.335848 518.96587,49.009794 518.63986,48.512142 C 517.49011,47.51684 516.34035,46.864775 515.17344,46.521579 C 514.02372,46.367123 512.20472,46.195525 510.05971,46.195525 C 506.93652,46.195525 504.61991,46.195525 502.9725,46.367123 C 501.32513,46.521579 499.83217,46.864775 498.51081,47.688479 C 498.33922,47.842893 498.33922,47.842893 498.18477,47.842893 C 498.01318,48.014492 498.01318,48.014492 497.85872,48.168947 C 497.68712,48.340545 497.36107,48.340545 497.18947,48.512142 C 497.03501,48.666597 496.6918,49.009794 496.36577,49.164249 C 496.03975,49.490303 495.7137,49.833498 495.54211,49.987953 C 495.21604,50.313966 494.88998,50.657203 494.54681,50.983256 C 494.39235,51.309268 494.22074,51.635321 494.04915,51.80692 C 493.89468,51.978517 493.72309,52.30457 493.56864,52.459025 L 475.24146,125.56185 C 475.24146,126.72874 475.41305,127.55245 475.91071,128.20456 C 476.23677,128.8738 476.56281,129.52592 477.06043,130.02353 C 477.55811,130.67562 478.05574,131.17328 478.87944,131.51647 C 479.53154,131.99698 480.3552,132.16859 481.3505,132.16859 H 454.11712 C 453.29346,132.16859 452.46975,131.99698 451.81765,131.51647 C 450.99394,131.17328 450.49633,130.67562 449.99868,130.02353 C 449.82709,129.69751 449.67262,129.37146 449.50103,128.8738 C 449.34657,128.37616 449.34657,128.0501 449.34657,127.55245 C 449.34657,127.2264 449.34657,126.8832 449.34657,126.55715 C 449.50103,126.23114 449.50103,125.90508 449.67262,125.56185 L 475.56751,7.5848555 C 475.56751,7.4132571 475.56751,7.4132571 475.56751,7.2588021 C 475.56751,7.0872038 475.56751,7.0872038 475.56751,6.9156055 C 475.56751,6.7611515 475.56751,6.4350982 475.56751,6.2634997 C 475.41305,6.0919014 475.41305,5.7658481 475.41305,5.6114352 C 475.41305,5.2681974 475.41305,4.9421441 475.41305,4.6161317 C 475.24146,4.4445345 475.24146,4.2900795 475.24146,4.1184811 Z M 575.73643,3.7924277 C 575.73643,3.6208294 575.73643,3.6208294 575.73643,3.4663744 C 575.582,3.4663744 575.582,3.4663744 575.582,3.2947761 C 575.41038,2.7971254 575.08433,2.1450608 574.58668,1.6473669 C 574.08904,1.1497574 573.59137,0.82370401 573.09372,0.48046626 C 572.93931,0.32605338 572.61326,0.32605338 572.44166,0.15445504 C 572.27006,0 571.94402,0 571.78956,0 H 597.52998 C 597.68444,0 598.01049,0 598.35369,0 C 598.50816,0 598.85135,0 599.00576,0 C 600.32712,0 601.32242,0 602.14612,0.15445504 C 602.79822,0.32605338 603.29588,0.65210676 603.79348,1.3213557 C 603.96509,1.6473669 604.29114,2.1450608 604.46274,2.6255271 C 604.61718,3.2947761 604.7888,3.9468828 604.7888,4.7705457 C 604.7888,5.1137835 604.7888,5.4398369 604.7888,5.7658481 C 604.61718,6.0919014 604.61718,6.4350982 604.46274,6.5895532 L 580.85017,119.6244 C 580.52418,121.11735 580.19812,122.26707 580.02648,123.41683 C 579.70046,124.58372 579.52886,125.56185 579.52886,126.55715 C 579.52886,126.8832 579.52886,127.2264 579.70046,127.55245 C 579.70046,128.0501 579.70046,128.37616 579.87206,128.8738 C 580.02648,129.02827 580.19812,129.19986 580.36972,129.37146 C 580.52418,129.52592 580.69577,129.85193 580.85017,130.02353 C 581.02177,130.19516 581.34783,130.34958 581.51947,130.52117 C 581.67388,130.67562 581.84549,131.01883 582.01708,131.17328 C 582.17155,131.34488 582.51473,131.51647 582.84078,131.67093 C 582.99524,131.84254 583.33843,131.99698 583.49289,132.16859 H 558.42171 C 557.25478,132.16859 556.43111,131.99698 555.6074,131.51647 C 554.7837,131.01883 554.28604,130.52117 553.78843,129.85193 C 553.63399,129.69751 553.46238,129.52592 553.30792,129.37146 C 553.13633,129.19986 553.13633,129.02827 552.96474,128.8738 C 552.81028,128.70221 552.81028,128.37616 552.63867,128.20456 C 552.46707,128.0501 552.46707,127.70691 552.31261,127.55245 C 552.14102,127.0548 551.98656,126.72874 551.98656,126.23114 C 551.81497,125.73348 551.81497,125.40743 551.81497,124.90978 C 551.81497,124.24054 551.81497,123.41683 551.98656,122.59312 C 552.14102,121.76946 552.31261,120.77416 552.63867,119.6244 L 575.41038,12.526999 C 575.41038,11.874935 575.41038,11.205685 575.582,10.725177 C 575.73643,10.227526 575.73643,9.7298741 575.90804,9.2322224 C 576.07964,8.5801579 576.07964,7.9109089 576.23409,7.4132571 C 576.40569,6.9156055 576.40569,6.4350982 576.40569,5.9374464 C 576.40569,5.7658481 576.40569,5.4398369 576.40569,5.2681974 C 576.40569,5.1137835 576.40569,4.9421441 576.23409,4.7705457 C 576.23409,4.6161317 576.23409,4.4445345 576.07964,4.2900795 C 575.90804,4.1184811 575.90804,3.9468828 575.73643,3.7924277 Z M 675.40339,120.12204 C 671.61098,123.09077 667.64695,125.40743 663.35687,127.2264 C 658.91237,129.02827 654.6223,130.19516 650.1606,131.01883 C 648.1872,131.34488 646.19658,131.51647 644.39477,131.67093 C 642.40417,131.84254 640.43074,131.99698 638.61174,131.99698 C 631.52453,131.99698 625.24388,131.01883 619.478,128.8738 C 613.69501,126.8832 609.57652,124.24054 607.25986,120.94575 C 605.76694,118.47469 604.61718,115.33432 603.79348,111.54189 C 602.96983,107.74947 602.64378,103.45939 602.64378,98.671699 C 602.64378,94.879267 602.79822,90.743644 603.46748,86.299112 C 603.96509,82.00903 604.7888,77.71899 605.93854,73.428875 C 607.4315,67.645883 609.57652,61.880031 612.20204,56.268596 C 614.6903,50.811616 617.81344,45.697875 621.62306,41.081742 C 626.73678,34.972656 632.17663,30.682619 637.78806,28.537557 C 643.22786,26.392539 649.33695,25.397237 656.09805,25.568835 C 656.59575,25.568835 657.26497,25.568835 657.7626,25.568835 C 658.24311,25.568835 658.74076,25.568835 659.23844,25.568835 V 43.878867 C 658.08866,43.878867 656.92177,43.878867 655.77204,43.878867 C 654.6223,44.050465 653.30098,44.222064 652.15121,44.376519 C 650.3322,44.874169 648.34161,45.54342 646.53979,46.521579 C 644.72082,47.51684 642.9018,49.009794 641.42603,51.154854 C 639.43543,54.123578 637.61642,57.589952 635.96906,61.536793 C 634.15005,65.672416 632.67429,69.790903 631.35292,73.926526 C 629.85998,78.868708 628.71026,83.656442 627.88656,88.11812 C 627.06285,92.734204 626.56519,96.526636 626.56519,99.323767 C 626.56519,99.495405 626.56519,99.495405 626.56519,99.495405 C 626.56519,99.667 626.56519,99.667 626.56519,99.667 C 626.56519,99.821418 626.56519,99.821418 626.56519,99.821418 C 626.56519,99.993011 626.56519,99.993011 626.56519,100.14747 C 626.56519,105.1068 628.3842,108.74477 631.85059,110.88983 C 635.31695,113.1893 638.93778,114.33902 643.07341,114.51061 C 643.22786,114.51061 643.22786,114.51061 643.39946,114.51061 C 643.39946,114.51061 643.39946,114.51061 643.57105,114.51061 C 646.69423,114.51061 649.66296,113.85855 652.47726,112.69165 C 655.2744,111.54189 657.09337,110.04894 658.24311,107.90392 C 658.58632,107.42346 658.91237,106.92581 659.23844,106.42815 C 659.41003,105.93049 659.73607,105.60445 659.90766,105.1068 C 661.70949,101.81202 663.52846,98.002454 665.34747,93.55791 C 667.16648,89.096232 668.64224,84.651743 670.13519,80.190065 C 671.28496,76.397633 672.10861,72.433607 672.77786,68.641184 C 673.42999,64.848752 673.75603,61.536793 673.75603,58.413657 C 673.75603,56.594649 673.60158,54.947241 673.42999,53.454328 C 673.25836,51.978517 672.77786,50.811616 672.28021,49.6619 C 671.45655,47.842893 669.9636,46.367123 667.81859,45.371821 C 665.67352,44.376519 663.20245,43.878867 660.38813,43.878867 C 660.23368,43.878867 660.23368,43.878867 660.06209,43.878867 C 659.90766,43.878867 659.90766,43.878867 659.90766,43.878867 C 659.73607,43.878867 659.73607,43.878867 659.56448,43.878867 C 659.41003,43.878867 659.41003,43.878867 659.23844,43.878867 V 25.568835 C 659.41003,25.568835 659.73607,25.568835 659.90766,25.568835 C 660.06209,25.568835 660.06209,25.568835 660.23368,25.568835 C 669.31149,25.894888 677.89166,27.387842 685.64809,30.030512 C 693.40455,32.673182 697.52304,40.258037 698.34675,52.802222 C 698.34675,52.956677 698.34675,52.956677 698.34675,53.128275 C 698.34675,53.299873 698.34675,53.299873 698.34675,53.299873 C 698.34675,53.454328 698.34675,53.454328 698.34675,53.625926 C 698.34675,53.78034 698.34675,53.78034 698.34675,53.951979 C 698.34675,57.589952 698.02068,62.206085 697.19697,67.817479 C 696.37329,73.583325 695.20637,79.520819 693.55901,85.629855 C 691.74,92.734204 689.26892,99.323767 686.30022,105.60445 C 683.15985,112.03954 679.53905,116.82728 675.40339,120.12204 Z M 719.46677,28.709156 C 719.46677,28.537557 719.29518,28.383145 719.14072,28.039907 C 718.96912,27.885493 718.64307,27.542255 718.47146,27.216244 C 718.317,27.061789 718.317,27.061789 718.14541,26.890191 C 717.97381,26.718593 717.97381,26.718593 717.81935,26.564137 C 717.64776,26.392539 717.32171,26.066486 717.15012,25.894888 C 716.82406,25.740433 716.66961,25.740433 716.498,25.568835 H 742.06684 C 742.23843,25.568835 742.56448,25.568835 743.06213,25.740433 C 743.38819,25.894888 743.7314,26.066486 744.05744,26.238085 C 744.2119,26.238085 744.2119,26.238085 744.3835,26.238085 C 744.3835,26.392539 744.3835,26.392539 744.5551,26.392539 C 744.88114,26.564137 745.20719,26.718593 745.53322,26.890191 C 745.70486,27.061789 746.03086,27.061789 746.2025,27.216244 C 747.02616,27.713895 747.84987,28.383145 748.34753,29.206808 C 748.84516,30.030512 749.17123,31.008671 749.17123,32.175573 L 748.34753,39.108322 L 753.6329,30.854217 C 753.78734,30.682619 753.78734,30.356565 753.95893,30.184967 C 754.11337,30.030512 754.11337,29.858913 754.28498,29.687315 C 754.45657,29.361263 754.78262,29.03521 755.10867,28.709156 C 755.43472,28.537557 755.77793,28.211505 756.10399,28.039907 C 756.25843,27.885493 756.60163,27.713895 756.75609,27.542255 C 756.92768,27.387842 757.25368,27.387842 757.42529,27.216244 C 757.923,27.061789 758.40345,26.718593 758.90111,26.564137 C 759.39874,26.392539 759.7248,26.238085 760.22246,26.066486 C 760.72007,25.894888 761.21775,25.894888 761.71541,25.740433 C 762.21302,25.568835 762.53908,25.568835 763.03673,25.568835 H 783.16577 C 785.3108,25.568835 787.45585,25.894888 789.42927,26.564137 C 791.24827,27.216244 793.06723,28.211505 794.88624,29.532861 C 796.68806,31.008671 798.00943,32.827638 798.83312,34.818242 C 799.65679,36.791663 800,38.936723 800,41.407795 C 800,42.574696 799.82839,43.724412 799.65679,45.045767 C 799.50238,46.367123 799.17632,47.688479 798.83312,49.009794 L 781.34676,122.93636 C 781.34676,124.08607 781.51837,125.08137 781.67281,125.90508 C 781.84441,126.72874 782.17046,127.70691 782.66811,128.5306 C 782.83972,128.70221 782.99416,129.02827 783.16577,129.19986 C 783.32023,129.37146 783.49182,129.69751 783.66343,130.02353 C 783.81787,130.19516 784.14393,130.52117 784.48708,130.67562 C 784.64153,131.01883 784.98474,131.34488 785.13917,131.51647 C 785.3108,131.67093 785.63684,131.67093 785.80843,131.84254 C 785.96289,131.99698 786.13447,131.99698 786.28894,132.16859 H 757.923 C 757.75134,132.16859 757.75134,132.16859 757.57974,131.99698 C 757.42529,131.99698 757.08214,131.99698 756.92768,131.99698 C 756.60163,131.84254 756.25843,131.67093 755.93237,131.51647 C 755.60632,131.34488 755.28027,131.01883 755.10867,130.84724 C 754.93708,130.67562 754.93708,130.52117 754.78262,130.34958 C 754.61102,130.19516 754.61102,130.19516 754.45657,130.02353 C 754.28498,129.85193 754.11337,129.37146 753.95893,128.8738 C 753.78734,128.37616 753.78734,127.70691 753.78734,127.2264 C 753.78734,127.0548 753.78734,127.0548 753.78734,126.8832 C 753.78734,126.72874 753.78734,126.72874 753.78734,126.55715 C 753.95893,126.38555 753.95893,126.0595 754.11337,125.73348 C 754.11337,125.56185 754.11337,125.40743 754.11337,125.23584 L 770.12392,56.423052 C 770.12392,56.268596 770.12392,55.9254 770.12392,55.770945 C 770.12392,55.599347 770.12392,55.444892 770.12392,55.273294 C 769.95233,54.123578 769.79787,52.956677 769.62627,51.80692 C 769.47182,50.811616 769.12863,50.159551 768.80258,49.6619 C 768.30496,48.838196 767.15521,48.168947 765.18179,47.688479 C 763.19117,47.345241 761.04611,47.190786 758.57505,47.190786 C 758.40345,47.190786 758.249,47.190786 758.0774,47.190786 C 757.923,47.190786 757.57974,47.190786 757.42529,47.190786 C 755.77793,47.345241 754.11337,47.51684 752.6376,47.688479 C 751.14465,48.014492 749.82334,48.512142 748.84516,49.009794 C 747.67828,49.335848 746.85456,49.987953 746.2025,50.983256 C 745.53322,51.978517 745.03555,53.299873 744.5551,55.101696 L 727.05158,125.23584 C 727.05158,126.72874 727.22323,127.70691 727.39483,128.20456 C 727.54928,128.70221 727.87528,129.19986 728.21848,129.52592 C 728.37293,129.69751 728.37293,129.69751 728.54454,129.69751 C 728.54454,129.85193 728.54454,129.85193 728.69898,130.02353 C 728.87058,130.19516 728.87058,130.19516 729.04219,130.34958 C 729.19665,130.52117 729.19665,130.67562 729.36824,130.84724 C 729.53984,131.01883 729.86589,131.01883 730.02035,131.17328 C 730.19194,131.34488 730.51799,131.51647 730.68959,131.67093 C 731.01565,131.84254 731.34167,131.84254 731.6849,131.99698 C 731.83931,132.16859 732.16536,132.16859 732.33696,132.16859 H 704.77753 C 704.62311,132.16859 704.45148,132.16859 704.27987,132.16859 C 704.12546,132.16859 703.95385,132.16859 703.78226,132.16859 C 703.13015,131.99698 702.47805,131.84254 701.80879,131.67093 C 701.15669,131.51647 700.65909,131.17328 700.16143,130.84724 C 699.49217,130.34958 699.01167,129.69751 698.66849,129.02827 C 698.34242,128.37616 698.18798,127.55245 698.34242,126.55715 C 698.34242,126.38555 698.34242,126.0595 698.34242,125.90508 C 698.34242,125.73348 698.34242,125.73348 698.34242,125.56185 L 720.29042,34.148993 C 720.29042,33.15369 720.29042,32.175573 720.11883,31.180269 C 719.96437,30.356565 719.63832,29.532861 719.46677,28.709156 Z M 719.46677,28.709156"
       style="fill:#ffffff;fill-opacity:1;fill-rule:nonzero;stroke:none;stroke-width:1.46435"
       aria-label="radathlon" />
  </g>
</svg>
