<?xml version="1.0" encoding="UTF-8" standalone="no"?>
<!-- Created with Inkscape (http://www.inkscape.org/) -->

<svg
   width="80"
   height="80"
   viewBox="0 0 80 80"
   version="1.1"
   id="svg1"
   inkscape:version="1.3 (0e150ed, 2023-07-21)"
   sodipodi:docname="people.svg"
   xmlns:inkscape="http://www.inkscape.org/namespaces/inkscape"
   xmlns:sodipodi="http://sodipodi.sourceforge.net/DTD/sodipodi-0.dtd"
   xmlns="http://www.w3.org/2000/svg"
   xmlns:svg="http://www.w3.org/2000/svg">
  <sodipodi:namedview
     id="namedview1"
     pagecolor="#ffffff"
     bordercolor="#666666"
     borderopacity="1.0"
     inkscape:showpageshadow="2"
     inkscape:pageopacity="0.0"
     inkscape:pagecheckerboard="0"
     inkscape:deskcolor="#d1d1d1"
     inkscape:document-units="px"
     inkscape:zoom="3.1500561"
     inkscape:cx="9.6823672"
     inkscape:cy="32.380376"
     inkscape:window-width="1392"
     inkscape:window-height="1027"
     inkscape:window-x="0"
     inkscape:window-y="25"
     inkscape:window-maximized="0"
     inkscape:current-layer="layer1" />
  <defs
     id="defs1">
    <clipPath
       clipPathUnits="userSpaceOnUse"
       id="clipPath102">
      <path
         d="M 664.8396,865.68457 H 886.82288 V 1093.9209 H 664.8396 Z"
         transform="matrix(2.184399,0,0,2.1735264,-1438.7749,-1873.6271)"
         clip-rule="evenodd"
         id="path102" />
    </clipPath>
  </defs>
  <g
     inkscape:label="Layer 1"
     inkscape:groupmode="layer"
     id="layer1">
    <path
       id="path101"
       d="M 448.23999,264.05099 C 434.138,260.55301 420.052,258.23898 406.02698,257.099 C 426.55698,247.021 441.16098,221.726 441.16098,192.17 C 441.16098,157.14799 420.13498,135.392 386.28699,135.392 C 370.12,135.392 356.888,140.366 347.465,149.368 C 339.55701,143.86999 329.51898,139.52699 317.953,136.65799 C 303.85101,133.15999 289.76501,130.84599 275.73999,129.70698 C 296.26999,119.62898 310.87399,94.333984 310.87399,64.776985 C 310.87399,29.756001 289.84799,8 256,8 C 222.15201,8 201.12601,29.756001 201.12601,64.778 C 201.12601,94.265999 215.664,119.512 236.119,129.63699 C 221.951,130.75299 207.89,133.099 193.98199,136.67499 C 182.254,139.68899 172.40799,143.96498 164.57999,149.41399 C 155.15498,140.38399 141.90599,135.39299 125.71199,135.39299 C 91.863991,135.39299 70.83799,157.14899 70.83799,192.17099 C 70.83799,221.659 85.374992,246.90399 105.83099,257.02899 C 91.663994,258.14499 77.60199,260.491 63.694992,264.06799 C 31.35799,272.38 13.548992,290.10699 13.548992,313.98599 V 408.60901 C 13.548992,413.02701 17.130993,416.60901 21.548992,416.60901 H 143.836 V 496 C 143.836,500.418 147.418,504 151.836,504 H 360.16299 C 364.58099,504 368.16299,500.418 368.16299,496 V 416.608 H 490.45001 C 494.86801,416.608 498.45001,413.026 498.45001,408.608 V 313.98499 C 498.45001,290.16599 480.14899,271.965 448.23999,264.05099 Z M 386.28699,151.393 C 400.806,151.393 425.16098,156.69101 425.16098,192.17101 C 425.16098,221.73001 407.72299,245.77701 386.28699,245.77701 C 364.85098,245.77701 347.41299,221.729 347.41299,192.17101 C 347.41299,180.244 350.172,171.74001 354.37799,165.68901 C 354.73199,165.29301 355.04199,164.87302 355.30298,164.43301 C 363.69,153.577 376.99799,151.393 386.28699,151.393 Z M 217.12601,64.778 C 217.12601,29.298 241.481,24 256,24 C 270.51898,24 294.87399,29.298 294.87399,64.778 C 294.87399,94.336998 277.436,118.385 256,118.385 C 234.564,118.385 217.12601,94.336998 217.12601,64.778 Z M 197.966,152.171 C 235.784,142.44701 274.85602,142.453 314.10199,152.188 C 323.62399,154.55 331.73599,157.98201 337.95798,162.235 C 333.70099,170.58099 331.41397,180.653 331.41397,192.17101 C 331.41397,221.65901 345.95197,246.905 366.40698,257.02899 C 352.23898,258.14499 338.17798,260.491 324.26898,264.06799 C 319.22699,265.36398 314.508,266.91199 310.133,268.69 C 306.164,240.10201 286.189,222.785 256.00101,222.785 C 225.84001,222.785 205.87401,240.07001 201.879,268.612 C 197.47,266.83398 192.726,265.306 187.666,264.05099 C 173.565,260.55301 159.479,258.23898 145.45399,257.099 C 165.98399,247.021 180.588,221.726 180.588,192.17 C 180.588,180.686 178.314,170.64 174.08099,162.308 C 180.285,158.09 188.405,154.62801 197.966,152.171 Z M 217.12601,279.56201 C 217.12601,244.08202 241.481,238.785 256,238.785 C 270.51898,238.785 294.87399,244.082 294.87399,279.56201 C 294.87399,309.121 277.436,333.168 256,333.168 C 234.564,333.168 217.12601,309.12 217.12601,279.56201 Z M 86.838997,192.17 C 86.838997,156.69 111.194,151.392 125.713,151.392 C 135.013,151.392 148.34199,153.582 156.72699,164.47099 C 156.98599,164.90799 157.29199,165.325 157.64198,165.71799 C 161.83598,171.76698 164.58699,180.26199 164.58699,192.16998 C 164.58699,221.72899 147.14899,245.77599 125.71299,245.77599 C 104.27699,245.77599 86.838997,221.729 86.838997,192.17 Z M 29.549999,313.98499 C 29.549999,293.63397 50.283997,284.034 67.679001,279.56299 C 105.496,269.83698 144.56799,269.84399 183.815,279.57999 C 190.396,281.21198 196.271,283.34698 201.366,285.92899 C 203.286,312.64499 217.15399,335.03198 236.11899,344.41998 C 221.952,345.53598 207.88998,347.883 193.98299,351.45999 C 192.81598,351.75998 191.67299,352.07599 190.54399,352.39999 V 335.73801 C 190.54399,331.32001 186.96199,327.73801 182.54399,327.73801 C 178.12599,327.73801 174.54399,331.32001 174.54399,335.73801 V 358.39902 C 154.86699,367.86102 144.15099,382.42001 143.85599,400.60901 H 76.882004 V 335.73801 C 76.882004,331.32001 73.300003,327.73801 68.882004,327.73801 C 64.464005,327.73801 60.882004,331.32001 60.882004,335.73801 V 400.60901 H 29.549999 Z M 352.164,488 H 320.82999 V 423.129 C 320.82999,418.711 317.24799,415.129 312.82999,415.129 C 308.41199,415.129 304.82999,418.711 304.82999,423.129 V 488 H 207.16898 V 423.129 C 207.16898,418.711 203.58698,415.129 199.16898,415.129 C 194.75098,415.129 191.16898,418.711 191.16898,423.129 V 488 H 159.83697 V 401.37701 C 159.83697,381.026 180.57097,371.42603 197.96597,366.95502 C 235.78297,357.229 274.85696,357.23602 314.10199,366.97202 C 328.31699,370.49701 352.164,379.65601 352.164,401.37701 Z M 482.45001,400.608 H 451.117 V 335.737 C 451.117,331.319 447.535,327.737 443.117,327.737 C 438.69901,327.737 435.117,331.319 435.117,335.737 V 400.608 H 368.14502 C 367.84302,382.52802 356.92102,367.74899 337.45602,358.34201 V 335.737 C 337.45602,331.319 333.87402,327.737 329.45602,327.737 C 325.03802,327.737 321.45602,331.319 321.45602,335.737 V 352.37399 C 320.30502,352.05099 319.14203,351.737 317.95303,351.44199 C 303.85202,347.94299 289.76602,345.629 275.74103,344.48999 C 294.75504,335.15601 308.67703,312.767 310.62903,286.02899 C 315.71802,283.44299 321.61703,281.26898 328.25302,279.564 C 366.07101,269.83798 405.14502,269.845 444.38803,279.58099 C 458.60303,283.10599 482.45004,292.26498 482.45004,313.98599 V 400.608 Z"
       style="fill:#000000;fill-opacity:1;fill-rule:nonzero;stroke:none"
       transform="matrix(0.14649338,0,0,0.14722618,2.5014227,2.3100979)"
       clip-path="url(#clipPath102)" />
  </g>
</svg>
