<svg height="80" viewBox="0 0 80 80" width="80" xmlns="http://www.w3.org/2000/svg" xmlns:xlink="http://www.w3.org/1999/xlink"><clipPath id="a"><path clip-rule="evenodd" d="m664.8396 865.68457h221.98328v228.23633h-221.98328z" transform="matrix(2.184399 0 0 2.1735264 -1438.7749 -1873.6271)"/></clipPath><path clip-path="url(#a)" d="m448.23999 264.05099c-14.10199-3.49798-28.18799-5.81201-42.21301-6.95199 20.53-10.078 35.134-35.373 35.134-64.929 0-35.02201-21.026-56.778-54.87399-56.778-16.16699 0-29.39899 4.974-38.82199 13.976-7.90799-5.49801-17.94602-9.84101-29.512-12.71001-14.10199-3.498-28.18799-5.812-42.21301-6.95101 20.53-10.078 35.134-35.372996 35.134-64.929995 0-35.020984-21.026-56.776985-54.87399-56.776985s-54.87399 21.756001-54.87399 56.778c0 29.487999 14.53799 54.734 34.99299 64.85899-14.168 1.116-28.229 3.46201-42.13701 7.038-11.72799 3.014-21.574 7.28999-29.402 12.739-9.42501-9.03-22.674-14.021-38.868-14.021-33.847999 0-54.874 21.756-54.874 56.778 0 29.48801 14.537002 54.733 34.993 64.858-14.166996 1.116-28.229 3.46201-42.135998 7.039-32.337002 8.31201-50.146 26.039-50.146 49.918v94.62302c0 4.418 3.582001 8 8 8h122.287008v79.39099c0 4.418 3.582 8 8 8h208.32699c4.418 0 8-3.582 8-8v-79.392h122.28702c4.418 0 8-3.582 8-8v-94.62301c0-23.819-18.30102-42.01999-50.21002-49.934zm-61.953-112.65799c14.51901 0 38.87399 5.29801 38.87399 40.77801 0 29.559-17.43799 53.606-38.87399 53.606-21.43601 0-38.874-24.04801-38.874-53.606 0-11.92701 2.75901-20.431 6.965-26.482.354-.396.664-.81599.92499-1.256 8.38702-10.85601 21.69501-13.04001 30.98401-13.04001zm-169.16098-86.615c0-35.48 24.35499-40.778 38.87399-40.778 14.51898 0 38.87399 5.298 38.87399 40.778 0 29.558998-17.43799 53.607-38.87399 53.607s-38.87399-24.048002-38.87399-53.607zm-19.16001 87.393c37.818-9.72399 76.89002-9.718 116.13599.017 9.522 2.362 17.634 5.79401 23.85599 10.047-4.25699 8.34599-6.54401 18.418-6.54401 29.93601 0 29.488 14.538 54.73399 34.99301 64.85798-14.168 1.116-28.229 3.46201-42.138 7.039-5.04199 1.29599-9.76098 2.844-14.13598 4.62201-3.969-28.58799-23.944-45.905-54.13199-45.905-30.161 0-50.127 17.28501-54.12201 45.827-4.409-1.77802-9.153-3.306-14.213-4.56101-14.101-3.49798-28.187-5.81201-42.21201-6.95199 20.53-10.078 35.13401-35.373 35.13401-64.929 0-11.484-2.274-21.53-6.50701-29.862 6.20401-4.218 14.32401-7.67999 23.88501-10.137zm19.16001 127.39101c0-35.47999 24.35499-40.77701 38.87399-40.77701 14.51898 0 38.87399 5.297 38.87399 40.77701 0 29.55899-17.43799 53.60599-38.87399 53.60599s-38.87399-24.048-38.87399-53.60599zm-130.287013-87.39201c0-35.48 24.355003-40.778 38.874003-40.778 9.3 0 22.62899 2.19 31.01399 13.07899.259.437.565.85401.91499 1.247 4.194 6.04899 6.94501 14.544 6.94501 26.45199 0 29.55901-17.438 53.60601-38.874 53.60601s-38.873993-24.04699-38.873993-53.60599zm-57.288998 121.81499c0-20.35102 20.733998-29.95099 38.129002-34.422 37.816999-9.72601 76.888989-9.719 116.135999.017 6.581 1.63199 12.456 3.76699 17.551 6.349 1.92 26.716 15.78799 49.10299 34.75299 58.49099-14.16699 1.116-28.22901 3.46302-42.136 7.04001-1.16701.29999-2.31.616-3.439.94v-16.66198c0-4.418-3.582-8-8-8s-8 3.582-8 8v22.66101c-19.677 9.462-30.393 24.02099-30.688 42.20999h-66.973986v-64.871c0-4.418-3.582001-8-8-8s-8 3.582-8 8v64.871h-31.332005zm322.614001 174.01501h-31.33401v-64.871c0-4.418-3.582-8-8-8s-8 3.582-8 8v64.871h-97.66101v-64.871c0-4.418-3.582-8-8-8s-8 3.582-8 8v64.871h-31.33201v-86.62299c0-20.35101 20.734-29.95098 38.129-34.42199 37.817-9.72602 76.89099-9.719 116.13602.017 14.215 3.52499 38.06201 12.68399 38.06201 34.40499zm130.28601-87.392h-31.33301v-64.871c0-4.418-3.582-8-8-8-4.41799 0-8 3.582-8 8v64.871h-66.97198c-.302-18.07998-11.224-32.85901-30.689-42.26599v-22.60501c0-4.418-3.582-8-8-8s-8 3.582-8 8v16.63699c-1.151-.323-2.31399-.63699-3.50299-.932-14.10101-3.499-28.18701-5.81299-42.212-6.952 19.01401-9.33398 32.936-31.72299 34.888-58.461 5.08899-2.586 10.988-4.76001 17.62399-6.46499 37.81799-9.72602 76.892-9.719 116.13501.01699 14.215 3.525 38.06201 12.68399 38.06201 34.405v86.62201z" transform="matrix(.14649338 0 0 .14722618 2.501423 2.310098)"/></svg>