<svg height="48" viewBox="0 0 48 48" width="48" xmlns="http://www.w3.org/2000/svg" xmlns:xlink="http://www.w3.org/1999/xlink"><clipPath id="a"><path clip-rule="evenodd" d="m2557.9329 880.13892h109.4285v109.42835h-109.4285z" transform="matrix(4.3215484 0 0 4.3215484 -11054.431 -3803.563)"/></clipPath><path clip-path="url(#a)" d="m465.03809 472.86523h-457.53809c-4.1420898 0-7.5-3.35742-7.5-7.5v-42.74121c0-71.11035 57.852539-128.96289 128.96289-128.96289h214.61133c71.11133 0 128.96387 57.85254 128.96387 128.96289v42.74121c0 4.14258-3.35743 7.5-7.5 7.5zm-228.76905-199.36914c-75.40332 0-136.748044-61.34472-136.748044-136.74804 0-75.403323 61.344724-136.74805 136.748044-136.74805 75.40284 0 136.74756 61.344727 136.74756 136.74805 0 75.40332-61.34472 136.74804-136.74756 136.74804z" fill="#00963f" transform="matrix(.07404753 0 0 .07404753 6.504861 6.492749)"/></svg>