<svg height="48" viewBox="0 0 48 48" width="48" xmlns="http://www.w3.org/2000/svg" xmlns:xlink="http://www.w3.org/1999/xlink"><clipPath id="a"><path clip-rule="evenodd" d="m2583.0144 1829.965h59.4041v140.6936h-59.4041z" transform="matrix(1.8020154 0 0 1.8124489 -4495.555 -3231.6182)"/></clipPath><path clip-path="url(#a)" d="m240.07899 85.106003h-55.134c-15.90899 0-25.744 11.798996-25.744 26.352997v101.14101 101.14099c0 14.55398 9.83501 26.35299 25.744 26.35299h55.134c15.909 0 25.92-11.79901 25.92-26.35299v-101.14099-101.14101c0-14.554001-10.00999-26.352997-25.92-26.352997zm-54.99398 236.039997c-5.55201 0-10.054-3.401-10.054-7.59601s4.501-7.59601 10.054-7.59601c5.55299 0 10.054 3.401 10.054 7.59601s-4.50101 7.59601-10.054 7.59601zm0-23.20099c-5.55201 0-10.054-3.401-10.054-7.59601s4.501-7.59601 10.054-7.59601c5.55299 0 10.054 3.401 10.054 7.59601s-4.50101 7.59601-10.054 7.59601zm0-21.793c-5.55201 0-10.054-3.401-10.054-7.59601s4.501-7.59601 10.054-7.59601c5.55299 0 10.054 3.401 10.054 7.59601s-4.50101 7.59601-10.054 7.59601zm0-25.06902c-5.55201 0-10.054-3.401-10.054-7.59599s4.501-7.59599 10.054-7.59599c5.55299 0 10.054 3.401 10.054 7.59599s-4.50101 7.59599-10.054 7.59599zm-9.32601-31.46499c0-1.305 1.058-2.36301 2.364-2.36301h13.925c1.305 0 2.36301 1.058 2.36301 2.36301 0 1.30499-1.058 2.363-2.36301 2.363h-13.925c-1.306 0-2.364-1.058-2.364-2.363zm37.04199 101.528c-5.552 0-10.054-3.401-10.054-7.59601s4.50101-7.59601 10.054-7.59601c5.553 0 10.05401 3.401 10.05401 7.59601s-4.501 7.59601-10.05401 7.59601zm0-23.20099c-5.552 0-10.054-3.401-10.054-7.59601s4.50101-7.59601 10.054-7.59601c5.553 0 10.05401 3.401 10.05401 7.59601s-4.501 7.59601-10.05401 7.59601zm0-21.793c-5.552 0-10.054-3.401-10.054-7.59601s4.50101-7.59601 10.054-7.59601c5.553 0 10.05401 3.401 10.05401 7.59601s-4.501 7.59601-10.05401 7.59601zm0-25.06902c-5.552 0-10.054-3.401-10.054-7.59599s4.50101-7.59599 10.054-7.59599c5.553 0 10.05401 3.401 10.05401 7.59599s-4.501 7.59599-10.05401 7.59599zm0-24.545c-5.552 0-10.054-3.401-10.054-7.59599s4.50101-7.59599 10.054-7.59599c5.553 0 10.05401 3.401 10.05401 7.59599s-4.501 7.59599-10.05401 7.59599zm28.627 94.60801c-5.55299 0-10.054-3.401-10.054-7.59601s4.50101-7.59601 10.054-7.59601c5.55201 0 10.054 3.401 10.054 7.59601s-4.50099 7.59601-10.054 7.59601zm0-23.20099c-5.55299 0-10.054-3.401-10.054-7.59601s4.50101-7.59601 10.054-7.59601c5.55201 0 10.054 3.401 10.054 7.59601s-4.50099 7.59601-10.054 7.59601zm0-21.793c-5.55299 0-10.054-3.401-10.054-7.59601s4.50101-7.59601 10.054-7.59601c5.55201 0 10.054 3.401 10.054 7.59601s-4.50099 7.59601-10.054 7.59601zm0-25.06902c-5.55299 0-10.054-3.401-10.054-7.59599s4.50101-7.59599 10.054-7.59599c5.55201 0 10.054 3.401 10.054 7.59599s-4.50099 7.59599-10.054 7.59599zm-10.054-31.46499c0-1.305 1.058-2.36301 2.36301-2.36301h13.925c1.305 0 2.364 1.058 2.364 2.36301 0 1.30499-1.058 2.363-2.364 2.363h-13.925c-1.304 0-2.36301-1.058-2.36301-2.363zm20.45401-97.572v52.60599.844h-.03799c-.39101 9.793-7.51401 17.602-18.87399 17.602h-40.503c-11.36099 0-18.606-7.809-19.003-17.602h-.038v-.844-52.606-.844h.038c.39101-9.793 7.51399-17.602 18.875-17.602h40.502c11.36099 0 18.606 7.809 19.003 17.602h.038v.84401z" fill="#00963f" transform="matrix(.17757894 0 0 .17655669 -13.753281 -13.535952)"/></svg>