<?xml version="1.0" encoding="UTF-8" standalone="no"?>
<!-- Created with Inkscape (http://www.inkscape.org/) -->

<svg
   width="48"
   height="48"
   viewBox="0 0 48 48"
   version="1.1"
   id="svg1"
   inkscape:version="1.3 (0e150ed, 2023-07-21)"
   sodipodi:docname="phone.svg"
   xmlns:inkscape="http://www.inkscape.org/namespaces/inkscape"
   xmlns:sodipodi="http://sodipodi.sourceforge.net/DTD/sodipodi-0.dtd"
   xmlns="http://www.w3.org/2000/svg"
   xmlns:svg="http://www.w3.org/2000/svg">
  <sodipodi:namedview
     id="namedview1"
     pagecolor="#ffffff"
     bordercolor="#666666"
     borderopacity="1.0"
     inkscape:showpageshadow="2"
     inkscape:pageopacity="0.0"
     inkscape:pagecheckerboard="true"
     inkscape:deskcolor="#d1d1d1"
     inkscape:document-units="px"
     inkscape:zoom="8.9097041"
     inkscape:cx="28.452123"
     inkscape:cy="26.487973"
     inkscape:window-width="1392"
     inkscape:window-height="1027"
     inkscape:window-x="338"
     inkscape:window-y="25"
     inkscape:window-maximized="0"
     inkscape:current-layer="layer1" />
  <defs
     id="defs1">
    <clipPath
       clipPathUnits="userSpaceOnUse"
       id="clipPath212">
      <path
         d="M 2557.9329,880.13892 H 2667.3614 V 989.56727 H 2557.9329 Z"
         transform="matrix(4.3215484,0,0,4.3215484,-11054.431,-3803.563)"
         clip-rule="evenodd"
         id="path212" />
    </clipPath>
    <clipPath
       clipPathUnits="userSpaceOnUse"
       id="clipPath208">
      <path
         d="M 2557.9329,1400.8027 H 2667.3614 V 1503.978 H 2557.9329 Z"
         transform="matrix(0.36557034,0,0,0.36830515,-931.1062,-513.92285)"
         clip-rule="evenodd"
         id="path208" />
    </clipPath>
    <clipPath
       clipPathUnits="userSpaceOnUse"
       id="clipPath210">
      <path
         d="M 2583.0144,1829.965 H 2642.4185 V 1970.6586 H 2583.0144 Z"
         transform="matrix(1.8020154,0,0,1.8124489,-4495.555,-3231.6182)"
         clip-rule="evenodd"
         id="path210" />
    </clipPath>
  </defs>
  <g
     inkscape:label="Layer 1"
     inkscape:groupmode="layer"
     id="layer1">
    <path
       id="path209"
       d="M 240.07899,85.106003 H 184.94499 C 169.036,85.106003 159.20099,96.904999 159.20099,111.459 V 212.60001 V 313.741 C 159.20099,328.29498 169.036,340.09399 184.94499,340.09399 H 240.07899 C 255.98799,340.09399 265.99899,328.29498 265.99899,313.741 V 212.60001 V 111.459 C 265.99899,96.904999 255.989,85.106003 240.07899,85.106003 Z M 185.08501,321.146 C 179.533,321.146 175.03101,317.745 175.03101,313.54999 C 175.03101,309.35498 179.53201,305.95398 185.08501,305.95398 C 190.638,305.95398 195.13901,309.35498 195.13901,313.54999 C 195.13901,317.745 190.638,321.146 185.08501,321.146 Z M 185.08501,297.94501 C 179.533,297.94501 175.03101,294.54401 175.03101,290.349 C 175.03101,286.15399 179.53201,282.75299 185.08501,282.75299 C 190.638,282.75299 195.13901,286.15399 195.13901,290.349 C 195.13901,294.54401 190.638,297.94501 185.08501,297.94501 Z M 185.08501,276.15201 C 179.533,276.15201 175.03101,272.75101 175.03101,268.556 C 175.03101,264.36099 179.53201,260.95999 185.08501,260.95999 C 190.638,260.95999 195.13901,264.36099 195.13901,268.556 C 195.13901,272.75101 190.638,276.15201 185.08501,276.15201 Z M 185.08501,251.08299 C 179.533,251.08299 175.03101,247.68199 175.03101,243.487 C 175.03101,239.29201 179.53201,235.89101 185.08501,235.89101 C 190.638,235.89101 195.13901,239.29201 195.13901,243.487 C 195.13901,247.68199 190.638,251.08299 185.08501,251.08299 Z M 175.759,219.618 C 175.759,218.313 176.817,217.25499 178.123,217.25499 H 192.048 C 193.353,217.25499 194.41101,218.31299 194.41101,219.618 C 194.41101,220.92299 193.35301,221.981 192.048,221.981 H 178.123 C 176.817,221.981 175.759,220.923 175.759,219.618 Z M 212.80099,321.146 C 207.24899,321.146 202.74699,317.745 202.74699,313.54999 C 202.74699,309.35498 207.248,305.95398 212.80099,305.95398 C 218.35399,305.95398 222.855,309.35498 222.855,313.54999 C 222.855,317.745 218.354,321.146 212.80099,321.146 Z M 212.80099,297.94501 C 207.24899,297.94501 202.74699,294.54401 202.74699,290.349 C 202.74699,286.15399 207.248,282.75299 212.80099,282.75299 C 218.35399,282.75299 222.855,286.15399 222.855,290.349 C 222.855,294.54401 218.354,297.94501 212.80099,297.94501 Z M 212.80099,276.15201 C 207.24899,276.15201 202.74699,272.75101 202.74699,268.556 C 202.74699,264.36099 207.248,260.95999 212.80099,260.95999 C 218.35399,260.95999 222.855,264.36099 222.855,268.556 C 222.855,272.75101 218.354,276.15201 212.80099,276.15201 Z M 212.80099,251.08299 C 207.24899,251.08299 202.74699,247.68199 202.74699,243.487 C 202.74699,239.29201 207.248,235.89101 212.80099,235.89101 C 218.35399,235.89101 222.855,239.29201 222.855,243.487 C 222.855,247.68199 218.354,251.08299 212.80099,251.08299 Z M 212.80099,226.53799 C 207.24899,226.53799 202.74699,223.13699 202.74699,218.942 C 202.74699,214.74701 207.248,211.34601 212.80099,211.34601 C 218.35399,211.34601 222.855,214.74701 222.855,218.942 C 222.855,223.13699 218.354,226.53799 212.80099,226.53799 Z M 241.42799,321.146 C 235.875,321.146 231.37399,317.745 231.37399,313.54999 C 231.37399,309.35498 235.875,305.95398 241.42799,305.95398 C 246.98,305.95398 251.48199,309.35498 251.48199,313.54999 C 251.48199,317.745 246.981,321.146 241.42799,321.146 Z M 241.42799,297.94501 C 235.875,297.94501 231.37399,294.54401 231.37399,290.349 C 231.37399,286.15399 235.875,282.75299 241.42799,282.75299 C 246.98,282.75299 251.48199,286.15399 251.48199,290.349 C 251.48199,294.54401 246.981,297.94501 241.42799,297.94501 Z M 241.42799,276.15201 C 235.875,276.15201 231.37399,272.75101 231.37399,268.556 C 231.37399,264.36099 235.875,260.95999 241.42799,260.95999 C 246.98,260.95999 251.48199,264.36099 251.48199,268.556 C 251.48199,272.75101 246.981,276.15201 241.42799,276.15201 Z M 241.42799,251.08299 C 235.875,251.08299 231.37399,247.68199 231.37399,243.487 C 231.37399,239.29201 235.875,235.89101 241.42799,235.89101 C 246.98,235.89101 251.48199,239.29201 251.48199,243.487 C 251.48199,247.68199 246.981,251.08299 241.42799,251.08299 Z M 231.37399,219.618 C 231.37399,218.313 232.43199,217.25499 233.737,217.25499 H 247.662 C 248.967,217.25499 250.026,218.31299 250.026,219.618 C 250.026,220.92299 248.968,221.981 247.662,221.981 H 233.737 C 232.433,221.981 231.37399,220.923 231.37399,219.618 Z M 251.828,122.046 V 174.65199 V 175.49599 H 251.79001 C 251.399,185.28899 244.276,193.09799 232.91602,193.09799 H 192.41302 C 181.05203,193.09799 173.80702,185.28899 173.41002,175.49599 H 173.37202 V 174.65199 V 122.04599 V 121.20199 H 173.41002 C 173.80103,111.40899 180.92401,103.59999 192.28502,103.59999 H 232.78702 C 244.14801,103.59999 251.39302,111.40899 251.79002,121.20199 H 251.82802 V 122.046 Z"
       style="fill:#00963f;fill-opacity:1;fill-rule:nonzero;stroke:none"
       transform="matrix(0.17757894,0,0,0.17655669,-13.753281,-13.535952)"
       clip-path="url(#clipPath210)" />
  </g>
</svg>
