<svg height="80" viewBox="0 0 80 80" width="80" xmlns="http://www.w3.org/2000/svg" xmlns:xlink="http://www.w3.org/1999/xlink"><clipPath id="a"><path clip-rule="evenodd" d="m2002.8915 865.68457h265.7545v234.48943h-265.7545z" transform="matrix(.50620565 0 0 .50919155 -1006.1382 -425.49927)"/></clipPath><path clip-path="url(#a)" d="m69.900002 127.6c.300003 1.1-.300004 2.2-1.400002 2.50001-1.599998.39999-3.199997.89999-4.900002 1.3 0 0 0 0-.099998 0l-.900002.2c-.2 0-.299999.1-.5.1-.900001 0-1.7-.6-1.900001-1.5-.299999-1.1.400001-2.2 1.400001-2.4l1-.2h.099999c1.599998-.4 3.199997-.8 4.699997-1.3 1.100006-.30001 2.200004.29999 2.500008 1.29999zm-15.900002 2.00001c-1.599998.39999-3.200001.69999-4.900002 1.1-1.099998.2-1.799999 1.3-1.5 2.4.200001.89999 1 1.6 2 1.6h.400002c1.700001-.39999 3.299999-.7 4.900002-1.1 1.099998-.2 1.7-1.30001 1.5-2.4-.200001-1.09999-1.300004-1.80002-2.400002-1.6zm34.900002-48.500012c.400001.300004.800003.400002 1.199996.400002.599999 0 1.199997-.300003 1.599999-.800003.199997-.199997.400001-.400002.599998-.699997.900002-1 2-2 3.400002-3 .900001-.699997 1.099998-1.900002.400001-2.800003-.699996-.900002-1.900001-1.099999-2.800003-.400002-1.599998 1.199997-3 2.400002-4 3.599999-.300003.300003-.5.599998-.699997.900001-.699996.900002-.599998 2.200005.300004 2.800003zm-8.200005 41.000002c-1.5.5-3.099999 1.1-4.699997 1.6l-.900002.3c-1.099998.3-1.599998 1.5-1.300003 2.5.300003.9 1.099999 1.4 1.900002 1.4.199997 0 .400001 0 .599998-.1l1-.3c1.699997-.5 3.300003-1.1 4.800003-1.6 1-.4 1.599999-1.5 1.199997-2.6-.399993-1-1.599998-1.5-2.599998-1.2zm14.900001-23.1c1.400002 1.2 2.5 2.1 3.5 3.1 0 0 0 0 .099999.1.199997.19999.400001.4.599998.69999.400005.40001.900005.7 1.500005.7.5 0 .9-.2 1.3-.5.8-.7.9-2 .2-2.8-.2-.300005-.5-.500002-.7-.699999 0 0 0 0-.1-.099999-1.1-1.099998-2.400002-2.199997-3.900002-3.5-.900001-.699997-2.099998-.599998-2.800003.300003-.700004.900002-.499992 2.000008.300003 2.700005zm10.400002-32c-1.6.699997-3.2 1.400002-4.7 2.099998-.3.199997-.59999.300004-.9.5-.999998.5-1.4 1.699997-.9 2.699997.400002.699997 1.1 1.099999 1.8 1.099999.30001 0 .6-.099999.90001-.199997.3-.099999.59999-.300003.9-.400002 1.4-.699997 2.9-1.400001 4.4-2 1-.400001 1.5-1.599998 1.1-2.599998-.40001-1.199997-1.60001-1.599999-2.60001-1.199997zm13.4-4.900002c-1.6.5-3.19999 1-4.8 1.599999l-1 .299999c-1 .399998-1.6 1.500004-1.2 2.600002.30001.800004 1.1 1.300004 1.9 1.300004.2 0 .40001 0 .7-.099999l.9-.300003c1.6-.5 3.1-1.099998 4.7-1.599998 1.1-.300004 1.6-1.5 1.3-2.5-.4-1-1.5-1.600003-2.5-1.300004zm-30.700003 30.599999c.199997.300003.5.599998.699997.800003.400001.400002.900001.699997 1.5.699997.5 0 1-.199997 1.300003-.5.800003-.699997.900001-2 .099998-2.800003-.199997-.199997-.400001-.5-.599998-.699997-1-1.199997-1.599999-2.400002-1.900002-3.5-.199997-1.099999-1.300003-1.800003-2.400001-1.5-1.099999.199997-1.800003 1.300003-1.5 2.400001.500008 1.599999 1.400009 3.300004 2.800003 5.099999zm15.500003 14.100003c-1.1-.19999-2.1.40001-2.4 1.5-.2 1.1-.90001 2.2-1.900006 3.40001-.199997.19999-.400002.4-.599999.59999-.800003.80001-.800003 2 0 2.80001.400002.4.900005.6 1.400005.6s1-.2 1.4-.6c.3-.30001.5-.5.7-.80001 1.5-1.69999 2.5-3.4 2.9-5.19999.3-.90001-.4-2.00001-1.5-2.30001zm-11.000003 9.9c-1.300003.69999-2.800003 1.5-4.300003 2.19999 0 0 0 0-.099999 0l-.800003.40001c-1 .4-1.5 1.59999-1 2.59999.300003.7 1.099999 1.2 1.800003 1.2.300003 0 .5-.1.800003-.2l.900002-.4h.099998c1.599999-.8 3.199997-1.5 4.5-2.3 1-.5 1.300004-1.8.800004-2.7-.5-.99999-1.700005-1.39999-2.700005-.79999zm-38.099999-39.899997c0 9.800003-8 17.800003-17.799999 17.800003s-17.799999-8-17.799999-17.800003 8-17.799999 17.799999-17.799999 17.799999 7.999996 17.799999 17.799999zm-4 0c0-7.599998-6.2-13.799999-13.799999-13.799999-7.599998 0-13.799999 6.200001-13.799999 13.799999 0 7.599999 6.200001 13.800003 13.799999 13.800003 7.599999 0 13.799999-6.200004 13.799999-13.800003zm1.400002 34.699997c-4.200001 6.4-8.799999 12.6-13.599998 18.60001-.400002.5-1 .69999-1.599999.69999-.599998 0-1.200001-.3-1.599998-.69999-4.8-6-9.4-12.30001-13.600001-18.6-10.200004-15.300013-13.9000042-24.200007-13.9000042-33.900012 0-12.199996 11.0999992-29.2 29.0999992-29.2s29.000004 16.899997 29.100003 29.100002c-.099999 9.800003-3.700001 18.699997-13.900002 34zm-3.299999-2.2c11-16.599995 13.200001-24.199994 13.200001-31.699994 0-10.5-9.599999-25.200001-25.099999-25.200001s-25 14.600003-25.1 25.100003c0 7.599998 2.2 15.199997 13.199999 31.799992 3.7 5.6 7.7 11.1 11.900001 16.40001 4.199997-5.30001 8.199997-10.80001 11.899998-16.40001zm86.599999-77.9c0 5.800001-4.69999 10.399999-10.4 10.399999-5.7 0-10.4-4.700001-10.4-10.399999 0-5.699999 4.7-10.4 10.4-10.4 5.70001 0 10.4 4.6 10.4 10.4zm-4 0c0-3.5-2.89999-6.4-6.4-6.4s-6.4 2.9-6.4 6.4c0 3.500002 2.9 6.399999 6.4 6.399999 3.49999 0 6.4-2.899997 6.4-6.399999zm10 .399999c0 5.400002-2 10.299999-7.6 18.700001-2.30001 3.400002-4.7 6.799999-7.30001 10-.4.5-1 .700001-1.59999.700001-.6 0-1.2-.299999-1.6-.700001-2.6-3.200001-5.1-6.599998-7.30001-10-5.59999-8.400002-7.5-13.200001-7.59999-18.6 0-6.9 6.3-16.5 16.4-16.5 10.3-.1 16.6 9.5 16.6 16.399999zm-4 0c0-4.5-4.19999-12.5-12.4-12.5-8.3 0-12.4 8-12.4 12.5 0 3.900002 1.1 7.799999 6.9 16.5 1.7 2.599999 3.6 5.200001 5.6 7.799999 2-2.5 3.8-5.099998 5.60001-7.799999 5.5-8.700001 6.69999-12.599998 6.69999-16.5z" transform="matrix(.59021322 0 0 .58675222 -4.265991 -4.03553)"/></svg>