<svg height="80" viewBox="0 0 80 80" width="80" xmlns="http://www.w3.org/2000/svg" xmlns:xlink="http://www.w3.org/1999/xlink"><clipPath id="a"><path clip-rule="evenodd" d="m3380.8684 873.22998h228.2363v228.23632h-228.2363z" transform="matrix(.36891583 0 0 .36891583 -1247.2558 -322.14837)"/></clipPath><path clip-path="url(#a)" d="m76.139999 40c-.127105-2.059017-.439025-4.089649-.935752-6.091888-.496735-2.00224-1.170113-3.943194-2.020134-5.822863-.850029-1.879669-1.862748-3.66717-3.03814-5.362499-1.175392-1.695332-2.494156-3.27064-3.956291-4.725926-1.462143-1.455286-3.043629-2.766636-4.744469-3.934052-1.700836-1.167417-3.493072-2.171719-5.376712-3.012904-1.883641-.841187-3.82774-1.5054373-5.832291-1.9927524-2.004551-.4873143-4.036621-.7896862-6.096211-.907116v-8.1499996h-4.139999v8.1499996c-2.047466.1337586-4.06628.450264-6.056446.9495154-1.990164.4992513-3.919327 1.173136-5.787489 2.021651-1.868162.848516-3.644955 1.857869-5.330379 3.028063-1.685423 1.170194-3.252081 2.482204-4.699973 3.936031-1.447893 1.453825-2.753484 3.025837-3.916775 4.716032-1.16329 1.690196-2.165369 3.471102-3.006236 5.342719-.840868 1.871614-1.5068564 3.803516-1.9979643 5.795709-.4911089 1.992191-.7993555 4.012283-.924738 6.06028h-8.2799997v4.169998h8.2799997c.1265459 2.047131.4357987 4.066277.9277582 6.057438.4919596 1.991161 1.1586341 3.922001 2.0000241 5.792511.841389 1.87051 1.843828 3.650318 3.007315 5.339417 1.163489 1.689098 2.469128 3.260051 3.916916 4.712856 1.44779 1.452812 3.014214 2.763885 4.699272 3.933212 1.685061 1.169327 3.461384 2.177925 5.328972 3.025787 1.867586.847863 3.796105 1.52121 5.785551 2.020058 1.989449.498848 4.007512.815094 6.054192.948723v8.150002h4.169998v-8.150002c2.05959-.117432 4.09166-.419807 6.096211-.90712 2.004551-.487312 3.948646-1.151565 5.832286-1.992752 1.883641-.841194 3.675881-1.845489 5.376713-3.012901 1.70084-1.16742 3.28233-2.478768 4.744465-3.934052s2.780907-3.030597 3.956299-4.725929c1.1754-1.695335 2.188118-3.482838 3.038147-5.362503.850029-1.879669 1.523407-3.820621 2.020134-5.822861.496727-2.002239.808639-4.032867.935745-6.09188h8v-4.150002zm-3.629997 4.169998c-.12545 1.819775-.412582 3.613671-.861381 5.381687-.4488 1.768017-1.052033 3.481671-1.809716 5.140953-.757667 1.659287-1.657577 3.237473-2.699722 4.734555-1.042137 1.497081-2.209709 2.888939-3.502727 4.175567-1.293015 1.286637-2.690632 2.447312-4.192856 3.482025-1.502224 1.034714-3.084843 1.926796-4.747864 2.676239-1.663014.749459-3.379631 1.344208-5.149849 1.784249-1.770222.44004-3.565517.718277-5.385887.834724v-13.589996h-4.16v13.580002c-1.808575-.13292-3.590969-.425385-5.347187-.877388-1.756214-.452004-3.458336-1.056351-5.10636-1.813057-1.648027-.756706-3.215759-1.65374-4.703197-2.691101-1.487442-1.037361-2.870945-2.198563-4.150511-3.483589-1.279566-1.285035-2.434854-2.673478-3.465866-4.165326-1.03101-1.491848-1.921353-3.063392-2.67103-4.714626-.749676-1.651237-1.346767-3.355919-1.791276-5.114044-.444508-1.758129-.729366-3.541752-.854573-5.350872h13.450001v-4.16h-13.450001c.124636-1.809551.408998-3.593651.853089-5.352291.44409-1.758637 1.040844-3.46385 1.790263-5.115639.749421-1.651783 1.639588-3.223873 2.6705-4.71627 1.030913-1.492396 2.186176-2.881363 3.465792-4.166903 1.279617-1.285538 2.663236-2.447203 4.150856-3.484995 1.487619-1.037792 3.055584-1.935207 4.70389-2.692246 1.648306-.757037 3.350744-1.361658 5.107317-1.813863 1.756569-.452206 3.539333-.744803 5.348293-.877793v13.580001h4.169998v-13.59c1.820721.117156 3.616287.39617 5.386704.83704 1.77042.440871 3.487144 1.036491 5.150177 1.78686 1.663036.750371 3.245571 1.643393 4.747608 2.67907 1.502033 1.035677 2.899357 2.197314 4.191967 3.484906s2.459671 2.680387 3.501182 4.178384c1.041512 1.497996 1.940682 3.077046 2.697518 4.737151.756828 1.660104 1.359123 3.3745 1.806877 5.143188.447746 1.768688.733734 3.563152.857971 5.3834h-13.720001v4.169998z" transform="matrix(.86740649 0 0 .86740649 3.495168 3.503871)"/></svg>